G04*
G04 #@! TF.GenerationSoftware,Altium Limited,Altium Designer,18.1.11 (251)*
G04*
G04 Layer_Color=8388736*
%FSLAX25Y25*%
%MOIN*%
G70*
G01*
G75*
%ADD40R,0.12402X0.04528*%
%ADD41R,0.25787X0.22441*%
%ADD42R,0.04134X0.03937*%
%ADD43R,0.05118X0.13386*%
%ADD44R,0.22244X0.17520*%
%ADD45R,0.03740X0.03740*%
%ADD46R,0.15551X0.04724*%
%ADD47R,0.35630X0.41339*%
%ADD48O,0.05906X0.01772*%
%ADD49R,0.03937X0.04134*%
%ADD50C,0.08465*%
%ADD51R,0.12992X0.10236*%
%ADD52R,0.07284X0.10433*%
%ADD53R,0.13976X0.07874*%
%ADD54O,0.02559X0.05906*%
%ADD55R,0.10630X0.10236*%
%ADD56R,0.06299X0.05709*%
%ADD57R,0.04724X0.04528*%
%ADD58R,0.03740X0.03740*%
%ADD59R,0.05709X0.06299*%
%ADD60O,0.04091X0.02244*%
%ADD61R,0.04528X0.04724*%
%ADD62R,0.05906X0.04528*%
%ADD63C,0.20276*%
%ADD64C,0.06591*%
%ADD65C,0.10433*%
%ADD66C,0.12795*%
%ADD67C,0.06890*%
%ADD68C,0.05800*%
%ADD69C,0.03556*%
%ADD70C,0.08674*%
G36*
X257874Y166535D02*
X257874Y114961D01*
X210630Y114961D01*
X210630Y184252D01*
X240158D01*
X257874Y166535D01*
D02*
G37*
D40*
X193602Y293563D02*
D03*
Y275532D02*
D03*
D41*
X218996Y284547D02*
D03*
D42*
X153937Y315650D02*
D03*
Y309547D02*
D03*
X159646Y182874D02*
D03*
Y188976D02*
D03*
X153937Y299902D02*
D03*
Y293799D02*
D03*
X277848Y21276D02*
D03*
Y27378D02*
D03*
X265354Y21358D02*
D03*
Y27461D02*
D03*
X196457Y165157D02*
D03*
Y159055D02*
D03*
X203150D02*
D03*
Y165157D02*
D03*
X140650Y67520D02*
D03*
Y73622D02*
D03*
D43*
X250000Y143307D02*
D03*
X273622D02*
D03*
D44*
X271358Y271457D02*
D03*
X311319D02*
D03*
D45*
X358268Y85039D02*
D03*
X351969D02*
D03*
X353445Y359547D02*
D03*
X359744D02*
D03*
D46*
X218110Y109291D02*
D03*
Y129291D02*
D03*
D47*
X178740Y119291D02*
D03*
D48*
X252981Y36295D02*
D03*
Y38264D02*
D03*
X270501Y36295D02*
D03*
Y38264D02*
D03*
Y40232D02*
D03*
Y42201D02*
D03*
Y44169D02*
D03*
X252981Y40232D02*
D03*
Y42201D02*
D03*
Y44169D02*
D03*
D49*
X189370Y159055D02*
D03*
X183268D02*
D03*
X153543Y170472D02*
D03*
X159646D02*
D03*
X288040Y55724D02*
D03*
X294143D02*
D03*
X288287Y46276D02*
D03*
X294390D02*
D03*
X288418Y36614D02*
D03*
X294521D02*
D03*
X352067Y77953D02*
D03*
X358169D02*
D03*
X353740Y370177D02*
D03*
X359842D02*
D03*
D50*
X356299Y385827D02*
D03*
X367764Y81102D02*
D03*
D51*
X219291Y309252D02*
D03*
Y331693D02*
D03*
D52*
X227165Y77953D02*
D03*
Y62205D02*
D03*
D53*
X157973Y250886D02*
D03*
X179823D02*
D03*
D54*
X171555Y309941D02*
D03*
X168996D02*
D03*
X166437D02*
D03*
X163878D02*
D03*
X171555Y292421D02*
D03*
X168996D02*
D03*
X166437D02*
D03*
X163878D02*
D03*
D55*
X187106Y340551D02*
D03*
X163287D02*
D03*
D56*
X190945Y313779D02*
D03*
Y320079D02*
D03*
D57*
X159547Y176378D02*
D03*
X153642D02*
D03*
D58*
X140551Y58661D02*
D03*
Y52362D02*
D03*
D59*
X175975Y158554D02*
D03*
X169676D02*
D03*
X294241Y25409D02*
D03*
X287942D02*
D03*
D60*
X187823Y166043D02*
D03*
Y168602D02*
D03*
Y171161D02*
D03*
Y173721D02*
D03*
Y176279D02*
D03*
Y178839D02*
D03*
X171232Y166043D02*
D03*
Y168602D02*
D03*
Y171161D02*
D03*
Y173721D02*
D03*
Y176279D02*
D03*
Y178839D02*
D03*
D61*
X196457Y179725D02*
D03*
Y173819D02*
D03*
X147539Y315551D02*
D03*
Y309646D02*
D03*
D62*
X171232Y189370D02*
D03*
Y196457D02*
D03*
D63*
X377953Y15748D02*
D03*
X114173D02*
D03*
Y377953D02*
D03*
X377953D02*
D03*
D64*
X367764Y244606D02*
D03*
Y284606D02*
D03*
Y254606D02*
D03*
Y264606D02*
D03*
Y274606D02*
D03*
Y294606D02*
D03*
Y304606D02*
D03*
Y314606D02*
D03*
Y324606D02*
D03*
Y334606D02*
D03*
X377764D02*
D03*
Y324606D02*
D03*
Y314606D02*
D03*
Y304606D02*
D03*
Y284606D02*
D03*
Y294606D02*
D03*
Y274606D02*
D03*
Y254606D02*
D03*
Y264606D02*
D03*
Y244606D02*
D03*
X367764Y109528D02*
D03*
Y149528D02*
D03*
Y119528D02*
D03*
Y129528D02*
D03*
Y139528D02*
D03*
Y159528D02*
D03*
Y169528D02*
D03*
Y179528D02*
D03*
Y189528D02*
D03*
Y199528D02*
D03*
X377764D02*
D03*
Y189528D02*
D03*
Y179528D02*
D03*
Y169528D02*
D03*
Y149528D02*
D03*
Y159528D02*
D03*
Y139528D02*
D03*
Y119528D02*
D03*
Y129528D02*
D03*
Y109528D02*
D03*
D65*
X205118Y84260D02*
D03*
Y62606D02*
D03*
X166929Y84260D02*
D03*
Y62606D02*
D03*
D66*
X205118Y33866D02*
D03*
X166929D02*
D03*
X373243Y49047D02*
D03*
D67*
X330290Y42158D02*
D03*
Y55937D02*
D03*
X342101D02*
D03*
Y42158D02*
D03*
D68*
X347244Y370177D02*
D03*
X168996Y318406D02*
D03*
X183268Y293602D02*
D03*
X167323Y284646D02*
D03*
X158661Y286614D02*
D03*
X151575D02*
D03*
X249152Y21260D02*
D03*
X176772Y166929D02*
D03*
X153937Y161417D02*
D03*
X203154Y173622D02*
D03*
X352067Y71752D02*
D03*
X237500Y109528D02*
D03*
X138976Y247638D02*
D03*
Y255118D02*
D03*
X145669Y241339D02*
D03*
Y260630D02*
D03*
X199803Y332677D02*
D03*
X182087Y322835D02*
D03*
X199803Y342520D02*
D03*
X226378D02*
D03*
X212598D02*
D03*
X199803Y322835D02*
D03*
X179921Y196457D02*
D03*
X153937Y184646D02*
D03*
X182283Y166929D02*
D03*
X283005Y20472D02*
D03*
X245276Y42126D02*
D03*
X343701Y241732D02*
D03*
X278346Y36220D02*
D03*
D69*
X288418Y41339D02*
D03*
Y50787D02*
D03*
X288040Y60630D02*
D03*
D70*
X326772Y85039D02*
D03*
M02*
