G04*
G04 #@! TF.GenerationSoftware,Altium Limited,Altium Designer,18.1.11 (251)*
G04*
G04 Layer_Color=16711935*
%FSLAX25Y25*%
%MOIN*%
G70*
G01*
G75*
%ADD63C,0.20276*%
%ADD64C,0.06591*%
%ADD65C,0.10433*%
%ADD66C,0.12795*%
%ADD67C,0.06890*%
%ADD68C,0.05800*%
%ADD69C,0.03556*%
%ADD70C,0.08674*%
D63*
X377953Y15748D02*
D03*
X114173D02*
D03*
Y377953D02*
D03*
X377953D02*
D03*
D64*
X367764Y244606D02*
D03*
Y284606D02*
D03*
Y254606D02*
D03*
Y264606D02*
D03*
Y274606D02*
D03*
Y294606D02*
D03*
Y304606D02*
D03*
Y314606D02*
D03*
Y324606D02*
D03*
Y334606D02*
D03*
X377764D02*
D03*
Y324606D02*
D03*
Y314606D02*
D03*
Y304606D02*
D03*
Y284606D02*
D03*
Y294606D02*
D03*
Y274606D02*
D03*
Y254606D02*
D03*
Y264606D02*
D03*
Y244606D02*
D03*
X367764Y109528D02*
D03*
Y149528D02*
D03*
Y119528D02*
D03*
Y129528D02*
D03*
Y139528D02*
D03*
Y159528D02*
D03*
Y169528D02*
D03*
Y179528D02*
D03*
Y189528D02*
D03*
Y199528D02*
D03*
X377764D02*
D03*
Y189528D02*
D03*
Y179528D02*
D03*
Y169528D02*
D03*
Y149528D02*
D03*
Y159528D02*
D03*
Y139528D02*
D03*
Y119528D02*
D03*
Y129528D02*
D03*
Y109528D02*
D03*
D65*
X205118Y84260D02*
D03*
Y62606D02*
D03*
X166929Y84260D02*
D03*
Y62606D02*
D03*
D66*
X205118Y33866D02*
D03*
X166929D02*
D03*
X373243Y49047D02*
D03*
D67*
X330290Y42158D02*
D03*
Y55937D02*
D03*
X342101D02*
D03*
Y42158D02*
D03*
D68*
X347244Y370177D02*
D03*
X168996Y318406D02*
D03*
X183268Y293602D02*
D03*
X167323Y284646D02*
D03*
X158661Y286614D02*
D03*
X151575D02*
D03*
X249152Y21260D02*
D03*
X176772Y166929D02*
D03*
X153937Y161417D02*
D03*
X203154Y173622D02*
D03*
X352067Y71752D02*
D03*
X237500Y109528D02*
D03*
X138976Y247638D02*
D03*
Y255118D02*
D03*
X145669Y241339D02*
D03*
Y260630D02*
D03*
X199803Y332677D02*
D03*
X182087Y322835D02*
D03*
X199803Y342520D02*
D03*
X226378D02*
D03*
X212598D02*
D03*
X199803Y322835D02*
D03*
X179921Y196457D02*
D03*
X153937Y184646D02*
D03*
X182283Y166929D02*
D03*
X283005Y20472D02*
D03*
X245276Y42126D02*
D03*
X343701Y241732D02*
D03*
X278346Y36220D02*
D03*
D69*
X288418Y41339D02*
D03*
Y50787D02*
D03*
X288040Y60630D02*
D03*
D70*
X326772Y85039D02*
D03*
M02*
