G04*
<<<<<<< HEAD
G04 #@! TF.GenerationSoftware,Altium Limited,Altium Designer,22.2.1 (43)*
=======
G04 #@! TF.GenerationSoftware,Altium Limited,Altium Designer,20.2.6 (244)*
>>>>>>> 4e0b3683575d4fa8bc2fa5a38cc8482e5bfbb278
G04*
G04 Layer_Color=8421504*
%FSLAX25Y25*%
%MOIN*%
G70*
G04*
<<<<<<< HEAD
G04 #@! TF.SameCoordinates,349ACB13-1475-4CFD-A425-034749F407B6*
=======
G04 #@! TF.SameCoordinates,39F16B55-C1F7-43D0-B861-395FF0F2765C*
>>>>>>> 4e0b3683575d4fa8bc2fa5a38cc8482e5bfbb278
G04*
G04*
G04 #@! TF.FilePolarity,Positive*
G04*
G01*
G75*
%ADD15R,0.05118X0.03386*%
<<<<<<< HEAD
%ADD16R,0.03937X0.04331*%
%ADD17R,0.03937X0.04134*%
%ADD18C,0.07874*%
%ADD19R,0.03937X0.03150*%
%ADD20R,0.05118X0.05709*%
%ADD21R,0.03543X0.03347*%
%ADD22R,0.03347X0.03543*%
%ADD23R,0.02047X0.04803*%
%ADD24R,0.01968X0.03543*%
D15*
X118366Y37157D02*
D03*
Y47000D02*
D03*
Y56842D02*
D03*
X72500Y37157D02*
D03*
Y47000D02*
D03*
Y56842D02*
D03*
D16*
X127398Y37157D02*
D03*
X139602D02*
D03*
D17*
X161024Y43063D02*
D03*
Y37157D02*
D03*
X153969Y43063D02*
D03*
Y37157D02*
D03*
X146787Y43063D02*
D03*
Y37157D02*
D03*
D18*
X27201Y27000D02*
D03*
X62094Y68937D02*
D03*
X127398Y25197D02*
D03*
X16965Y27000D02*
D03*
X58500Y7087D02*
D03*
X176413Y49000D02*
D03*
Y23622D02*
D03*
D19*
X62094Y59598D02*
D03*
X48906D02*
D03*
D20*
X29563Y47000D02*
D03*
X23264D02*
D03*
D21*
X62000Y40898D02*
D03*
Y47000D02*
D03*
X48020Y25551D02*
D03*
Y19449D02*
D03*
X54000D02*
D03*
Y25551D02*
D03*
X66000Y19449D02*
D03*
Y25551D02*
D03*
D22*
X170311Y37157D02*
D03*
X176413D02*
D03*
D23*
X48020Y47000D02*
D03*
X55500D02*
D03*
Y36685D02*
D03*
X51760D02*
D03*
X48020D02*
D03*
D24*
X37063Y55661D02*
D03*
Y47000D02*
=======
%ADD16C,0.07874*%
%ADD17R,0.03347X0.03543*%
%ADD18R,0.03937X0.04134*%
%ADD19R,0.02047X0.04803*%
%ADD20R,0.03543X0.03347*%
%ADD21R,0.03937X0.03150*%
%ADD22R,0.01968X0.03543*%
%ADD23R,0.03937X0.04331*%
%ADD24R,0.05118X0.05709*%
D15*
X218366Y137157D02*
D03*
Y147000D02*
D03*
Y156843D02*
D03*
X172500Y137157D02*
D03*
Y147000D02*
D03*
Y156843D02*
D03*
D16*
X162094Y165000D02*
D03*
X227500Y146500D02*
D03*
X127201Y136000D02*
D03*
X158500Y107087D02*
D03*
X264602Y149000D02*
D03*
Y123622D02*
D03*
X127201Y127000D02*
D03*
D17*
X258500Y137157D02*
D03*
X264602D02*
D03*
D18*
X252000Y143063D02*
D03*
Y137157D02*
D03*
X246000Y143063D02*
D03*
Y137157D02*
D03*
D19*
X148020Y147000D02*
D03*
X155500D02*
D03*
Y136685D02*
D03*
X151760D02*
D03*
X148020D02*
D03*
D20*
Y125551D02*
D03*
Y119449D02*
D03*
X162000Y147000D02*
D03*
Y140898D02*
D03*
X154000Y119449D02*
D03*
Y125551D02*
D03*
X166000Y119449D02*
D03*
Y125551D02*
D03*
D21*
X148906Y155661D02*
D03*
X162094D02*
D03*
D22*
X141000D02*
D03*
Y147000D02*
D03*
D23*
X239602Y137157D02*
D03*
X227398D02*
D03*
D24*
X127201Y147000D02*
D03*
X133500D02*
>>>>>>> 4e0b3683575d4fa8bc2fa5a38cc8482e5bfbb278
D03*
M02*
