G04*
G04 #@! TF.GenerationSoftware,Altium Limited,Altium Designer,20.2.6 (244)*
G04*
G04 Layer_Physical_Order=1*
G04 Layer_Color=255*
%FSLAX25Y25*%
%MOIN*%
G70*
G04*
G04 #@! TF.SameCoordinates,39F16B55-C1F7-43D0-B861-395FF0F2765C*
G04*
G04*
G04 #@! TF.FilePolarity,Positive*
G04*
G01*
G75*
%ADD13C,0.01000*%
%ADD15R,0.05118X0.03386*%
%ADD16C,0.07874*%
%ADD17R,0.03347X0.03543*%
%ADD18R,0.03937X0.04134*%
%ADD19R,0.02047X0.04803*%
%ADD20R,0.03543X0.03347*%
%ADD21R,0.03937X0.03150*%
%ADD22R,0.01968X0.03543*%
%ADD23R,0.03937X0.04331*%
%ADD24R,0.05118X0.05709*%
%ADD36C,0.00600*%
%ADD37C,0.01600*%
%ADD38C,0.00900*%
%ADD39C,0.06693*%
%ADD40C,0.02953*%
D13*
X246000Y143063D02*
Y149000D01*
X252000Y143063D02*
Y149000D01*
D15*
X218366Y137157D02*
D03*
Y147000D02*
D03*
Y156843D02*
D03*
X172500Y137157D02*
D03*
Y147000D02*
D03*
Y156843D02*
D03*
D16*
X162094Y165000D02*
D03*
X227500Y146500D02*
D03*
X127201Y136000D02*
D03*
X158500Y107087D02*
D03*
X264602Y149000D02*
D03*
Y123622D02*
D03*
X127201Y127000D02*
D03*
D17*
X258500Y137157D02*
D03*
X264602D02*
D03*
D18*
X252000Y143063D02*
D03*
Y137157D02*
D03*
X246000Y143063D02*
D03*
Y137157D02*
D03*
D19*
X148020Y147000D02*
D03*
X155500D02*
D03*
Y136685D02*
D03*
X151760D02*
D03*
X148020D02*
D03*
D20*
Y125551D02*
D03*
Y119449D02*
D03*
X162000Y147000D02*
D03*
Y140898D02*
D03*
X154000Y119449D02*
D03*
Y125551D02*
D03*
X166000Y119449D02*
D03*
Y125551D02*
D03*
D21*
X148906Y155661D02*
D03*
X162094D02*
D03*
D22*
X141000D02*
D03*
Y147000D02*
D03*
D23*
X239602Y137157D02*
D03*
X227398D02*
D03*
D24*
X127201Y147000D02*
D03*
X133500D02*
D03*
D36*
X127201Y127000D02*
X128181D01*
X127114Y135913D02*
X127201Y136000D01*
X120953Y135913D02*
X127114D01*
X120866Y135827D02*
X120953Y135913D01*
X158500Y107087D02*
Y113587D01*
X227398Y137157D02*
X227500Y137260D01*
X154000Y125551D02*
X158500D01*
X148020D02*
X154000D01*
X162000Y147000D02*
X162094Y147095D01*
X148020Y125551D02*
Y136685D01*
D37*
X133500Y132319D02*
Y147000D01*
X128181Y127000D02*
X133500Y132319D01*
X127201Y109500D02*
Y127000D01*
X117201Y109500D02*
X127201D01*
X254602Y109449D02*
X264602D01*
Y123622D01*
Y137157D01*
X218366Y156843D02*
X233315D01*
X241158Y149000D01*
X246000D01*
X252000D01*
X264602D02*
Y168504D01*
X252000Y149000D02*
X264602D01*
X254602Y168504D02*
X264602D01*
X141000Y113331D02*
X143307Y111024D01*
X151575D01*
X141000Y113331D02*
Y147000D01*
X154000Y113449D02*
Y119449D01*
X151575Y111024D02*
X154000Y113449D01*
X162094Y155661D02*
Y165000D01*
X227500Y137260D02*
Y146500D01*
X252000Y137157D02*
X258500D01*
X246000D02*
X252000D01*
X239602D02*
X246000D01*
X218366D02*
X227398D01*
X151760Y131500D02*
Y136685D01*
X121500Y147000D02*
X127201D01*
X167657Y137157D02*
X172500D01*
X162094Y147095D02*
Y155661D01*
X141000D02*
X148906D01*
X162000Y147000D02*
X172500D01*
X155500D02*
X162000D01*
X141000D02*
X148020D01*
X133500D02*
X141000D01*
X154000Y119449D02*
X166000D01*
Y135500D02*
X167657Y137157D01*
X166000Y125551D02*
Y135500D01*
D38*
X148020Y114961D02*
Y119449D01*
X162000Y137500D02*
Y140898D01*
X155500Y136685D02*
X161185D01*
X162000Y137500D01*
D39*
X264602Y168504D02*
D03*
X254602D02*
D03*
X127201Y109500D02*
D03*
X117201D02*
D03*
Y161811D02*
D03*
X127201D02*
D03*
X254602Y109449D02*
D03*
X264602D02*
D03*
D40*
X120866Y135827D02*
D03*
X148020Y114961D02*
D03*
X158500Y113587D02*
D03*
Y125551D02*
D03*
X121500Y147000D02*
D03*
X151760Y131500D02*
D03*
X252000Y149000D02*
D03*
X246000D02*
D03*
M02*
