G04*
G04 #@! TF.GenerationSoftware,Altium Limited,Altium Designer,20.2.6 (244)*
G04*
G04 Layer_Color=8421504*
%FSLAX25Y25*%
%MOIN*%
G70*
G04*
G04 #@! TF.SameCoordinates,39F16B55-C1F7-43D0-B861-395FF0F2765C*
G04*
G04*
G04 #@! TF.FilePolarity,Positive*
G04*
G01*
G75*
%ADD15R,0.05118X0.03386*%
%ADD16C,0.07874*%
%ADD17R,0.03347X0.03543*%
%ADD18R,0.03937X0.04134*%
%ADD19R,0.02047X0.04803*%
%ADD20R,0.03543X0.03347*%
%ADD21R,0.03937X0.03150*%
%ADD22R,0.01968X0.03543*%
%ADD23R,0.03937X0.04331*%
%ADD24R,0.05118X0.05709*%
D15*
X218366Y137157D02*
D03*
Y147000D02*
D03*
Y156843D02*
D03*
X172500Y137157D02*
D03*
Y147000D02*
D03*
Y156843D02*
D03*
D16*
X162094Y165000D02*
D03*
X227500Y146500D02*
D03*
X127201Y136000D02*
D03*
X158500Y107087D02*
D03*
X264602Y149000D02*
D03*
Y123622D02*
D03*
X127201Y127000D02*
D03*
D17*
X258500Y137157D02*
D03*
X264602D02*
D03*
D18*
X252000Y143063D02*
D03*
Y137157D02*
D03*
X246000Y143063D02*
D03*
Y137157D02*
D03*
D19*
X148020Y147000D02*
D03*
X155500D02*
D03*
Y136685D02*
D03*
X151760D02*
D03*
X148020D02*
D03*
D20*
Y125551D02*
D03*
Y119449D02*
D03*
X162000Y147000D02*
D03*
Y140898D02*
D03*
X154000Y119449D02*
D03*
Y125551D02*
D03*
X166000Y119449D02*
D03*
Y125551D02*
D03*
D21*
X148906Y155661D02*
D03*
X162094D02*
D03*
D22*
X141000D02*
D03*
Y147000D02*
D03*
D23*
X239602Y137157D02*
D03*
X227398D02*
D03*
D24*
X127201Y147000D02*
D03*
X133500D02*
D03*
M02*
