G04*
<<<<<<< HEAD
G04 #@! TF.GenerationSoftware,Altium Limited,Altium Designer,22.2.1 (43)*
=======
G04 #@! TF.GenerationSoftware,Altium Limited,Altium Designer,20.2.6 (244)*
>>>>>>> 4e0b3683575d4fa8bc2fa5a38cc8482e5bfbb278
G04*
G04 Layer_Physical_Order=2*
G04 Layer_Color=16711680*
%FSLAX25Y25*%
%MOIN*%
G70*
G04*
<<<<<<< HEAD
G04 #@! TF.SameCoordinates,349ACB13-1475-4CFD-A425-034749F407B6*
=======
G04 #@! TF.SameCoordinates,39F16B55-C1F7-43D0-B861-395FF0F2765C*
>>>>>>> 4e0b3683575d4fa8bc2fa5a38cc8482e5bfbb278
G04*
G04*
G04 #@! TF.FilePolarity,Positive*
G04*
G01*
G75*
<<<<<<< HEAD
%ADD37C,0.00600*%
%ADD39C,0.06693*%
%ADD40C,0.02953*%
G36*
X76378Y1020D02*
X1020D01*
Y73784D01*
X76378D01*
Y1020D01*
D02*
G37*
G36*
X184020D02*
X114567D01*
Y73784D01*
X184020D01*
Y1020D01*
=======
%ADD36C,0.00600*%
%ADD39C,0.06693*%
%ADD40C,0.02953*%
G36*
X176378Y174000D02*
Y100803D01*
X100803Y100803D01*
Y174000D01*
X176378Y174000D01*
D02*
G37*
G36*
X272426Y174000D02*
X272426Y100803D01*
X214567Y100803D01*
Y174000D01*
X272426Y174000D01*
>>>>>>> 4e0b3683575d4fa8bc2fa5a38cc8482e5bfbb278
D02*
G37*
%LPC*%
G36*
<<<<<<< HEAD
X20121Y66536D02*
Y62605D01*
X24052D01*
X23955Y63339D01*
X23517Y64397D01*
X22820Y65305D01*
X21913Y66001D01*
X20855Y66439D01*
X20121Y66536D01*
D02*
G37*
G36*
X10120D02*
Y62605D01*
X14052D01*
X13955Y63339D01*
X13517Y64397D01*
X12820Y65305D01*
X11912Y66001D01*
X10855Y66439D01*
X10120Y66536D01*
D02*
G37*
G36*
X19320D02*
X18586Y66439D01*
X17528Y66001D01*
X16621Y65305D01*
X15924Y64397D01*
X15486Y63339D01*
X15389Y62605D01*
X19320D01*
Y66536D01*
D02*
G37*
G36*
X9320D02*
X8586Y66439D01*
X7529Y66001D01*
X6621Y65305D01*
X5924Y64397D01*
X5486Y63339D01*
X5389Y62605D01*
X9320D01*
Y66536D01*
D02*
G37*
G36*
X24052Y61805D02*
X20121D01*
Y57873D01*
X20855Y57970D01*
X21913Y58408D01*
X22820Y59105D01*
X23517Y60013D01*
X23955Y61070D01*
X24052Y61805D01*
D02*
G37*
G36*
X14052D02*
X10120D01*
Y57873D01*
X10855Y57970D01*
X11912Y58408D01*
X12820Y59105D01*
X13517Y60013D01*
X13955Y61070D01*
X14052Y61805D01*
D02*
G37*
G36*
X19320D02*
X15389D01*
X15486Y61070D01*
X15924Y60013D01*
X16621Y59105D01*
X17528Y58408D01*
X18586Y57970D01*
X19320Y57873D01*
Y61805D01*
D02*
G37*
G36*
X9320D02*
X5389D01*
X5486Y61070D01*
X5924Y60013D01*
X6621Y59105D01*
X7529Y58408D01*
X8586Y57970D01*
X9320Y57873D01*
Y61805D01*
D02*
G37*
G36*
X58500Y27566D02*
X57729Y27413D01*
X57075Y26976D01*
X56638Y26322D01*
X56485Y25551D01*
X56638Y24780D01*
X57075Y24126D01*
X57684Y23719D01*
Y15419D01*
X57075Y15011D01*
X56638Y14358D01*
X56485Y13587D01*
X56638Y12815D01*
X57075Y12162D01*
X57729Y11725D01*
X58500Y11571D01*
X59271Y11725D01*
X59925Y12162D01*
X60362Y12815D01*
X60515Y13587D01*
X60362Y14358D01*
X59925Y15011D01*
X59316Y15419D01*
Y23719D01*
X59925Y24126D01*
X60362Y24780D01*
X60515Y25551D01*
X60362Y26322D01*
X59925Y26976D01*
X59271Y27413D01*
X58500Y27566D01*
D02*
G37*
G36*
X19721Y13380D02*
X18716Y13247D01*
X17781Y12860D01*
X16977Y12243D01*
X16361Y11440D01*
X15973Y10504D01*
X15841Y9500D01*
X15973Y8496D01*
X16361Y7560D01*
X16977Y6757D01*
X17781Y6140D01*
X18716Y5753D01*
X19721Y5620D01*
X20725Y5753D01*
X21660Y6140D01*
X22464Y6757D01*
X23080Y7560D01*
X23468Y8496D01*
X23600Y9500D01*
X23468Y10504D01*
X23080Y11440D01*
X22464Y12243D01*
X21660Y12860D01*
X20725Y13247D01*
X19721Y13380D01*
D02*
G37*
G36*
X9720D02*
X8716Y13247D01*
X7781Y12860D01*
X6977Y12243D01*
X6361Y11440D01*
X5973Y10504D01*
X5841Y9500D01*
X5973Y8496D01*
X6361Y7560D01*
X6977Y6757D01*
X7781Y6140D01*
X8716Y5753D01*
X9720Y5620D01*
X10725Y5753D01*
X11660Y6140D01*
X12464Y6757D01*
X13080Y7560D01*
X13468Y8496D01*
X13600Y9500D01*
X13468Y10504D01*
X13080Y11440D01*
X12464Y12243D01*
X11660Y12860D01*
X10725Y13247D01*
X9720Y13380D01*
D02*
G37*
G36*
X166813Y72835D02*
Y68904D01*
X170745D01*
X170648Y69639D01*
X170210Y70696D01*
X169513Y71604D01*
X168605Y72301D01*
X167548Y72738D01*
X166813Y72835D01*
D02*
G37*
G36*
X176813D02*
Y68904D01*
X180745D01*
X180648Y69639D01*
X180210Y70696D01*
X179513Y71604D01*
X178605Y72301D01*
X177548Y72738D01*
X176813Y72835D01*
D02*
G37*
G36*
X166013D02*
X165279Y72738D01*
X164221Y72301D01*
X163313Y71604D01*
X162617Y70696D01*
X162179Y69639D01*
X162082Y68904D01*
X166013D01*
Y72835D01*
D02*
G37*
G36*
X176013D02*
X175279Y72738D01*
X174221Y72301D01*
X173313Y71604D01*
X172617Y70696D01*
X172179Y69639D01*
X172082Y68904D01*
X176013D01*
Y72835D01*
D02*
G37*
G36*
X180745Y68104D02*
X176813D01*
Y64173D01*
X177548Y64269D01*
X178605Y64707D01*
X179513Y65404D01*
X180210Y66312D01*
X180648Y67369D01*
X180745Y68104D01*
D02*
G37*
G36*
X170745D02*
X166813D01*
Y64173D01*
X167548Y64269D01*
X168605Y64707D01*
X169513Y65404D01*
X170210Y66312D01*
X170648Y67369D01*
X170745Y68104D01*
D02*
G37*
G36*
X176013D02*
X172082D01*
X172179Y67369D01*
X172617Y66312D01*
X173313Y65404D01*
X174221Y64707D01*
X175279Y64269D01*
X176013Y64173D01*
Y68104D01*
D02*
G37*
G36*
X166013D02*
X162082D01*
X162179Y67369D01*
X162617Y66312D01*
X163313Y65404D01*
X164221Y64707D01*
X165279Y64269D01*
X166013Y64173D01*
Y68104D01*
D02*
G37*
G36*
X176413Y13329D02*
X175409Y13196D01*
X174474Y12809D01*
X173670Y12192D01*
X173054Y11389D01*
X172666Y10453D01*
X172534Y9449D01*
X172666Y8445D01*
X173054Y7509D01*
X173670Y6706D01*
X174474Y6089D01*
X175409Y5701D01*
X176413Y5569D01*
X177418Y5701D01*
X178353Y6089D01*
X179157Y6706D01*
X179773Y7509D01*
X180161Y8445D01*
X180293Y9449D01*
X180161Y10453D01*
X179773Y11389D01*
X179157Y12192D01*
X178353Y12809D01*
X177418Y13196D01*
X176413Y13329D01*
D02*
G37*
G36*
X166413D02*
X165409Y13196D01*
X164474Y12809D01*
X163670Y12192D01*
X163054Y11389D01*
X162666Y10453D01*
X162534Y9449D01*
X162666Y8445D01*
X163054Y7509D01*
X163670Y6706D01*
X164474Y6089D01*
X165409Y5701D01*
X166413Y5569D01*
X167418Y5701D01*
X168353Y6089D01*
X169157Y6706D01*
X169773Y7509D01*
X170161Y8445D01*
X170293Y9449D01*
X170161Y10453D01*
X169773Y11389D01*
X169157Y12192D01*
X168353Y12809D01*
X167418Y13196D01*
X166413Y13329D01*
D02*
G37*
%LPD*%
D37*
X58500Y13587D02*
Y25551D01*
D39*
X176413Y68504D02*
D03*
X166413D02*
D03*
X176413Y9449D02*
D03*
X166413D02*
D03*
X19721Y9500D02*
D03*
X9720D02*
D03*
Y62205D02*
D03*
X19721D02*
D03*
D40*
X161024Y48968D02*
D03*
X153969D02*
D03*
X17563Y47000D02*
D03*
X10630Y27000D02*
D03*
X48020Y14961D02*
D03*
X58500Y13587D02*
D03*
Y25551D02*
D03*
X51760Y31500D02*
D03*
X146787Y49000D02*
=======
X127601Y166142D02*
Y162211D01*
X131532D01*
X131435Y162946D01*
X130997Y164003D01*
X130301Y164911D01*
X129393Y165608D01*
X128335Y166046D01*
X127601Y166142D01*
D02*
G37*
G36*
X117601D02*
Y162211D01*
X121532D01*
X121435Y162946D01*
X120997Y164003D01*
X120301Y164911D01*
X119393Y165608D01*
X118335Y166046D01*
X117601Y166142D01*
D02*
G37*
G36*
X126801D02*
X126066Y166046D01*
X125009Y165608D01*
X124101Y164911D01*
X123404Y164003D01*
X122966Y162946D01*
X122870Y162211D01*
X126801D01*
Y166142D01*
D02*
G37*
G36*
X116801D02*
X116066Y166046D01*
X115009Y165608D01*
X114101Y164911D01*
X113404Y164003D01*
X112966Y162946D01*
X112870Y162211D01*
X116801D01*
Y166142D01*
D02*
G37*
G36*
X131532Y161411D02*
X127601D01*
Y157480D01*
X128335Y157576D01*
X129393Y158014D01*
X130301Y158711D01*
X130997Y159619D01*
X131435Y160676D01*
X131532Y161411D01*
D02*
G37*
G36*
X121532D02*
X117601D01*
Y157480D01*
X118335Y157576D01*
X119393Y158014D01*
X120301Y158711D01*
X120997Y159619D01*
X121435Y160676D01*
X121532Y161411D01*
D02*
G37*
G36*
X126801D02*
X122870D01*
X122966Y160676D01*
X123404Y159619D01*
X124101Y158711D01*
X125009Y158014D01*
X126066Y157576D01*
X126801Y157480D01*
Y161411D01*
D02*
G37*
G36*
X116801D02*
X112870D01*
X112966Y160676D01*
X113404Y159619D01*
X114101Y158711D01*
X115009Y158014D01*
X116066Y157576D01*
X116801Y157480D01*
Y161411D01*
D02*
G37*
G36*
X158500Y127566D02*
X157729Y127413D01*
X157075Y126976D01*
X156638Y126322D01*
X156485Y125551D01*
X156638Y124780D01*
X157075Y124126D01*
X157684Y123719D01*
Y115419D01*
X157075Y115012D01*
X156638Y114358D01*
X156485Y113587D01*
X156638Y112815D01*
X157075Y112162D01*
X157729Y111725D01*
X158500Y111572D01*
X159271Y111725D01*
X159925Y112162D01*
X160362Y112815D01*
X160515Y113587D01*
X160362Y114358D01*
X159925Y115012D01*
X159316Y115419D01*
Y123719D01*
X159925Y124126D01*
X160362Y124780D01*
X160515Y125551D01*
X160362Y126322D01*
X159925Y126976D01*
X159271Y127413D01*
X158500Y127566D01*
D02*
G37*
G36*
X127201Y113380D02*
X126197Y113247D01*
X125261Y112860D01*
X124458Y112243D01*
X123841Y111440D01*
X123453Y110504D01*
X123321Y109500D01*
X123453Y108496D01*
X123841Y107560D01*
X124458Y106757D01*
X125261Y106140D01*
X126197Y105753D01*
X127201Y105620D01*
X128205Y105753D01*
X129141Y106140D01*
X129944Y106757D01*
X130561Y107560D01*
X130948Y108496D01*
X131080Y109500D01*
X130948Y110504D01*
X130561Y111440D01*
X129944Y112243D01*
X129141Y112860D01*
X128205Y113247D01*
X127201Y113380D01*
D02*
G37*
G36*
X117201D02*
X116197Y113247D01*
X115261Y112860D01*
X114457Y112243D01*
X113841Y111440D01*
X113453Y110504D01*
X113321Y109500D01*
X113453Y108496D01*
X113841Y107560D01*
X114457Y106757D01*
X115261Y106140D01*
X116197Y105753D01*
X117201Y105620D01*
X118205Y105753D01*
X119141Y106140D01*
X119944Y106757D01*
X120561Y107560D01*
X120948Y108496D01*
X121080Y109500D01*
X120948Y110504D01*
X120561Y111440D01*
X119944Y112243D01*
X119141Y112860D01*
X118205Y113247D01*
X117201Y113380D01*
D02*
G37*
G36*
X255002Y172835D02*
Y168904D01*
X258934D01*
X258837Y169639D01*
X258399Y170696D01*
X257702Y171604D01*
X256794Y172301D01*
X255737Y172739D01*
X255002Y172835D01*
D02*
G37*
G36*
X265002D02*
Y168904D01*
X268934D01*
X268837Y169639D01*
X268399Y170696D01*
X267702Y171604D01*
X266794Y172301D01*
X265737Y172739D01*
X265002Y172835D01*
D02*
G37*
G36*
X254202D02*
X253468Y172739D01*
X252410Y172301D01*
X251502Y171604D01*
X250806Y170696D01*
X250368Y169639D01*
X250271Y168904D01*
X254202D01*
Y172835D01*
D02*
G37*
G36*
X264202D02*
X263468Y172739D01*
X262410Y172301D01*
X261502Y171604D01*
X260806Y170696D01*
X260368Y169639D01*
X260271Y168904D01*
X264202D01*
Y172835D01*
D02*
G37*
G36*
X268934Y168104D02*
X265002D01*
Y164173D01*
X265737Y164269D01*
X266794Y164707D01*
X267702Y165404D01*
X268399Y166312D01*
X268837Y167369D01*
X268934Y168104D01*
D02*
G37*
G36*
X258934D02*
X255002D01*
Y164173D01*
X255737Y164269D01*
X256794Y164707D01*
X257702Y165404D01*
X258399Y166312D01*
X258837Y167369D01*
X258934Y168104D01*
D02*
G37*
G36*
X264202D02*
X260271D01*
X260368Y167369D01*
X260806Y166312D01*
X261502Y165404D01*
X262410Y164707D01*
X263468Y164269D01*
X264202Y164173D01*
Y168104D01*
D02*
G37*
G36*
X254202D02*
X250271D01*
X250368Y167369D01*
X250806Y166312D01*
X251502Y165404D01*
X252410Y164707D01*
X253468Y164269D01*
X254202Y164173D01*
Y168104D01*
D02*
G37*
G36*
X264602Y113329D02*
X263598Y113196D01*
X262663Y112809D01*
X261859Y112192D01*
X261243Y111389D01*
X260855Y110453D01*
X260723Y109449D01*
X260855Y108445D01*
X261243Y107509D01*
X261859Y106705D01*
X262663Y106089D01*
X263598Y105701D01*
X264602Y105569D01*
X265606Y105701D01*
X266542Y106089D01*
X267346Y106705D01*
X267962Y107509D01*
X268350Y108445D01*
X268482Y109449D01*
X268350Y110453D01*
X267962Y111389D01*
X267346Y112192D01*
X266542Y112809D01*
X265606Y113196D01*
X264602Y113329D01*
D02*
G37*
G36*
X254602D02*
X253598Y113196D01*
X252662Y112809D01*
X251859Y112192D01*
X251242Y111389D01*
X250855Y110453D01*
X250723Y109449D01*
X250855Y108445D01*
X251242Y107509D01*
X251859Y106705D01*
X252662Y106089D01*
X253598Y105701D01*
X254602Y105569D01*
X255607Y105701D01*
X256542Y106089D01*
X257346Y106705D01*
X257962Y107509D01*
X258350Y108445D01*
X258482Y109449D01*
X258350Y110453D01*
X257962Y111389D01*
X257346Y112192D01*
X256542Y112809D01*
X255607Y113196D01*
X254602Y113329D01*
D02*
G37*
%LPD*%
D36*
X158500Y113587D02*
Y125551D01*
D39*
X264602Y168504D02*
D03*
X254602D02*
D03*
X127201Y109500D02*
D03*
X117201D02*
D03*
Y161811D02*
D03*
X127201D02*
D03*
X254602Y109449D02*
D03*
X264602D02*
D03*
D40*
X120866Y135827D02*
D03*
X148020Y114961D02*
D03*
X158500Y113587D02*
D03*
Y125551D02*
D03*
X121500Y147000D02*
D03*
X151760Y131500D02*
D03*
X252000Y149000D02*
D03*
X246000D02*
>>>>>>> 4e0b3683575d4fa8bc2fa5a38cc8482e5bfbb278
D03*
M02*
