G04*
G04 #@! TF.GenerationSoftware,Altium Limited,Altium Designer,20.2.6 (244)*
G04*
G04 Layer_Physical_Order=2*
G04 Layer_Color=16711680*
%FSLAX25Y25*%
%MOIN*%
G70*
G04*
G04 #@! TF.SameCoordinates,39F16B55-C1F7-43D0-B861-395FF0F2765C*
G04*
G04*
G04 #@! TF.FilePolarity,Positive*
G04*
G01*
G75*
%ADD36C,0.00600*%
%ADD39C,0.06693*%
%ADD40C,0.02953*%
G36*
X176378Y174000D02*
Y100803D01*
X100803Y100803D01*
Y174000D01*
X176378Y174000D01*
D02*
G37*
G36*
X272426Y174000D02*
X272426Y100803D01*
X214567Y100803D01*
Y174000D01*
X272426Y174000D01*
D02*
G37*
%LPC*%
G36*
X127601Y166142D02*
Y162211D01*
X131532D01*
X131435Y162946D01*
X130997Y164003D01*
X130301Y164911D01*
X129393Y165608D01*
X128335Y166046D01*
X127601Y166142D01*
D02*
G37*
G36*
X117601D02*
Y162211D01*
X121532D01*
X121435Y162946D01*
X120997Y164003D01*
X120301Y164911D01*
X119393Y165608D01*
X118335Y166046D01*
X117601Y166142D01*
D02*
G37*
G36*
X126801D02*
X126066Y166046D01*
X125009Y165608D01*
X124101Y164911D01*
X123404Y164003D01*
X122966Y162946D01*
X122870Y162211D01*
X126801D01*
Y166142D01*
D02*
G37*
G36*
X116801D02*
X116066Y166046D01*
X115009Y165608D01*
X114101Y164911D01*
X113404Y164003D01*
X112966Y162946D01*
X112870Y162211D01*
X116801D01*
Y166142D01*
D02*
G37*
G36*
X131532Y161411D02*
X127601D01*
Y157480D01*
X128335Y157576D01*
X129393Y158014D01*
X130301Y158711D01*
X130997Y159619D01*
X131435Y160676D01*
X131532Y161411D01*
D02*
G37*
G36*
X121532D02*
X117601D01*
Y157480D01*
X118335Y157576D01*
X119393Y158014D01*
X120301Y158711D01*
X120997Y159619D01*
X121435Y160676D01*
X121532Y161411D01*
D02*
G37*
G36*
X126801D02*
X122870D01*
X122966Y160676D01*
X123404Y159619D01*
X124101Y158711D01*
X125009Y158014D01*
X126066Y157576D01*
X126801Y157480D01*
Y161411D01*
D02*
G37*
G36*
X116801D02*
X112870D01*
X112966Y160676D01*
X113404Y159619D01*
X114101Y158711D01*
X115009Y158014D01*
X116066Y157576D01*
X116801Y157480D01*
Y161411D01*
D02*
G37*
G36*
X158500Y127566D02*
X157729Y127413D01*
X157075Y126976D01*
X156638Y126322D01*
X156485Y125551D01*
X156638Y124780D01*
X157075Y124126D01*
X157684Y123719D01*
Y115419D01*
X157075Y115012D01*
X156638Y114358D01*
X156485Y113587D01*
X156638Y112815D01*
X157075Y112162D01*
X157729Y111725D01*
X158500Y111572D01*
X159271Y111725D01*
X159925Y112162D01*
X160362Y112815D01*
X160515Y113587D01*
X160362Y114358D01*
X159925Y115012D01*
X159316Y115419D01*
Y123719D01*
X159925Y124126D01*
X160362Y124780D01*
X160515Y125551D01*
X160362Y126322D01*
X159925Y126976D01*
X159271Y127413D01*
X158500Y127566D01*
D02*
G37*
G36*
X127201Y113380D02*
X126197Y113247D01*
X125261Y112860D01*
X124458Y112243D01*
X123841Y111440D01*
X123453Y110504D01*
X123321Y109500D01*
X123453Y108496D01*
X123841Y107560D01*
X124458Y106757D01*
X125261Y106140D01*
X126197Y105753D01*
X127201Y105620D01*
X128205Y105753D01*
X129141Y106140D01*
X129944Y106757D01*
X130561Y107560D01*
X130948Y108496D01*
X131080Y109500D01*
X130948Y110504D01*
X130561Y111440D01*
X129944Y112243D01*
X129141Y112860D01*
X128205Y113247D01*
X127201Y113380D01*
D02*
G37*
G36*
X117201D02*
X116197Y113247D01*
X115261Y112860D01*
X114457Y112243D01*
X113841Y111440D01*
X113453Y110504D01*
X113321Y109500D01*
X113453Y108496D01*
X113841Y107560D01*
X114457Y106757D01*
X115261Y106140D01*
X116197Y105753D01*
X117201Y105620D01*
X118205Y105753D01*
X119141Y106140D01*
X119944Y106757D01*
X120561Y107560D01*
X120948Y108496D01*
X121080Y109500D01*
X120948Y110504D01*
X120561Y111440D01*
X119944Y112243D01*
X119141Y112860D01*
X118205Y113247D01*
X117201Y113380D01*
D02*
G37*
G36*
X255002Y172835D02*
Y168904D01*
X258934D01*
X258837Y169639D01*
X258399Y170696D01*
X257702Y171604D01*
X256794Y172301D01*
X255737Y172739D01*
X255002Y172835D01*
D02*
G37*
G36*
X265002D02*
Y168904D01*
X268934D01*
X268837Y169639D01*
X268399Y170696D01*
X267702Y171604D01*
X266794Y172301D01*
X265737Y172739D01*
X265002Y172835D01*
D02*
G37*
G36*
X254202D02*
X253468Y172739D01*
X252410Y172301D01*
X251502Y171604D01*
X250806Y170696D01*
X250368Y169639D01*
X250271Y168904D01*
X254202D01*
Y172835D01*
D02*
G37*
G36*
X264202D02*
X263468Y172739D01*
X262410Y172301D01*
X261502Y171604D01*
X260806Y170696D01*
X260368Y169639D01*
X260271Y168904D01*
X264202D01*
Y172835D01*
D02*
G37*
G36*
X268934Y168104D02*
X265002D01*
Y164173D01*
X265737Y164269D01*
X266794Y164707D01*
X267702Y165404D01*
X268399Y166312D01*
X268837Y167369D01*
X268934Y168104D01*
D02*
G37*
G36*
X258934D02*
X255002D01*
Y164173D01*
X255737Y164269D01*
X256794Y164707D01*
X257702Y165404D01*
X258399Y166312D01*
X258837Y167369D01*
X258934Y168104D01*
D02*
G37*
G36*
X264202D02*
X260271D01*
X260368Y167369D01*
X260806Y166312D01*
X261502Y165404D01*
X262410Y164707D01*
X263468Y164269D01*
X264202Y164173D01*
Y168104D01*
D02*
G37*
G36*
X254202D02*
X250271D01*
X250368Y167369D01*
X250806Y166312D01*
X251502Y165404D01*
X252410Y164707D01*
X253468Y164269D01*
X254202Y164173D01*
Y168104D01*
D02*
G37*
G36*
X264602Y113329D02*
X263598Y113196D01*
X262663Y112809D01*
X261859Y112192D01*
X261243Y111389D01*
X260855Y110453D01*
X260723Y109449D01*
X260855Y108445D01*
X261243Y107509D01*
X261859Y106705D01*
X262663Y106089D01*
X263598Y105701D01*
X264602Y105569D01*
X265606Y105701D01*
X266542Y106089D01*
X267346Y106705D01*
X267962Y107509D01*
X268350Y108445D01*
X268482Y109449D01*
X268350Y110453D01*
X267962Y111389D01*
X267346Y112192D01*
X266542Y112809D01*
X265606Y113196D01*
X264602Y113329D01*
D02*
G37*
G36*
X254602D02*
X253598Y113196D01*
X252662Y112809D01*
X251859Y112192D01*
X251242Y111389D01*
X250855Y110453D01*
X250723Y109449D01*
X250855Y108445D01*
X251242Y107509D01*
X251859Y106705D01*
X252662Y106089D01*
X253598Y105701D01*
X254602Y105569D01*
X255607Y105701D01*
X256542Y106089D01*
X257346Y106705D01*
X257962Y107509D01*
X258350Y108445D01*
X258482Y109449D01*
X258350Y110453D01*
X257962Y111389D01*
X257346Y112192D01*
X256542Y112809D01*
X255607Y113196D01*
X254602Y113329D01*
D02*
G37*
%LPD*%
D36*
X158500Y113587D02*
Y125551D01*
D39*
X264602Y168504D02*
D03*
X254602D02*
D03*
X127201Y109500D02*
D03*
X117201D02*
D03*
Y161811D02*
D03*
X127201D02*
D03*
X254602Y109449D02*
D03*
X264602D02*
D03*
D40*
X120866Y135827D02*
D03*
X148020Y114961D02*
D03*
X158500Y113587D02*
D03*
Y125551D02*
D03*
X121500Y147000D02*
D03*
X151760Y131500D02*
D03*
X252000Y149000D02*
D03*
X246000D02*
D03*
M02*
