G04*
G04 #@! TF.GenerationSoftware,Altium Limited,Altium Designer,18.1.11 (251)*
G04*
G04 Layer_Physical_Order=2*
G04 Layer_Color=16711680*
%FSLAX25Y25*%
%MOIN*%
G70*
G01*
G75*
%ADD13C,0.00394*%
%ADD14C,0.01000*%
%ADD17R,0.10984X0.02436*%
%ADD18C,0.00197*%
%ADD55C,0.23622*%
%ADD56C,0.06000*%
%ADD57C,0.08661*%
%ADD58C,0.05000*%
G36*
X274500Y203500D02*
X274500Y500D01*
X500Y500D01*
X500Y203500D01*
X274500Y203500D01*
D02*
G37*
%LPC*%
G36*
X260343Y201788D02*
Y189476D01*
X272654D01*
X272535Y190987D01*
X272064Y192947D01*
X271292Y194810D01*
X270239Y196530D01*
X268929Y198063D01*
X267396Y199373D01*
X265677Y200426D01*
X263814Y201198D01*
X261853Y201669D01*
X260343Y201788D01*
D02*
G37*
G36*
X259343D02*
X257832Y201669D01*
X255872Y201198D01*
X254009Y200426D01*
X252289Y199373D01*
X250756Y198063D01*
X249446Y196530D01*
X248393Y194810D01*
X247621Y192947D01*
X247150Y190987D01*
X247031Y189476D01*
X259343D01*
Y201788D01*
D02*
G37*
G36*
X16248D02*
Y189476D01*
X28559D01*
X28440Y190987D01*
X27970Y192947D01*
X27198Y194810D01*
X26144Y196530D01*
X24835Y198063D01*
X23301Y199373D01*
X21582Y200426D01*
X19719Y201198D01*
X17758Y201669D01*
X16248Y201788D01*
D02*
G37*
G36*
X15248D02*
X13738Y201669D01*
X11777Y201198D01*
X9914Y200426D01*
X8195Y199373D01*
X6661Y198063D01*
X5352Y196530D01*
X4298Y194810D01*
X3526Y192947D01*
X3056Y190987D01*
X2937Y189476D01*
X15248D01*
Y201788D01*
D02*
G37*
G36*
X272654Y188476D02*
X260343D01*
Y176165D01*
X261853Y176284D01*
X263814Y176755D01*
X265677Y177526D01*
X267396Y178580D01*
X268929Y179890D01*
X270239Y181423D01*
X271292Y183142D01*
X272064Y185005D01*
X272535Y186966D01*
X272654Y188476D01*
D02*
G37*
G36*
X259343D02*
X247031D01*
X247150Y186966D01*
X247621Y185005D01*
X248393Y183142D01*
X249446Y181423D01*
X250756Y179890D01*
X252289Y178580D01*
X254009Y177526D01*
X255872Y176755D01*
X257832Y176284D01*
X259343Y176165D01*
Y188476D01*
D02*
G37*
G36*
X28559D02*
X16248D01*
Y176165D01*
X17758Y176284D01*
X19719Y176755D01*
X21582Y177526D01*
X23301Y178580D01*
X24835Y179890D01*
X26144Y181423D01*
X27198Y183142D01*
X27970Y185005D01*
X28440Y186966D01*
X28559Y188476D01*
D02*
G37*
G36*
X15248D02*
X2937D01*
X3056Y186966D01*
X3526Y185005D01*
X4298Y183142D01*
X5352Y181423D01*
X6661Y179890D01*
X8195Y178580D01*
X9914Y177526D01*
X11777Y176755D01*
X13738Y176284D01*
X15248Y176165D01*
Y188476D01*
D02*
G37*
G36*
X224868Y170307D02*
X224324Y170236D01*
X223351Y169833D01*
X222516Y169191D01*
X221874Y168356D01*
X221702Y167940D01*
X221161D01*
X220988Y168356D01*
X220347Y169191D01*
X219512Y169833D01*
X218538Y170236D01*
X217994Y170307D01*
Y166339D01*
Y162370D01*
X218538Y162442D01*
X219512Y162845D01*
X220347Y163486D01*
X220988Y164321D01*
X221161Y164737D01*
X221702D01*
X221874Y164321D01*
X222516Y163486D01*
X223351Y162845D01*
X224324Y162442D01*
X224868Y162370D01*
Y166339D01*
Y170307D01*
D02*
G37*
G36*
X209120D02*
X208576Y170236D01*
X207603Y169833D01*
X206768Y169191D01*
X206126Y168356D01*
X205954Y167940D01*
X205413D01*
X205240Y168356D01*
X204599Y169191D01*
X203764Y169833D01*
X202790Y170236D01*
X202246Y170307D01*
Y166339D01*
Y162370D01*
X202790Y162442D01*
X203764Y162845D01*
X204599Y163486D01*
X205240Y164321D01*
X205413Y164737D01*
X205954D01*
X206126Y164321D01*
X206768Y163486D01*
X207603Y162845D01*
X208576Y162442D01*
X209120Y162370D01*
Y166339D01*
Y170307D01*
D02*
G37*
G36*
X185498D02*
X184954Y170236D01*
X183981Y169833D01*
X183145Y169191D01*
X182504Y168356D01*
X182332Y167940D01*
X181791D01*
X181618Y168356D01*
X180977Y169191D01*
X180141Y169833D01*
X179168Y170236D01*
X178624Y170307D01*
Y166339D01*
Y162370D01*
X179168Y162442D01*
X180141Y162845D01*
X180977Y163486D01*
X181618Y164321D01*
X181791Y164737D01*
X182332D01*
X182504Y164321D01*
X183145Y163486D01*
X183981Y162845D01*
X184954Y162442D01*
X185498Y162370D01*
Y166339D01*
Y170307D01*
D02*
G37*
G36*
X169750D02*
X169206Y170236D01*
X168233Y169833D01*
X167397Y169191D01*
X166756Y168356D01*
X166584Y167940D01*
X166043D01*
X165870Y168356D01*
X165229Y169191D01*
X164393Y169833D01*
X163420Y170236D01*
X162876Y170307D01*
Y166339D01*
Y162370D01*
X163420Y162442D01*
X164393Y162845D01*
X165229Y163486D01*
X165870Y164321D01*
X166043Y164737D01*
X166584D01*
X166756Y164321D01*
X167397Y163486D01*
X168233Y162845D01*
X169206Y162442D01*
X169750Y162370D01*
Y166339D01*
Y170307D01*
D02*
G37*
G36*
X146128D02*
X145584Y170236D01*
X144611Y169833D01*
X143775Y169191D01*
X143134Y168356D01*
X142962Y167940D01*
X142421D01*
X142248Y168356D01*
X141607Y169191D01*
X140771Y169833D01*
X139798Y170236D01*
X139254Y170307D01*
Y166339D01*
Y162370D01*
X139798Y162442D01*
X140771Y162845D01*
X141607Y163486D01*
X142248Y164321D01*
X142421Y164737D01*
X142962D01*
X143134Y164321D01*
X143775Y163486D01*
X144611Y162845D01*
X145584Y162442D01*
X146128Y162370D01*
Y166339D01*
Y170307D01*
D02*
G37*
G36*
X130380D02*
X129836Y170236D01*
X128863Y169833D01*
X128027Y169191D01*
X127386Y168356D01*
X127214Y167940D01*
X126672D01*
X126500Y168356D01*
X125859Y169191D01*
X125023Y169833D01*
X124050Y170236D01*
X123506Y170307D01*
Y166339D01*
Y162370D01*
X124050Y162442D01*
X125023Y162845D01*
X125859Y163486D01*
X126500Y164321D01*
X126672Y164737D01*
X127214D01*
X127386Y164321D01*
X128027Y163486D01*
X128863Y162845D01*
X129836Y162442D01*
X130380Y162370D01*
Y166339D01*
Y170307D01*
D02*
G37*
G36*
X232742D02*
X232198Y170236D01*
X231225Y169833D01*
X230389Y169191D01*
X229748Y168356D01*
X229576Y167940D01*
X229035D01*
X228862Y168356D01*
X228221Y169191D01*
X227386Y169833D01*
X226413Y170236D01*
X225868Y170307D01*
Y166339D01*
Y162370D01*
X226413Y162442D01*
X227386Y162845D01*
X228221Y163486D01*
X228862Y164321D01*
X229035Y164738D01*
X229576D01*
X229748Y164321D01*
X230389Y163486D01*
X231225Y162845D01*
X232198Y162442D01*
X232742Y162370D01*
Y166339D01*
Y170307D01*
D02*
G37*
G36*
X216994D02*
X216450Y170236D01*
X215477Y169833D01*
X214641Y169191D01*
X214000Y168356D01*
X213828Y167940D01*
X213287D01*
X213114Y168356D01*
X212473Y169191D01*
X211638Y169833D01*
X210665Y170236D01*
X210120Y170307D01*
Y166339D01*
Y162370D01*
X210665Y162442D01*
X211638Y162845D01*
X212473Y163486D01*
X213114Y164321D01*
X213287Y164738D01*
X213828D01*
X214000Y164321D01*
X214641Y163486D01*
X215477Y162845D01*
X216450Y162442D01*
X216994Y162370D01*
Y166339D01*
Y170307D01*
D02*
G37*
G36*
X201246D02*
X200702Y170236D01*
X199729Y169833D01*
X198893Y169191D01*
X198252Y168356D01*
X198080Y167940D01*
X197539D01*
X197366Y168356D01*
X196725Y169191D01*
X195889Y169833D01*
X194916Y170236D01*
X194372Y170307D01*
Y166339D01*
Y162370D01*
X194916Y162442D01*
X195889Y162845D01*
X196725Y163486D01*
X197366Y164321D01*
X197539Y164738D01*
X198080D01*
X198252Y164321D01*
X198893Y163486D01*
X199729Y162845D01*
X200702Y162442D01*
X201246Y162370D01*
Y166339D01*
Y170307D01*
D02*
G37*
G36*
X193372D02*
X192828Y170236D01*
X191855Y169833D01*
X191019Y169191D01*
X190378Y168356D01*
X190206Y167940D01*
X189665D01*
X189492Y168356D01*
X188851Y169191D01*
X188015Y169833D01*
X187042Y170236D01*
X186498Y170307D01*
Y166339D01*
Y162370D01*
X187042Y162442D01*
X188015Y162845D01*
X188851Y163486D01*
X189492Y164321D01*
X189665Y164738D01*
X190206D01*
X190378Y164321D01*
X191019Y163486D01*
X191855Y162845D01*
X192828Y162442D01*
X193372Y162370D01*
Y166339D01*
Y170307D01*
D02*
G37*
G36*
X177624D02*
X177080Y170236D01*
X176107Y169833D01*
X175271Y169191D01*
X174630Y168356D01*
X174458Y167940D01*
X173917D01*
X173744Y168356D01*
X173103Y169191D01*
X172267Y169833D01*
X171294Y170236D01*
X170750Y170307D01*
Y166339D01*
Y162370D01*
X171294Y162442D01*
X172267Y162845D01*
X173103Y163486D01*
X173744Y164321D01*
X173917Y164738D01*
X174458D01*
X174630Y164321D01*
X175271Y163486D01*
X176107Y162845D01*
X177080Y162442D01*
X177624Y162370D01*
Y166339D01*
Y170307D01*
D02*
G37*
G36*
X161876D02*
X161332Y170236D01*
X160359Y169833D01*
X159523Y169191D01*
X158882Y168356D01*
X158710Y167940D01*
X158169D01*
X157996Y168356D01*
X157355Y169191D01*
X156519Y169833D01*
X155546Y170236D01*
X155002Y170307D01*
Y166339D01*
Y162370D01*
X155546Y162442D01*
X156519Y162845D01*
X157355Y163486D01*
X157996Y164321D01*
X158169Y164738D01*
X158710D01*
X158882Y164321D01*
X159523Y163486D01*
X160359Y162845D01*
X161332Y162442D01*
X161876Y162370D01*
Y166339D01*
Y170307D01*
D02*
G37*
G36*
X154002D02*
X153458Y170236D01*
X152485Y169833D01*
X151649Y169191D01*
X151008Y168356D01*
X150836Y167940D01*
X150295D01*
X150122Y168356D01*
X149481Y169191D01*
X148645Y169833D01*
X147672Y170236D01*
X147128Y170307D01*
Y166339D01*
Y162370D01*
X147672Y162442D01*
X148645Y162845D01*
X149481Y163486D01*
X150122Y164321D01*
X150295Y164738D01*
X150836D01*
X151008Y164321D01*
X151649Y163486D01*
X152485Y162845D01*
X153458Y162442D01*
X154002Y162370D01*
Y166339D01*
Y170307D01*
D02*
G37*
G36*
X138254D02*
X137710Y170236D01*
X136737Y169833D01*
X135901Y169191D01*
X135260Y168356D01*
X135088Y167940D01*
X134546D01*
X134374Y168356D01*
X133733Y169191D01*
X132897Y169833D01*
X131924Y170236D01*
X131380Y170307D01*
Y166339D01*
Y162370D01*
X131924Y162442D01*
X132897Y162845D01*
X133733Y163486D01*
X134374Y164321D01*
X134546Y164738D01*
X135088D01*
X135260Y164321D01*
X135901Y163486D01*
X136737Y162845D01*
X137710Y162442D01*
X138254Y162370D01*
Y166339D01*
Y170307D01*
D02*
G37*
G36*
X122506D02*
X121962Y170236D01*
X120989Y169833D01*
X120153Y169191D01*
X119512Y168356D01*
X119340Y167940D01*
X118798D01*
X118626Y168356D01*
X117985Y169191D01*
X117149Y169833D01*
X116176Y170236D01*
X115632Y170307D01*
Y166339D01*
Y162370D01*
X116176Y162442D01*
X117149Y162845D01*
X117985Y163486D01*
X118626Y164321D01*
X118798Y164738D01*
X119340D01*
X119512Y164321D01*
X120153Y163486D01*
X120989Y162845D01*
X121962Y162442D01*
X122506Y162370D01*
Y166339D01*
Y170307D01*
D02*
G37*
G36*
X233742D02*
Y166839D01*
X237211D01*
X237139Y167383D01*
X236736Y168356D01*
X236095Y169191D01*
X235260Y169833D01*
X234286Y170236D01*
X233742Y170307D01*
D02*
G37*
G36*
X114632D02*
X114088Y170236D01*
X113115Y169833D01*
X112279Y169191D01*
X111638Y168356D01*
X111235Y167383D01*
X111163Y166839D01*
X114632D01*
Y170307D01*
D02*
G37*
G36*
X81646Y177018D02*
X80293Y176884D01*
X78991Y176489D01*
X77791Y175848D01*
X76740Y174985D01*
X75877Y173934D01*
X75236Y172734D01*
X74841Y171432D01*
X74707Y170079D01*
X74841Y168725D01*
X75236Y167423D01*
X75877Y166224D01*
X76740Y165172D01*
X77791Y164309D01*
X78991Y163668D01*
X80293Y163273D01*
X81646Y163140D01*
X83000Y163273D01*
X84302Y163668D01*
X85501Y164309D01*
X86553Y165172D01*
X87416Y166224D01*
X88057Y167423D01*
X88452Y168725D01*
X88585Y170079D01*
X88452Y171432D01*
X88057Y172734D01*
X87416Y173934D01*
X86553Y174985D01*
X85501Y175848D01*
X84302Y176489D01*
X83000Y176884D01*
X81646Y177018D01*
D02*
G37*
G36*
X46500D02*
X45146Y176884D01*
X43845Y176489D01*
X42645Y175848D01*
X41593Y174985D01*
X40731Y173934D01*
X40089Y172734D01*
X39694Y171432D01*
X39561Y170079D01*
X39694Y168725D01*
X40089Y167423D01*
X40731Y166224D01*
X41593Y165172D01*
X42645Y164309D01*
X43845Y163668D01*
X45146Y163273D01*
X46500Y163140D01*
X47854Y163273D01*
X49155Y163668D01*
X50355Y164309D01*
X51407Y165172D01*
X52270Y166224D01*
X52911Y167423D01*
X53306Y168725D01*
X53439Y170079D01*
X53306Y171432D01*
X52911Y172734D01*
X52270Y173934D01*
X51407Y174985D01*
X50355Y175848D01*
X49155Y176489D01*
X47854Y176884D01*
X46500Y177018D01*
D02*
G37*
G36*
X237211Y165839D02*
X233742D01*
Y162370D01*
X234286Y162442D01*
X235260Y162845D01*
X236095Y163486D01*
X236736Y164321D01*
X237139Y165294D01*
X237211Y165839D01*
D02*
G37*
G36*
X114632D02*
X111163D01*
X111235Y165294D01*
X111638Y164321D01*
X112279Y163486D01*
X113115Y162845D01*
X114088Y162442D01*
X114632Y162370D01*
Y165839D01*
D02*
G37*
G36*
X233242Y160531D02*
X232198Y160393D01*
X231225Y159990D01*
X230389Y159349D01*
X229748Y158513D01*
X229576Y158097D01*
X229035D01*
X228862Y158513D01*
X228221Y159349D01*
X227386Y159990D01*
X226413Y160393D01*
X225368Y160531D01*
X224324Y160393D01*
X223351Y159990D01*
X222516Y159349D01*
X221874Y158513D01*
X221702Y158097D01*
X221161D01*
X220988Y158513D01*
X220347Y159349D01*
X219512Y159990D01*
X218538Y160393D01*
X217494Y160531D01*
X216450Y160393D01*
X215477Y159990D01*
X214641Y159349D01*
X214000Y158513D01*
X213828Y158097D01*
X213287D01*
X213114Y158513D01*
X212473Y159349D01*
X211638Y159990D01*
X210665Y160393D01*
X209620Y160531D01*
X208576Y160393D01*
X207603Y159990D01*
X206768Y159349D01*
X206126Y158513D01*
X205954Y158097D01*
X205413D01*
X205240Y158513D01*
X204599Y159349D01*
X203764Y159990D01*
X202790Y160393D01*
X201746Y160531D01*
X200702Y160393D01*
X199729Y159990D01*
X198893Y159349D01*
X198252Y158513D01*
X198080Y158097D01*
X197539D01*
X197366Y158513D01*
X196725Y159349D01*
X195889Y159990D01*
X194916Y160393D01*
X193872Y160531D01*
X192828Y160393D01*
X191855Y159990D01*
X191019Y159349D01*
X190378Y158513D01*
X190206Y158097D01*
X189665D01*
X189492Y158513D01*
X188851Y159349D01*
X188015Y159990D01*
X187042Y160393D01*
X185998Y160531D01*
X184954Y160393D01*
X183981Y159990D01*
X183145Y159349D01*
X182504Y158513D01*
X182332Y158097D01*
X181791D01*
X181618Y158513D01*
X180977Y159349D01*
X180141Y159990D01*
X179168Y160393D01*
X178124Y160531D01*
X177080Y160393D01*
X176107Y159990D01*
X175271Y159349D01*
X174630Y158513D01*
X174458Y158097D01*
X173917D01*
X173744Y158513D01*
X173103Y159349D01*
X172267Y159990D01*
X171294Y160393D01*
X170250Y160531D01*
X169206Y160393D01*
X168233Y159990D01*
X167397Y159349D01*
X166756Y158513D01*
X166584Y158097D01*
X166043D01*
X165870Y158513D01*
X165229Y159349D01*
X164393Y159990D01*
X163420Y160393D01*
X162376Y160531D01*
X161332Y160393D01*
X160359Y159990D01*
X159523Y159349D01*
X158882Y158513D01*
X158710Y158097D01*
X158169D01*
X157996Y158513D01*
X157355Y159349D01*
X156519Y159990D01*
X155546Y160393D01*
X154502Y160531D01*
X153458Y160393D01*
X152485Y159990D01*
X151649Y159349D01*
X151008Y158513D01*
X150836Y158097D01*
X150295D01*
X150122Y158513D01*
X149481Y159349D01*
X148645Y159990D01*
X147672Y160393D01*
X146628Y160531D01*
X145584Y160393D01*
X144611Y159990D01*
X143775Y159349D01*
X143134Y158513D01*
X142962Y158097D01*
X142421D01*
X142248Y158513D01*
X141607Y159349D01*
X140771Y159990D01*
X139798Y160393D01*
X138754Y160531D01*
X137710Y160393D01*
X136737Y159990D01*
X135901Y159349D01*
X135260Y158513D01*
X135088Y158097D01*
X134546D01*
X134374Y158513D01*
X133733Y159349D01*
X132897Y159990D01*
X131924Y160393D01*
X130880Y160531D01*
X129836Y160393D01*
X128863Y159990D01*
X128027Y159349D01*
X127386Y158513D01*
X127214Y158097D01*
X126672D01*
X126500Y158513D01*
X125859Y159349D01*
X125023Y159990D01*
X124050Y160393D01*
X123006Y160531D01*
X121962Y160393D01*
X120989Y159990D01*
X120153Y159349D01*
X119512Y158513D01*
X119340Y158097D01*
X118798D01*
X118626Y158513D01*
X117985Y159349D01*
X117149Y159990D01*
X116176Y160393D01*
X115132Y160531D01*
X114088Y160393D01*
X113115Y159990D01*
X112279Y159349D01*
X111638Y158513D01*
X111235Y157540D01*
X111098Y156496D01*
X111235Y155452D01*
X111638Y154479D01*
X112279Y153643D01*
X113115Y153002D01*
X114088Y152599D01*
X115132Y152462D01*
X116176Y152599D01*
X117149Y153002D01*
X117985Y153643D01*
X118626Y154479D01*
X118798Y154895D01*
X119340D01*
X119512Y154479D01*
X120153Y153643D01*
X120989Y153002D01*
X121962Y152599D01*
X123006Y152462D01*
X124050Y152599D01*
X125023Y153002D01*
X125859Y153643D01*
X126500Y154479D01*
X126672Y154895D01*
X127214D01*
X127386Y154479D01*
X128027Y153643D01*
X128863Y153002D01*
X129836Y152599D01*
X130880Y152462D01*
X131924Y152599D01*
X132897Y153002D01*
X133733Y153643D01*
X134374Y154479D01*
X134546Y154895D01*
X135088D01*
X135260Y154479D01*
X135901Y153643D01*
X136737Y153002D01*
X137710Y152599D01*
X138754Y152462D01*
X139798Y152599D01*
X140771Y153002D01*
X141607Y153643D01*
X142248Y154479D01*
X142421Y154895D01*
X142962D01*
X143134Y154479D01*
X143775Y153643D01*
X144611Y153002D01*
X145584Y152599D01*
X146628Y152462D01*
X147672Y152599D01*
X148645Y153002D01*
X149481Y153643D01*
X150122Y154479D01*
X150295Y154895D01*
X150836D01*
X151008Y154479D01*
X151649Y153643D01*
X152485Y153002D01*
X153458Y152599D01*
X154502Y152462D01*
X155546Y152599D01*
X156519Y153002D01*
X157355Y153643D01*
X157996Y154479D01*
X158169Y154895D01*
X158710D01*
X158882Y154479D01*
X159523Y153643D01*
X160359Y153002D01*
X161332Y152599D01*
X162376Y152462D01*
X163420Y152599D01*
X164393Y153002D01*
X165229Y153643D01*
X165870Y154479D01*
X166043Y154895D01*
X166584D01*
X166756Y154479D01*
X167397Y153643D01*
X168233Y153002D01*
X169206Y152599D01*
X170250Y152462D01*
X171294Y152599D01*
X172267Y153002D01*
X173103Y153643D01*
X173744Y154479D01*
X173917Y154895D01*
X174458D01*
X174630Y154479D01*
X175271Y153643D01*
X176107Y153002D01*
X177080Y152599D01*
X178124Y152462D01*
X179168Y152599D01*
X180141Y153002D01*
X180977Y153643D01*
X181618Y154479D01*
X181791Y154895D01*
X182332D01*
X182504Y154479D01*
X183145Y153643D01*
X183981Y153002D01*
X184954Y152599D01*
X185998Y152462D01*
X187042Y152599D01*
X188015Y153002D01*
X188851Y153643D01*
X189492Y154479D01*
X189665Y154895D01*
X190206D01*
X190378Y154479D01*
X191019Y153643D01*
X191855Y153002D01*
X192828Y152599D01*
X193872Y152462D01*
X194916Y152599D01*
X195889Y153002D01*
X196725Y153643D01*
X197366Y154479D01*
X197539Y154895D01*
X198080D01*
X198252Y154479D01*
X198893Y153643D01*
X199729Y153002D01*
X200702Y152599D01*
X201746Y152462D01*
X202790Y152599D01*
X203764Y153002D01*
X204599Y153643D01*
X205240Y154479D01*
X205413Y154895D01*
X205954D01*
X206126Y154479D01*
X206768Y153643D01*
X207603Y153002D01*
X208576Y152599D01*
X209620Y152462D01*
X210665Y152599D01*
X211638Y153002D01*
X212473Y153643D01*
X213114Y154479D01*
X213287Y154895D01*
X213828D01*
X214000Y154479D01*
X214641Y153643D01*
X215477Y153002D01*
X216450Y152599D01*
X217494Y152462D01*
X218538Y152599D01*
X219512Y153002D01*
X220347Y153643D01*
X220988Y154479D01*
X221161Y154895D01*
X221702D01*
X221874Y154479D01*
X222516Y153643D01*
X223351Y153002D01*
X224324Y152599D01*
X225368Y152462D01*
X226413Y152599D01*
X227386Y153002D01*
X228221Y153643D01*
X228862Y154479D01*
X229035Y154895D01*
X229576D01*
X229748Y154479D01*
X230389Y153643D01*
X231225Y153002D01*
X232198Y152599D01*
X233242Y152462D01*
X234286Y152599D01*
X235260Y153002D01*
X236095Y153643D01*
X236736Y154479D01*
X237139Y155452D01*
X237277Y156496D01*
X237139Y157540D01*
X236736Y158513D01*
X236095Y159349D01*
X235260Y159990D01*
X234286Y160393D01*
X233242Y160531D01*
D02*
G37*
G36*
X82146Y146650D02*
Y141839D01*
X86957D01*
X86840Y142730D01*
X86303Y144027D01*
X85448Y145141D01*
X84335Y145995D01*
X83038Y146532D01*
X82146Y146650D01*
D02*
G37*
G36*
X47000D02*
Y141839D01*
X51811D01*
X51693Y142730D01*
X51156Y144027D01*
X50302Y145141D01*
X49188Y145995D01*
X47892Y146532D01*
X47000Y146650D01*
D02*
G37*
G36*
X81146D02*
X80255Y146532D01*
X78958Y145995D01*
X77844Y145141D01*
X76990Y144027D01*
X76453Y142730D01*
X76335Y141839D01*
X81146D01*
Y146650D01*
D02*
G37*
G36*
X46000D02*
X45108Y146532D01*
X43812Y145995D01*
X42698Y145141D01*
X41844Y144027D01*
X41306Y142730D01*
X41189Y141839D01*
X46000D01*
Y146650D01*
D02*
G37*
G36*
X86957Y140839D02*
X82146D01*
Y136028D01*
X83038Y136145D01*
X84335Y136682D01*
X85448Y137537D01*
X86303Y138650D01*
X86840Y139947D01*
X86957Y140839D01*
D02*
G37*
G36*
X51811D02*
X47000D01*
Y136028D01*
X47892Y136145D01*
X49188Y136682D01*
X50302Y137537D01*
X51156Y138650D01*
X51693Y139947D01*
X51811Y140839D01*
D02*
G37*
G36*
X81146D02*
X76335D01*
X76453Y139947D01*
X76990Y138650D01*
X77844Y137537D01*
X78958Y136682D01*
X80255Y136145D01*
X81146Y136028D01*
Y140839D01*
D02*
G37*
G36*
X46000D02*
X41189D01*
X41306Y139947D01*
X41844Y138650D01*
X42698Y137537D01*
X43812Y136682D01*
X45108Y136145D01*
X46000Y136028D01*
Y140839D01*
D02*
G37*
G36*
X197072Y129464D02*
Y126500D01*
X200036D01*
X199982Y126914D01*
X199629Y127765D01*
X199068Y128496D01*
X198337Y129057D01*
X197486Y129410D01*
X197072Y129464D01*
D02*
G37*
G36*
X196072D02*
X195658Y129410D01*
X194807Y129057D01*
X194076Y128496D01*
X193515Y127765D01*
X193162Y126914D01*
X193107Y126500D01*
X196072D01*
Y129464D01*
D02*
G37*
G36*
X200036Y125500D02*
X197072D01*
Y122536D01*
X197486Y122590D01*
X198337Y122943D01*
X199068Y123504D01*
X199629Y124235D01*
X199982Y125086D01*
X200036Y125500D01*
D02*
G37*
G36*
X196072D02*
X193107D01*
X193162Y125086D01*
X193515Y124235D01*
X194076Y123504D01*
X194807Y122943D01*
X195658Y122590D01*
X196072Y122536D01*
Y125500D01*
D02*
G37*
G36*
X81646Y125062D02*
X80255Y124879D01*
X78958Y124341D01*
X77844Y123487D01*
X76990Y122373D01*
X76453Y121077D01*
X76270Y119685D01*
X76453Y118293D01*
X76990Y116997D01*
X77844Y115883D01*
X78958Y115029D01*
X80255Y114492D01*
X81646Y114308D01*
X83038Y114492D01*
X84335Y115029D01*
X85448Y115883D01*
X86303Y116997D01*
X86840Y118293D01*
X87023Y119685D01*
X86840Y121077D01*
X86303Y122373D01*
X85448Y123487D01*
X84335Y124341D01*
X83038Y124879D01*
X81646Y125062D01*
D02*
G37*
G36*
X46500D02*
X45108Y124879D01*
X43812Y124341D01*
X42698Y123487D01*
X41844Y122373D01*
X41306Y121077D01*
X41123Y119685D01*
X41306Y118293D01*
X41844Y116997D01*
X42698Y115883D01*
X43812Y115029D01*
X45108Y114492D01*
X46500Y114308D01*
X47892Y114492D01*
X49188Y115029D01*
X50302Y115883D01*
X51156Y116997D01*
X51693Y118293D01*
X51877Y119685D01*
X51693Y121077D01*
X51156Y122373D01*
X50302Y123487D01*
X49188Y124341D01*
X47892Y124879D01*
X46500Y125062D01*
D02*
G37*
G36*
X73500Y68620D02*
Y65656D01*
X76464D01*
X76410Y66070D01*
X76057Y66921D01*
X75496Y67652D01*
X74765Y68213D01*
X73914Y68566D01*
X73500Y68620D01*
D02*
G37*
G36*
X72500D02*
X72086Y68566D01*
X71235Y68213D01*
X70504Y67652D01*
X69943Y66921D01*
X69590Y66070D01*
X69536Y65656D01*
X72500D01*
Y68620D01*
D02*
G37*
G36*
X76464Y64656D02*
X73500D01*
Y61692D01*
X73914Y61746D01*
X74765Y62099D01*
X75496Y62660D01*
X76057Y63391D01*
X76410Y64242D01*
X76464Y64656D01*
D02*
G37*
G36*
X72500D02*
X69536D01*
X69590Y64242D01*
X69943Y63391D01*
X70504Y62660D01*
X71235Y62099D01*
X72086Y61746D01*
X72500Y61692D01*
Y64656D01*
D02*
G37*
G36*
X164279Y61923D02*
Y58959D01*
X167244D01*
X167189Y59373D01*
X166837Y60224D01*
X166276Y60955D01*
X165545Y61516D01*
X164693Y61869D01*
X164279Y61923D01*
D02*
G37*
G36*
X163279D02*
X162866Y61869D01*
X162014Y61516D01*
X161283Y60955D01*
X160722Y60224D01*
X160370Y59373D01*
X160315Y58959D01*
X163279D01*
Y61923D01*
D02*
G37*
G36*
X125500Y60964D02*
Y58000D01*
X128464D01*
X128410Y58414D01*
X128057Y59265D01*
X127496Y59996D01*
X126765Y60557D01*
X125914Y60910D01*
X125500Y60964D01*
D02*
G37*
G36*
X124500D02*
X124086Y60910D01*
X123235Y60557D01*
X122504Y59996D01*
X121943Y59265D01*
X121590Y58414D01*
X121536Y58000D01*
X124500D01*
Y60964D01*
D02*
G37*
G36*
X167244Y57959D02*
X164279D01*
Y54995D01*
X164693Y55049D01*
X165545Y55402D01*
X166276Y55963D01*
X166837Y56694D01*
X167189Y57545D01*
X167244Y57959D01*
D02*
G37*
G36*
X163279D02*
X160315D01*
X160370Y57545D01*
X160722Y56694D01*
X161283Y55963D01*
X162014Y55402D01*
X162866Y55049D01*
X163279Y54995D01*
Y57959D01*
D02*
G37*
G36*
X128464Y57000D02*
X125500D01*
Y54036D01*
X125914Y54090D01*
X126765Y54443D01*
X127496Y55004D01*
X128057Y55735D01*
X128410Y56586D01*
X128464Y57000D01*
D02*
G37*
G36*
X124500D02*
X121536D01*
X121590Y56586D01*
X121943Y55735D01*
X122504Y55004D01*
X123235Y54443D01*
X124086Y54090D01*
X124500Y54036D01*
Y57000D01*
D02*
G37*
G36*
X149000Y51464D02*
Y48500D01*
X151964D01*
X151910Y48914D01*
X151557Y49765D01*
X150996Y50496D01*
X150265Y51057D01*
X149414Y51410D01*
X149000Y51464D01*
D02*
G37*
G36*
X148000D02*
X147586Y51410D01*
X146735Y51057D01*
X146004Y50496D01*
X145443Y49765D01*
X145090Y48914D01*
X145036Y48500D01*
X148000D01*
Y51464D01*
D02*
G37*
G36*
X151964Y47500D02*
X149000D01*
Y44536D01*
X149414Y44590D01*
X150265Y44943D01*
X150996Y45504D01*
X151557Y46235D01*
X151910Y47086D01*
X151964Y47500D01*
D02*
G37*
G36*
X148000D02*
X145036D01*
X145090Y47086D01*
X145443Y46235D01*
X146004Y45504D01*
X146735Y44943D01*
X147586Y44590D01*
X148000Y44536D01*
Y47500D01*
D02*
G37*
G36*
X184780Y46964D02*
Y44000D01*
X187744D01*
X187689Y44414D01*
X187337Y45265D01*
X186776Y45996D01*
X186045Y46557D01*
X185193Y46910D01*
X184780Y46964D01*
D02*
G37*
G36*
X183780D02*
X183366Y46910D01*
X182514Y46557D01*
X181783Y45996D01*
X181222Y45265D01*
X180870Y44414D01*
X180815Y44000D01*
X183780D01*
Y46964D01*
D02*
G37*
G36*
X187744Y43000D02*
X184780D01*
Y40036D01*
X185193Y40090D01*
X186045Y40443D01*
X186776Y41004D01*
X187337Y41735D01*
X187689Y42586D01*
X187744Y43000D01*
D02*
G37*
G36*
X183780D02*
X180815D01*
X180870Y42586D01*
X181222Y41735D01*
X181783Y41004D01*
X182514Y40443D01*
X183366Y40090D01*
X183780Y40036D01*
Y43000D01*
D02*
G37*
G36*
X224837Y42492D02*
Y39528D01*
X227801D01*
X227747Y39942D01*
X227394Y40793D01*
X226833Y41524D01*
X226102Y42085D01*
X225251Y42438D01*
X224837Y42492D01*
D02*
G37*
G36*
X223837D02*
X223423Y42438D01*
X222572Y42085D01*
X221841Y41524D01*
X221280Y40793D01*
X220927Y39942D01*
X220872Y39528D01*
X223837D01*
Y42492D01*
D02*
G37*
G36*
X79000Y40759D02*
Y37795D01*
X81964D01*
X81910Y38208D01*
X81557Y39060D01*
X80996Y39791D01*
X80265Y40352D01*
X79414Y40705D01*
X79000Y40759D01*
D02*
G37*
G36*
X78000D02*
X77586Y40705D01*
X76735Y40352D01*
X76004Y39791D01*
X75443Y39060D01*
X75090Y38208D01*
X75036Y37795D01*
X78000D01*
Y40759D01*
D02*
G37*
G36*
X217721Y39226D02*
Y36262D01*
X220685D01*
X220631Y36675D01*
X220278Y37527D01*
X219717Y38258D01*
X218986Y38819D01*
X218135Y39172D01*
X217721Y39226D01*
D02*
G37*
G36*
X216721D02*
X216307Y39172D01*
X215456Y38819D01*
X214725Y38258D01*
X214164Y37527D01*
X213811Y36675D01*
X213757Y36262D01*
X216721D01*
Y39226D01*
D02*
G37*
G36*
X227801Y38528D02*
X224837D01*
Y35563D01*
X225251Y35618D01*
X226102Y35971D01*
X226833Y36532D01*
X227394Y37263D01*
X227747Y38114D01*
X227801Y38528D01*
D02*
G37*
G36*
X223837D02*
X220872D01*
X220927Y38114D01*
X221280Y37263D01*
X221841Y36532D01*
X222572Y35971D01*
X223423Y35618D01*
X223837Y35563D01*
Y38528D01*
D02*
G37*
G36*
X210072Y37992D02*
Y35028D01*
X213037D01*
X212982Y35442D01*
X212630Y36293D01*
X212069Y37024D01*
X211338Y37585D01*
X210486Y37938D01*
X210072Y37992D01*
D02*
G37*
G36*
X209072D02*
X208659Y37938D01*
X207807Y37585D01*
X207076Y37024D01*
X206515Y36293D01*
X206163Y35442D01*
X206108Y35028D01*
X209072D01*
Y37992D01*
D02*
G37*
G36*
X81964Y36795D02*
X79000D01*
Y33830D01*
X79414Y33885D01*
X80265Y34237D01*
X80996Y34798D01*
X81557Y35530D01*
X81910Y36381D01*
X81964Y36795D01*
D02*
G37*
G36*
X78000D02*
X75036D01*
X75090Y36381D01*
X75443Y35530D01*
X76004Y34798D01*
X76735Y34237D01*
X77586Y33885D01*
X78000Y33830D01*
Y36795D01*
D02*
G37*
G36*
X220685Y35262D02*
X217721D01*
Y32297D01*
X218135Y32352D01*
X218986Y32704D01*
X219717Y33265D01*
X220278Y33997D01*
X220631Y34848D01*
X220685Y35262D01*
D02*
G37*
G36*
X216721D02*
X213757D01*
X213811Y34848D01*
X214164Y33997D01*
X214725Y33265D01*
X215456Y32704D01*
X216307Y32352D01*
X216721Y32297D01*
Y35262D01*
D02*
G37*
G36*
X213037Y34028D02*
X210072D01*
Y31064D01*
X210486Y31118D01*
X211338Y31471D01*
X212069Y32032D01*
X212630Y32763D01*
X212982Y33614D01*
X213037Y34028D01*
D02*
G37*
G36*
X209072D02*
X206108D01*
X206163Y33614D01*
X206515Y32763D01*
X207076Y32032D01*
X207807Y31471D01*
X208659Y31118D01*
X209072Y31064D01*
Y34028D01*
D02*
G37*
G36*
X224837Y33992D02*
Y31028D01*
X227801D01*
X227747Y31442D01*
X227394Y32293D01*
X226833Y33024D01*
X226102Y33585D01*
X225251Y33938D01*
X224837Y33992D01*
D02*
G37*
G36*
X223837D02*
X223423Y33938D01*
X222572Y33585D01*
X221841Y33024D01*
X221280Y32293D01*
X220927Y31442D01*
X220872Y31028D01*
X223837D01*
Y33992D01*
D02*
G37*
G36*
X227801Y30028D02*
X224837D01*
Y27064D01*
X225251Y27118D01*
X226102Y27471D01*
X226833Y28032D01*
X227394Y28763D01*
X227747Y29614D01*
X227801Y30028D01*
D02*
G37*
G36*
X223837D02*
X220872D01*
X220927Y29614D01*
X221280Y28763D01*
X221841Y28032D01*
X222572Y27471D01*
X223423Y27118D01*
X223837Y27064D01*
Y30028D01*
D02*
G37*
G36*
X217307Y29901D02*
Y26937D01*
X220272D01*
X220217Y27351D01*
X219865Y28202D01*
X219304Y28933D01*
X218572Y29494D01*
X217721Y29847D01*
X217307Y29901D01*
D02*
G37*
G36*
X216307D02*
X215894Y29847D01*
X215042Y29494D01*
X214311Y28933D01*
X213750Y28202D01*
X213398Y27351D01*
X213343Y26937D01*
X216307D01*
Y29901D01*
D02*
G37*
G36*
X208768D02*
Y26937D01*
X211732D01*
X211678Y27351D01*
X211325Y28202D01*
X210764Y28933D01*
X210033Y29494D01*
X209181Y29847D01*
X208768Y29901D01*
D02*
G37*
G36*
X207768D02*
X207354Y29847D01*
X206503Y29494D01*
X205771Y28933D01*
X205210Y28202D01*
X204858Y27351D01*
X204803Y26937D01*
X207768D01*
Y29901D01*
D02*
G37*
G36*
X35000Y27464D02*
Y24500D01*
X37964D01*
X37910Y24914D01*
X37557Y25765D01*
X36996Y26496D01*
X36265Y27057D01*
X35414Y27410D01*
X35000Y27464D01*
D02*
G37*
G36*
X34000D02*
X33586Y27410D01*
X32735Y27057D01*
X32004Y26496D01*
X31443Y25765D01*
X31090Y24914D01*
X31036Y24500D01*
X34000D01*
Y27464D01*
D02*
G37*
G36*
X220272Y25937D02*
X217307D01*
Y22973D01*
X217721Y23027D01*
X218572Y23380D01*
X219304Y23941D01*
X219865Y24672D01*
X220217Y25523D01*
X220272Y25937D01*
D02*
G37*
G36*
X216307D02*
X213343D01*
X213398Y25523D01*
X213750Y24672D01*
X214311Y23941D01*
X215042Y23380D01*
X215894Y23027D01*
X216307Y22973D01*
Y25937D01*
D02*
G37*
G36*
X211732D02*
X208768D01*
Y22973D01*
X209181Y23027D01*
X210033Y23380D01*
X210764Y23941D01*
X211325Y24672D01*
X211678Y25523D01*
X211732Y25937D01*
D02*
G37*
G36*
X207768D02*
X204803D01*
X204858Y25523D01*
X205210Y24672D01*
X205771Y23941D01*
X206503Y23380D01*
X207354Y23027D01*
X207768Y22973D01*
Y25937D01*
D02*
G37*
G36*
X37964Y23500D02*
X35000D01*
Y20536D01*
X35414Y20590D01*
X36265Y20943D01*
X36996Y21504D01*
X37557Y22235D01*
X37910Y23086D01*
X37964Y23500D01*
D02*
G37*
G36*
X34000D02*
X31036D01*
X31090Y23086D01*
X31443Y22235D01*
X32004Y21504D01*
X32735Y20943D01*
X33586Y20590D01*
X34000Y20536D01*
Y23500D01*
D02*
G37*
G36*
X260343Y28559D02*
Y16248D01*
X272654D01*
X272535Y17758D01*
X272064Y19719D01*
X271292Y21582D01*
X270239Y23301D01*
X268929Y24835D01*
X267396Y26144D01*
X265677Y27198D01*
X263814Y27970D01*
X261853Y28440D01*
X260343Y28559D01*
D02*
G37*
G36*
X259343D02*
X257832Y28440D01*
X255872Y27970D01*
X254009Y27198D01*
X252289Y26144D01*
X250756Y24835D01*
X249446Y23301D01*
X248393Y21582D01*
X247621Y19719D01*
X247150Y17758D01*
X247031Y16248D01*
X259343D01*
Y28559D01*
D02*
G37*
G36*
X16248D02*
Y16248D01*
X28559D01*
X28440Y17758D01*
X27970Y19719D01*
X27198Y21582D01*
X26144Y23301D01*
X24835Y24835D01*
X23301Y26144D01*
X21582Y27198D01*
X19719Y27970D01*
X17758Y28440D01*
X16248Y28559D01*
D02*
G37*
G36*
X15248D02*
X13738Y28440D01*
X11777Y27970D01*
X9914Y27198D01*
X8195Y26144D01*
X6661Y24835D01*
X5352Y23301D01*
X4298Y21582D01*
X3526Y19719D01*
X3056Y17758D01*
X2937Y16248D01*
X15248D01*
Y28559D01*
D02*
G37*
G36*
X159000Y16464D02*
Y13500D01*
X161964D01*
X161910Y13914D01*
X161557Y14765D01*
X160996Y15496D01*
X160265Y16057D01*
X159414Y16410D01*
X159000Y16464D01*
D02*
G37*
G36*
X158000D02*
X157586Y16410D01*
X156735Y16057D01*
X156004Y15496D01*
X155443Y14765D01*
X155090Y13914D01*
X155036Y13500D01*
X158000D01*
Y16464D01*
D02*
G37*
G36*
X161964Y12500D02*
X159000D01*
Y9536D01*
X159414Y9590D01*
X160265Y9943D01*
X160996Y10504D01*
X161557Y11235D01*
X161910Y12086D01*
X161964Y12500D01*
D02*
G37*
G36*
X158000D02*
X155036D01*
X155090Y12086D01*
X155443Y11235D01*
X156004Y10504D01*
X156735Y9943D01*
X157586Y9590D01*
X158000Y9536D01*
Y12500D01*
D02*
G37*
G36*
X272654Y15248D02*
X260343D01*
Y2937D01*
X261853Y3056D01*
X263814Y3526D01*
X265677Y4298D01*
X267396Y5352D01*
X268929Y6661D01*
X270239Y8195D01*
X271292Y9914D01*
X272064Y11777D01*
X272535Y13738D01*
X272654Y15248D01*
D02*
G37*
G36*
X259343D02*
X247031D01*
X247150Y13738D01*
X247621Y11777D01*
X248393Y9914D01*
X249446Y8195D01*
X250756Y6661D01*
X252289Y5352D01*
X254009Y4298D01*
X255872Y3526D01*
X257832Y3056D01*
X259343Y2937D01*
Y15248D01*
D02*
G37*
G36*
X28559D02*
X16248D01*
Y2937D01*
X17758Y3056D01*
X19719Y3526D01*
X21582Y4298D01*
X23301Y5352D01*
X24835Y6661D01*
X26144Y8195D01*
X27198Y9914D01*
X27970Y11777D01*
X28440Y13738D01*
X28559Y15248D01*
D02*
G37*
G36*
X15248D02*
X2937D01*
X3056Y13738D01*
X3526Y11777D01*
X4298Y9914D01*
X5352Y8195D01*
X6661Y6661D01*
X8195Y5352D01*
X9914Y4298D01*
X11777Y3526D01*
X13738Y3056D01*
X15248Y2937D01*
Y15248D01*
D02*
G37*
%LPD*%
D13*
X129996Y62059D02*
G03*
X129996Y62059I-1969J0D01*
G01*
X216733Y53150D02*
G03*
X216733Y53150I-1969J0D01*
G01*
X256209Y36221D02*
Y61024D01*
X231406Y36221D02*
Y61024D01*
Y36221D02*
X256209D01*
X231406Y61024D02*
X256209D01*
X39992Y34445D02*
Y52555D01*
X29008Y34445D02*
Y52555D01*
X39992D01*
X29008Y34445D02*
X39992D01*
X77169Y71866D02*
X85831D01*
X77169Y77181D02*
X85831D01*
Y71866D02*
Y77181D01*
X77169Y71866D02*
Y77181D01*
X115429Y53398D02*
Y65602D01*
X131571Y53398D02*
Y65602D01*
X115429Y53398D02*
X131571D01*
X115429Y65602D02*
X131571D01*
X202647Y113362D02*
Y120055D01*
X199497Y113362D02*
Y120055D01*
X202647D01*
X199497Y113362D02*
X202647D01*
X193147D02*
Y120055D01*
X189997Y113362D02*
Y120055D01*
X193147D01*
X189997Y113362D02*
X193147D01*
X183741Y108158D02*
X192403D01*
X183741Y102842D02*
X192403D01*
X183741D02*
Y108158D01*
X192403Y102842D02*
Y108158D01*
X200241Y102842D02*
X208903D01*
X200241Y108158D02*
X208903D01*
Y102842D02*
Y108158D01*
X200241Y102842D02*
Y108158D01*
X171299Y10063D02*
Y15378D01*
X164606Y10063D02*
Y15378D01*
Y10063D02*
X171299D01*
X164606Y15378D02*
X171299D01*
X203150Y65197D02*
Y73859D01*
X208465Y65197D02*
Y73859D01*
X203150Y65197D02*
X208465D01*
X203150Y73859D02*
X208465D01*
X192828Y66681D02*
X198143D01*
X192828Y73374D02*
X198143D01*
X192828Y66681D02*
Y73374D01*
X198143Y66681D02*
Y73374D01*
X182650Y66681D02*
X187965D01*
X182650Y73374D02*
X187965D01*
X182650Y66681D02*
Y73374D01*
X187965Y66681D02*
Y73374D01*
X170461Y36870D02*
Y42185D01*
X177154Y36870D02*
Y42185D01*
X170461D02*
X177154D01*
X170461Y36870D02*
X177154D01*
X169977Y46370D02*
X178638D01*
X169977Y51685D02*
X178638D01*
Y46370D02*
Y51685D01*
X169977Y46370D02*
Y51685D01*
X170020Y61116D02*
X178681D01*
X170020Y55801D02*
X178681D01*
X170020D02*
Y61116D01*
X178681Y55801D02*
Y61116D01*
X190008Y38192D02*
Y43507D01*
X196701Y38192D02*
Y43507D01*
X190008D02*
X196701D01*
X190008Y38192D02*
X196701D01*
X195650Y26660D02*
X200965D01*
X195650Y33353D02*
X200965D01*
X195650Y26660D02*
Y33353D01*
X200965Y26660D02*
Y33353D01*
X189508Y47870D02*
Y53185D01*
X196201Y47870D02*
Y53185D01*
X189508D02*
X196201D01*
X189508Y47870D02*
X196201D01*
X138842Y54169D02*
Y62831D01*
X144158Y54169D02*
Y62831D01*
X138842Y54169D02*
X144158D01*
X138842Y62831D02*
X144158D01*
X138842Y69169D02*
Y77831D01*
X144158Y69169D02*
Y77831D01*
X138842Y69169D02*
X144158D01*
X138842Y77831D02*
X144158D01*
X85669Y39701D02*
X94331D01*
X85669Y34386D02*
X94331D01*
X85669D02*
Y39701D01*
X94331Y34386D02*
Y39701D01*
X101669Y34386D02*
X110331D01*
X101669Y39701D02*
X110331D01*
Y34386D02*
Y39701D01*
X101669Y34386D02*
Y39701D01*
X136843Y43846D02*
X142157D01*
X136843Y37154D02*
X142157D01*
Y43846D01*
X136843Y37154D02*
Y43846D01*
X136153Y27925D02*
X142847D01*
X136153Y31075D02*
X142847D01*
Y27925D02*
Y31075D01*
X136153Y27925D02*
Y31075D01*
X121158Y29169D02*
Y37831D01*
X115842Y29169D02*
Y37831D01*
X121158D01*
X115842Y29169D02*
X121158D01*
X125343Y28669D02*
Y37331D01*
X130657Y28669D02*
Y37331D01*
X125343Y28669D02*
X130657D01*
X125343Y37331D02*
X130657D01*
X171394Y18741D02*
Y24056D01*
X164701Y18741D02*
Y24056D01*
Y18741D02*
X171394D01*
X164701Y24056D02*
X171394D01*
X206103Y56693D02*
X218307D01*
X206103Y44488D02*
X218307D01*
Y56693D01*
X206103Y44488D02*
Y56693D01*
X78654Y62343D02*
X85347D01*
X78654Y67658D02*
X85347D01*
Y62343D02*
Y67658D01*
X78654Y62343D02*
Y67658D01*
X26153Y96787D02*
X50642D01*
X26153Y70213D02*
X50642D01*
X26153D02*
Y96787D01*
X50642Y70213D02*
Y96787D01*
X241839Y48622D02*
X245776D01*
X243807Y46654D02*
Y50591D01*
X32531Y43500D02*
X36468D01*
X34500Y41532D02*
Y45469D01*
X81500Y72555D02*
Y76492D01*
X79532Y74524D02*
X83469D01*
X121531Y59500D02*
X125469D01*
X123500Y57531D02*
Y61468D01*
X199497Y116709D02*
X202647D01*
X201072Y115134D02*
Y118283D01*
X189997Y116709D02*
X193147D01*
X191572Y115134D02*
Y118283D01*
X188072Y103532D02*
Y107468D01*
X186103Y105500D02*
X190040D01*
X204572Y103532D02*
Y107468D01*
X202603Y105500D02*
X206540D01*
X165984Y12720D02*
X169921D01*
X167953Y10752D02*
Y14689D01*
X203839Y69528D02*
X207776D01*
X205807Y67559D02*
Y71496D01*
X195485Y68059D02*
Y71996D01*
X193517Y70028D02*
X197454D01*
X185307Y68059D02*
Y71996D01*
X183339Y70028D02*
X187276D01*
X171839Y39528D02*
X175776D01*
X173807Y37559D02*
Y41496D01*
X174307Y47059D02*
Y50996D01*
X172339Y49028D02*
X176276D01*
X174351Y56490D02*
Y60427D01*
X172382Y58459D02*
X176319D01*
X191386Y40850D02*
X195323D01*
X193355Y38881D02*
Y42818D01*
X198307Y28038D02*
Y31975D01*
X196339Y30006D02*
X200276D01*
X190886Y50528D02*
X194823D01*
X192855Y48559D02*
Y52496D01*
X139532Y58500D02*
X143468D01*
X141500Y56532D02*
Y60469D01*
X139532Y73500D02*
X143468D01*
X141500Y71531D02*
Y75468D01*
X90000Y35075D02*
Y39012D01*
X88032Y37043D02*
X91969D01*
X106000Y35075D02*
Y39012D01*
X104032Y37043D02*
X107968D01*
X139500Y38532D02*
Y42469D01*
X137531Y40500D02*
X141469D01*
X139500Y27925D02*
Y31075D01*
X137925Y29500D02*
X141075D01*
X116532Y33500D02*
X120468D01*
X118500Y31532D02*
Y35469D01*
X126031Y33000D02*
X129969D01*
X128000Y31032D02*
Y34969D01*
X166079Y21399D02*
X170016D01*
X168047Y19430D02*
Y23367D01*
X212205Y48622D02*
Y52559D01*
X210237Y50591D02*
X214174D01*
X82000Y63032D02*
Y66969D01*
X80032Y65000D02*
X83969D01*
X42177Y81532D02*
Y85469D01*
X40209Y83500D02*
X44146D01*
D14*
X0Y0D02*
Y204724D01*
Y0D02*
X275590D01*
Y204724D01*
X0D02*
X275590D01*
D17*
X34500Y35663D02*
D03*
D18*
X259457Y35237D02*
Y62008D01*
X228158Y35237D02*
Y62008D01*
Y35237D02*
X259457D01*
X228158Y62008D02*
X259457D01*
X40996Y31492D02*
Y55508D01*
X28004Y31492D02*
Y55508D01*
X40996D01*
X28004Y31492D02*
X40996D01*
X74807Y70784D02*
X88193D01*
X74807Y78264D02*
X88193D01*
Y70784D02*
Y78264D01*
X74807Y70784D02*
Y78264D01*
X114248Y47098D02*
Y71902D01*
X132752Y47098D02*
Y71902D01*
X114248Y47098D02*
X132752D01*
X114248Y71902D02*
X132752D01*
X203828Y111394D02*
Y122024D01*
X198316Y111394D02*
Y122024D01*
X203828D01*
X198316Y111394D02*
X203828D01*
X194328D02*
Y122024D01*
X188816Y111394D02*
Y122024D01*
X194328D01*
X188816Y111394D02*
X194328D01*
X181379Y109240D02*
X194765D01*
X181379Y101760D02*
X194765D01*
X181379D02*
Y109240D01*
X194765Y101760D02*
Y109240D01*
X197879Y101760D02*
X211265D01*
X197879Y109240D02*
X211265D01*
Y101760D02*
Y109240D01*
X197879Y101760D02*
Y109240D01*
X173858Y8980D02*
Y16461D01*
X162047Y8980D02*
Y16461D01*
Y8980D02*
X173858D01*
X162047Y16461D02*
X173858D01*
X202067Y62835D02*
Y76221D01*
X209547Y62835D02*
Y76221D01*
X202067Y62835D02*
X209547D01*
X202067Y76221D02*
X209547D01*
X191745Y64122D02*
X199226D01*
X191745Y75933D02*
X199226D01*
X191745Y64122D02*
Y75933D01*
X199226Y64122D02*
Y75933D01*
X181567Y64122D02*
X189048D01*
X181567Y75933D02*
X189048D01*
X181567Y64122D02*
Y75933D01*
X189048Y64122D02*
Y75933D01*
X167902Y35788D02*
Y43268D01*
X179713Y35788D02*
Y43268D01*
X167902D02*
X179713D01*
X167902Y35788D02*
X179713D01*
X167614Y45288D02*
X181000D01*
X167614Y52768D02*
X181000D01*
Y45288D02*
Y52768D01*
X167614Y45288D02*
Y52768D01*
X167658Y62199D02*
X181044D01*
X167658Y54719D02*
X181044D01*
X167658D02*
Y62199D01*
X181044Y54719D02*
Y62199D01*
X187449Y37110D02*
Y44590D01*
X199260Y37110D02*
Y44590D01*
X187449D02*
X199260D01*
X187449Y37110D02*
X199260D01*
X194567Y24101D02*
X202047D01*
X194567Y35912D02*
X202047D01*
X194567Y24101D02*
Y35912D01*
X202047Y24101D02*
Y35912D01*
X186949Y46788D02*
Y54268D01*
X198760Y46788D02*
Y54268D01*
X186949D02*
X198760D01*
X186949Y46788D02*
X198760D01*
X137760Y51807D02*
Y65193D01*
X145240Y51807D02*
Y65193D01*
X137760Y51807D02*
X145240D01*
X137760Y65193D02*
X145240D01*
X137760Y66807D02*
Y80193D01*
X145240Y66807D02*
Y80193D01*
X137760Y66807D02*
X145240D01*
X137760Y80193D02*
X145240D01*
X83307Y40784D02*
X96693D01*
X83307Y33303D02*
X96693D01*
X83307D02*
Y40784D01*
X96693Y33303D02*
Y40784D01*
X99307Y33303D02*
X112693D01*
X99307Y40784D02*
X112693D01*
Y33303D02*
Y40784D01*
X99307Y33303D02*
Y40784D01*
X135760Y46406D02*
X143240D01*
X135760Y34595D02*
X143240D01*
Y46406D01*
X135760Y34595D02*
Y46406D01*
X134185Y26744D02*
X144815D01*
X134185Y32256D02*
X144815D01*
Y26744D02*
Y32256D01*
X134185Y26744D02*
Y32256D01*
X122240Y26807D02*
Y40193D01*
X114760Y26807D02*
Y40193D01*
X122240D01*
X114760Y26807D02*
X122240D01*
X124260Y26307D02*
Y39693D01*
X131740Y26307D02*
Y39693D01*
X124260Y26307D02*
X131740D01*
X124260Y39693D02*
X131740D01*
X173953Y17659D02*
Y25139D01*
X162142Y17659D02*
Y25139D01*
Y17659D02*
X173953D01*
X162142Y25139D02*
X173953D01*
X203937Y58859D02*
X220473D01*
X203937Y42323D02*
X220473D01*
Y58859D01*
X203937Y42323D02*
Y58859D01*
X76095Y61260D02*
X87906D01*
X76095Y68740D02*
X87906D01*
Y61260D02*
Y68740D01*
X76095Y61260D02*
Y68740D01*
X19342Y97772D02*
X65012D01*
X19342Y69228D02*
X65012D01*
X19342D02*
Y97772D01*
X65012Y69228D02*
Y97772D01*
D55*
X259842Y188976D02*
D03*
X15748D02*
D03*
X259842Y15748D02*
D03*
X15748D02*
D03*
D56*
X115132Y166339D02*
D03*
Y156496D02*
D03*
X233242D02*
D03*
X225368D02*
D03*
X217494D02*
D03*
X209620D02*
D03*
X201746D02*
D03*
X193872D02*
D03*
X185998D02*
D03*
X178124D02*
D03*
X170250D02*
D03*
X162376D02*
D03*
X154502D02*
D03*
X146628D02*
D03*
X138754D02*
D03*
X130880D02*
D03*
X123006D02*
D03*
Y166339D02*
D03*
X130880D02*
D03*
X138754D02*
D03*
X146628D02*
D03*
X154502D02*
D03*
X162376D02*
D03*
X170250D02*
D03*
X233242D02*
D03*
X225368D02*
D03*
X217494D02*
D03*
X209620D02*
D03*
X201746D02*
D03*
X193872D02*
D03*
X185998D02*
D03*
X178124D02*
D03*
D57*
X81646Y141339D02*
D03*
Y119685D02*
D03*
X46500Y141339D02*
D03*
Y119685D02*
D03*
D58*
X158500Y13000D02*
D03*
X184280Y43500D02*
D03*
X163779Y58459D02*
D03*
X78500Y37295D02*
D03*
X34500Y24000D02*
D03*
X148500Y48000D02*
D03*
X196572Y126000D02*
D03*
X73000Y65156D02*
D03*
X125000Y57500D02*
D03*
X209573Y34528D02*
D03*
X208268Y26437D02*
D03*
X216807D02*
D03*
X224337Y30528D02*
D03*
X217221Y35762D02*
D03*
X224337Y39028D02*
D03*
M02*
