G04*
G04 #@! TF.GenerationSoftware,Altium Limited,Altium Designer,19.0.15 (446)*
G04*
G04 Layer_Physical_Order=2*
G04 Layer_Color=16711680*
%FSLAX25Y25*%
%MOIN*%
G70*
G01*
G75*
%ADD14C,0.01000*%
%ADD52C,0.03937*%
%ADD55C,0.08661*%
%ADD56C,0.05906*%
%ADD57C,0.12992*%
%ADD58C,0.05000*%
G36*
X313386Y0D02*
X394D01*
X0Y394D01*
Y204724D01*
X313386D01*
Y0D01*
D02*
G37*
%LPC*%
G36*
X306405Y191653D02*
Y188689D01*
X309370D01*
X309315Y189103D01*
X308963Y189954D01*
X308402Y190685D01*
X307671Y191246D01*
X306819Y191599D01*
X306405Y191653D01*
D02*
G37*
G36*
X305405D02*
X304992Y191599D01*
X304140Y191246D01*
X303409Y190685D01*
X302848Y189954D01*
X302496Y189103D01*
X302441Y188689D01*
X305405D01*
Y191653D01*
D02*
G37*
G36*
X309370Y187689D02*
X306405D01*
Y184725D01*
X306819Y184779D01*
X307671Y185132D01*
X308402Y185693D01*
X308963Y186424D01*
X309315Y187275D01*
X309370Y187689D01*
D02*
G37*
G36*
X305405D02*
X302441D01*
X302496Y187275D01*
X302848Y186424D01*
X303409Y185693D01*
X304140Y185132D01*
X304992Y184779D01*
X305405Y184725D01*
Y187689D01*
D02*
G37*
G36*
X264961Y181089D02*
X264047Y180969D01*
X263195Y180616D01*
X262464Y180055D01*
X261903Y179324D01*
X261806Y179088D01*
X246063D01*
X245478Y178972D01*
X244982Y178640D01*
X239076Y172735D01*
X238744Y172239D01*
X238628Y171653D01*
Y168115D01*
X238392Y168018D01*
X237661Y167457D01*
X237100Y166726D01*
X236748Y165874D01*
X236627Y164961D01*
X236748Y164047D01*
X237100Y163196D01*
X237661Y162464D01*
X238392Y161903D01*
X239244Y161551D01*
X240158Y161430D01*
X241071Y161551D01*
X241923Y161903D01*
X242654Y162464D01*
X243215Y163196D01*
X243567Y164047D01*
X243688Y164961D01*
X243567Y165874D01*
X243215Y166726D01*
X242654Y167457D01*
X241923Y168018D01*
X241687Y168115D01*
Y171020D01*
X246696Y176030D01*
X261806D01*
X261903Y175794D01*
X262464Y175063D01*
X263195Y174502D01*
X264047Y174149D01*
X264961Y174029D01*
X265874Y174149D01*
X266726Y174502D01*
X267457Y175063D01*
X268018Y175794D01*
X268371Y176645D01*
X268491Y177559D01*
X268371Y178473D01*
X268018Y179324D01*
X267457Y180055D01*
X266726Y180616D01*
X265874Y180969D01*
X264961Y181089D01*
D02*
G37*
G36*
X150394Y193262D02*
X90748D01*
X90163Y193145D01*
X89667Y192814D01*
X81267Y184415D01*
X81032Y184512D01*
X80118Y184633D01*
X79204Y184512D01*
X78353Y184160D01*
X77622Y183599D01*
X77061Y182868D01*
X76708Y182016D01*
X76588Y181102D01*
X76708Y180189D01*
X77061Y179337D01*
X77622Y178606D01*
X78353Y178045D01*
X79204Y177692D01*
X80118Y177572D01*
X81032Y177692D01*
X81883Y178045D01*
X82614Y178606D01*
X83175Y179337D01*
X83528Y180189D01*
X83648Y181102D01*
X83528Y182016D01*
X83430Y182252D01*
X91382Y190203D01*
X149760D01*
X152801Y187162D01*
Y177448D01*
X152630Y177426D01*
X151778Y177073D01*
X151047Y176512D01*
X150486Y175781D01*
X150133Y174929D01*
X150013Y174016D01*
X150066Y173616D01*
X149714Y173223D01*
X149618Y173183D01*
X101815D01*
X99167Y175830D01*
Y179522D01*
X99403Y179620D01*
X100134Y180181D01*
X100695Y180912D01*
X101048Y181764D01*
X101168Y182677D01*
X101048Y183591D01*
X100695Y184442D01*
X100134Y185173D01*
X99403Y185734D01*
X98551Y186087D01*
X97638Y186207D01*
X96724Y186087D01*
X95873Y185734D01*
X95142Y185173D01*
X94581Y184442D01*
X94228Y183591D01*
X94108Y182677D01*
X94228Y181764D01*
X94581Y180912D01*
X95142Y180181D01*
X95873Y179620D01*
X96108Y179522D01*
Y175197D01*
X96225Y174612D01*
X96556Y174115D01*
X100100Y170572D01*
X100596Y170241D01*
X101103Y170140D01*
X101054Y169640D01*
X94882D01*
X94297Y169523D01*
X93800Y169192D01*
X83895Y159286D01*
X83563Y158790D01*
X83447Y158205D01*
Y124079D01*
X83563Y123494D01*
X83895Y122997D01*
X87043Y119850D01*
X87021Y119685D01*
X87141Y118771D01*
X87494Y117920D01*
X88055Y117189D01*
X88786Y116628D01*
X89638Y116275D01*
X90551Y116155D01*
X91465Y116275D01*
X92316Y116628D01*
X93047Y117189D01*
X93608Y117920D01*
X93961Y118771D01*
X94081Y119685D01*
X93961Y120599D01*
X93608Y121450D01*
X93047Y122181D01*
X92316Y122742D01*
X91465Y123095D01*
X90551Y123215D01*
X89638Y123095D01*
X88786Y122742D01*
X88611Y122608D01*
X86506Y124712D01*
Y149281D01*
X86954Y149502D01*
X87211Y149305D01*
X87447Y149207D01*
Y135039D01*
X87563Y134454D01*
X87895Y133958D01*
X113942Y107911D01*
X114438Y107579D01*
X115024Y107463D01*
X274740D01*
X275325Y107579D01*
X275822Y107911D01*
X306987Y139076D01*
X307318Y139572D01*
X307435Y140157D01*
Y156294D01*
X307671Y156392D01*
X308402Y156953D01*
X308963Y157684D01*
X309315Y158535D01*
X309436Y159449D01*
X309315Y160363D01*
X308963Y161214D01*
X308402Y161945D01*
X307671Y162506D01*
X306819Y162859D01*
X305906Y162979D01*
X304992Y162859D01*
X304140Y162506D01*
X303409Y161945D01*
X302848Y161214D01*
X302496Y160363D01*
X302375Y159449D01*
X302496Y158535D01*
X302848Y157684D01*
X303409Y156953D01*
X304140Y156392D01*
X304376Y156294D01*
Y140791D01*
X274107Y110521D01*
X242679D01*
X242432Y111021D01*
X242821Y111528D01*
X243174Y112380D01*
X243294Y113293D01*
X243174Y114207D01*
X242821Y115058D01*
X242260Y115790D01*
X241529Y116351D01*
X240677Y116703D01*
X239764Y116823D01*
X238850Y116703D01*
X237999Y116351D01*
X237267Y115790D01*
X236706Y115058D01*
X236484Y114522D01*
X199742D01*
X199496Y115022D01*
X199908Y115558D01*
X200260Y116409D01*
X200381Y117323D01*
X200260Y118236D01*
X199908Y119088D01*
X199347Y119819D01*
X198616Y120380D01*
X197764Y120733D01*
X196850Y120853D01*
X195937Y120733D01*
X195085Y120380D01*
X194354Y119819D01*
X193793Y119088D01*
X193695Y118852D01*
X179139D01*
X179042Y119088D01*
X178481Y119819D01*
X177749Y120380D01*
X176898Y120733D01*
X175984Y120853D01*
X175071Y120733D01*
X174219Y120380D01*
X173488Y119819D01*
X172927Y119088D01*
X172574Y118236D01*
X172454Y117323D01*
X172574Y116409D01*
X172927Y115558D01*
X173338Y115022D01*
X173093Y114522D01*
X150399D01*
X150301Y114757D01*
X149740Y115488D01*
X149009Y116049D01*
X148158Y116402D01*
X147244Y116522D01*
X146330Y116402D01*
X145479Y116049D01*
X144748Y115488D01*
X144187Y114757D01*
X143834Y113906D01*
X143714Y112992D01*
X143834Y112078D01*
X144187Y111227D01*
X144384Y110970D01*
X144163Y110521D01*
X115657D01*
X110059Y116119D01*
X110293Y116593D01*
X110630Y116549D01*
X111544Y116669D01*
X112395Y117022D01*
X113126Y117582D01*
X113687Y118314D01*
X114040Y119165D01*
X114160Y120079D01*
X114040Y120992D01*
X113687Y121844D01*
X113126Y122575D01*
X112395Y123136D01*
X111544Y123489D01*
X110630Y123609D01*
X109716Y123489D01*
X109481Y123391D01*
X101136Y131736D01*
Y150710D01*
X101441Y151449D01*
X101562Y152362D01*
X101441Y153276D01*
X101089Y154127D01*
X100528Y154858D01*
X99797Y155419D01*
X98945Y155772D01*
X98032Y155892D01*
X97118Y155772D01*
X96266Y155419D01*
X95535Y154858D01*
X94974Y154127D01*
X94622Y153276D01*
X94501Y152362D01*
X94622Y151449D01*
X94974Y150597D01*
X95535Y149866D01*
X96266Y149305D01*
X97118Y148952D01*
X98032Y148832D01*
X98077Y148792D01*
Y131102D01*
X98193Y130517D01*
X98525Y130021D01*
X107318Y121228D01*
X107220Y120992D01*
X107100Y120079D01*
X107144Y119742D01*
X106670Y119508D01*
X90506Y135673D01*
Y149207D01*
X90741Y149305D01*
X91473Y149866D01*
X92034Y150597D01*
X92386Y151449D01*
X92507Y152362D01*
X92386Y153276D01*
X92034Y154127D01*
X91473Y154858D01*
X90741Y155419D01*
X89890Y155772D01*
X88976Y155892D01*
X88063Y155772D01*
X87211Y155419D01*
X86954Y155222D01*
X86506Y155443D01*
Y157571D01*
X95515Y166581D01*
X149760D01*
X150792Y165549D01*
X150486Y165151D01*
X150133Y164299D01*
X150013Y163386D01*
X150133Y162472D01*
X150486Y161621D01*
X151047Y160890D01*
X151778Y160329D01*
X152630Y159976D01*
X153543Y159856D01*
X154457Y159976D01*
X155308Y160329D01*
X156040Y160890D01*
X156600Y161621D01*
X156953Y162472D01*
X157073Y163386D01*
X156953Y164299D01*
X156600Y165151D01*
X156040Y165882D01*
X155308Y166443D01*
X154457Y166796D01*
X153782Y166885D01*
X153367Y167300D01*
X153558Y167762D01*
X161178D01*
X162477Y166463D01*
X162464Y166276D01*
X161903Y165545D01*
X161551Y164693D01*
X161430Y163779D01*
X161551Y162866D01*
X161903Y162014D01*
X162464Y161283D01*
X163196Y160722D01*
X164047Y160370D01*
X164961Y160249D01*
X165874Y160370D01*
X166726Y160722D01*
X167457Y161283D01*
X168018Y162014D01*
X168370Y162866D01*
X168491Y163779D01*
X168370Y164693D01*
X168018Y165545D01*
X167457Y166276D01*
X166726Y166837D01*
X166137Y167080D01*
X166042Y167223D01*
X162892Y170373D01*
X162396Y170704D01*
X161811Y170821D01*
X155950D01*
X155780Y171321D01*
X156040Y171519D01*
X156600Y172251D01*
X156953Y173102D01*
X157073Y174016D01*
X156953Y174929D01*
X156600Y175781D01*
X156040Y176512D01*
X155860Y176650D01*
Y187795D01*
X155744Y188381D01*
X155412Y188877D01*
X151475Y192814D01*
X150979Y193145D01*
X150394Y193262D01*
D02*
G37*
G36*
X65461Y174724D02*
Y171760D01*
X68425D01*
X68370Y172174D01*
X68018Y173025D01*
X67457Y173756D01*
X66726Y174317D01*
X65874Y174670D01*
X65461Y174724D01*
D02*
G37*
G36*
X64461D02*
X64047Y174670D01*
X63196Y174317D01*
X62464Y173756D01*
X61903Y173025D01*
X61551Y172174D01*
X61496Y171760D01*
X64461D01*
Y174724D01*
D02*
G37*
G36*
X68425Y170760D02*
X65461D01*
Y167796D01*
X65874Y167850D01*
X66726Y168203D01*
X67457Y168764D01*
X68018Y169495D01*
X68370Y170346D01*
X68425Y170760D01*
D02*
G37*
G36*
X64461D02*
X61496D01*
X61551Y170346D01*
X61903Y169495D01*
X62464Y168764D01*
X63196Y168203D01*
X64047Y167850D01*
X64461Y167796D01*
Y170760D01*
D02*
G37*
G36*
X239476Y149527D02*
Y146563D01*
X242441D01*
X242386Y146977D01*
X242034Y147828D01*
X241473Y148559D01*
X240741Y149120D01*
X239890Y149473D01*
X239476Y149527D01*
D02*
G37*
G36*
X238476D02*
X238063Y149473D01*
X237211Y149120D01*
X236480Y148559D01*
X235919Y147828D01*
X235566Y146977D01*
X235512Y146563D01*
X238476D01*
Y149527D01*
D02*
G37*
G36*
X190264Y145984D02*
Y143020D01*
X193228D01*
X193174Y143433D01*
X192821Y144285D01*
X192260Y145016D01*
X191529Y145577D01*
X190677Y145930D01*
X190264Y145984D01*
D02*
G37*
G36*
X189264D02*
X188850Y145930D01*
X187999Y145577D01*
X187268Y145016D01*
X186706Y144285D01*
X186354Y143433D01*
X186299Y143020D01*
X189264D01*
Y145984D01*
D02*
G37*
G36*
X242441Y145563D02*
X239476D01*
Y142599D01*
X239890Y142653D01*
X240741Y143006D01*
X241473Y143567D01*
X242034Y144298D01*
X242386Y145149D01*
X242441Y145563D01*
D02*
G37*
G36*
X238476D02*
X235512D01*
X235566Y145149D01*
X235919Y144298D01*
X236480Y143567D01*
X237211Y143006D01*
X238063Y142653D01*
X238476Y142599D01*
Y145563D01*
D02*
G37*
G36*
X193228Y142020D02*
X190264D01*
Y139055D01*
X190677Y139110D01*
X191529Y139462D01*
X192260Y140024D01*
X192821Y140755D01*
X193174Y141606D01*
X193228Y142020D01*
D02*
G37*
G36*
X189264D02*
X186299D01*
X186354Y141606D01*
X186706Y140755D01*
X187268Y140024D01*
X187999Y139462D01*
X188850Y139110D01*
X189264Y139055D01*
Y142020D01*
D02*
G37*
G36*
X67823Y111732D02*
Y108768D01*
X70787D01*
X70733Y109181D01*
X70380Y110033D01*
X69819Y110764D01*
X69088Y111325D01*
X68237Y111678D01*
X67823Y111732D01*
D02*
G37*
G36*
X66823D02*
X66409Y111678D01*
X65558Y111325D01*
X64827Y110764D01*
X64266Y110033D01*
X63913Y109181D01*
X63858Y108768D01*
X66823D01*
Y111732D01*
D02*
G37*
G36*
X70787Y107768D02*
X67823D01*
Y104803D01*
X68237Y104858D01*
X69088Y105210D01*
X69819Y105772D01*
X70380Y106503D01*
X70733Y107354D01*
X70787Y107768D01*
D02*
G37*
G36*
X66823D02*
X63858D01*
X63913Y107354D01*
X64266Y106503D01*
X64827Y105772D01*
X65558Y105210D01*
X66409Y104858D01*
X66823Y104803D01*
Y107768D01*
D02*
G37*
G36*
X67323Y99315D02*
Y96350D01*
X70287D01*
X70233Y96764D01*
X69880Y97615D01*
X69319Y98347D01*
X68588Y98908D01*
X67737Y99260D01*
X67323Y99315D01*
D02*
G37*
G36*
X66323D02*
X65909Y99260D01*
X65058Y98908D01*
X64327Y98347D01*
X63766Y97615D01*
X63413Y96764D01*
X63358Y96350D01*
X66323D01*
Y99315D01*
D02*
G37*
G36*
X70287Y95350D02*
X67323D01*
Y92386D01*
X67737Y92440D01*
X68588Y92793D01*
X69319Y93354D01*
X69880Y94085D01*
X70233Y94937D01*
X70287Y95350D01*
D02*
G37*
G36*
X66323D02*
X63358D01*
X63413Y94937D01*
X63766Y94085D01*
X64327Y93354D01*
X65058Y92793D01*
X65909Y92440D01*
X66323Y92386D01*
Y95350D01*
D02*
G37*
G36*
X275825Y96649D02*
Y91839D01*
X280636D01*
X280519Y92730D01*
X279982Y94027D01*
X279127Y95140D01*
X278014Y95995D01*
X276717Y96532D01*
X275825Y96649D01*
D02*
G37*
G36*
X274825D02*
X273934Y96532D01*
X272637Y95995D01*
X271523Y95140D01*
X270669Y94027D01*
X270132Y92730D01*
X270015Y91839D01*
X274825D01*
Y96649D01*
D02*
G37*
G36*
X169925Y90716D02*
Y87752D01*
X172890D01*
X172835Y88165D01*
X172482Y89017D01*
X171921Y89748D01*
X171190Y90309D01*
X170339Y90662D01*
X169925Y90716D01*
D02*
G37*
G36*
X168925D02*
X168511Y90662D01*
X167660Y90309D01*
X166929Y89748D01*
X166368Y89017D01*
X166015Y88165D01*
X165961Y87752D01*
X168925D01*
Y90716D01*
D02*
G37*
G36*
X197744Y90472D02*
Y87508D01*
X200709D01*
X200654Y87922D01*
X200301Y88773D01*
X199740Y89504D01*
X199009Y90065D01*
X198158Y90418D01*
X197744Y90472D01*
D02*
G37*
G36*
X196744D02*
X196330Y90418D01*
X195479Y90065D01*
X194748Y89504D01*
X194187Y88773D01*
X193834Y87922D01*
X193780Y87508D01*
X196744D01*
Y90472D01*
D02*
G37*
G36*
X183177Y90213D02*
Y87248D01*
X186142D01*
X186087Y87662D01*
X185734Y88513D01*
X185173Y89244D01*
X184442Y89805D01*
X183591Y90158D01*
X183177Y90213D01*
D02*
G37*
G36*
X182177D02*
X181764Y90158D01*
X180912Y89805D01*
X180181Y89244D01*
X179620Y88513D01*
X179267Y87662D01*
X179213Y87248D01*
X182177D01*
Y90213D01*
D02*
G37*
G36*
X280636Y90839D02*
X275825D01*
Y86028D01*
X276717Y86145D01*
X278014Y86682D01*
X279127Y87537D01*
X279982Y88650D01*
X280519Y89947D01*
X280636Y90839D01*
D02*
G37*
G36*
X274825D02*
X270015D01*
X270132Y89947D01*
X270669Y88650D01*
X271523Y87537D01*
X272637Y86682D01*
X273934Y86145D01*
X274825Y86028D01*
Y90839D01*
D02*
G37*
G36*
X67823Y87716D02*
Y84752D01*
X70787D01*
X70733Y85166D01*
X70380Y86017D01*
X69819Y86748D01*
X69088Y87309D01*
X68237Y87662D01*
X67823Y87716D01*
D02*
G37*
G36*
X66823D02*
X66409Y87662D01*
X65558Y87309D01*
X64827Y86748D01*
X64266Y86017D01*
X63913Y85166D01*
X63858Y84752D01*
X66823D01*
Y87716D01*
D02*
G37*
G36*
X172890Y86752D02*
X169925D01*
Y83787D01*
X170339Y83842D01*
X171190Y84195D01*
X171921Y84756D01*
X172482Y85487D01*
X172835Y86338D01*
X172890Y86752D01*
D02*
G37*
G36*
X168925D02*
X165961D01*
X166015Y86338D01*
X166368Y85487D01*
X166929Y84756D01*
X167660Y84195D01*
X168511Y83842D01*
X168925Y83787D01*
Y86752D01*
D02*
G37*
G36*
X200709Y86508D02*
X197744D01*
Y83543D01*
X198158Y83598D01*
X199009Y83951D01*
X199740Y84512D01*
X200301Y85243D01*
X200654Y86094D01*
X200709Y86508D01*
D02*
G37*
G36*
X196744D02*
X193780D01*
X193834Y86094D01*
X194187Y85243D01*
X194748Y84512D01*
X195479Y83951D01*
X196330Y83598D01*
X196744Y83543D01*
Y86508D01*
D02*
G37*
G36*
X186142Y86248D02*
X183177D01*
Y83284D01*
X183591Y83338D01*
X184442Y83691D01*
X185173Y84252D01*
X185734Y84983D01*
X186087Y85834D01*
X186142Y86248D01*
D02*
G37*
G36*
X182177D02*
X179213D01*
X179267Y85834D01*
X179620Y84983D01*
X180181Y84252D01*
X180912Y83691D01*
X181764Y83338D01*
X182177Y83284D01*
Y86248D01*
D02*
G37*
G36*
X70787Y83752D02*
X67823D01*
Y80788D01*
X68237Y80842D01*
X69088Y81195D01*
X69819Y81756D01*
X70380Y82487D01*
X70733Y83338D01*
X70787Y83752D01*
D02*
G37*
G36*
X66823D02*
X63858D01*
X63913Y83338D01*
X64266Y82487D01*
X64827Y81756D01*
X65558Y81195D01*
X66409Y80842D01*
X66823Y80788D01*
Y83752D01*
D02*
G37*
G36*
X184091Y68425D02*
Y65461D01*
X187055D01*
X187001Y65874D01*
X186648Y66726D01*
X186087Y67457D01*
X185356Y68018D01*
X184504Y68370D01*
X184091Y68425D01*
D02*
G37*
G36*
X183091D02*
X182677Y68370D01*
X181826Y68018D01*
X181095Y67457D01*
X180534Y66726D01*
X180181Y65874D01*
X180127Y65461D01*
X183091D01*
Y68425D01*
D02*
G37*
G36*
X275325Y75062D02*
X273934Y74879D01*
X272637Y74341D01*
X271523Y73487D01*
X270669Y72373D01*
X270132Y71077D01*
X269949Y69685D01*
X270132Y68293D01*
X270669Y66997D01*
X271523Y65883D01*
X272637Y65029D01*
X273934Y64491D01*
X275325Y64308D01*
X276717Y64491D01*
X278014Y65029D01*
X279127Y65883D01*
X279982Y66997D01*
X280519Y68293D01*
X280702Y69685D01*
X280519Y71077D01*
X279982Y72373D01*
X279127Y73487D01*
X278014Y74341D01*
X276717Y74879D01*
X275325Y75062D01*
D02*
G37*
G36*
X164764Y52885D02*
X163732Y52749D01*
X162770Y52350D01*
X161945Y51717D01*
X161311Y50891D01*
X160913Y49929D01*
X160777Y48898D01*
X160913Y47866D01*
X161311Y46904D01*
X161945Y46079D01*
X162770Y45445D01*
X163732Y45047D01*
X164764Y44911D01*
X165796Y45047D01*
X166757Y45445D01*
X167583Y46079D01*
X168217Y46904D01*
X168615Y47866D01*
X168751Y48898D01*
X168615Y49929D01*
X168217Y50891D01*
X167583Y51717D01*
X166757Y52350D01*
X165796Y52749D01*
X164764Y52885D01*
D02*
G37*
G36*
X152953D02*
X151921Y52749D01*
X150959Y52350D01*
X150134Y51717D01*
X149500Y50891D01*
X149102Y49929D01*
X148966Y48898D01*
X149102Y47866D01*
X149500Y46904D01*
X150134Y46079D01*
X150959Y45445D01*
X151921Y45047D01*
X152953Y44911D01*
X153985Y45047D01*
X154946Y45445D01*
X155772Y46079D01*
X156405Y46904D01*
X156804Y47866D01*
X156940Y48898D01*
X156804Y49929D01*
X156405Y50891D01*
X155772Y51717D01*
X154946Y52350D01*
X153985Y52749D01*
X152953Y52885D01*
D02*
G37*
G36*
X141142D02*
X140110Y52749D01*
X139148Y52350D01*
X138323Y51717D01*
X137689Y50891D01*
X137291Y49929D01*
X137155Y48898D01*
X137291Y47866D01*
X137689Y46904D01*
X138323Y46079D01*
X139148Y45445D01*
X140110Y45047D01*
X141142Y44911D01*
X142174Y45047D01*
X143135Y45445D01*
X143961Y46079D01*
X144595Y46904D01*
X144993Y47866D01*
X145129Y48898D01*
X144993Y49929D01*
X144595Y50891D01*
X143961Y51717D01*
X143135Y52350D01*
X142174Y52749D01*
X141142Y52885D01*
D02*
G37*
G36*
X129331D02*
X128299Y52749D01*
X127337Y52350D01*
X126512Y51717D01*
X125878Y50891D01*
X125480Y49929D01*
X125344Y48898D01*
X125480Y47866D01*
X125878Y46904D01*
X126512Y46079D01*
X127337Y45445D01*
X128299Y45047D01*
X129331Y44911D01*
X130363Y45047D01*
X131324Y45445D01*
X132150Y46079D01*
X132783Y46904D01*
X133182Y47866D01*
X133318Y48898D01*
X133182Y49929D01*
X132783Y50891D01*
X132150Y51717D01*
X131324Y52350D01*
X130363Y52749D01*
X129331Y52885D01*
D02*
G37*
G36*
X117520D02*
X116488Y52749D01*
X115526Y52350D01*
X114700Y51717D01*
X114067Y50891D01*
X113669Y49929D01*
X113533Y48898D01*
X113669Y47866D01*
X114067Y46904D01*
X114700Y46079D01*
X115526Y45445D01*
X116488Y45047D01*
X117520Y44911D01*
X118552Y45047D01*
X119513Y45445D01*
X120339Y46079D01*
X120972Y46904D01*
X121371Y47866D01*
X121507Y48898D01*
X121371Y49929D01*
X120972Y50891D01*
X120339Y51717D01*
X119513Y52350D01*
X118552Y52749D01*
X117520Y52885D01*
D02*
G37*
G36*
X105709D02*
X104677Y52749D01*
X103715Y52350D01*
X102890Y51717D01*
X102256Y50891D01*
X101858Y49929D01*
X101722Y48898D01*
X101858Y47866D01*
X102256Y46904D01*
X102890Y46079D01*
X103715Y45445D01*
X104677Y45047D01*
X105709Y44911D01*
X106740Y45047D01*
X107702Y45445D01*
X108528Y46079D01*
X109161Y46904D01*
X109560Y47866D01*
X109695Y48898D01*
X109560Y49929D01*
X109161Y50891D01*
X108528Y51717D01*
X107702Y52350D01*
X106740Y52749D01*
X105709Y52885D01*
D02*
G37*
G36*
X93898D02*
X92866Y52749D01*
X91904Y52350D01*
X91079Y51717D01*
X90445Y50891D01*
X90047Y49929D01*
X89911Y48898D01*
X90047Y47866D01*
X90445Y46904D01*
X91079Y46079D01*
X91904Y45445D01*
X92866Y45047D01*
X93898Y44911D01*
X94929Y45047D01*
X95891Y45445D01*
X96717Y46079D01*
X97350Y46904D01*
X97749Y47866D01*
X97885Y48898D01*
X97749Y49929D01*
X97350Y50891D01*
X96717Y51717D01*
X95891Y52350D01*
X94929Y52749D01*
X93898Y52885D01*
D02*
G37*
G36*
X82087D02*
X81055Y52749D01*
X80093Y52350D01*
X79268Y51717D01*
X78634Y50891D01*
X78236Y49929D01*
X78100Y48898D01*
X78236Y47866D01*
X78634Y46904D01*
X79268Y46079D01*
X80093Y45445D01*
X81055Y45047D01*
X82087Y44911D01*
X83118Y45047D01*
X84080Y45445D01*
X84906Y46079D01*
X85539Y46904D01*
X85938Y47866D01*
X86073Y48898D01*
X85938Y49929D01*
X85539Y50891D01*
X84906Y51717D01*
X84080Y52350D01*
X83118Y52749D01*
X82087Y52885D01*
D02*
G37*
G36*
X187055Y64461D02*
X180127D01*
X180181Y64047D01*
X180534Y63196D01*
X180597Y63113D01*
Y52154D01*
X168524Y40081D01*
X167355D01*
X166757Y40539D01*
X165796Y40938D01*
X165264Y41008D01*
Y37087D01*
Y33166D01*
X165796Y33236D01*
X166757Y33634D01*
X167355Y34093D01*
X169764D01*
X170539Y34194D01*
X171261Y34494D01*
X171881Y34969D01*
X185708Y48796D01*
X186184Y49417D01*
X186483Y50139D01*
X186585Y50914D01*
Y63113D01*
X186648Y63196D01*
X187001Y64047D01*
X187055Y64461D01*
D02*
G37*
G36*
X164264Y41008D02*
X163732Y40938D01*
X162770Y40539D01*
X161945Y39906D01*
X161311Y39080D01*
X160913Y38118D01*
X160843Y37587D01*
X164264D01*
Y41008D01*
D02*
G37*
G36*
X153453D02*
Y37587D01*
X156874D01*
X156804Y38118D01*
X156405Y39080D01*
X155772Y39906D01*
X154946Y40539D01*
X153985Y40938D01*
X153453Y41008D01*
D02*
G37*
G36*
X152453D02*
X151921Y40938D01*
X150959Y40539D01*
X150134Y39906D01*
X149500Y39080D01*
X149102Y38118D01*
X149032Y37587D01*
X152453D01*
Y41008D01*
D02*
G37*
G36*
X141642D02*
Y37587D01*
X145063D01*
X144993Y38118D01*
X144595Y39080D01*
X143961Y39906D01*
X143135Y40539D01*
X142174Y40938D01*
X141642Y41008D01*
D02*
G37*
G36*
X140642D02*
X140110Y40938D01*
X139148Y40539D01*
X138323Y39906D01*
X137689Y39080D01*
X137291Y38118D01*
X137221Y37587D01*
X140642D01*
Y41008D01*
D02*
G37*
G36*
X129831D02*
Y37587D01*
X133252D01*
X133182Y38118D01*
X132783Y39080D01*
X132150Y39906D01*
X131324Y40539D01*
X130363Y40938D01*
X129831Y41008D01*
D02*
G37*
G36*
X128831D02*
X128299Y40938D01*
X127337Y40539D01*
X126512Y39906D01*
X125878Y39080D01*
X125480Y38118D01*
X125410Y37587D01*
X128831D01*
Y41008D01*
D02*
G37*
G36*
X118020D02*
Y37587D01*
X121441D01*
X121371Y38118D01*
X120972Y39080D01*
X120339Y39906D01*
X119513Y40539D01*
X118552Y40938D01*
X118020Y41008D01*
D02*
G37*
G36*
X117020D02*
X116488Y40938D01*
X115526Y40539D01*
X114700Y39906D01*
X114067Y39080D01*
X113669Y38118D01*
X113599Y37587D01*
X117020D01*
Y41008D01*
D02*
G37*
G36*
X106209D02*
Y37587D01*
X109630D01*
X109560Y38118D01*
X109161Y39080D01*
X108528Y39906D01*
X107702Y40539D01*
X106740Y40938D01*
X106209Y41008D01*
D02*
G37*
G36*
X105209D02*
X104677Y40938D01*
X103715Y40539D01*
X102890Y39906D01*
X102256Y39080D01*
X101858Y38118D01*
X101788Y37587D01*
X105209D01*
Y41008D01*
D02*
G37*
G36*
X94398D02*
Y37587D01*
X97819D01*
X97749Y38118D01*
X97350Y39080D01*
X96717Y39906D01*
X95891Y40539D01*
X94929Y40938D01*
X94398Y41008D01*
D02*
G37*
G36*
X93398D02*
X92866Y40938D01*
X91904Y40539D01*
X91079Y39906D01*
X90445Y39080D01*
X90047Y38118D01*
X89977Y37587D01*
X93398D01*
Y41008D01*
D02*
G37*
G36*
X82587D02*
Y37587D01*
X86008D01*
X85938Y38118D01*
X85539Y39080D01*
X84906Y39906D01*
X84080Y40539D01*
X83118Y40938D01*
X82587Y41008D01*
D02*
G37*
G36*
X81587D02*
X81055Y40938D01*
X80093Y40539D01*
X79268Y39906D01*
X78634Y39080D01*
X78236Y38118D01*
X78166Y37587D01*
X81587D01*
Y41008D01*
D02*
G37*
G36*
X275325Y47884D02*
X273972Y47750D01*
X272670Y47356D01*
X271470Y46714D01*
X270419Y45851D01*
X269556Y44800D01*
X268915Y43600D01*
X268520Y42299D01*
X268387Y40945D01*
X268520Y39591D01*
X268915Y38289D01*
X269556Y37090D01*
X270419Y36038D01*
X271470Y35175D01*
X272670Y34534D01*
X273972Y34139D01*
X275325Y34006D01*
X276679Y34139D01*
X277981Y34534D01*
X279181Y35175D01*
X280232Y36038D01*
X281095Y37090D01*
X281736Y38289D01*
X282131Y39591D01*
X282264Y40945D01*
X282131Y42299D01*
X281736Y43600D01*
X281095Y44800D01*
X280232Y45851D01*
X279181Y46714D01*
X277981Y47356D01*
X276679Y47750D01*
X275325Y47884D01*
D02*
G37*
G36*
X164264Y36587D02*
X160843D01*
X160913Y36055D01*
X161311Y35093D01*
X161945Y34268D01*
X162770Y33634D01*
X163732Y33236D01*
X164264Y33166D01*
Y36587D01*
D02*
G37*
G36*
X156874D02*
X153453D01*
Y33166D01*
X153985Y33236D01*
X154946Y33634D01*
X155772Y34268D01*
X156405Y35093D01*
X156804Y36055D01*
X156874Y36587D01*
D02*
G37*
G36*
X152453D02*
X149032D01*
X149102Y36055D01*
X149500Y35093D01*
X150134Y34268D01*
X150959Y33634D01*
X151921Y33236D01*
X152453Y33166D01*
Y36587D01*
D02*
G37*
G36*
X145063D02*
X141642D01*
Y33166D01*
X142174Y33236D01*
X143135Y33634D01*
X143961Y34268D01*
X144595Y35093D01*
X144993Y36055D01*
X145063Y36587D01*
D02*
G37*
G36*
X140642D02*
X137221D01*
X137291Y36055D01*
X137689Y35093D01*
X138323Y34268D01*
X139148Y33634D01*
X140110Y33236D01*
X140642Y33166D01*
Y36587D01*
D02*
G37*
G36*
X133252D02*
X129831D01*
Y33166D01*
X130363Y33236D01*
X131324Y33634D01*
X132150Y34268D01*
X132783Y35093D01*
X133182Y36055D01*
X133252Y36587D01*
D02*
G37*
G36*
X128831D02*
X125410D01*
X125480Y36055D01*
X125878Y35093D01*
X126512Y34268D01*
X127337Y33634D01*
X128299Y33236D01*
X128831Y33166D01*
Y36587D01*
D02*
G37*
G36*
X121441D02*
X118020D01*
Y33166D01*
X118552Y33236D01*
X119513Y33634D01*
X120339Y34268D01*
X120972Y35093D01*
X121371Y36055D01*
X121441Y36587D01*
D02*
G37*
G36*
X117020D02*
X113599D01*
X113669Y36055D01*
X114067Y35093D01*
X114700Y34268D01*
X115526Y33634D01*
X116488Y33236D01*
X117020Y33166D01*
Y36587D01*
D02*
G37*
G36*
X109630D02*
X106209D01*
Y33166D01*
X106740Y33236D01*
X107702Y33634D01*
X108528Y34268D01*
X109161Y35093D01*
X109560Y36055D01*
X109630Y36587D01*
D02*
G37*
G36*
X105209D02*
X101788D01*
X101858Y36055D01*
X102256Y35093D01*
X102890Y34268D01*
X103715Y33634D01*
X104677Y33236D01*
X105209Y33166D01*
Y36587D01*
D02*
G37*
G36*
X97819D02*
X94398D01*
Y33166D01*
X94929Y33236D01*
X95891Y33634D01*
X96717Y34268D01*
X97350Y35093D01*
X97749Y36055D01*
X97819Y36587D01*
D02*
G37*
G36*
X93398D02*
X89977D01*
X90047Y36055D01*
X90445Y35093D01*
X91079Y34268D01*
X91904Y33634D01*
X92866Y33236D01*
X93398Y33166D01*
Y36587D01*
D02*
G37*
G36*
X86008D02*
X82587D01*
Y33166D01*
X83118Y33236D01*
X84080Y33634D01*
X84906Y34268D01*
X85539Y35093D01*
X85938Y36055D01*
X86008Y36587D01*
D02*
G37*
G36*
X81587D02*
X78166D01*
X78236Y36055D01*
X78634Y35093D01*
X79268Y34268D01*
X80093Y33634D01*
X81055Y33236D01*
X81587Y33166D01*
Y36587D01*
D02*
G37*
G36*
X156693Y27611D02*
X155223Y27466D01*
X153810Y27038D01*
X152508Y26342D01*
X151367Y25405D01*
X150430Y24263D01*
X149734Y22961D01*
X149305Y21548D01*
X149161Y20079D01*
X149305Y18609D01*
X149734Y17196D01*
X150430Y15894D01*
X151367Y14753D01*
X152508Y13816D01*
X153810Y13120D01*
X155223Y12691D01*
X156693Y12546D01*
X158162Y12691D01*
X159575Y13120D01*
X160878Y13816D01*
X162019Y14753D01*
X162956Y15894D01*
X163652Y17196D01*
X164081Y18609D01*
X164225Y20079D01*
X164081Y21548D01*
X163652Y22961D01*
X162956Y24263D01*
X162019Y25405D01*
X160878Y26342D01*
X159575Y27038D01*
X158162Y27466D01*
X156693Y27611D01*
D02*
G37*
G36*
X90158D02*
X88688Y27466D01*
X87275Y27038D01*
X85973Y26342D01*
X84831Y25405D01*
X83895Y24263D01*
X83198Y22961D01*
X82770Y21548D01*
X82625Y20079D01*
X82770Y18609D01*
X83198Y17196D01*
X83895Y15894D01*
X84831Y14753D01*
X85973Y13816D01*
X87275Y13120D01*
X88688Y12691D01*
X90158Y12546D01*
X91627Y12691D01*
X93040Y13120D01*
X94342Y13816D01*
X95484Y14753D01*
X96420Y15894D01*
X97116Y17196D01*
X97545Y18609D01*
X97690Y20079D01*
X97545Y21548D01*
X97116Y22961D01*
X96420Y24263D01*
X95484Y25405D01*
X94342Y26342D01*
X93040Y27038D01*
X91627Y27466D01*
X90158Y27611D01*
D02*
G37*
%LPD*%
G36*
X237095Y111021D02*
X236849Y110521D01*
X150325D01*
X150104Y110970D01*
X150301Y111227D01*
X150399Y111463D01*
X236757D01*
X237095Y111021D01*
D02*
G37*
D14*
X147244Y112992D02*
X239463D01*
X239764Y113293D01*
X246063Y177559D02*
X264961D01*
X240158Y171653D02*
X246063Y177559D01*
X240158Y164961D02*
Y171653D01*
X149679D02*
X152041Y169291D01*
X101181Y171653D02*
X149679D01*
X97638Y175197D02*
X101181Y171653D01*
X164961Y163779D02*
Y166142D01*
X161811Y169291D02*
X164961Y166142D01*
X152041Y169291D02*
X161811D01*
X97638Y175197D02*
Y182677D01*
X89764Y120473D02*
X90551Y121260D01*
X89173Y119882D02*
X89764Y120473D01*
X150394Y168110D02*
X153543Y164961D01*
X94882Y168110D02*
X150394D01*
X84976Y158205D02*
X94882Y168110D01*
X153543Y163386D02*
Y164961D01*
X175984Y117323D02*
X196850D01*
X274740Y108992D02*
X305906Y140157D01*
X88976Y135039D02*
X115024Y108992D01*
X274740D01*
X305906Y140157D02*
Y159449D01*
X88976Y135039D02*
Y152362D01*
X84976Y124079D02*
X89173Y119882D01*
X84976Y124079D02*
Y158205D01*
X90551Y119685D02*
Y121260D01*
X98032Y152362D02*
X99606Y150787D01*
Y131102D02*
Y150787D01*
Y131102D02*
X110630Y120079D01*
X150394Y191732D02*
X154331Y187795D01*
Y174803D02*
Y187795D01*
X90748Y191732D02*
X150394D01*
X153543Y174016D02*
X154331Y174803D01*
X80118Y181102D02*
X90748Y191732D01*
D52*
X164764Y37087D02*
X169764D01*
X183591Y50914D01*
Y64961D01*
D55*
X275325Y69685D02*
D03*
Y91339D02*
D03*
D56*
X82087Y37087D02*
D03*
X93898D02*
D03*
X105709D02*
D03*
X117520D02*
D03*
X129331D02*
D03*
X141142D02*
D03*
X152953D02*
D03*
X164764D02*
D03*
Y48898D02*
D03*
X152953D02*
D03*
X141142D02*
D03*
X129331D02*
D03*
X117520D02*
D03*
X105709D02*
D03*
X93898D02*
D03*
X82087D02*
D03*
D57*
X90158Y20079D02*
D03*
X156693D02*
D03*
D58*
X239764Y113293D02*
D03*
X183591Y64961D02*
D03*
X264961Y177559D02*
D03*
X240158Y164961D02*
D03*
X164961Y163779D02*
D03*
X153543Y163386D02*
D03*
X97638Y182677D02*
D03*
X189764Y142520D02*
D03*
X238976Y146063D02*
D03*
X196850Y117323D02*
D03*
X175984D02*
D03*
X147244Y112992D02*
D03*
X197244Y87008D02*
D03*
X182677Y86748D02*
D03*
X169425Y87252D02*
D03*
X305906Y159449D02*
D03*
Y188189D02*
D03*
X90551Y119685D02*
D03*
X110630Y120079D02*
D03*
X98032Y152362D02*
D03*
X88976D02*
D03*
X64961Y171260D02*
D03*
X67323Y108268D02*
D03*
Y84252D02*
D03*
X66823Y95850D02*
D03*
X80118Y181102D02*
D03*
X153543Y174016D02*
D03*
M02*
