G04*
G04 #@! TF.GenerationSoftware,Altium Limited,Altium Designer,19.0.15 (446)*
G04*
G04 Layer_Color=16711935*
%FSLAX25Y25*%
%MOIN*%
G70*
G01*
G75*
%ADD12C,0.00394*%
%ADD55R,0.02039X0.07087*%
%ADD56R,0.02436X0.10984*%
D12*
X175496Y88059D02*
G03*
X175496Y88059I-1969J0D01*
G01*
X103909Y87657D02*
G03*
X103909Y87657I-1969J0D01*
G01*
X197653Y162157D02*
X204346D01*
X197653Y156843D02*
X204346D01*
X197653D02*
Y162157D01*
X204346Y156843D02*
Y162157D01*
X186024Y97158D02*
X194685D01*
X186024Y91843D02*
X194685D01*
X186024D02*
Y97158D01*
X194685Y91843D02*
Y97158D01*
X176169Y54799D02*
X184831D01*
X176169Y60114D02*
X184831D01*
Y54799D02*
Y60114D01*
X176169Y54799D02*
Y60114D01*
X151681Y81669D02*
Y90331D01*
X146366Y81669D02*
Y90331D01*
X151681D01*
X146366Y81669D02*
X151681D01*
X146343Y56669D02*
Y65331D01*
X151657Y56669D02*
Y65331D01*
X146343Y56669D02*
X151657D01*
X146343Y65331D02*
X151657D01*
X145925Y30654D02*
X149075D01*
X145925Y37346D02*
X149075D01*
X145925Y30654D02*
Y37346D01*
X149075Y30654D02*
Y37346D01*
X59342Y110669D02*
Y119331D01*
X64657Y110669D02*
Y119331D01*
X59342Y110669D02*
X64657D01*
X59342Y119331D02*
X64657D01*
X60675Y101347D02*
X63825D01*
X60675Y94653D02*
X63825D01*
Y101347D01*
X60675Y94653D02*
Y101347D01*
X62169Y81346D02*
X70831D01*
X62169Y76032D02*
X70831D01*
X62169D02*
Y81346D01*
X70831Y76032D02*
Y81346D01*
X68468Y101347D02*
X71618D01*
X68468Y94653D02*
X71618D01*
Y101347D01*
X68468Y94653D02*
Y101347D01*
X97658Y53505D02*
Y62166D01*
X92343Y53505D02*
Y62166D01*
X97658D01*
X92343Y53505D02*
X97658D01*
X63153Y68657D02*
X69846D01*
X63153Y63342D02*
X69846D01*
X63153D02*
Y68657D01*
X69846Y63342D02*
Y68657D01*
X81653Y103842D02*
X88346D01*
X81653Y109158D02*
X88346D01*
Y103842D02*
Y109158D01*
X81653Y103842D02*
Y109158D01*
Y92843D02*
X88346D01*
X81653Y98158D02*
X88346D01*
Y92843D02*
Y98158D01*
X81653Y92843D02*
Y98158D01*
X136236Y126835D02*
Y151323D01*
X162811Y126835D02*
Y151323D01*
X136236Y126835D02*
X162811D01*
X136236Y151323D02*
X162811D01*
X256331Y139858D02*
Y164347D01*
X229756Y139858D02*
Y164347D01*
X256331D01*
X229756Y139858D02*
X256331D01*
X193421Y131957D02*
X208579D01*
X193421Y139043D02*
X208579D01*
Y131957D02*
Y139043D01*
X193421Y131957D02*
Y139043D01*
X228945Y93008D02*
Y103992D01*
X247055Y93008D02*
Y103992D01*
X228945D02*
X247055D01*
X228945Y93008D02*
X247055D01*
X160929Y79398D02*
Y91602D01*
X177071Y79398D02*
Y91602D01*
X160929Y79398D02*
X177071D01*
X160929Y91602D02*
X177071D01*
X206343Y120331D02*
X211658D01*
X206343Y111669D02*
X211658D01*
Y120331D01*
X206343Y111669D02*
Y120331D01*
X158343Y30169D02*
X163657D01*
X158343Y38831D02*
X163657D01*
X158343Y30169D02*
Y38831D01*
X163657Y30169D02*
Y38831D01*
X193347Y74083D02*
Y79398D01*
X186653Y74083D02*
Y79398D01*
Y74083D02*
X193347D01*
X186653Y79398D02*
X193347D01*
X176669Y156843D02*
Y162157D01*
X185331Y156843D02*
Y162157D01*
X176669D02*
X185331D01*
X176669Y156843D02*
X185331D01*
X87669Y133343D02*
Y138657D01*
X96331Y133343D02*
Y138657D01*
X87669D02*
X96331D01*
X87669Y133343D02*
X96331D01*
X102847Y31842D02*
Y37157D01*
X96153Y31842D02*
Y37157D01*
Y31842D02*
X102847D01*
X96153Y37157D02*
X102847D01*
X81831Y115342D02*
Y120658D01*
X73169Y115342D02*
Y120658D01*
Y115342D02*
X81831D01*
X73169Y120658D02*
X81831D01*
X106331Y108343D02*
Y113657D01*
X97669Y108343D02*
Y113657D01*
Y108343D02*
X106331D01*
X97669Y113657D02*
X106331D01*
X50098Y42489D02*
X74902D01*
X50098Y17686D02*
X74902D01*
Y42489D01*
X50098Y17686D02*
Y42489D01*
X98398Y78996D02*
X110602D01*
X98398Y91201D02*
X110602D01*
Y78996D02*
Y91201D01*
X98398Y78996D02*
Y91201D01*
X18843Y33154D02*
X24158D01*
X18843Y39846D02*
X24158D01*
X18843Y33154D02*
Y39846D01*
X24158Y33154D02*
Y39846D01*
X33342Y33154D02*
X38658D01*
X33342Y39846D02*
X38658D01*
X33342Y33154D02*
Y39846D01*
X38658Y33154D02*
Y39846D01*
X123217Y73343D02*
Y78658D01*
X116525Y73343D02*
Y78658D01*
Y73343D02*
X123217D01*
X116525Y78658D02*
X123217D01*
X101842Y54489D02*
X107158D01*
X101842Y61182D02*
X107158D01*
X101842Y54489D02*
Y61182D01*
X107158Y54489D02*
Y61182D01*
D55*
X194441Y135500D02*
D03*
D56*
X230163Y98500D02*
D03*
M02*
