G04*
G04 #@! TF.GenerationSoftware,Altium Limited,Altium Designer,19.0.15 (446)*
G04*
G04 Layer_Color=65535*
%FSLAX25Y25*%
%MOIN*%
G70*
G01*
G75*
%ADD10C,0.00984*%
%ADD11C,0.02362*%
%ADD12C,0.00787*%
%ADD13C,0.00394*%
%ADD14C,0.01000*%
D10*
X181595Y189173D02*
G03*
X181595Y189173I-492J0D01*
G01*
X241831Y191929D02*
G03*
X241831Y191929I-492J0D01*
G01*
X140354Y150492D02*
G03*
X140354Y150492I-492J0D01*
G01*
X167362Y128740D02*
G03*
X167362Y128740I-492J0D01*
G01*
X284075Y163976D02*
G03*
X284075Y163976I-492J0D01*
G01*
X300689Y179921D02*
G03*
X300689Y179921I-492J0D01*
G01*
D11*
X135630Y142323D02*
G03*
X135630Y142323I-1181J0D01*
G01*
D12*
X188779Y162874D02*
X189173D01*
X188779D02*
Y189252D01*
X189173D01*
X243898Y192126D02*
X259252D01*
X243898Y185039D02*
X259252D01*
X243898Y191339D02*
Y192126D01*
X259252Y191339D02*
Y192126D01*
X243898Y185039D02*
Y185827D01*
X259252Y185039D02*
Y185827D01*
X225197Y131496D02*
X233071D01*
Y118110D02*
Y131496D01*
X225197Y118110D02*
X233071D01*
X225197D02*
Y131496D01*
X122244Y137205D02*
Y146260D01*
X138386Y137205D02*
Y146260D01*
X122244Y137205D02*
X138386D01*
X122244Y146260D02*
X138386D01*
X169724Y136614D02*
Y142224D01*
X170413D01*
X182421D02*
X183110D01*
Y136614D02*
Y142224D01*
Y128839D02*
Y134449D01*
X182421Y128839D02*
X183110D01*
X169724D02*
Y134449D01*
Y128839D02*
X170413D01*
X283661Y155905D02*
Y156299D01*
X257283D02*
X283661D01*
X257283Y155905D02*
Y156299D01*
X288583Y159055D02*
Y177165D01*
X299606Y159055D02*
Y177165D01*
X111024Y188976D02*
X141732D01*
X111024Y172047D02*
Y188976D01*
Y172047D02*
X141732D01*
Y188976D01*
X218504Y119039D02*
Y120220D01*
D13*
X233134Y90744D02*
Y104244D01*
X225134Y90744D02*
X233134D01*
X225134D02*
Y104244D01*
X233134D01*
X96256Y87339D02*
X109756D01*
X96256D02*
Y95339D01*
X109756D01*
Y87339D02*
Y95339D01*
X233528Y146650D02*
Y160150D01*
X225528Y146650D02*
X233528D01*
X225528D02*
Y160150D01*
X233528D01*
X150587Y181039D02*
X164087D01*
X150587D02*
Y189039D01*
X164087D01*
Y181039D02*
Y189039D01*
X70165Y118961D02*
X83665D01*
Y110961D02*
Y118961D01*
X70165Y110961D02*
X83665D01*
X70165D02*
Y118961D01*
X70463Y121850D02*
X83963D01*
X70463D02*
Y129850D01*
X83963D01*
Y121850D02*
Y129850D01*
X70953Y165417D02*
X84453D01*
Y157417D02*
Y165417D01*
X70953Y157417D02*
X84453D01*
X70953D02*
Y165417D01*
X70368Y141292D02*
X83868D01*
Y133292D02*
Y141292D01*
X70368Y133292D02*
X83868D01*
X70368D02*
Y141292D01*
Y152734D02*
X83868D01*
Y144734D02*
Y152734D01*
X70368Y144734D02*
X83868D01*
X70368D02*
Y152734D01*
D14*
X260171Y105044D02*
X264170Y99046D01*
Y105044D02*
X260171Y99046D01*
X266169D02*
X268168D01*
X267169D01*
Y105044D01*
X266169Y104044D01*
X73263Y61293D02*
X71263D01*
X72263D01*
Y56294D01*
X71263Y55295D01*
X70263D01*
X69264Y56294D01*
X75262Y55295D02*
X77261D01*
X76262D01*
Y61293D01*
X75262Y60293D01*
X232677Y72835D02*
X226679D01*
Y75834D01*
X227679Y76833D01*
X229678D01*
X230678Y75834D01*
Y72835D01*
Y74834D02*
X232677Y76833D01*
Y78833D02*
Y80832D01*
Y79832D01*
X226679D01*
X227679Y78833D01*
Y83831D02*
X226679Y84831D01*
Y86830D01*
X227679Y87830D01*
X231677D01*
X232677Y86830D01*
Y84831D01*
X231677Y83831D01*
X227679D01*
X225850Y134895D02*
Y140893D01*
X228849D01*
X229849Y139894D01*
Y137894D01*
X228849Y136895D01*
X225850D01*
X227850D02*
X229849Y134895D01*
X231849Y135895D02*
X232848Y134895D01*
X234847D01*
X235847Y135895D01*
Y139894D01*
X234847Y140893D01*
X232848D01*
X231849Y139894D01*
Y138894D01*
X232848Y137894D01*
X235847D01*
X97638Y79634D02*
Y85632D01*
X100637D01*
X101637Y84632D01*
Y82633D01*
X100637Y81633D01*
X97638D01*
X99637D02*
X101637Y79634D01*
X103636Y84632D02*
X104636Y85632D01*
X106635D01*
X107635Y84632D01*
Y83633D01*
X106635Y82633D01*
X107635Y81633D01*
Y80634D01*
X106635Y79634D01*
X104636D01*
X103636Y80634D01*
Y81633D01*
X104636Y82633D01*
X103636Y83633D01*
Y84632D01*
X104636Y82633D02*
X106635D01*
X226313Y163304D02*
Y169302D01*
X229312D01*
X230311Y168302D01*
Y166303D01*
X229312Y165303D01*
X226313D01*
X228312D02*
X230311Y163304D01*
X232311Y169302D02*
X236309D01*
Y168302D01*
X232311Y164304D01*
Y163304D01*
X151325Y192268D02*
Y198266D01*
X154324D01*
X155324Y197266D01*
Y195267D01*
X154324Y194267D01*
X151325D01*
X153324D02*
X155324Y192268D01*
X157323Y197266D02*
X158323Y198266D01*
X160322D01*
X161322Y197266D01*
Y196266D01*
X160322Y195267D01*
X159323D01*
X160322D01*
X161322Y194267D01*
Y193267D01*
X160322Y192268D01*
X158323D01*
X157323Y193267D01*
X200455Y192732D02*
Y196731D01*
X199456Y197730D01*
X197456D01*
X196457Y196731D01*
Y192732D01*
X197456Y191732D01*
X199456D01*
X198456Y193732D02*
X200455Y191732D01*
X199456D02*
X200455Y192732D01*
X202455Y191732D02*
X204454D01*
X203454D01*
Y197730D01*
X202455Y196731D01*
X246850Y200093D02*
Y194095D01*
X249849D01*
X250849Y195094D01*
Y199093D01*
X249849Y200093D01*
X246850D01*
X256847Y194095D02*
X252849D01*
X256847Y198093D01*
Y199093D01*
X255848Y200093D01*
X253848D01*
X252849Y199093D01*
X142126Y145132D02*
Y140134D01*
X143126Y139134D01*
X145125D01*
X146125Y140134D01*
Y145132D01*
X148124Y139134D02*
X150123D01*
X149124D01*
Y145132D01*
X148124Y144132D01*
X57266Y173502D02*
X56267Y174502D01*
X54267D01*
X53268Y173502D01*
Y169503D01*
X54267Y168504D01*
X56267D01*
X57266Y169503D01*
X59266Y168504D02*
X61265D01*
X60265D01*
Y174502D01*
X59266Y173502D01*
X154961Y132711D02*
Y127712D01*
X155960Y126713D01*
X157960D01*
X158959Y127712D01*
Y132711D01*
X164957Y126713D02*
X160959D01*
X164957Y130711D01*
Y131711D01*
X163958Y132711D01*
X161958D01*
X160959Y131711D01*
X111663Y192362D02*
Y198360D01*
X114662D01*
X115662Y197361D01*
Y195361D01*
X114662Y194362D01*
X111663D01*
X113662D02*
X115662Y192362D01*
X117661D02*
X120660D01*
X121660Y193362D01*
X120660Y194362D01*
X118661D01*
X117661Y195361D01*
X118661Y196361D01*
X121660D01*
X123659Y192362D02*
Y196361D01*
X126658D01*
X127658Y195361D01*
Y192362D01*
X129657D02*
X132656D01*
X133656Y193362D01*
X132656Y194362D01*
X130657D01*
X129657Y195361D01*
X130657Y196361D01*
X133656D01*
X52474Y156855D02*
Y162853D01*
X55473D01*
X56473Y161854D01*
Y159854D01*
X55473Y158855D01*
X52474D01*
X54474D02*
X56473Y156855D01*
X62471Y162853D02*
X60472Y161854D01*
X58473Y159854D01*
Y157855D01*
X59472Y156855D01*
X61471D01*
X62471Y157855D01*
Y158855D01*
X61471Y159854D01*
X58473D01*
X52474Y145443D02*
Y151441D01*
X55473D01*
X56473Y150441D01*
Y148442D01*
X55473Y147442D01*
X52474D01*
X54474D02*
X56473Y145443D01*
X62471Y151441D02*
X58473D01*
Y148442D01*
X60472Y149442D01*
X61471D01*
X62471Y148442D01*
Y146443D01*
X61471Y145443D01*
X59472D01*
X58473Y146443D01*
X52474Y134030D02*
Y140029D01*
X55473D01*
X56473Y139029D01*
Y137030D01*
X55473Y136030D01*
X52474D01*
X54474D02*
X56473Y134030D01*
X61471D02*
Y140029D01*
X58473Y137030D01*
X62471D01*
X52474Y111206D02*
Y117204D01*
X55473D01*
X56473Y116204D01*
Y114205D01*
X55473Y113205D01*
X52474D01*
X54474D02*
X56473Y111206D01*
X62471D02*
X58473D01*
X62471Y115204D01*
Y116204D01*
X61471Y117204D01*
X59472D01*
X58473Y116204D01*
X52474Y122618D02*
Y128616D01*
X55473D01*
X56473Y127617D01*
Y125617D01*
X55473Y124618D01*
X52474D01*
X54474D02*
X56473Y122618D01*
X58473D02*
X60472D01*
X59472D01*
Y128616D01*
X58473Y127617D01*
X269747Y118323D02*
Y122321D01*
X268747Y123321D01*
X266748D01*
X265748Y122321D01*
Y118323D01*
X266748Y117323D01*
X268747D01*
X267747Y119322D02*
X269747Y117323D01*
X268747D02*
X269747Y118323D01*
X275745Y117323D02*
X271746D01*
X275745Y121321D01*
Y122321D01*
X274745Y123321D01*
X272746D01*
X271746Y122321D01*
X211403Y130175D02*
Y124177D01*
X215402D01*
X217401D02*
X219401D01*
X218401D01*
Y130175D01*
X217401Y129175D01*
X301876Y165748D02*
X307874D01*
Y168747D01*
X306874Y169747D01*
X302876D01*
X301876Y168747D01*
Y165748D01*
X307874Y171746D02*
Y173745D01*
Y172746D01*
X301876D01*
X302876Y171746D01*
X213757Y76833D02*
X212758Y75834D01*
Y73834D01*
X213757Y72835D01*
X217756D01*
X218756Y73834D01*
Y75834D01*
X217756Y76833D01*
X218756Y78833D02*
Y80832D01*
Y79832D01*
X212758D01*
X213757Y78833D01*
Y83831D02*
X212758Y84831D01*
Y86830D01*
X213757Y87830D01*
X217756D01*
X218756Y86830D01*
Y84831D01*
X217756Y83831D01*
X213757D01*
X200391Y76833D02*
X199391Y75834D01*
Y73834D01*
X200391Y72835D01*
X204390D01*
X205389Y73834D01*
Y75834D01*
X204390Y76833D01*
Y78833D02*
X205389Y79832D01*
Y81832D01*
X204390Y82831D01*
X200391D01*
X199391Y81832D01*
Y79832D01*
X200391Y78833D01*
X201391D01*
X202391Y79832D01*
Y82831D01*
X187025Y76833D02*
X186025Y75834D01*
Y73834D01*
X187025Y72835D01*
X191024D01*
X192023Y73834D01*
Y75834D01*
X191024Y76833D01*
X187025Y78833D02*
X186025Y79832D01*
Y81832D01*
X187025Y82831D01*
X188024D01*
X189024Y81832D01*
X190024Y82831D01*
X191024D01*
X192023Y81832D01*
Y79832D01*
X191024Y78833D01*
X190024D01*
X189024Y79832D01*
X188024Y78833D01*
X187025D01*
X189024Y79832D02*
Y81832D01*
X173647Y76833D02*
X172647Y75834D01*
Y73834D01*
X173647Y72835D01*
X177646D01*
X178645Y73834D01*
Y75834D01*
X177646Y76833D01*
X172647Y78833D02*
Y82831D01*
X173647D01*
X177646Y78833D01*
X178645D01*
X160292Y76833D02*
X159293Y75834D01*
Y73834D01*
X160292Y72835D01*
X164291D01*
X165291Y73834D01*
Y75834D01*
X164291Y76833D01*
X159293Y82831D02*
X160292Y80832D01*
X162292Y78833D01*
X164291D01*
X165291Y79832D01*
Y81832D01*
X164291Y82831D01*
X163291D01*
X162292Y81832D01*
Y78833D01*
X56479Y93551D02*
X55479Y94551D01*
X53480D01*
X52480Y93551D01*
Y89553D01*
X53480Y88553D01*
X55479D01*
X56479Y89553D01*
X62477Y94551D02*
X58478D01*
Y91552D01*
X60478Y92552D01*
X61477D01*
X62477Y91552D01*
Y89553D01*
X61477Y88553D01*
X59478D01*
X58478Y89553D01*
X56473Y81967D02*
X55473Y82967D01*
X53474D01*
X52474Y81967D01*
Y77968D01*
X53474Y76969D01*
X55473D01*
X56473Y77968D01*
X61471Y76969D02*
Y82967D01*
X58473Y79968D01*
X62471D01*
X198627Y136045D02*
X197628Y137045D01*
X195628D01*
X194629Y136045D01*
Y132046D01*
X195628Y131047D01*
X197628D01*
X198627Y132046D01*
X200627Y136045D02*
X201626Y137045D01*
X203626D01*
X204626Y136045D01*
Y135045D01*
X203626Y134046D01*
X202626D01*
X203626D01*
X204626Y133046D01*
Y132046D01*
X203626Y131047D01*
X201626D01*
X200627Y132046D01*
X56473Y104792D02*
X55473Y105791D01*
X53474D01*
X52474Y104792D01*
Y100793D01*
X53474Y99793D01*
X55473D01*
X56473Y100793D01*
X62471Y99793D02*
X58473D01*
X62471Y103792D01*
Y104792D01*
X61471Y105791D01*
X59472D01*
X58473Y104792D01*
M02*
