G04*
G04 #@! TF.GenerationSoftware,Altium Limited,Altium Designer,19.0.15 (446)*
G04*
G04 Layer_Physical_Order=1*
G04 Layer_Color=255*
%FSLAX25Y25*%
%MOIN*%
G70*
G01*
G75*
%ADD14C,0.01000*%
%ADD16R,0.03937X0.05512*%
%ADD17R,0.04331X0.05315*%
%ADD18R,0.05315X0.04331*%
%ADD19R,0.03347X0.02559*%
%ADD20R,0.23819X0.28347*%
%ADD21R,0.03937X0.11811*%
%ADD22R,0.04134X0.02362*%
%ADD23R,0.08268X0.07087*%
%ADD24O,0.01968X0.05315*%
%ADD25R,0.06299X0.13780*%
%ADD26R,0.22441X0.06299*%
%ADD27R,0.09449X0.06299*%
%ADD28R,0.00984X0.02165*%
%ADD29R,0.05512X0.03937*%
%ADD50C,0.23622*%
%ADD51C,0.05906*%
%ADD52C,0.12992*%
%ADD53C,0.08661*%
%ADD54C,0.05000*%
G36*
X99500Y142028D02*
X99433Y142000D01*
X91622D01*
Y139657D01*
X88957D01*
Y136000D01*
Y132343D01*
X91622D01*
Y126500D01*
X91622D01*
X91622D01*
X91676Y126446D01*
X91676Y122468D01*
X101531Y115573D01*
Y114657D01*
X98957D01*
Y111000D01*
Y107343D01*
X101532D01*
X101532Y105000D01*
X95000Y105000D01*
Y93000D01*
X93736Y91736D01*
X91418D01*
X90921Y91744D01*
Y95000D01*
X87953D01*
Y95500D01*
X87453D01*
Y99256D01*
X85000D01*
Y102744D01*
X87453D01*
Y106500D01*
Y110256D01*
X85000D01*
Y111721D01*
X84264Y112457D01*
X77500D01*
Y114048D01*
X77878Y114342D01*
X78000Y114342D01*
X80543D01*
Y118000D01*
Y121658D01*
X78000D01*
X77878Y121658D01*
X77500Y121952D01*
Y126236D01*
X77765Y126500D01*
X51285D01*
X51214Y126591D01*
X51295Y127111D01*
X51361Y127213D01*
X52130Y127803D01*
X52764Y128629D01*
X53162Y129590D01*
X53232Y130122D01*
X49311D01*
X45390D01*
X45460Y129590D01*
X45858Y128629D01*
X46492Y127803D01*
X47261Y127213D01*
X47327Y127111D01*
X47408Y126591D01*
X47337Y126500D01*
X43500D01*
Y170334D01*
X43166Y170000D01*
X28500D01*
Y194500D01*
X43498D01*
X43500Y192491D01*
Y194500D01*
X99500D01*
Y142028D01*
D02*
G37*
G36*
X51162Y125488D02*
X51224Y125493D01*
X51285Y125480D01*
X68500D01*
Y115000D01*
X65952D01*
X65658Y115378D01*
X65658Y115500D01*
Y118043D01*
X58342D01*
Y115500D01*
X58342Y115378D01*
X58048Y115000D01*
X58000D01*
Y91744D01*
X66000D01*
Y87000D01*
Y82346D01*
X63457D01*
Y78689D01*
Y75032D01*
X66000D01*
Y69756D01*
X64047D01*
Y66000D01*
Y62244D01*
X66000D01*
Y58500D01*
X70000Y54500D01*
X77500D01*
Y34500D01*
X74500Y31500D01*
X45500D01*
X40500Y36500D01*
X39756D01*
Y38953D01*
X36000D01*
X32244D01*
Y36500D01*
X25256D01*
Y38953D01*
X21500D01*
X17744D01*
Y36500D01*
X14500D01*
X13500Y37500D01*
Y52500D01*
X42117D01*
X44500Y54883D01*
X43500Y55883D01*
Y62401D01*
X43520Y62500D01*
X43520Y125480D01*
X47337D01*
X47398Y125493D01*
X47459Y125488D01*
X47497Y125500D01*
X51125D01*
X51162Y125488D01*
D02*
G37*
G36*
X42480Y126500D02*
X42500Y126401D01*
X42500Y62500D01*
X31500D01*
X31500Y167500D01*
X42480D01*
Y126500D01*
D02*
G37*
G36*
X214000Y195500D02*
Y173500D01*
X201443D01*
X194443Y166500D01*
X177457D01*
X177000Y166957D01*
Y195500D01*
X214000Y195500D01*
D02*
G37*
G36*
X175000Y167500D02*
X154500D01*
Y155000D01*
X152500Y153000D01*
X143516D01*
Y158500D01*
X137579D01*
Y153000D01*
X130500D01*
X130500Y121500D01*
X104000D01*
Y194500D01*
X175000D01*
Y167500D01*
D02*
G37*
G36*
X237500Y195500D02*
X257000Y176000D01*
Y140000D01*
X201000D01*
Y123500D01*
X195000Y117500D01*
X132500D01*
Y148500D01*
X135231Y151231D01*
X137478D01*
X137577Y151251D01*
X137677Y151251D01*
X137770Y151269D01*
X137770D01*
X137770D01*
X137770Y151269D01*
X137863Y151307D01*
X137868Y151309D01*
X137873Y151312D01*
X137879Y151314D01*
X137969Y151332D01*
X138045Y151383D01*
X138137Y151421D01*
X138138Y151421D01*
D01*
D01*
X138145Y151426D01*
X138216Y151497D01*
X138300Y151553D01*
X138338Y151610D01*
X142757D01*
X142795Y151553D01*
X142878Y151497D01*
X142949Y151426D01*
X142957Y151421D01*
X142957Y151421D01*
X142957Y151421D01*
X142957Y151421D01*
X143050Y151383D01*
X143126Y151332D01*
X143215Y151314D01*
X143221Y151312D01*
X143226Y151309D01*
X143232Y151307D01*
X143324Y151269D01*
X143325Y151269D01*
X143325Y151269D01*
X143325D01*
X143417Y151251D01*
X143518D01*
X143616Y151231D01*
X146150D01*
X146249Y151251D01*
X146349Y151251D01*
X146442Y151269D01*
D01*
D01*
X146442Y151269D01*
X146535Y151307D01*
X146540Y151309D01*
X146545Y151312D01*
X146620Y151343D01*
X146706Y151379D01*
X146712Y151380D01*
X146717Y151383D01*
X146809Y151421D01*
X146809Y151421D01*
D01*
D01*
X146888Y151474D01*
X146959Y151545D01*
X147043Y151601D01*
X147052Y151610D01*
X207610D01*
X214000Y158000D01*
X214000Y195500D01*
X237500Y195500D01*
D02*
G37*
G36*
X257499Y138146D02*
X257039Y26539D01*
X242000Y11500D01*
X205000Y11500D01*
X180535D01*
Y48500D01*
Y53441D01*
X180878Y53799D01*
X181035Y53799D01*
X183543D01*
Y57457D01*
Y61114D01*
X181035D01*
X180878Y61114D01*
X180535Y61472D01*
Y67333D01*
X238000Y67333D01*
X238000Y138500D01*
X249051Y138500D01*
Y132681D01*
X252020D01*
X254988D01*
Y138500D01*
X257146D01*
X257499Y138146D01*
D02*
G37*
G36*
X234000Y116500D02*
Y103043D01*
X229839D01*
Y98500D01*
Y93957D01*
X234000D01*
Y91500D01*
Y86500D01*
Y73500D01*
X234500Y73000D01*
X232500Y71000D01*
X190354D01*
Y72984D01*
X192453D01*
Y76740D01*
Y80496D01*
X190354D01*
Y90548D01*
X190732Y90842D01*
X190854Y90842D01*
X193398D01*
Y94500D01*
Y98158D01*
X190854D01*
X190732Y98158D01*
X190354Y98452D01*
Y103280D01*
X199776Y116500D01*
X205343D01*
Y116378D01*
X212657D01*
Y116500D01*
X216000D01*
X234000Y116500D01*
D02*
G37*
%LPC*%
G36*
X93020Y167390D02*
X89370D01*
Y160000D01*
X93020D01*
Y167390D01*
D02*
G37*
G36*
X88370D02*
X84720D01*
Y160000D01*
X88370D01*
Y167390D01*
D02*
G37*
G36*
X49811Y158165D02*
Y154744D01*
X53232D01*
X53162Y155276D01*
X52764Y156237D01*
X52130Y157063D01*
X51304Y157697D01*
X50343Y158095D01*
X49811Y158165D01*
D02*
G37*
G36*
X48811D02*
X48279Y158095D01*
X47318Y157697D01*
X46492Y157063D01*
X45858Y156237D01*
X45460Y155276D01*
X45390Y154744D01*
X48811D01*
Y158165D01*
D02*
G37*
G36*
X93020Y159000D02*
X89370D01*
Y151610D01*
X93020D01*
Y159000D01*
D02*
G37*
G36*
X88370D02*
X84720D01*
Y151610D01*
X88370D01*
Y159000D01*
D02*
G37*
G36*
X53232Y153744D02*
X49811D01*
Y150323D01*
X50343Y150393D01*
X51304Y150791D01*
X52130Y151425D01*
X52764Y152251D01*
X53162Y153212D01*
X53232Y153744D01*
D02*
G37*
G36*
X48811D02*
X45390D01*
X45460Y153212D01*
X45858Y152251D01*
X46492Y151425D01*
X47318Y150791D01*
X48279Y150393D01*
X48811Y150323D01*
Y153744D01*
D02*
G37*
G36*
X49811Y146354D02*
Y142933D01*
X53232D01*
X53162Y143465D01*
X52764Y144427D01*
X52130Y145252D01*
X51304Y145886D01*
X50343Y146284D01*
X49811Y146354D01*
D02*
G37*
G36*
X48811D02*
X48279Y146284D01*
X47318Y145886D01*
X46492Y145252D01*
X45858Y144427D01*
X45460Y143465D01*
X45390Y142933D01*
X48811D01*
Y146354D01*
D02*
G37*
G36*
X53232Y141933D02*
X49811D01*
Y138512D01*
X50343Y138582D01*
X51304Y138980D01*
X52130Y139614D01*
X52764Y140440D01*
X53162Y141401D01*
X53232Y141933D01*
D02*
G37*
G36*
X48811D02*
X45390D01*
X45460Y141401D01*
X45858Y140440D01*
X46492Y139614D01*
X47318Y138980D01*
X48279Y138582D01*
X48811Y138512D01*
Y141933D01*
D02*
G37*
G36*
X87957Y139657D02*
X85291D01*
Y136500D01*
X87957D01*
Y139657D01*
D02*
G37*
G36*
Y135500D02*
X85291D01*
Y132343D01*
X87957D01*
Y135500D01*
D02*
G37*
G36*
X49811Y134543D02*
Y131122D01*
X53232D01*
X53162Y131654D01*
X52764Y132615D01*
X52130Y133441D01*
X51304Y134075D01*
X50343Y134473D01*
X49811Y134543D01*
D02*
G37*
G36*
X48811D02*
X48279Y134473D01*
X47318Y134075D01*
X46492Y133441D01*
X45858Y132615D01*
X45460Y131654D01*
X45390Y131122D01*
X48811D01*
Y134543D01*
D02*
G37*
G36*
X81543Y121658D02*
Y118500D01*
X84209D01*
Y121658D01*
X81543D01*
D02*
G37*
G36*
X84209Y117500D02*
X81543D01*
Y114342D01*
X84209D01*
Y117500D01*
D02*
G37*
G36*
X97957Y114657D02*
X95291D01*
Y111500D01*
X97957D01*
Y114657D01*
D02*
G37*
G36*
Y110500D02*
X95291D01*
Y107343D01*
X97957D01*
Y110500D01*
D02*
G37*
G36*
X90921Y110256D02*
X88453D01*
Y107000D01*
X90921D01*
Y110256D01*
D02*
G37*
G36*
Y106000D02*
X88453D01*
Y102744D01*
X90921D01*
Y106000D01*
D02*
G37*
G36*
Y99256D02*
X88453D01*
Y96000D01*
X90921D01*
Y99256D01*
D02*
G37*
G36*
X49811Y122732D02*
Y119311D01*
X53232D01*
X53162Y119843D01*
X52764Y120804D01*
X52130Y121630D01*
X51304Y122264D01*
X50343Y122662D01*
X49811Y122732D01*
D02*
G37*
G36*
X48811D02*
X48279Y122662D01*
X47318Y122264D01*
X46492Y121630D01*
X45858Y120804D01*
X45460Y119843D01*
X45390Y119311D01*
X48811D01*
Y122732D01*
D02*
G37*
G36*
X65658Y121709D02*
X62500D01*
Y119043D01*
X65658D01*
Y121709D01*
D02*
G37*
G36*
X61500D02*
X58342D01*
Y119043D01*
X61500D01*
Y121709D01*
D02*
G37*
G36*
X53232Y118311D02*
X49811D01*
Y114890D01*
X50343Y114960D01*
X51304Y115358D01*
X52130Y115992D01*
X52764Y116818D01*
X53162Y117779D01*
X53232Y118311D01*
D02*
G37*
G36*
X48811D02*
X45390D01*
X45460Y117779D01*
X45858Y116818D01*
X46492Y115992D01*
X47318Y115358D01*
X48279Y114960D01*
X48811Y114890D01*
Y118311D01*
D02*
G37*
G36*
X49811Y110921D02*
Y107500D01*
X53232D01*
X53162Y108032D01*
X52764Y108993D01*
X52130Y109819D01*
X51304Y110453D01*
X50343Y110851D01*
X49811Y110921D01*
D02*
G37*
G36*
X48811D02*
X48279Y110851D01*
X47318Y110453D01*
X46492Y109819D01*
X45858Y108993D01*
X45460Y108032D01*
X45390Y107500D01*
X48811D01*
Y110921D01*
D02*
G37*
G36*
X53232Y106500D02*
X49811D01*
Y103079D01*
X50343Y103149D01*
X51304Y103547D01*
X52130Y104181D01*
X52764Y105007D01*
X53162Y105968D01*
X53232Y106500D01*
D02*
G37*
G36*
X48811D02*
X45390D01*
X45460Y105968D01*
X45858Y105007D01*
X46492Y104181D01*
X47318Y103547D01*
X48279Y103149D01*
X48811Y103079D01*
Y106500D01*
D02*
G37*
G36*
X49811Y99110D02*
Y95689D01*
X53232D01*
X53162Y96221D01*
X52764Y97182D01*
X52130Y98008D01*
X51304Y98642D01*
X50343Y99040D01*
X49811Y99110D01*
D02*
G37*
G36*
X48811D02*
X48279Y99040D01*
X47318Y98642D01*
X46492Y98008D01*
X45858Y97182D01*
X45460Y96221D01*
X45390Y95689D01*
X48811D01*
Y99110D01*
D02*
G37*
G36*
X53232Y94689D02*
X49811D01*
Y91268D01*
X50343Y91338D01*
X51304Y91736D01*
X52130Y92370D01*
X52764Y93195D01*
X53162Y94157D01*
X53232Y94689D01*
D02*
G37*
G36*
X48811D02*
X45390D01*
X45460Y94157D01*
X45858Y93195D01*
X46492Y92370D01*
X47318Y91736D01*
X48279Y91338D01*
X48811Y91268D01*
Y94689D01*
D02*
G37*
G36*
X49811Y87299D02*
Y83878D01*
X53232D01*
X53162Y84410D01*
X52764Y85371D01*
X52130Y86197D01*
X51304Y86831D01*
X50343Y87229D01*
X49811Y87299D01*
D02*
G37*
G36*
X48811D02*
X48279Y87229D01*
X47318Y86831D01*
X46492Y86197D01*
X45858Y85371D01*
X45460Y84410D01*
X45390Y83878D01*
X48811D01*
Y87299D01*
D02*
G37*
G36*
X53232Y82878D02*
X49811D01*
Y79457D01*
X50343Y79527D01*
X51304Y79925D01*
X52130Y80559D01*
X52764Y81384D01*
X53162Y82346D01*
X53232Y82878D01*
D02*
G37*
G36*
X48811D02*
X45390D01*
X45460Y82346D01*
X45858Y81384D01*
X46492Y80559D01*
X47318Y79925D01*
X48279Y79527D01*
X48811Y79457D01*
Y82878D01*
D02*
G37*
G36*
X62457Y82346D02*
X59791D01*
Y79189D01*
X62457D01*
Y82346D01*
D02*
G37*
G36*
Y78189D02*
X59791D01*
Y75032D01*
X62457D01*
Y78189D01*
D02*
G37*
G36*
X49811Y75488D02*
Y72067D01*
X53232D01*
X53162Y72599D01*
X52764Y73560D01*
X52130Y74386D01*
X51304Y75020D01*
X50343Y75418D01*
X49811Y75488D01*
D02*
G37*
G36*
X48811D02*
X48279Y75418D01*
X47318Y75020D01*
X46492Y74386D01*
X45858Y73560D01*
X45460Y72599D01*
X45390Y72067D01*
X48811D01*
Y75488D01*
D02*
G37*
G36*
X53232Y71067D02*
X49811D01*
Y67646D01*
X50343Y67716D01*
X51304Y68114D01*
X52130Y68748D01*
X52764Y69573D01*
X53162Y70535D01*
X53232Y71067D01*
D02*
G37*
G36*
X48811D02*
X45390D01*
X45460Y70535D01*
X45858Y69573D01*
X46492Y68748D01*
X47318Y68114D01*
X48279Y67716D01*
X48811Y67646D01*
Y71067D01*
D02*
G37*
G36*
X63047Y69756D02*
X60579D01*
Y66500D01*
X63047D01*
Y69756D01*
D02*
G37*
G36*
Y65500D02*
X60579D01*
Y62244D01*
X63047D01*
Y65500D01*
D02*
G37*
G36*
X39756Y42421D02*
X36500D01*
Y39953D01*
X39756D01*
Y42421D01*
D02*
G37*
G36*
X25256D02*
X22000D01*
Y39953D01*
X25256D01*
Y42421D01*
D02*
G37*
G36*
X35500D02*
X32244D01*
Y39953D01*
X35500D01*
Y42421D01*
D02*
G37*
G36*
X21000D02*
X17744D01*
Y39953D01*
X21000D01*
Y42421D01*
D02*
G37*
G36*
X74721Y43489D02*
X63000D01*
Y39840D01*
X74721D01*
Y43489D01*
D02*
G37*
G36*
X62000D02*
X50279D01*
Y39840D01*
X62000D01*
Y43489D01*
D02*
G37*
G36*
X74721Y38840D02*
X63000D01*
Y35190D01*
X74721D01*
Y38840D01*
D02*
G37*
G36*
X62000D02*
X50279D01*
Y35190D01*
X62000D01*
Y38840D01*
D02*
G37*
G36*
X38000Y158165D02*
Y154744D01*
X41421D01*
X41351Y155276D01*
X40953Y156237D01*
X40319Y157063D01*
X39493Y157697D01*
X38532Y158095D01*
X38000Y158165D01*
D02*
G37*
G36*
X37000D02*
X36468Y158095D01*
X35507Y157697D01*
X34681Y157063D01*
X34047Y156237D01*
X33649Y155276D01*
X33579Y154744D01*
X37000D01*
Y158165D01*
D02*
G37*
G36*
X41421Y153744D02*
X38000D01*
Y150323D01*
X38532Y150393D01*
X39493Y150791D01*
X40319Y151425D01*
X40953Y152251D01*
X41351Y153212D01*
X41421Y153744D01*
D02*
G37*
G36*
X37000D02*
X33579D01*
X33649Y153212D01*
X34047Y152251D01*
X34681Y151425D01*
X35507Y150791D01*
X36468Y150393D01*
X37000Y150323D01*
Y153744D01*
D02*
G37*
G36*
X38000Y146354D02*
Y142933D01*
X41421D01*
X41351Y143465D01*
X40953Y144427D01*
X40319Y145252D01*
X39493Y145886D01*
X38532Y146284D01*
X38000Y146354D01*
D02*
G37*
G36*
X37000D02*
X36468Y146284D01*
X35507Y145886D01*
X34681Y145252D01*
X34047Y144427D01*
X33649Y143465D01*
X33579Y142933D01*
X37000D01*
Y146354D01*
D02*
G37*
G36*
X41421Y141933D02*
X38000D01*
Y138512D01*
X38532Y138582D01*
X39493Y138980D01*
X40319Y139614D01*
X40953Y140440D01*
X41351Y141401D01*
X41421Y141933D01*
D02*
G37*
G36*
X37000D02*
X33579D01*
X33649Y141401D01*
X34047Y140440D01*
X34681Y139614D01*
X35507Y138980D01*
X36468Y138582D01*
X37000Y138512D01*
Y141933D01*
D02*
G37*
G36*
X38000Y134543D02*
Y131122D01*
X41421D01*
X41351Y131654D01*
X40953Y132615D01*
X40319Y133441D01*
X39493Y134075D01*
X38532Y134473D01*
X38000Y134543D01*
D02*
G37*
G36*
X37000D02*
X36468Y134473D01*
X35507Y134075D01*
X34681Y133441D01*
X34047Y132615D01*
X33649Y131654D01*
X33579Y131122D01*
X37000D01*
Y134543D01*
D02*
G37*
G36*
X41421Y130122D02*
X38000D01*
Y126701D01*
X38532Y126771D01*
X39493Y127169D01*
X40319Y127803D01*
X40953Y128629D01*
X41351Y129590D01*
X41421Y130122D01*
D02*
G37*
G36*
X37000D02*
X33579D01*
X33649Y129590D01*
X34047Y128629D01*
X34681Y127803D01*
X35507Y127169D01*
X36468Y126771D01*
X37000Y126701D01*
Y130122D01*
D02*
G37*
G36*
X38000Y122732D02*
Y119311D01*
X41421D01*
X41351Y119843D01*
X40953Y120804D01*
X40319Y121630D01*
X39493Y122264D01*
X38532Y122662D01*
X38000Y122732D01*
D02*
G37*
G36*
X37000D02*
X36468Y122662D01*
X35507Y122264D01*
X34681Y121630D01*
X34047Y120804D01*
X33649Y119843D01*
X33579Y119311D01*
X37000D01*
Y122732D01*
D02*
G37*
G36*
X41421Y118311D02*
X38000D01*
Y114890D01*
X38532Y114960D01*
X39493Y115358D01*
X40319Y115992D01*
X40953Y116818D01*
X41351Y117779D01*
X41421Y118311D01*
D02*
G37*
G36*
X37000D02*
X33579D01*
X33649Y117779D01*
X34047Y116818D01*
X34681Y115992D01*
X35507Y115358D01*
X36468Y114960D01*
X37000Y114890D01*
Y118311D01*
D02*
G37*
G36*
X38000Y110921D02*
Y107500D01*
X41421D01*
X41351Y108032D01*
X40953Y108993D01*
X40319Y109819D01*
X39493Y110453D01*
X38532Y110851D01*
X38000Y110921D01*
D02*
G37*
G36*
X37000D02*
X36468Y110851D01*
X35507Y110453D01*
X34681Y109819D01*
X34047Y108993D01*
X33649Y108032D01*
X33579Y107500D01*
X37000D01*
Y110921D01*
D02*
G37*
G36*
X41421Y106500D02*
X38000D01*
Y103079D01*
X38532Y103149D01*
X39493Y103547D01*
X40319Y104181D01*
X40953Y105007D01*
X41351Y105968D01*
X41421Y106500D01*
D02*
G37*
G36*
X37000D02*
X33579D01*
X33649Y105968D01*
X34047Y105007D01*
X34681Y104181D01*
X35507Y103547D01*
X36468Y103149D01*
X37000Y103079D01*
Y106500D01*
D02*
G37*
G36*
X38000Y99110D02*
Y95689D01*
X41421D01*
X41351Y96221D01*
X40953Y97182D01*
X40319Y98008D01*
X39493Y98642D01*
X38532Y99040D01*
X38000Y99110D01*
D02*
G37*
G36*
X37000D02*
X36468Y99040D01*
X35507Y98642D01*
X34681Y98008D01*
X34047Y97182D01*
X33649Y96221D01*
X33579Y95689D01*
X37000D01*
Y99110D01*
D02*
G37*
G36*
X41421Y94689D02*
X38000D01*
Y91268D01*
X38532Y91338D01*
X39493Y91736D01*
X40319Y92370D01*
X40953Y93195D01*
X41351Y94157D01*
X41421Y94689D01*
D02*
G37*
G36*
X37000D02*
X33579D01*
X33649Y94157D01*
X34047Y93195D01*
X34681Y92370D01*
X35507Y91736D01*
X36468Y91338D01*
X37000Y91268D01*
Y94689D01*
D02*
G37*
G36*
X38000Y87299D02*
Y83878D01*
X41421D01*
X41351Y84410D01*
X40953Y85371D01*
X40319Y86197D01*
X39493Y86831D01*
X38532Y87229D01*
X38000Y87299D01*
D02*
G37*
G36*
X37000D02*
X36468Y87229D01*
X35507Y86831D01*
X34681Y86197D01*
X34047Y85371D01*
X33649Y84410D01*
X33579Y83878D01*
X37000D01*
Y87299D01*
D02*
G37*
G36*
X41421Y82878D02*
X38000D01*
Y79457D01*
X38532Y79527D01*
X39493Y79925D01*
X40319Y80559D01*
X40953Y81384D01*
X41351Y82346D01*
X41421Y82878D01*
D02*
G37*
G36*
X37000D02*
X33579D01*
X33649Y82346D01*
X34047Y81384D01*
X34681Y80559D01*
X35507Y79925D01*
X36468Y79527D01*
X37000Y79457D01*
Y82878D01*
D02*
G37*
G36*
X38000Y75488D02*
Y72067D01*
X41421D01*
X41351Y72599D01*
X40953Y73560D01*
X40319Y74386D01*
X39493Y75020D01*
X38532Y75418D01*
X38000Y75488D01*
D02*
G37*
G36*
X37000D02*
X36468Y75418D01*
X35507Y75020D01*
X34681Y74386D01*
X34047Y73560D01*
X33649Y72599D01*
X33579Y72067D01*
X37000D01*
Y75488D01*
D02*
G37*
G36*
X41421Y71067D02*
X38000D01*
Y67646D01*
X38532Y67716D01*
X39493Y68114D01*
X40319Y68748D01*
X40953Y69573D01*
X41351Y70535D01*
X41421Y71067D01*
D02*
G37*
G36*
X37000D02*
X33579D01*
X33649Y70535D01*
X34047Y69573D01*
X34681Y68748D01*
X35507Y68114D01*
X36468Y67716D01*
X37000Y67646D01*
Y71067D01*
D02*
G37*
G36*
X114279Y167390D02*
X110630D01*
Y160000D01*
X114279D01*
Y167390D01*
D02*
G37*
G36*
X109630D02*
X105980D01*
Y160000D01*
X109630D01*
Y167390D01*
D02*
G37*
G36*
X143516Y165905D02*
X141047D01*
Y159500D01*
X143516D01*
Y165905D01*
D02*
G37*
G36*
X140047D02*
X137579D01*
Y159500D01*
X140047D01*
Y165905D01*
D02*
G37*
G36*
X114279Y159000D02*
X110630D01*
Y151610D01*
X114279D01*
Y159000D01*
D02*
G37*
G36*
X109630D02*
X105980D01*
Y151610D01*
X109630D01*
Y159000D01*
D02*
G37*
G36*
X255953Y171173D02*
X243543D01*
Y156500D01*
X255953D01*
Y171173D01*
D02*
G37*
G36*
X242543D02*
X230134D01*
Y156500D01*
X242543D01*
Y171173D01*
D02*
G37*
G36*
X255953Y155500D02*
X243543D01*
Y140827D01*
X255953D01*
Y155500D01*
D02*
G37*
G36*
X242543D02*
X230134D01*
Y140827D01*
X242543D01*
Y155500D01*
D02*
G37*
G36*
X196488Y137681D02*
X193921D01*
Y136000D01*
X196488D01*
Y137681D01*
D02*
G37*
G36*
X192921D02*
X190354D01*
Y136000D01*
X192921D01*
Y137681D01*
D02*
G37*
G36*
X162433Y150354D02*
X150024D01*
Y135681D01*
X162433D01*
Y150354D01*
D02*
G37*
G36*
X149024D02*
X136614D01*
Y135681D01*
X149024D01*
Y150354D01*
D02*
G37*
G36*
X196488Y135000D02*
X193921D01*
Y133319D01*
X196488D01*
Y135000D01*
D02*
G37*
G36*
X192921D02*
X190354D01*
Y133319D01*
X192921D01*
Y135000D01*
D02*
G37*
G36*
X162433Y134681D02*
X150024D01*
Y120008D01*
X162433D01*
Y134681D01*
D02*
G37*
G36*
X149024D02*
X136614D01*
Y120008D01*
X149024D01*
Y134681D01*
D02*
G37*
G36*
X254988Y131681D02*
X252520D01*
Y125276D01*
X254988D01*
Y131681D01*
D02*
G37*
G36*
X251520D02*
X249051D01*
Y125276D01*
X251520D01*
Y131681D01*
D02*
G37*
G36*
X251795Y103043D02*
X247161D01*
Y99000D01*
X251795D01*
Y103043D01*
D02*
G37*
G36*
X246161D02*
X241528D01*
Y99000D01*
X246161D01*
Y103043D01*
D02*
G37*
G36*
X251795Y98000D02*
X247161D01*
Y93957D01*
X251795D01*
Y98000D01*
D02*
G37*
G36*
X246161D02*
X241528D01*
Y93957D01*
X246161D01*
Y98000D01*
D02*
G37*
G36*
X184543Y61114D02*
Y57957D01*
X187209D01*
Y61114D01*
X184543D01*
D02*
G37*
G36*
X226000Y61551D02*
Y56740D01*
X230811D01*
X230694Y57632D01*
X230156Y58929D01*
X229302Y60042D01*
X228188Y60896D01*
X226892Y61434D01*
X226000Y61551D01*
D02*
G37*
G36*
X225000D02*
X224108Y61434D01*
X222812Y60896D01*
X221698Y60042D01*
X220844Y58929D01*
X220306Y57632D01*
X220189Y56740D01*
X225000D01*
Y61551D01*
D02*
G37*
G36*
X187209Y56957D02*
X184543D01*
Y53799D01*
X187209D01*
Y56957D01*
D02*
G37*
G36*
X230811Y55740D02*
X226000D01*
Y50929D01*
X226892Y51047D01*
X228188Y51584D01*
X229302Y52438D01*
X230156Y53552D01*
X230694Y54849D01*
X230811Y55740D01*
D02*
G37*
G36*
X225000D02*
X220189D01*
X220306Y54849D01*
X220844Y53552D01*
X221698Y52438D01*
X222812Y51584D01*
X224108Y51047D01*
X225000Y50929D01*
Y55740D01*
D02*
G37*
G36*
X225500Y34439D02*
X224146Y34306D01*
X222845Y33911D01*
X221645Y33270D01*
X220593Y32407D01*
X219730Y31355D01*
X219089Y30155D01*
X218694Y28854D01*
X218561Y27500D01*
X218694Y26146D01*
X219089Y24845D01*
X219730Y23645D01*
X220593Y22593D01*
X221645Y21731D01*
X222845Y21089D01*
X224146Y20694D01*
X225500Y20561D01*
X226854Y20694D01*
X228155Y21089D01*
X229355Y21731D01*
X230407Y22593D01*
X231270Y23645D01*
X231911Y24845D01*
X232306Y26146D01*
X232439Y27500D01*
X232306Y28854D01*
X231911Y30155D01*
X231270Y31355D01*
X230407Y32407D01*
X229355Y33270D01*
X228155Y33911D01*
X226854Y34306D01*
X225500Y34439D01*
D02*
G37*
G36*
X212657Y115622D02*
X209500D01*
Y112957D01*
X212657D01*
Y115622D01*
D02*
G37*
G36*
X208500D02*
X205343D01*
Y112957D01*
X208500D01*
Y115622D01*
D02*
G37*
G36*
X212657Y111957D02*
X209500D01*
Y109291D01*
X212657D01*
Y111957D01*
D02*
G37*
G36*
X208500D02*
X205343D01*
Y109291D01*
X208500D01*
Y111957D01*
D02*
G37*
G36*
X228839Y103043D02*
X224205D01*
Y99000D01*
X228839D01*
Y103043D01*
D02*
G37*
G36*
X205000Y101464D02*
Y98500D01*
X207964D01*
X207910Y98914D01*
X207557Y99765D01*
X206996Y100496D01*
X206265Y101057D01*
X205414Y101410D01*
X205000Y101464D01*
D02*
G37*
G36*
X204000D02*
X203586Y101410D01*
X202735Y101057D01*
X202004Y100496D01*
X201443Y99765D01*
X201090Y98914D01*
X201036Y98500D01*
X204000D01*
Y101464D01*
D02*
G37*
G36*
X194398Y98158D02*
Y95000D01*
X197063D01*
Y98158D01*
X194398D01*
D02*
G37*
G36*
X207964Y97500D02*
X205000D01*
Y94536D01*
X205414Y94590D01*
X206265Y94943D01*
X206996Y95504D01*
X207557Y96235D01*
X207910Y97086D01*
X207964Y97500D01*
D02*
G37*
G36*
X204000D02*
X201036D01*
X201090Y97086D01*
X201443Y96235D01*
X202004Y95504D01*
X202735Y94943D01*
X203586Y94590D01*
X204000Y94536D01*
Y97500D01*
D02*
G37*
G36*
X228839Y98000D02*
X224205D01*
Y93957D01*
X228839D01*
Y98000D01*
D02*
G37*
G36*
X197063Y94000D02*
X194398D01*
Y90842D01*
X197063D01*
Y94000D01*
D02*
G37*
G36*
X226000Y83205D02*
Y78394D01*
X230811D01*
X230694Y79285D01*
X230156Y80582D01*
X229302Y81696D01*
X228188Y82550D01*
X226892Y83087D01*
X226000Y83205D01*
D02*
G37*
G36*
X225000D02*
X224108Y83087D01*
X222812Y82550D01*
X221698Y81696D01*
X220844Y80582D01*
X220306Y79285D01*
X220189Y78394D01*
X225000D01*
Y83205D01*
D02*
G37*
G36*
X208388Y80464D02*
Y77500D01*
X211352D01*
X211298Y77914D01*
X210945Y78765D01*
X210384Y79496D01*
X209653Y80057D01*
X208802Y80410D01*
X208388Y80464D01*
D02*
G37*
G36*
X207388D02*
X206975Y80410D01*
X206123Y80057D01*
X205392Y79496D01*
X204831Y78765D01*
X204478Y77914D01*
X204424Y77500D01*
X207388D01*
Y80464D01*
D02*
G37*
G36*
X195921Y80496D02*
X193453D01*
Y77240D01*
X195921D01*
Y80496D01*
D02*
G37*
G36*
X211352Y76500D02*
X208388D01*
Y73536D01*
X208802Y73590D01*
X209653Y73943D01*
X210384Y74504D01*
X210945Y75235D01*
X211298Y76086D01*
X211352Y76500D01*
D02*
G37*
G36*
X207388D02*
X204424D01*
X204478Y76086D01*
X204831Y75235D01*
X205392Y74504D01*
X206123Y73943D01*
X206975Y73590D01*
X207388Y73536D01*
Y76500D01*
D02*
G37*
G36*
X195921Y76240D02*
X193453D01*
Y72984D01*
X195921D01*
Y76240D01*
D02*
G37*
G36*
X230811Y77394D02*
X226000D01*
Y72583D01*
X226892Y72700D01*
X228188Y73237D01*
X229302Y74092D01*
X230156Y75205D01*
X230694Y76502D01*
X230811Y77394D01*
D02*
G37*
G36*
X225000D02*
X220189D01*
X220306Y76502D01*
X220844Y75205D01*
X221698Y74092D01*
X222812Y73237D01*
X224108Y72700D01*
X225000Y72583D01*
Y77394D01*
D02*
G37*
%LPD*%
D14*
X134704Y100000D02*
X137960Y103256D01*
X125296Y100000D02*
X134704D01*
X124000Y101296D02*
X125296Y100000D01*
X108468Y91496D02*
Y92968D01*
X109500Y94000D01*
X106032Y96000D02*
X113000D01*
X127500Y81500D01*
X109500Y94000D02*
X111000D01*
X120000Y85000D01*
X100500Y95500D02*
X101532D01*
X87953D02*
X100500D01*
X100563Y95437D01*
Y91496D02*
Y95437D01*
X186505Y95298D02*
X186811Y94992D01*
X185146Y96658D02*
X186505Y95298D01*
X185467Y94260D02*
X186957Y95750D01*
X95543Y126518D02*
Y136000D01*
Y126518D02*
X95561Y126500D01*
X147500Y99256D02*
X164645D01*
X167720Y96180D01*
Y94260D02*
Y96180D01*
X145000Y113457D02*
X167854D01*
X184653Y96658D01*
X185146D01*
X186811Y94500D02*
Y94992D01*
X131000Y107000D02*
X166386D01*
X172839Y100547D01*
X124000Y101296D02*
Y123000D01*
X137960Y103256D02*
X167301D01*
X170280Y100278D01*
Y94260D02*
Y100278D01*
X184543Y159500D02*
X191000D01*
X198047D01*
X172839Y94260D02*
Y100547D01*
X190854Y156500D02*
X191000Y156646D01*
Y159500D01*
X167720Y82221D02*
X169500Y84000D01*
X167720Y76740D02*
Y82221D01*
X186500Y84000D02*
X187047Y83453D01*
X95524Y72067D02*
X100500Y77043D01*
X92000Y72067D02*
X95524D01*
X100500Y77043D02*
Y78701D01*
X95000Y67500D02*
X102500Y75000D01*
Y78701D01*
X95000Y61379D02*
Y67500D01*
X108437Y78126D02*
X108500Y78063D01*
X108437Y78126D02*
Y78701D01*
X108500Y76586D02*
Y78063D01*
Y76586D02*
X109086Y76000D01*
X116918D01*
X116418Y75500D02*
X116918Y76000D01*
X104500Y85000D02*
X120000D01*
X122824Y82176D01*
X82047Y87453D02*
Y95500D01*
X127500Y52000D02*
Y81500D01*
X102532Y91496D02*
Y94500D01*
X101532Y95500D02*
X102532Y94500D01*
X100543Y101410D02*
X110410D01*
X105500Y105500D02*
X105543Y105543D01*
X110410Y101410D02*
X114279Y105280D01*
X98457Y103496D02*
X100543Y101410D01*
X105543Y105543D02*
Y111000D01*
X98457Y103496D02*
Y111000D01*
X114279Y105280D02*
Y110256D01*
X177500Y82918D02*
Y84000D01*
X175480Y80898D02*
X177500Y82918D01*
X175480Y76823D02*
Y80898D01*
X175398Y76740D02*
X175480Y76823D01*
X182500Y65000D02*
Y85140D01*
X179140Y88500D02*
X182500Y85140D01*
X167000Y88500D02*
X179140D01*
X187047Y76740D02*
Y83453D01*
X165161Y90339D02*
X167000Y88500D01*
X165161Y90339D02*
Y94260D01*
X164433Y50500D02*
X170500D01*
X161000Y47067D02*
X164433Y50500D01*
X161000Y38043D02*
Y47067D01*
X170280Y66000D02*
Y76740D01*
X104532Y91496D02*
Y94500D01*
X103500Y28000D02*
X127500Y52000D01*
X96547Y28000D02*
X103500D01*
X122824Y76000D02*
Y82176D01*
X106032Y96000D02*
X106468Y95563D01*
Y91496D02*
Y95563D01*
X104532Y94500D02*
X106032Y96000D01*
X203953Y159500D02*
Y167390D01*
X62000Y111457D02*
X62250Y111207D01*
Y100953D02*
Y111207D01*
X66500Y104102D02*
X69650Y100953D01*
X70043D01*
X66500Y104102D02*
Y106000D01*
X73957Y113457D01*
Y118000D01*
X62250Y95047D02*
X70043D01*
X81595D01*
X82047Y95500D01*
Y106500D01*
X74000D02*
X82047D01*
X84500Y85000D02*
X104500D01*
X82047Y87453D02*
X84500Y85000D01*
X100000Y54883D02*
X104500D01*
X99410Y54292D02*
X100000Y54883D01*
X95000Y54292D02*
X99410D01*
X104500Y48500D02*
Y54883D01*
X21500Y33547D02*
X36000D01*
Y26000D02*
Y33547D01*
X147500Y31047D02*
X160909D01*
X161000Y30957D01*
X162602Y57457D02*
X176957D01*
X149000D02*
X162602D01*
Y76740D01*
X149134Y82346D02*
X163654D01*
X149024Y82457D02*
X149134Y82346D01*
X163654D02*
X165102Y80898D01*
Y76799D02*
Y80898D01*
Y76799D02*
X165161Y76740D01*
X149000Y64543D02*
X149024Y64567D01*
Y82457D01*
X149516Y89543D02*
X154232Y94260D01*
X149024Y89543D02*
X149516D01*
X154232Y94260D02*
X162602D01*
X175398D02*
X185467D01*
X106500Y74000D02*
Y77500D01*
X104500Y60788D02*
Y78701D01*
X106500Y74000D02*
X111500Y69000D01*
Y44335D02*
Y69000D01*
X102453Y35287D02*
X111500Y44335D01*
X102453Y34500D02*
Y35287D01*
X96547Y28000D02*
Y34500D01*
X89383Y20836D02*
X96547Y28000D01*
X62500Y20836D02*
X89383D01*
X69453Y66000D02*
X70043Y66590D01*
Y78689D01*
X69453Y66000D02*
X78500D01*
X83121Y61379D01*
X95000D01*
X209465Y135500D02*
X212784Y132181D01*
X208579Y135500D02*
X209465D01*
X212784Y132181D02*
X234067D01*
X208579Y119965D02*
X209000Y119543D01*
X208579Y119965D02*
Y135500D01*
X158500Y159000D02*
X159000Y159500D01*
X177457D01*
D16*
X198047D02*
D03*
X203953D02*
D03*
X63547Y66000D02*
D03*
X69453D02*
D03*
X87953Y106500D02*
D03*
X82047D02*
D03*
X87953Y95500D02*
D03*
X82047D02*
D03*
X192953Y76740D02*
D03*
X187047D02*
D03*
X102453Y34500D02*
D03*
X96547D02*
D03*
X122824Y76000D02*
D03*
X116918D02*
D03*
D17*
X186811Y94500D02*
D03*
X193898D02*
D03*
X184043Y57457D02*
D03*
X176957D02*
D03*
X62957Y78689D02*
D03*
X70043D02*
D03*
X177457Y159500D02*
D03*
X184543D02*
D03*
X88457Y136000D02*
D03*
X95543D02*
D03*
X81043Y118000D02*
D03*
X73957D02*
D03*
X105543Y111000D02*
D03*
X98457D02*
D03*
D18*
X149024Y89543D02*
D03*
Y82457D02*
D03*
X149000Y57457D02*
D03*
Y64543D02*
D03*
X62000Y111457D02*
D03*
Y118543D02*
D03*
X95000Y61379D02*
D03*
Y54292D02*
D03*
X209000Y119543D02*
D03*
Y112457D02*
D03*
X161000Y30957D02*
D03*
Y38043D02*
D03*
D19*
X147500Y31047D02*
D03*
Y36953D02*
D03*
X62250Y100953D02*
D03*
Y95047D02*
D03*
X70043Y100953D02*
D03*
Y95047D02*
D03*
D20*
X149524Y135181D02*
D03*
X243043Y156000D02*
D03*
D21*
X140547Y159000D02*
D03*
X158500D02*
D03*
X252020Y132181D02*
D03*
X234067D02*
D03*
D22*
X208579Y135500D02*
D03*
X193421D02*
D03*
D23*
X229339Y98500D02*
D03*
X246661D02*
D03*
D24*
X162602Y76740D02*
D03*
X165161D02*
D03*
X167720D02*
D03*
X170280D02*
D03*
X172839D02*
D03*
X175398D02*
D03*
X162602Y94260D02*
D03*
X165161D02*
D03*
X167720D02*
D03*
X170280D02*
D03*
X172839D02*
D03*
X175398D02*
D03*
D25*
X88870Y159500D02*
D03*
X110130D02*
D03*
D26*
X62500Y39340D02*
D03*
Y20836D02*
D03*
D27*
X104500Y85000D02*
D03*
D28*
X100563Y91496D02*
D03*
X102532D02*
D03*
X104500D02*
D03*
X106468D02*
D03*
X108437D02*
D03*
Y78701D02*
D03*
X106468D02*
D03*
X104500D02*
D03*
X102532D02*
D03*
X100563D02*
D03*
D29*
X21500Y33547D02*
D03*
Y39453D02*
D03*
X36000Y33547D02*
D03*
Y39453D02*
D03*
X104500Y54883D02*
D03*
Y60788D02*
D03*
D50*
X269000Y13500D02*
D03*
X14500Y15000D02*
D03*
X268000Y185500D02*
D03*
X13500Y185000D02*
D03*
D51*
X37500Y154244D02*
D03*
Y142433D02*
D03*
Y130622D02*
D03*
Y118811D02*
D03*
Y107000D02*
D03*
Y95189D02*
D03*
Y83378D02*
D03*
Y71567D02*
D03*
X49311D02*
D03*
Y83378D02*
D03*
Y95189D02*
D03*
Y107000D02*
D03*
Y118811D02*
D03*
Y130622D02*
D03*
Y142433D02*
D03*
Y154244D02*
D03*
D52*
X20492Y146173D02*
D03*
Y79638D02*
D03*
D53*
X225500Y56240D02*
D03*
Y77894D02*
D03*
D54*
X95561Y126500D02*
D03*
X145000Y113457D02*
D03*
X131000Y107000D02*
D03*
X147500Y99256D02*
D03*
X190854Y156500D02*
D03*
X169500Y84000D02*
D03*
X186500D02*
D03*
X92000Y72067D02*
D03*
X105500Y105500D02*
D03*
X177500Y84000D02*
D03*
X170500Y50500D02*
D03*
X170280Y66000D02*
D03*
X114279Y110256D02*
D03*
X203953Y167390D02*
D03*
X146500Y42000D02*
D03*
X104500Y48500D02*
D03*
X74000Y106500D02*
D03*
X36000Y26000D02*
D03*
X207888Y77000D02*
D03*
X204500Y98000D02*
D03*
M02*
