G04*
G04 #@! TF.GenerationSoftware,Altium Limited,Altium Designer,19.0.15 (446)*
G04*
G04 Layer_Color=32768*
%FSLAX25Y25*%
%MOIN*%
G70*
G01*
G75*
%ADD13C,0.00394*%
%ADD61C,0.00197*%
D13*
X197244Y174094D02*
Y178032D01*
X195276Y176063D02*
X199213D01*
X249606Y188583D02*
X253543D01*
X251575Y186614D02*
Y190551D01*
X227165Y97244D02*
X231102D01*
X229134Y95276D02*
Y99213D01*
X102756Y89370D02*
Y93307D01*
X100787Y91339D02*
X104724D01*
X227559Y153150D02*
X231496D01*
X229528Y151181D02*
Y155118D01*
X157087Y183071D02*
Y187008D01*
X155118Y185039D02*
X159055D01*
X128347Y141732D02*
X132283D01*
X130315Y139764D02*
Y143701D01*
X75197Y171260D02*
X79134D01*
X77165Y169291D02*
Y173228D01*
X174449Y135531D02*
X178386D01*
X176417Y133563D02*
Y137500D01*
X176378Y94488D02*
Y98425D01*
X174409Y96457D02*
X178347D01*
X163293Y94488D02*
Y98425D01*
X161325Y96457D02*
X165262D01*
X197772Y125197D02*
X201709D01*
X199740Y123228D02*
Y127165D01*
X74207Y79725D02*
X78144D01*
X76175Y77756D02*
Y81693D01*
X202583Y94488D02*
Y98425D01*
X200614Y96457D02*
X204551D01*
X189486Y94488D02*
Y98425D01*
X187518Y96457D02*
X191455D01*
X215679Y94488D02*
Y98425D01*
X213711Y96457D02*
X217648D01*
X270472Y145866D02*
Y149803D01*
X268504Y147835D02*
X272441D01*
X74207Y102608D02*
X78144D01*
X76175Y100640D02*
Y104577D01*
X77165Y112992D02*
Y116929D01*
X75197Y114961D02*
X79134D01*
X76963Y123882D02*
Y127819D01*
X74994Y125850D02*
X78931D01*
X292126Y168110D02*
X296063D01*
X294094Y166142D02*
Y170079D01*
X74213Y91339D02*
X78150D01*
X76181Y89370D02*
Y93307D01*
X77953Y159449D02*
Y163386D01*
X75984Y161417D02*
X79921D01*
X77368Y135324D02*
Y139261D01*
X75400Y137292D02*
X79337D01*
X77368Y146766D02*
Y150703D01*
X75400Y148734D02*
X79337D01*
X214173Y118448D02*
Y120810D01*
X212992Y119629D02*
X215354D01*
X210630Y121007D02*
X217717D01*
X210630Y118251D02*
X217717D01*
X210630D02*
Y121007D01*
X217717Y118251D02*
Y121007D01*
D61*
X174409Y161791D02*
X220079D01*
X174409Y190335D02*
X220079D01*
Y161791D02*
Y190335D01*
X174409Y161791D02*
Y190335D01*
X240945Y184055D02*
Y193110D01*
X262205Y184055D02*
Y193110D01*
X240945D02*
X262205D01*
X240945Y184055D02*
X262205D01*
X225394Y90551D02*
Y103937D01*
X232874Y90551D02*
Y103937D01*
X225394Y90551D02*
X232874D01*
X225394Y103937D02*
X232874D01*
X96063Y95079D02*
X109449D01*
X96063Y87598D02*
X109449D01*
X96063D02*
Y95079D01*
X109449Y87598D02*
Y95079D01*
X225787Y146457D02*
Y159843D01*
X233268Y146457D02*
Y159843D01*
X225787Y146457D02*
X233268D01*
X225787Y159843D02*
X233268D01*
X150394Y188779D02*
X163779D01*
X150394Y181299D02*
X163779D01*
X150394D02*
Y188779D01*
X163779Y181299D02*
Y188779D01*
X121063Y129331D02*
Y154134D01*
X139567Y129331D02*
Y154134D01*
X121063Y129331D02*
X139567D01*
X121063Y154134D02*
X139567D01*
X71260Y167520D02*
Y175000D01*
X83071Y167520D02*
Y175000D01*
X71260D02*
X83071D01*
X71260Y167520D02*
X83071D01*
X168150Y127264D02*
Y143799D01*
X184685Y127264D02*
Y143799D01*
X168150D02*
X184685D01*
X168150Y127264D02*
X184685D01*
X172638Y90551D02*
X180118D01*
X172638Y102362D02*
X180118D01*
X172638Y90551D02*
Y102362D01*
X180118Y90551D02*
Y102362D01*
X159553Y90551D02*
X167034D01*
X159553Y102362D02*
X167034D01*
X159553Y90551D02*
Y102362D01*
X167034Y90551D02*
Y102362D01*
X193835Y121457D02*
Y128937D01*
X205646Y121457D02*
Y128937D01*
X193835D02*
X205646D01*
X193835Y121457D02*
X205646D01*
X70270Y75984D02*
Y83465D01*
X82081Y75984D02*
Y83465D01*
X70270D02*
X82081D01*
X70270Y75984D02*
X82081D01*
X198843Y90551D02*
X206323D01*
X198843Y102362D02*
X206323D01*
X198843Y90551D02*
Y102362D01*
X206323Y90551D02*
Y102362D01*
X185746Y90551D02*
X193226D01*
X185746Y102362D02*
X193226D01*
X185746Y90551D02*
Y102362D01*
X193226Y90551D02*
Y102362D01*
X211939D02*
X219419D01*
X211939Y90551D02*
X219419D01*
Y102362D01*
X211939Y90551D02*
Y102362D01*
X256201Y170669D02*
X284744D01*
X256201Y125000D02*
X284744D01*
Y170669D01*
X256201Y125000D02*
Y170669D01*
X70270Y98868D02*
Y106349D01*
X82081Y98868D02*
Y106349D01*
X70270D02*
X82081D01*
X70270Y98868D02*
X82081D01*
X70472Y111221D02*
X83858D01*
X70472Y118701D02*
X83858D01*
Y111221D02*
Y118701D01*
X70472Y111221D02*
Y118701D01*
X70270Y129591D02*
X83656D01*
X70270Y122110D02*
X83656D01*
X70270D02*
Y129591D01*
X83656Y122110D02*
Y129591D01*
X287598Y156102D02*
Y180118D01*
X300591Y156102D02*
Y180118D01*
X287598Y156102D02*
X300591D01*
X287598Y180118D02*
X300591D01*
X70276Y87598D02*
Y95079D01*
X82087Y87598D02*
Y95079D01*
X70276D02*
X82087D01*
X70276Y87598D02*
X82087D01*
X71260Y157677D02*
X84646D01*
X71260Y165157D02*
X84646D01*
Y157677D02*
Y165157D01*
X71260Y157677D02*
Y165157D01*
X70675Y133552D02*
X84061D01*
X70675Y141033D02*
X84061D01*
Y133552D02*
Y141033D01*
X70675Y133552D02*
Y141033D01*
Y144994D02*
X84061D01*
X70675Y152474D02*
X84061D01*
Y144994D02*
Y152474D01*
X70675Y144994D02*
Y152474D01*
M02*
