G04*
G04 #@! TF.GenerationSoftware,Altium Limited,Altium Designer,19.0.15 (446)*
G04*
G04 Layer_Color=255*
%FSLAX25Y25*%
%MOIN*%
G70*
G01*
G75*
%ADD15R,0.28347X0.23819*%
%ADD16R,0.11811X0.03937*%
%ADD17R,0.04134X0.02362*%
%ADD18R,0.05315X0.04331*%
%ADD19R,0.04331X0.05315*%
%ADD20R,0.05118X0.02756*%
%ADD21O,0.01968X0.05315*%
%ADD22R,0.03937X0.05512*%
%ADD23R,0.00984X0.02165*%
%ADD24R,0.09449X0.06299*%
%ADD25R,0.05512X0.03937*%
%ADD26R,0.03937X0.11811*%
%ADD27R,0.23819X0.28347*%
%ADD28R,0.07087X0.08268*%
%ADD29R,0.06299X0.13780*%
%ADD30R,0.02362X0.01968*%
%ADD55C,0.08661*%
%ADD56C,0.05906*%
%ADD57C,0.12992*%
D15*
X204921Y176063D02*
D03*
D16*
X181102Y167087D02*
D03*
Y185039D02*
D03*
D17*
X243996Y188583D02*
D03*
X259154D02*
D03*
D18*
X229134Y93701D02*
D03*
Y100787D02*
D03*
X229528Y149606D02*
D03*
Y156693D02*
D03*
D19*
X99213Y90839D02*
D03*
X106299D02*
D03*
X153543Y185039D02*
D03*
X160630D02*
D03*
X80709Y114961D02*
D03*
X73622D02*
D03*
X73419Y125850D02*
D03*
X80506D02*
D03*
X81496Y161417D02*
D03*
X74410D02*
D03*
X80911Y137292D02*
D03*
X73825D02*
D03*
X80911Y148734D02*
D03*
X73825D02*
D03*
D20*
X229134Y121063D02*
D03*
Y128543D02*
D03*
D21*
X123917Y132972D02*
D03*
X126476D02*
D03*
X129035D02*
D03*
X131595D02*
D03*
X134153D02*
D03*
X136713D02*
D03*
X123917Y150492D02*
D03*
X126476D02*
D03*
X129035D02*
D03*
X131595D02*
D03*
X134153D02*
D03*
X136713D02*
D03*
D22*
X73419Y171024D02*
D03*
X79325D02*
D03*
X196788Y125197D02*
D03*
X202693D02*
D03*
X73222Y79725D02*
D03*
X79128D02*
D03*
X73222Y102608D02*
D03*
X79128D02*
D03*
X73228Y91339D02*
D03*
X79134D02*
D03*
D23*
X172480Y129134D02*
D03*
X174449D02*
D03*
X176417D02*
D03*
X178386D02*
D03*
X180354D02*
D03*
Y141929D02*
D03*
X178386D02*
D03*
X176417D02*
D03*
X174449D02*
D03*
X172480D02*
D03*
D24*
X176417Y135433D02*
D03*
D25*
X176378Y93504D02*
D03*
Y99410D02*
D03*
X163293Y93504D02*
D03*
Y99410D02*
D03*
X202583Y93504D02*
D03*
Y99410D02*
D03*
X189486Y93504D02*
D03*
Y99410D02*
D03*
X215679D02*
D03*
Y93504D02*
D03*
D26*
X279449Y163976D02*
D03*
X261496D02*
D03*
D27*
X270472Y140157D02*
D03*
D28*
X294094Y159449D02*
D03*
Y176772D02*
D03*
D29*
X137008Y180709D02*
D03*
X115748D02*
D03*
D30*
X212205Y119629D02*
D03*
X216142D02*
D03*
D55*
X275325Y69685D02*
D03*
Y91339D02*
D03*
D56*
X82087Y37087D02*
D03*
X93898D02*
D03*
X105709D02*
D03*
X117520D02*
D03*
X129331D02*
D03*
X141142D02*
D03*
X152953D02*
D03*
X164764D02*
D03*
Y48898D02*
D03*
X152953D02*
D03*
X141142D02*
D03*
X129331D02*
D03*
X117520D02*
D03*
X105709D02*
D03*
X93898D02*
D03*
X82087D02*
D03*
D57*
X90158Y20079D02*
D03*
X156693D02*
D03*
M02*
