G04*
G04 #@! TF.GenerationSoftware,Altium Limited,Altium Designer,19.0.15 (446)*
G04*
G04 Layer_Color=65535*
%FSLAX25Y25*%
%MOIN*%
G70*
G01*
G75*
%ADD10C,0.00984*%
%ADD11C,0.02362*%
%ADD12C,0.00394*%
%ADD13C,0.00787*%
%ADD14C,0.01000*%
%ADD15C,0.00600*%
D10*
X163126Y159000D02*
G03*
X163126Y159000I-492J0D01*
G01*
X230425Y132181D02*
G03*
X230425Y132181I-492J0D01*
G01*
X191256Y138847D02*
G03*
X191256Y138847I-492J0D01*
G01*
X226681Y104602D02*
G03*
X226681Y104602I-492J0D01*
G01*
X179039Y94260D02*
G03*
X179039Y94260I-492J0D01*
G01*
X95445Y78307D02*
G03*
X95445Y78307I-492J0D01*
G01*
D11*
X174315Y86090D02*
G03*
X174315Y86090I-1181J0D01*
G01*
D12*
X183854Y90500D02*
X197354D01*
X183854D02*
Y98500D01*
X197354D01*
Y90500D02*
Y98500D01*
X173500Y61457D02*
X187000D01*
Y53457D02*
Y61457D01*
X173500Y53457D02*
X187000D01*
X173500D02*
Y61457D01*
X145024Y79000D02*
Y92500D01*
X153024D01*
Y79000D02*
Y92500D01*
X145024Y79000D02*
X153024D01*
X153000Y54500D02*
Y68000D01*
X145000Y54500D02*
X153000D01*
X145000D02*
Y68000D01*
X153000D01*
X66000Y108500D02*
Y122000D01*
X58000Y108500D02*
X66000D01*
X58000D02*
Y122000D01*
X66000D01*
X60000Y74689D02*
X73500D01*
X60000D02*
Y82689D01*
X73500D01*
Y74689D02*
Y82689D01*
X91000Y50836D02*
Y64336D01*
X99000D01*
Y50836D02*
Y64336D01*
X91000Y50836D02*
X99000D01*
X205000Y123000D02*
X213000D01*
X205000Y109500D02*
Y123000D01*
Y109500D02*
X213000D01*
Y123000D01*
X157000Y27500D02*
X165000D01*
Y41000D01*
X157000D02*
X165000D01*
X157000Y27500D02*
Y41000D01*
X174000Y155500D02*
Y163500D01*
Y155500D02*
X187500D01*
Y163500D01*
X174000D02*
X187500D01*
X85000Y132000D02*
Y140000D01*
Y132000D02*
X98500D01*
Y140000D01*
X85000D02*
X98500D01*
X84500Y114000D02*
Y122000D01*
X71000D02*
X84500D01*
X71000Y114000D02*
Y122000D01*
Y114000D02*
X84500D01*
X109000Y107000D02*
Y115000D01*
X95500D02*
X109000D01*
X95500Y107000D02*
Y115000D01*
Y107000D02*
X109000D01*
D13*
X146221Y33803D02*
Y34197D01*
X148779Y33803D02*
Y34197D01*
X63529Y97803D02*
Y98197D01*
X60970Y97803D02*
Y98197D01*
X71323Y97803D02*
Y98197D01*
X68764Y97803D02*
Y98197D01*
X136335Y150929D02*
Y151323D01*
X162713D01*
Y150929D02*
Y151323D01*
X256232Y139858D02*
Y140252D01*
X229854Y139858D02*
X256232D01*
X229854D02*
Y140252D01*
X208677Y131957D02*
Y132744D01*
X193323Y131957D02*
Y132744D01*
X208677Y138256D02*
Y139043D01*
X193323Y138256D02*
Y139043D01*
Y131957D02*
X208677D01*
X193323Y139043D02*
X208677D01*
X228945Y104012D02*
X247055D01*
X228945Y92988D02*
X247055D01*
X160929Y80972D02*
Y90028D01*
X177071Y80972D02*
Y90028D01*
X160929Y80972D02*
X177071D01*
X160929Y90028D02*
X177071D01*
X84146Y151232D02*
X114854D01*
Y168161D01*
X84146D02*
X114854D01*
X84146Y151232D02*
Y168161D01*
X74902Y17686D02*
Y42489D01*
X50098Y17686D02*
Y42489D01*
X97807Y78405D02*
X98496D01*
X97807D02*
Y84016D01*
X110504Y78405D02*
X111193D01*
Y84016D01*
Y86181D02*
Y91791D01*
X110504D02*
X111193D01*
X97807D02*
X98496D01*
X97807Y86181D02*
Y91791D01*
D14*
X308000Y6000D02*
X310000Y0D01*
X312000Y6000D01*
X310000Y199500D02*
X312000Y193500D01*
X308000D02*
X310000Y199500D01*
Y0D02*
Y83054D01*
Y113246D02*
Y199500D01*
X283500Y0D02*
X311000D01*
X283500Y199500D02*
X311000D01*
X500Y224000D02*
X6500Y226000D01*
X500Y224000D02*
X6500Y222000D01*
X276500D02*
X282500Y224000D01*
X276500Y226000D02*
X282500Y224000D01*
X500D02*
X125304D01*
X154496D02*
X282500D01*
X500Y200500D02*
Y225000D01*
X282500Y200500D02*
Y225000D01*
X195499Y171498D02*
X194499Y172498D01*
X192500D01*
X191500Y171498D01*
Y167500D01*
X192500Y166500D01*
X194499D01*
X195499Y167500D01*
X197498Y166500D02*
X199497D01*
X198498D01*
Y172498D01*
X197498Y171498D01*
X179000Y103043D02*
Y109041D01*
X181999D01*
X182999Y108042D01*
Y106042D01*
X181999Y105043D01*
X179000D01*
X180999D02*
X182999Y103043D01*
X188997D02*
X184998D01*
X188997Y107042D01*
Y108042D01*
X187997Y109041D01*
X185998D01*
X184998Y108042D01*
X95000Y102498D02*
Y97500D01*
X96000Y96500D01*
X97999D01*
X98999Y97500D01*
Y102498D01*
X104997Y96500D02*
X100998D01*
X104997Y100499D01*
Y101498D01*
X103997Y102498D01*
X101998D01*
X100998Y101498D01*
X160600Y106998D02*
Y102000D01*
X161600Y101000D01*
X163599D01*
X164599Y102000D01*
Y106998D01*
X166598Y101000D02*
X168597D01*
X167598D01*
Y106998D01*
X166598Y105998D01*
X84713Y171600D02*
Y177598D01*
X87712D01*
X88712Y176598D01*
Y174599D01*
X87712Y173599D01*
X84713D01*
X86713D02*
X88712Y171600D01*
X90711D02*
X92711D01*
X91711D01*
Y177598D01*
X90711Y176598D01*
X98709Y171600D02*
Y177598D01*
X95710Y174599D01*
X99709D01*
X55000Y125000D02*
Y130998D01*
X57999D01*
X58999Y129998D01*
Y127999D01*
X57999Y126999D01*
X55000D01*
X56999D02*
X58999Y125000D01*
X60998D02*
X62997D01*
X61998D01*
Y130998D01*
X60998Y129998D01*
X65996D02*
X66996Y130998D01*
X68995D01*
X69995Y129998D01*
Y128999D01*
X68995Y127999D01*
X67996D01*
X68995D01*
X69995Y126999D01*
Y126000D01*
X68995Y125000D01*
X66996D01*
X65996Y126000D01*
X71700Y125169D02*
Y131167D01*
X74699D01*
X75699Y130167D01*
Y128168D01*
X74699Y127168D01*
X71700D01*
X73699D02*
X75699Y125169D01*
X77698D02*
X79697D01*
X78698D01*
Y131167D01*
X77698Y130167D01*
X86695Y125169D02*
X82696D01*
X86695Y129168D01*
Y130167D01*
X85695Y131167D01*
X83696D01*
X82696Y130167D01*
X157800Y44300D02*
Y50298D01*
X160799D01*
X161799Y49298D01*
Y47299D01*
X160799Y46299D01*
X157800D01*
X159799D02*
X161799Y44300D01*
X163798D02*
X165797D01*
X164798D01*
Y50298D01*
X163798Y49298D01*
X168796Y44300D02*
X170796D01*
X169796D01*
Y50298D01*
X168796Y49298D01*
X59500Y69000D02*
Y74998D01*
X62499D01*
X63499Y73998D01*
Y71999D01*
X62499Y70999D01*
X59500D01*
X61499D02*
X63499Y69000D01*
X65498D02*
X67497D01*
X66498D01*
Y74998D01*
X65498Y73998D01*
X70496D02*
X71496Y74998D01*
X73496D01*
X74495Y73998D01*
Y70000D01*
X73496Y69000D01*
X71496D01*
X70496Y70000D01*
Y73998D01*
X86500Y67500D02*
Y73498D01*
X89499D01*
X90499Y72498D01*
Y70499D01*
X89499Y69499D01*
X86500D01*
X88499D02*
X90499Y67500D01*
X92498Y68500D02*
X93498Y67500D01*
X95497D01*
X96497Y68500D01*
Y72498D01*
X95497Y73498D01*
X93498D01*
X92498Y72498D01*
Y71499D01*
X93498Y70499D01*
X96497D01*
X96200Y118200D02*
Y124198D01*
X99199D01*
X100199Y123198D01*
Y121199D01*
X99199Y120199D01*
X96200D01*
X98199D02*
X100199Y118200D01*
X102198Y123198D02*
X103198Y124198D01*
X105197D01*
X106197Y123198D01*
Y122199D01*
X105197Y121199D01*
X106197Y120199D01*
Y119200D01*
X105197Y118200D01*
X103198D01*
X102198Y119200D01*
Y120199D01*
X103198Y121199D01*
X102198Y122199D01*
Y123198D01*
X103198Y121199D02*
X105197D01*
X205800Y126200D02*
Y132198D01*
X208799D01*
X209799Y131198D01*
Y129199D01*
X208799Y128199D01*
X205800D01*
X207799D02*
X209799Y126200D01*
X211798Y132198D02*
X215797D01*
Y131198D01*
X211798Y127200D01*
Y126200D01*
X170000Y64000D02*
Y69998D01*
X172999D01*
X173999Y68998D01*
Y66999D01*
X172999Y65999D01*
X170000D01*
X171999D02*
X173999Y64000D01*
X179997Y69998D02*
X177997Y68998D01*
X175998Y66999D01*
Y65000D01*
X176998Y64000D01*
X178997D01*
X179997Y65000D01*
Y65999D01*
X178997Y66999D01*
X175998D01*
X144000Y70000D02*
Y75998D01*
X146999D01*
X147999Y74998D01*
Y72999D01*
X146999Y71999D01*
X144000D01*
X145999D02*
X147999Y70000D01*
X153997Y75998D02*
X149998D01*
Y72999D01*
X151997Y73999D01*
X152997D01*
X153997Y72999D01*
Y71000D01*
X152997Y70000D01*
X150998D01*
X149998Y71000D01*
X144524Y94500D02*
Y100498D01*
X147523D01*
X148522Y99498D01*
Y97499D01*
X147523Y96499D01*
X144524D01*
X146523D02*
X148522Y94500D01*
X153521D02*
Y100498D01*
X150522Y97499D01*
X154520D01*
X174800Y166700D02*
Y172698D01*
X177799D01*
X178799Y171698D01*
Y169699D01*
X177799Y168699D01*
X174800D01*
X176799D02*
X178799Y166700D01*
X180798Y171698D02*
X181798Y172698D01*
X183797D01*
X184797Y171698D01*
Y170699D01*
X183797Y169699D01*
X182797D01*
X183797D01*
X184797Y168699D01*
Y167700D01*
X183797Y166700D01*
X181798D01*
X180798Y167700D01*
X85843Y143200D02*
Y149198D01*
X88842D01*
X89842Y148198D01*
Y146199D01*
X88842Y145199D01*
X85843D01*
X87843D02*
X89842Y143200D01*
X91841D02*
X93841D01*
X92841D01*
Y149198D01*
X91841Y148198D01*
X233655Y175300D02*
Y179298D01*
X232656Y180298D01*
X230656D01*
X229657Y179298D01*
Y175300D01*
X230656Y174300D01*
X232656D01*
X231656Y176299D02*
X233655Y174300D01*
X232656D02*
X233655Y175300D01*
X239653Y174300D02*
X235655D01*
X239653Y178299D01*
Y179298D01*
X238654Y180298D01*
X236654D01*
X235655Y179298D01*
X140136Y169781D02*
Y173779D01*
X139136Y174779D01*
X137137D01*
X136137Y173779D01*
Y169781D01*
X137137Y168781D01*
X139136D01*
X138136Y170780D02*
X140136Y168781D01*
X139136D02*
X140136Y169781D01*
X142135Y168781D02*
X144134D01*
X143135D01*
Y174779D01*
X142135Y173779D01*
X46250Y109498D02*
Y103500D01*
X50249D01*
X56247Y109498D02*
X52248D01*
Y103500D01*
X56247D01*
X52248Y106499D02*
X54247D01*
X58246Y109498D02*
Y103500D01*
X61245D01*
X62245Y104500D01*
Y108498D01*
X61245Y109498D01*
X58246D01*
X64244Y108498D02*
X65244Y109498D01*
X67243D01*
X68243Y108498D01*
Y107499D01*
X67243Y106499D01*
X66243D01*
X67243D01*
X68243Y105499D01*
Y104500D01*
X67243Y103500D01*
X65244D01*
X64244Y104500D01*
X56000Y91998D02*
Y86000D01*
X59999D01*
X65997Y91998D02*
X61998D01*
Y86000D01*
X65997D01*
X61998Y88999D02*
X63997D01*
X67996Y91998D02*
Y86000D01*
X70995D01*
X71995Y87000D01*
Y90998D01*
X70995Y91998D01*
X67996D01*
X77993Y86000D02*
X73994D01*
X77993Y89999D01*
Y90998D01*
X76993Y91998D01*
X74994D01*
X73994Y90998D01*
X122824Y37353D02*
Y31355D01*
X126822D01*
X132821Y37353D02*
X128822D01*
Y31355D01*
X132821D01*
X128822Y34354D02*
X130821D01*
X134820Y37353D02*
Y31355D01*
X137819D01*
X138819Y32355D01*
Y36353D01*
X137819Y37353D01*
X134820D01*
X140818Y31355D02*
X142817D01*
X141818D01*
Y37353D01*
X140818Y36353D01*
X50000Y54786D02*
Y48788D01*
X53999D01*
X55998D02*
X57997D01*
X56998D01*
Y54786D01*
X55998Y53786D01*
X7399Y176973D02*
X5399D01*
X6399D01*
Y171975D01*
X5399Y170975D01*
X4400D01*
X3400Y171975D01*
X13397Y170975D02*
X9398D01*
X13397Y174974D01*
Y175973D01*
X12397Y176973D01*
X10398D01*
X9398Y175973D01*
X214399Y91638D02*
X212399D01*
X213399D01*
Y86640D01*
X212399Y85640D01*
X211400D01*
X210400Y86640D01*
X216398Y85640D02*
X218397D01*
X217398D01*
Y91638D01*
X216398Y90639D01*
X190813Y149098D02*
Y143100D01*
X193812D01*
X194812Y144100D01*
Y148098D01*
X193812Y149098D01*
X190813D01*
X200810Y143100D02*
X196811D01*
X200810Y147099D01*
Y148098D01*
X199811Y149098D01*
X197811D01*
X196811Y148098D01*
X225813Y114598D02*
Y108600D01*
X228812D01*
X229812Y109600D01*
Y113598D01*
X228812Y114598D01*
X225813D01*
X231811Y108600D02*
X233811D01*
X232811D01*
Y114598D01*
X231811Y113598D01*
X64499Y59498D02*
X63499Y60498D01*
X61500D01*
X60500Y59498D01*
Y55500D01*
X61500Y54500D01*
X63499D01*
X64499Y55500D01*
X66498Y54500D02*
X68497D01*
X67498D01*
Y60498D01*
X66498Y59498D01*
X71496D02*
X72496Y60498D01*
X74496D01*
X75495Y59498D01*
Y55500D01*
X74496Y54500D01*
X72496D01*
X71496Y55500D01*
Y59498D01*
X37199Y50498D02*
X36199Y51498D01*
X34200D01*
X33200Y50498D01*
Y46500D01*
X34200Y45500D01*
X36199D01*
X37199Y46500D01*
X39198D02*
X40198Y45500D01*
X42197D01*
X43197Y46500D01*
Y50498D01*
X42197Y51498D01*
X40198D01*
X39198Y50498D01*
Y49499D01*
X40198Y48499D01*
X43197D01*
X22699Y50498D02*
X21699Y51498D01*
X19700D01*
X18700Y50498D01*
Y46500D01*
X19700Y45500D01*
X21699D01*
X22699Y46500D01*
X24698Y50498D02*
X25698Y51498D01*
X27697D01*
X28697Y50498D01*
Y49499D01*
X27697Y48499D01*
X28697Y47499D01*
Y46500D01*
X27697Y45500D01*
X25698D01*
X24698Y46500D01*
Y47499D01*
X25698Y48499D01*
X24698Y49499D01*
Y50498D01*
X25698Y48499D02*
X27697D01*
X118870Y87798D02*
X117870Y88798D01*
X115871D01*
X114871Y87798D01*
Y83800D01*
X115871Y82800D01*
X117870D01*
X118870Y83800D01*
X120869Y88798D02*
X124868D01*
Y87798D01*
X120869Y83800D01*
Y82800D01*
X105655Y71834D02*
X104656Y72834D01*
X102656D01*
X101657Y71834D01*
Y67835D01*
X102656Y66836D01*
X104656D01*
X105655Y67835D01*
X111653Y72834D02*
X109654Y71834D01*
X107655Y69835D01*
Y67835D01*
X108654Y66836D01*
X110654D01*
X111653Y67835D01*
Y68835D01*
X110654Y69835D01*
X107655D01*
X87499Y87998D02*
X86499Y88998D01*
X84500D01*
X83500Y87998D01*
Y84000D01*
X84500Y83000D01*
X86499D01*
X87499Y84000D01*
X93497Y88998D02*
X89498D01*
Y85999D01*
X91497Y86999D01*
X92497D01*
X93497Y85999D01*
Y84000D01*
X92497Y83000D01*
X90498D01*
X89498Y84000D01*
X84499Y110998D02*
X83499Y111998D01*
X81500D01*
X80500Y110998D01*
Y107000D01*
X81500Y106000D01*
X83499D01*
X84499Y107000D01*
X89497Y106000D02*
Y111998D01*
X86498Y108999D01*
X90497D01*
X98499Y46298D02*
X97499Y47298D01*
X95500D01*
X94500Y46298D01*
Y42300D01*
X95500Y41300D01*
X97499D01*
X98499Y42300D01*
X100498Y46298D02*
X101498Y47298D01*
X103497D01*
X104497Y46298D01*
Y45299D01*
X103497Y44299D01*
X102497D01*
X103497D01*
X104497Y43299D01*
Y42300D01*
X103497Y41300D01*
X101498D01*
X100498Y42300D01*
X189042Y88538D02*
X188042Y89538D01*
X186043D01*
X185043Y88538D01*
Y84540D01*
X186043Y83540D01*
X188042D01*
X189042Y84540D01*
X195040Y83540D02*
X191041D01*
X195040Y87539D01*
Y88538D01*
X194040Y89538D01*
X192041D01*
X191041Y88538D01*
D15*
X307601Y88653D02*
Y84654D01*
X310600D01*
X309600Y86654D01*
Y87653D01*
X310600Y88653D01*
X312599D01*
X313599Y87653D01*
Y85654D01*
X312599Y84654D01*
X308601Y90652D02*
X307601Y91652D01*
Y93651D01*
X308601Y94651D01*
X312599D01*
X313599Y93651D01*
Y91652D01*
X312599Y90652D01*
X308601D01*
X313599Y96650D02*
X312599D01*
Y97650D01*
X313599D01*
Y96650D01*
X307601Y105648D02*
X308601Y103648D01*
X310600Y101649D01*
X312599D01*
X313599Y102648D01*
Y104648D01*
X312599Y105648D01*
X311600D01*
X310600Y104648D01*
Y101649D01*
X307601Y107647D02*
Y111646D01*
X308601D01*
X312599Y107647D01*
X313599D01*
X126904Y226399D02*
X130903D01*
Y225399D01*
X126904Y221401D01*
Y220401D01*
X132902D02*
X134902D01*
X133902D01*
Y226399D01*
X132902Y225399D01*
X137901Y220401D02*
Y221401D01*
X138900D01*
Y220401D01*
X137901D01*
X146898Y226399D02*
X144898Y225399D01*
X142899Y223400D01*
Y221401D01*
X143899Y220401D01*
X145898D01*
X146898Y221401D01*
Y222400D01*
X145898Y223400D01*
X142899D01*
X148897Y225399D02*
X149897Y226399D01*
X151896D01*
X152896Y225399D01*
Y224400D01*
X151896Y223400D01*
X150896D01*
X151896D01*
X152896Y222400D01*
Y221401D01*
X151896Y220401D01*
X149897D01*
X148897Y221401D01*
M02*
