M48
;Layer_Color=9474304
;FILE_FORMAT=2:5
INCH,LZ
;TYPE=PLATED
T1F00S00C0.02800
T2F00S00C0.03937
T3F00S00C0.07087
T4F00S00C0.11811
T5F00S00C0.12205
T6F00S00C0.15748
%
T01
X0087414Y0042
Y005125
Y00605
X00975Y0055938
X01135Y0023164
X0127564Y0036953
X013675Y010839
X0107242Y01045
X0101735Y0116818
X0085835Y0107087
X0120457Y0131882
X01625Y0105
X0173Y0100496
X019613Y0102362
X0191398Y0084
X0183721
X0203047
X0223888Y0077
X02205Y0098
X019826Y0133937
X0186279Y0066
X01865Y00505
X01635Y0043489
X0239Y0195426
X0224698Y021
T02
X00355Y0043307
X0047311
Y0055118
X00355
Y0066929
Y007874
X0047311
Y0066929
Y0090551
Y0102362
Y0114173
X00355
Y0102362
Y0090551
Y0125984
X0047311
Y0137795
X00355
Y0149606
X0047311
Y0161417
Y0173228
X00355
Y0161417
T03
X02415Y005624
Y0077894
T04
X02415Y00275
T05
X0018492Y0051378
Y0165157
T06
X0015748Y0015748
X0279268
X0279528Y0200787
X0015748
M30
