G04*
G04 #@! TF.GenerationSoftware,Altium Limited,Altium Designer,19.0.15 (446)*
G04*
G04 Layer_Physical_Order=1*
G04 Layer_Color=255*
%FSLAX25Y25*%
%MOIN*%
G70*
G01*
G75*
%ADD14C,0.01000*%
%ADD15R,0.28347X0.23819*%
%ADD16R,0.11811X0.03937*%
%ADD17R,0.04134X0.02362*%
%ADD18R,0.05315X0.04331*%
%ADD19R,0.04331X0.05315*%
%ADD20R,0.05118X0.02756*%
%ADD21O,0.01968X0.05315*%
%ADD22R,0.03937X0.05512*%
%ADD23R,0.00984X0.02165*%
%ADD24R,0.09449X0.06299*%
%ADD25R,0.05512X0.03937*%
%ADD26R,0.03937X0.11811*%
%ADD27R,0.23819X0.28347*%
%ADD28R,0.07087X0.08268*%
%ADD29R,0.06299X0.13780*%
%ADD30R,0.02362X0.01968*%
%ADD52C,0.01968*%
%ADD53C,0.03937*%
%ADD54C,0.02500*%
%ADD55C,0.08661*%
%ADD56C,0.05906*%
%ADD57C,0.12992*%
%ADD58C,0.05000*%
G36*
X74103Y119100D02*
X73763Y118618D01*
X70457D01*
Y115461D01*
X73622D01*
Y114961D01*
X74122D01*
Y111303D01*
X74483D01*
X74525Y106719D01*
X74173Y106364D01*
X73722D01*
Y102608D01*
Y98852D01*
X74597D01*
X74628Y95450D01*
X74276Y95095D01*
X73728D01*
Y91339D01*
Y87583D01*
X74700D01*
X74735Y83836D01*
X74383Y83480D01*
X73722D01*
Y79724D01*
Y75969D01*
X74610D01*
X74697Y75598D01*
X74354Y75197D01*
X58661D01*
Y106693D01*
Y119291D01*
X74024D01*
X74103Y119100D01*
D02*
G37*
G36*
X207465Y59055D02*
X158661D01*
Y95323D01*
X159537D01*
Y94004D01*
X163293D01*
X167049D01*
Y95323D01*
X172622D01*
Y94004D01*
X176378D01*
X180134D01*
Y95323D01*
X185730D01*
Y94004D01*
X189486D01*
X193242D01*
Y95323D01*
X198827D01*
Y94004D01*
X202583D01*
X206339D01*
Y95323D01*
X207465D01*
Y59055D01*
D02*
G37*
G36*
X225870Y152228D02*
Y150106D01*
X233185D01*
Y152228D01*
X243701D01*
Y125850D01*
X233063Y125850D01*
X232693Y126165D01*
X232693Y126350D01*
Y128043D01*
X229134D01*
X225575D01*
Y126350D01*
X225205Y125850D01*
X222441D01*
Y151728D01*
X222698Y152228D01*
X225870D01*
D02*
G37*
%LPC*%
G36*
X73122Y114461D02*
X70457D01*
Y111303D01*
X73122D01*
Y114461D01*
D02*
G37*
G36*
X67823Y111732D02*
Y108768D01*
X70787D01*
X70733Y109181D01*
X70380Y110033D01*
X69819Y110764D01*
X69088Y111325D01*
X68237Y111678D01*
X67823Y111732D01*
D02*
G37*
G36*
X66823D02*
X66409Y111678D01*
X65558Y111325D01*
X64827Y110764D01*
X64266Y110033D01*
X63913Y109181D01*
X63858Y108768D01*
X66823D01*
Y111732D01*
D02*
G37*
G36*
Y107768D02*
X63858D01*
X63913Y107354D01*
X64266Y106503D01*
X64827Y105772D01*
X65558Y105210D01*
X66409Y104858D01*
X66823Y104803D01*
Y107768D01*
D02*
G37*
G36*
X70787D02*
X67823D01*
Y104803D01*
X68237Y104858D01*
X69088Y105210D01*
X69754Y105721D01*
X70254Y105601D01*
Y103108D01*
X72722D01*
Y106364D01*
X70864D01*
X70530Y106864D01*
X70733Y107354D01*
X70787Y107768D01*
D02*
G37*
G36*
X72722Y102108D02*
X70254D01*
Y98852D01*
X72722D01*
Y102108D01*
D02*
G37*
G36*
X67323Y99315D02*
Y96350D01*
X70287D01*
X70233Y96764D01*
X69880Y97615D01*
X69319Y98347D01*
X68588Y98908D01*
X67737Y99260D01*
X67323Y99315D01*
D02*
G37*
G36*
X66323D02*
X65909Y99260D01*
X65058Y98908D01*
X64327Y98347D01*
X63766Y97615D01*
X63413Y96764D01*
X63358Y96350D01*
X66323D01*
Y99315D01*
D02*
G37*
G36*
Y95350D02*
X63358D01*
X63413Y94937D01*
X63766Y94085D01*
X64327Y93354D01*
X65058Y92793D01*
X65909Y92440D01*
X66323Y92386D01*
Y95350D01*
D02*
G37*
G36*
X70533D02*
X67323D01*
Y92386D01*
X67737Y92440D01*
X68588Y92793D01*
X69319Y93354D01*
X69760Y93929D01*
X70260Y93759D01*
Y91839D01*
X72728D01*
Y95095D01*
X70758D01*
X70533Y95350D01*
D02*
G37*
G36*
X72728Y90839D02*
X70260D01*
Y87583D01*
X72728D01*
Y90839D01*
D02*
G37*
G36*
X67823Y87716D02*
Y84752D01*
X70787D01*
X70733Y85166D01*
X70380Y86017D01*
X69819Y86748D01*
X69088Y87309D01*
X68237Y87662D01*
X67823Y87716D01*
D02*
G37*
G36*
X66823D02*
X66409Y87662D01*
X65558Y87309D01*
X64827Y86748D01*
X64266Y86017D01*
X63913Y85166D01*
X63858Y84752D01*
X66823D01*
Y87716D01*
D02*
G37*
G36*
Y83752D02*
X63858D01*
X63913Y83338D01*
X64266Y82487D01*
X64827Y81756D01*
X65558Y81195D01*
X66409Y80842D01*
X66823Y80788D01*
Y83752D01*
D02*
G37*
G36*
X70892D02*
X67823D01*
Y80788D01*
X68237Y80842D01*
X69088Y81195D01*
X69754Y81706D01*
X70254Y81585D01*
Y80224D01*
X72722D01*
Y83480D01*
X71131D01*
X70892Y83752D01*
D02*
G37*
G36*
X72722Y79224D02*
X70254D01*
Y75969D01*
X72722D01*
Y79224D01*
D02*
G37*
G36*
X206339Y93004D02*
X203083D01*
Y90535D01*
X206339D01*
Y93004D01*
D02*
G37*
G36*
X193242D02*
X189986D01*
Y90535D01*
X193242D01*
Y93004D01*
D02*
G37*
G36*
X188986D02*
X185730D01*
Y90535D01*
X188986D01*
Y93004D01*
D02*
G37*
G36*
X180134D02*
X176878D01*
Y90535D01*
X180134D01*
Y93004D01*
D02*
G37*
G36*
X175878D02*
X172622D01*
Y90535D01*
X175878D01*
Y93004D01*
D02*
G37*
G36*
X167049D02*
X163793D01*
Y90535D01*
X167049D01*
Y93004D01*
D02*
G37*
G36*
X162793D02*
X159537D01*
Y90535D01*
X162793D01*
Y93004D01*
D02*
G37*
G36*
X202083D02*
X198827D01*
Y90833D01*
X198827Y90682D01*
X198639Y90509D01*
X198158Y90418D01*
X197744Y90472D01*
Y87508D01*
X200709D01*
X200654Y87922D01*
X200301Y88773D01*
X199740Y89504D01*
X199048Y90035D01*
X199047Y90091D01*
X199366Y90535D01*
X202083D01*
Y93004D01*
D02*
G37*
G36*
X169925Y90716D02*
Y87752D01*
X172890D01*
X172835Y88165D01*
X172482Y89017D01*
X171921Y89748D01*
X171190Y90309D01*
X170339Y90662D01*
X169925Y90716D01*
D02*
G37*
G36*
X168925D02*
X168511Y90662D01*
X167660Y90309D01*
X166929Y89748D01*
X166368Y89017D01*
X166015Y88165D01*
X165961Y87752D01*
X168925D01*
Y90716D01*
D02*
G37*
G36*
X196744Y90472D02*
X196330Y90418D01*
X195479Y90065D01*
X194748Y89504D01*
X194187Y88773D01*
X193834Y87922D01*
X193780Y87508D01*
X196744D01*
Y90472D01*
D02*
G37*
G36*
X183177Y90213D02*
Y87248D01*
X186142D01*
X186087Y87662D01*
X185734Y88513D01*
X185173Y89244D01*
X184442Y89805D01*
X183591Y90158D01*
X183177Y90213D01*
D02*
G37*
G36*
X182177D02*
X181764Y90158D01*
X180912Y89805D01*
X180181Y89244D01*
X179620Y88513D01*
X179267Y87662D01*
X179213Y87248D01*
X182177D01*
Y90213D01*
D02*
G37*
G36*
X172890Y86752D02*
X169925D01*
Y83787D01*
X170339Y83842D01*
X171190Y84195D01*
X171921Y84756D01*
X172482Y85487D01*
X172835Y86338D01*
X172890Y86752D01*
D02*
G37*
G36*
X168925D02*
X165961D01*
X166015Y86338D01*
X166368Y85487D01*
X166929Y84756D01*
X167660Y84195D01*
X168511Y83842D01*
X168925Y83787D01*
Y86752D01*
D02*
G37*
G36*
X200709Y86508D02*
X197744D01*
Y83543D01*
X198158Y83598D01*
X199009Y83951D01*
X199740Y84512D01*
X200301Y85243D01*
X200654Y86094D01*
X200709Y86508D01*
D02*
G37*
G36*
X196744D02*
X193780D01*
X193834Y86094D01*
X194187Y85243D01*
X194748Y84512D01*
X195479Y83951D01*
X196330Y83598D01*
X196744Y83543D01*
Y86508D01*
D02*
G37*
G36*
X186142Y86248D02*
X183177D01*
Y83284D01*
X183591Y83338D01*
X184442Y83691D01*
X185173Y84252D01*
X185734Y84983D01*
X186087Y85834D01*
X186142Y86248D01*
D02*
G37*
G36*
X182177D02*
X179213D01*
X179267Y85834D01*
X179620Y84983D01*
X180181Y84252D01*
X180912Y83691D01*
X181764Y83338D01*
X182177Y83284D01*
Y86248D01*
D02*
G37*
G36*
X184091Y68425D02*
Y65461D01*
X187055D01*
X187001Y65874D01*
X186648Y66726D01*
X186087Y67457D01*
X185356Y68018D01*
X184504Y68370D01*
X184091Y68425D01*
D02*
G37*
G36*
X183091D02*
X182677Y68370D01*
X181826Y68018D01*
X181095Y67457D01*
X180534Y66726D01*
X180181Y65874D01*
X180127Y65461D01*
X183091D01*
Y68425D01*
D02*
G37*
G36*
X187055Y64461D02*
X184091D01*
Y61496D01*
X184504Y61551D01*
X185356Y61903D01*
X186087Y62464D01*
X186648Y63196D01*
X187001Y64047D01*
X187055Y64461D01*
D02*
G37*
G36*
X183091D02*
X180127D01*
X180181Y64047D01*
X180534Y63196D01*
X181095Y62464D01*
X181826Y61903D01*
X182677Y61551D01*
X183091Y61496D01*
Y64461D01*
D02*
G37*
G36*
X239476Y149527D02*
Y146563D01*
X242441D01*
X242386Y146977D01*
X242034Y147828D01*
X241473Y148559D01*
X240741Y149120D01*
X239890Y149473D01*
X239476Y149527D01*
D02*
G37*
G36*
X238476D02*
X238063Y149473D01*
X237211Y149120D01*
X236480Y148559D01*
X235919Y147828D01*
X235566Y146977D01*
X235512Y146563D01*
X238476D01*
Y149527D01*
D02*
G37*
G36*
X233185Y149106D02*
X230028D01*
Y146441D01*
X233185D01*
Y149106D01*
D02*
G37*
G36*
X229028D02*
X225870D01*
Y146441D01*
X229028D01*
Y149106D01*
D02*
G37*
G36*
X242441Y145563D02*
X239476D01*
Y142599D01*
X239890Y142653D01*
X240741Y143006D01*
X241473Y143567D01*
X242034Y144298D01*
X242386Y145149D01*
X242441Y145563D01*
D02*
G37*
G36*
X238476D02*
X235512D01*
X235566Y145149D01*
X235919Y144298D01*
X236480Y143567D01*
X237211Y143006D01*
X238063Y142653D01*
X238476Y142599D01*
Y145563D01*
D02*
G37*
G36*
X232693Y130921D02*
X229634D01*
Y129043D01*
X232693D01*
Y130921D01*
D02*
G37*
G36*
X228634D02*
X225575D01*
Y129043D01*
X228634D01*
Y130921D01*
D02*
G37*
%LPD*%
D14*
X291929Y177756D02*
X294094Y179921D01*
X174417Y125392D02*
Y129921D01*
X223031Y100787D02*
X229134D01*
X221654Y99410D02*
X223031Y100787D01*
X215679Y99410D02*
X221654D01*
X204724Y105905D02*
X208661Y101969D01*
X228937Y93504D02*
X229134D01*
X216142Y117323D02*
Y119629D01*
X204724Y105905D02*
X216142Y117323D01*
X200520Y105905D02*
X204724D01*
X196034Y101420D02*
X200520Y105905D01*
X196034Y99410D02*
Y101420D01*
X163293Y111440D02*
X176417Y124564D01*
X163293Y99410D02*
Y111440D01*
X114307Y91339D02*
X142597Y119629D01*
X106299Y90839D02*
X106799Y91339D01*
X106299D02*
X106799D01*
X114307D01*
X172417Y126221D02*
Y129921D01*
X142597Y119629D02*
X165826D01*
X136713Y180709D02*
Y188976D01*
X99213Y91333D02*
Y95591D01*
X101969Y98347D02*
X111339D01*
X79128Y91333D02*
X98719D01*
X99213Y95591D02*
X101969Y98347D01*
X99213Y90839D02*
Y91333D01*
X98719D02*
X99213Y90839D01*
X173622Y141929D02*
Y145276D01*
X136713Y159718D02*
Y180709D01*
X72185Y125984D02*
X73622Y127421D01*
X74213Y158008D02*
Y162047D01*
X79992Y155772D02*
X81299Y154465D01*
X76448Y155772D02*
X79992D01*
X74213Y158008D02*
X76448Y155772D01*
X81299Y150492D02*
Y154465D01*
X98032Y148945D02*
Y152362D01*
X96330Y147244D02*
X98032Y148945D01*
X82402Y147244D02*
X96330D01*
X80911Y148734D02*
X82402Y147244D01*
X88976Y161236D02*
X118059D01*
X82307D02*
X88976D01*
Y152362D02*
Y161236D01*
X306299Y159843D02*
X306693Y159449D01*
X82126Y161417D02*
X82307Y161236D01*
X81496Y162047D02*
X82126Y161417D01*
X81496D02*
X82126D01*
X297828Y188189D02*
X305906D01*
X294094Y184455D02*
X297828Y188189D01*
X294094Y179921D02*
Y184455D01*
X238189Y188583D02*
X243209D01*
X232685Y183079D02*
X238189Y188583D01*
X232685Y183079D02*
X250803Y164961D01*
X233773D02*
X240158D01*
X229528Y160715D02*
X233773Y164961D01*
X229528Y156693D02*
Y160715D01*
X239764Y113293D02*
Y117551D01*
X236252Y121063D02*
X239764Y117551D01*
X229134Y121063D02*
X236252D01*
X50394Y125984D02*
Y173110D01*
Y72441D02*
Y125984D01*
X72185D01*
X80118Y171817D02*
Y181102D01*
X79325Y171024D02*
X80118Y171817D01*
X65197Y171024D02*
X73419D01*
X64961Y171260D02*
X65197Y171024D01*
X115453Y169291D02*
X119462D01*
X131595Y157159D01*
X100787Y165354D02*
X116500D01*
X126291Y150677D02*
X126476Y150492D01*
X126291Y150677D02*
Y153004D01*
X196034Y99410D02*
X202583D01*
X305906Y159449D02*
Y159449D01*
X294094D02*
X305906D01*
X305906D02*
X306299Y159843D01*
X305906Y159449D02*
X306693D01*
X279449Y163976D02*
Y173327D01*
X275492D02*
X279449D01*
X271260Y177559D02*
X275492Y173327D01*
X264961Y177559D02*
X271260D01*
X196788Y117386D02*
X196850Y117323D01*
X196788Y117386D02*
Y125197D01*
X215679Y93504D02*
X228937D01*
X116142Y49291D02*
X117530Y49250D01*
X59055Y70079D02*
X74410D01*
X52756D02*
X59055D01*
X105709Y37087D02*
X117520D01*
X93898D02*
X105709D01*
X117520D02*
X129331D01*
X116142Y49291D02*
X117520Y48898D01*
X294094Y143504D02*
Y159449D01*
X290748Y140157D02*
X294094Y143504D01*
X270472Y140157D02*
X290748D01*
X279449Y173327D02*
Y182677D01*
X273543Y188583D02*
X279449Y182677D01*
X259154Y188583D02*
X273543D01*
X260512Y164961D02*
X261496Y163976D01*
X250803Y164961D02*
X260512D01*
X225669Y176063D02*
X232685Y183079D01*
X204921Y176063D02*
X225669D01*
X169921Y163779D02*
X173228Y167087D01*
X164961Y163779D02*
X169921D01*
X80709Y123622D02*
Y127421D01*
X136713Y153642D02*
X146457Y163386D01*
X136713Y150492D02*
Y153642D01*
X146457Y163386D02*
X153543D01*
X103543Y169291D02*
X115453D01*
X97638Y175197D02*
X103543Y169291D01*
X115453D02*
Y179921D01*
X97638Y175197D02*
Y182677D01*
X173228Y167087D02*
X181102D01*
X160630Y185039D02*
X181102D01*
X180709Y147638D02*
X205732D01*
X178362Y145291D02*
X180709Y147638D01*
X205732D02*
X207425Y145946D01*
X209449Y119629D02*
X212205D01*
X208268D02*
X209449D01*
Y121598D01*
X207425Y123622D02*
X209449Y121598D01*
X207425Y123622D02*
Y145946D01*
X180315Y135433D02*
X186614D01*
X180315D02*
X180354Y135472D01*
Y141929D01*
X189764Y138583D02*
Y142520D01*
X186614Y135433D02*
X189764Y138583D01*
X178362Y141929D02*
Y145291D01*
Y141929D02*
X178386D01*
X176417D02*
X178362D01*
X158268Y145276D02*
X173622D01*
X111339Y98347D02*
X158268Y145276D01*
X172480Y141929D02*
X173622D01*
X208661Y96850D02*
Y101969D01*
Y96850D02*
X212008Y93504D01*
X215679D01*
X189486Y99410D02*
X196034D01*
X228937Y93504D02*
X229134Y93701D01*
X202756Y125141D02*
X208268Y119629D01*
X175984Y117323D02*
X178386Y119724D01*
X180354Y103386D02*
Y129134D01*
X176417Y124564D02*
Y129134D01*
X165826Y119629D02*
X172417Y126221D01*
X178386Y119724D02*
Y129134D01*
X165423Y116398D02*
X174417Y125392D01*
X229134Y100787D02*
Y121063D01*
X229134Y100787D02*
X229134Y100787D01*
X147244Y114035D02*
X149606Y116398D01*
X147244Y112992D02*
Y114035D01*
X176378Y99410D02*
X180354Y103386D01*
X176417Y129134D02*
Y129921D01*
X149606Y116398D02*
X165423D01*
X79128Y79725D02*
Y91333D01*
X50394Y173110D02*
X71260Y193976D01*
X50394Y72441D02*
X52756Y70079D01*
X81299Y138780D02*
X83071Y137008D01*
X106299Y143307D02*
Y155118D01*
X100000Y137008D02*
X106299Y143307D01*
X83071Y137008D02*
X100000D01*
X215354Y100984D02*
X216142Y100197D01*
X79128Y74797D02*
Y79725D01*
X74410Y70079D02*
X79128Y74797D01*
X85827Y114961D02*
X90551Y119685D01*
X80709Y114961D02*
X85827D01*
X202953Y94528D02*
X204331D01*
X110309Y108268D02*
X128961Y126920D01*
X73481Y108268D02*
X110309D01*
X72567Y109181D02*
X73481Y108268D01*
X136638Y129551D02*
Y132972D01*
X110531Y103445D02*
X136638Y129551D01*
X80118Y103445D02*
X110531D01*
X136638Y132972D02*
X136713D01*
X110630Y159449D02*
X116634D01*
X106299Y155118D02*
X110630Y159449D01*
X123917Y127533D02*
Y132972D01*
X116463Y120079D02*
X123917Y127533D01*
X110630Y120079D02*
X116463D01*
X115291Y116079D02*
X126402Y127189D01*
X86221Y131496D02*
X101638Y116079D01*
X115291D01*
X73819Y138780D02*
Y150492D01*
X75984Y131496D02*
X86221D01*
X73825Y133656D02*
X75984Y131496D01*
X128961Y126920D02*
Y132898D01*
X129035Y132972D01*
X126402Y132898D02*
X126476Y132972D01*
X126402Y127189D02*
Y132898D01*
X73825Y133656D02*
Y137292D01*
X80506Y115163D02*
X80709Y114961D01*
X80506Y115163D02*
Y125850D01*
X153543Y174016D02*
Y185039D01*
X80118Y171024D02*
X95118D01*
X100787Y165354D01*
X134153Y150492D02*
Y157159D01*
X136713Y159718D01*
X131595Y150492D02*
Y157159D01*
X131713Y193976D02*
X136713Y188976D01*
X71260Y193976D02*
X131713D01*
X116634Y159449D02*
X123917Y152165D01*
Y150492D02*
Y152165D01*
X118059Y161236D02*
X126291Y153004D01*
X128850Y150677D02*
X129035Y150492D01*
X128850Y150677D02*
Y153004D01*
X116500Y165354D02*
X128850Y153004D01*
D15*
X204921Y176063D02*
D03*
D16*
X181102Y167087D02*
D03*
Y185039D02*
D03*
D17*
X243996Y188583D02*
D03*
X259154D02*
D03*
D18*
X229134Y93701D02*
D03*
Y100787D02*
D03*
X229528Y149606D02*
D03*
Y156693D02*
D03*
D19*
X99213Y91339D02*
D03*
X106299D02*
D03*
X153543Y185039D02*
D03*
X160630D02*
D03*
X80709Y114961D02*
D03*
X73622D02*
D03*
X73419Y125850D02*
D03*
X80506D02*
D03*
X81496Y161417D02*
D03*
X74410D02*
D03*
X80911Y137292D02*
D03*
X73825D02*
D03*
X80911Y148734D02*
D03*
X73825D02*
D03*
D20*
X229134Y121063D02*
D03*
Y128543D02*
D03*
D21*
X123917Y132972D02*
D03*
X126476D02*
D03*
X129035D02*
D03*
X131595D02*
D03*
X134153D02*
D03*
X136713D02*
D03*
X123917Y150492D02*
D03*
X126476D02*
D03*
X129035D02*
D03*
X131595D02*
D03*
X134153D02*
D03*
X136713D02*
D03*
D22*
X74213Y171260D02*
D03*
X80118D02*
D03*
X196788Y125197D02*
D03*
X202693D02*
D03*
X73222Y79725D02*
D03*
X79128D02*
D03*
X73222Y102608D02*
D03*
X79128D02*
D03*
X73228Y91339D02*
D03*
X79134D02*
D03*
D23*
X172480Y129134D02*
D03*
X174449D02*
D03*
X176417D02*
D03*
X178386D02*
D03*
X180354D02*
D03*
Y141929D02*
D03*
X178386D02*
D03*
X176417D02*
D03*
X174449D02*
D03*
X172480D02*
D03*
D24*
X176417Y135433D02*
D03*
D25*
X176378Y93504D02*
D03*
Y99410D02*
D03*
X163293Y93504D02*
D03*
Y99410D02*
D03*
X202583Y93504D02*
D03*
Y99410D02*
D03*
X189486Y93504D02*
D03*
Y99410D02*
D03*
X215679D02*
D03*
Y93504D02*
D03*
D26*
X279449Y163976D02*
D03*
X261496D02*
D03*
D27*
X270472Y140157D02*
D03*
D28*
X294094Y159449D02*
D03*
Y176772D02*
D03*
D29*
X137008Y180709D02*
D03*
X115748D02*
D03*
D30*
X212205Y119629D02*
D03*
X216142D02*
D03*
D52*
X69606Y48898D02*
X82087D01*
X164764D02*
X204803D01*
X59055Y59449D02*
X69606Y48898D01*
X229134Y73228D02*
Y93504D01*
X204803Y48898D02*
X229134Y73228D01*
X59055Y59449D02*
Y70079D01*
D53*
X164764Y37087D02*
X207657D01*
X141142Y37074D02*
X152953Y37087D01*
X129331Y37061D02*
X141142Y37074D01*
X117520Y37048D02*
X129331Y37061D01*
X105709Y37035D02*
X117520Y37048D01*
X93898Y37022D02*
X105709Y37035D01*
X82087Y37009D02*
X93898Y37022D01*
X81102Y37008D02*
X82087Y37009D01*
X241339Y70768D02*
Y80709D01*
X207657Y37087D02*
X241339Y70768D01*
X127953Y49291D02*
X129335Y49277D01*
X116142Y49291D02*
X117520D01*
X152954Y49024D02*
X164764Y48898D01*
X141144Y49150D02*
X152954Y49024D01*
X129335Y49277D02*
X141144Y49150D01*
X129331Y37061D02*
X129331D01*
X105709Y37035D02*
X105709D01*
X82087Y37009D02*
X82087D01*
X241339Y80709D02*
X251969Y91339D01*
X275325D01*
X152953Y37087D02*
X164764D01*
X93898Y48898D02*
X105709D01*
X82087D02*
X93898D01*
D54*
X276378Y134252D02*
X290158D01*
X270472Y140157D02*
X276378Y134252D01*
X290158D02*
X291732Y132677D01*
Y86092D02*
Y132677D01*
X275325Y69685D02*
X291732Y86092D01*
D55*
X275325Y69685D02*
D03*
Y91339D02*
D03*
D56*
X82087Y37087D02*
D03*
X93898D02*
D03*
X105709D02*
D03*
X117520D02*
D03*
X129331D02*
D03*
X141142D02*
D03*
X152953D02*
D03*
X164764D02*
D03*
Y48898D02*
D03*
X152953D02*
D03*
X141142D02*
D03*
X129331D02*
D03*
X117520D02*
D03*
X105709D02*
D03*
X93898D02*
D03*
X82087D02*
D03*
D57*
X90158Y20079D02*
D03*
X156693D02*
D03*
D58*
X183591Y64961D02*
D03*
X80118Y181102D02*
D03*
X64961Y171260D02*
D03*
X305906Y188189D02*
D03*
Y159449D02*
D03*
X264961Y177559D02*
D03*
X239764Y113293D02*
D03*
X240158Y164961D02*
D03*
X164961Y163779D02*
D03*
X153543Y163386D02*
D03*
X97638Y182677D02*
D03*
X189764Y142520D02*
D03*
X238976Y146063D02*
D03*
X196850Y117323D02*
D03*
X175984D02*
D03*
X147244Y112992D02*
D03*
X197244Y87008D02*
D03*
X182677Y86748D02*
D03*
X169425Y87252D02*
D03*
X90551Y119685D02*
D03*
X110630Y120079D02*
D03*
X98032Y152362D02*
D03*
X88976D02*
D03*
X67323Y108268D02*
D03*
Y84252D02*
D03*
X66823Y95850D02*
D03*
X153543Y174016D02*
D03*
M02*
