M48
;Layer_Color=9474304
;FILE_FORMAT=2:5
INCH,LZ
;TYPE=PLATED
T1F00S00C0.02800
T2F00S00C0.03937
T3F00S00C0.07087
T4F00S00C0.11811
T5F00S00C0.12205
T6F00S00C0.15748
%
T01
X0036Y0026
X01045Y00485
X0092Y0072067
X01055Y01055
X0114279Y0110256
X0131Y0107
X0145Y0113457
X01475Y0099256
X01465Y0042
X0095561Y01265
X0074Y01065
X01695Y0084
X01775
X01865
X0207888Y0077
X02045Y0098
X017028Y0066
X01705Y00505
X0190854Y01565
X0203953Y016739
T02
X00375Y0071567
Y0083378
Y0095189
X0049311
Y0083378
Y0071567
Y0107
X00375
Y0118811
X0049311
Y0130622
X00375
Y0142433
Y0154244
X0049311
Y0142433
T03
X02255Y005624
Y0077894
T04
X02255Y00275
T05
X0020492Y0079638
Y0146173
T06
X00145Y0015
X0269Y00135
X0268Y01855
X00135Y0185
M30
