G04*
G04 #@! TF.GenerationSoftware,Altium Limited,Altium Designer,19.0.15 (446)*
G04*
G04 Layer_Color=8421504*
%FSLAX25Y25*%
%MOIN*%
G70*
G01*
G75*
%ADD16R,0.03937X0.05512*%
%ADD17R,0.04331X0.05315*%
%ADD18R,0.05315X0.04331*%
%ADD19R,0.03347X0.02559*%
%ADD20R,0.23819X0.28347*%
%ADD21R,0.03937X0.11811*%
%ADD22R,0.04134X0.02362*%
%ADD23R,0.08268X0.07087*%
%ADD24O,0.01968X0.05315*%
%ADD25R,0.06299X0.13780*%
%ADD26R,0.22441X0.06299*%
%ADD27R,0.09449X0.06299*%
%ADD28R,0.00984X0.02165*%
%ADD29R,0.05512X0.03937*%
D16*
X198047Y159500D02*
D03*
X203953D02*
D03*
X63547Y66000D02*
D03*
X69453D02*
D03*
X87953Y106500D02*
D03*
X82047D02*
D03*
X87953Y95500D02*
D03*
X82047D02*
D03*
X192953Y76740D02*
D03*
X187047D02*
D03*
X102453Y34500D02*
D03*
X96547D02*
D03*
X122824Y76000D02*
D03*
X116918D02*
D03*
D17*
X186811Y94500D02*
D03*
X193898D02*
D03*
X184043Y57457D02*
D03*
X176957D02*
D03*
X62957Y78689D02*
D03*
X70043D02*
D03*
X177457Y159500D02*
D03*
X184543D02*
D03*
X88457Y136000D02*
D03*
X95543D02*
D03*
X81043Y118000D02*
D03*
X73957D02*
D03*
X105543Y111000D02*
D03*
X98457D02*
D03*
D18*
X149024Y89543D02*
D03*
Y82457D02*
D03*
X149000Y57457D02*
D03*
Y64543D02*
D03*
X62000Y111457D02*
D03*
Y118543D02*
D03*
X95000Y61379D02*
D03*
Y54292D02*
D03*
X209000Y119543D02*
D03*
Y112457D02*
D03*
X161000Y30957D02*
D03*
Y38043D02*
D03*
D19*
X147500Y31047D02*
D03*
Y36953D02*
D03*
X62250Y100953D02*
D03*
Y95047D02*
D03*
X70043Y100953D02*
D03*
Y95047D02*
D03*
D20*
X149524Y135181D02*
D03*
X243043Y156000D02*
D03*
D21*
X140547Y159000D02*
D03*
X158500D02*
D03*
X252020Y132181D02*
D03*
X234067D02*
D03*
D22*
X208579Y135500D02*
D03*
X193421D02*
D03*
D23*
X229339Y98500D02*
D03*
X246661D02*
D03*
D24*
X162602Y76740D02*
D03*
X165161D02*
D03*
X167720D02*
D03*
X170280D02*
D03*
X172839D02*
D03*
X175398D02*
D03*
X162602Y94260D02*
D03*
X165161D02*
D03*
X167720D02*
D03*
X170280D02*
D03*
X172839D02*
D03*
X175398D02*
D03*
D25*
X88870Y159500D02*
D03*
X110130D02*
D03*
D26*
X62500Y39340D02*
D03*
Y20836D02*
D03*
D27*
X104500Y85000D02*
D03*
D28*
X100563Y91496D02*
D03*
X102532D02*
D03*
X104500D02*
D03*
X106468D02*
D03*
X108437D02*
D03*
Y78701D02*
D03*
X106468D02*
D03*
X104500D02*
D03*
X102532D02*
D03*
X100563D02*
D03*
D29*
X21500Y33547D02*
D03*
Y39453D02*
D03*
X36000Y33547D02*
D03*
Y39453D02*
D03*
X104500Y54883D02*
D03*
Y60788D02*
D03*
M02*
