G04*
G04 #@! TF.GenerationSoftware,Altium Limited,Altium Designer,19.1.8 (144)*
G04*
G04 Layer_Color=255*
%FSLAX25Y25*%
%MOIN*%
G70*
G01*
G75*
%ADD12C,0.01000*%
%ADD14C,0.00394*%
%ADD17R,0.10984X0.02436*%
%ADD18C,0.00197*%
%ADD19R,0.07087X0.08268*%
%ADD20R,0.04331X0.05315*%
%ADD21O,0.01968X0.05315*%
%ADD22R,0.03347X0.02559*%
%ADD23R,0.03937X0.05512*%
%ADD24R,0.05315X0.04331*%
%ADD25R,0.05512X0.03937*%
%ADD26R,0.02559X0.03347*%
%ADD27R,0.02165X0.00984*%
%ADD28R,0.06299X0.09449*%
%ADD29R,0.06299X0.13780*%
%ADD30R,0.28347X0.23819*%
%ADD31R,0.11811X0.03937*%
%ADD32R,0.06299X0.22441*%
%ADD55C,0.23622*%
%ADD56C,0.06000*%
%ADD57C,0.08661*%
D12*
Y204724D01*
Y0D02*
X275590D01*
Y204724D01*
X0D02*
X275590D01*
D14*
X129996Y62059D02*
G03*
X129996Y62059I-1969J0D01*
G01*
X216733Y53150D02*
G03*
X216733Y53150I-1969J0D01*
G01*
X39992Y34445D02*
Y52555D01*
X29008Y34445D02*
Y52555D01*
X39992D01*
X29008Y34445D02*
X39992D01*
X77169Y71866D02*
X85831D01*
X77169Y77181D02*
X85831D01*
Y71866D02*
Y77181D01*
X77169Y71866D02*
Y77181D01*
X115429Y53398D02*
Y65602D01*
X131571Y53398D02*
Y65602D01*
X115429Y53398D02*
X131571D01*
X115429Y65602D02*
X131571D01*
X202647Y113362D02*
Y120055D01*
X199497Y113362D02*
Y120055D01*
X202647D01*
X199497Y113362D02*
X202647D01*
X193147D02*
Y120055D01*
X189997Y113362D02*
Y120055D01*
X193147D01*
X189997Y113362D02*
X193147D01*
X183741Y108158D02*
X192403D01*
X183741Y102842D02*
X192403D01*
X183741D02*
Y108158D01*
X192403Y102842D02*
Y108158D01*
X200241Y102842D02*
X208903D01*
X200241Y108158D02*
X208903D01*
Y102842D02*
Y108158D01*
X200241Y102842D02*
Y108158D01*
X171299Y10063D02*
Y15378D01*
X164606Y10063D02*
Y15378D01*
Y10063D02*
X171299D01*
X164606Y15378D02*
X171299D01*
X203150Y65197D02*
Y73859D01*
X208465Y65197D02*
Y73859D01*
X203150Y65197D02*
X208465D01*
X203150Y73859D02*
X208465D01*
X192828Y66681D02*
X198143D01*
X192828Y73374D02*
X198143D01*
X192828Y66681D02*
Y73374D01*
X198143Y66681D02*
Y73374D01*
X182650Y66681D02*
X187965D01*
X182650Y73374D02*
X187965D01*
X182650Y66681D02*
Y73374D01*
X187965Y66681D02*
Y73374D01*
X170461Y36870D02*
Y42185D01*
X177154Y36870D02*
Y42185D01*
X170461D02*
X177154D01*
X170461Y36870D02*
X177154D01*
X169977Y46370D02*
X178638D01*
X169977Y51685D02*
X178638D01*
Y46370D02*
Y51685D01*
X169977Y46370D02*
Y51685D01*
X170020Y61116D02*
X178681D01*
X170020Y55801D02*
X178681D01*
X170020D02*
Y61116D01*
X178681Y55801D02*
Y61116D01*
X190008Y38192D02*
Y43507D01*
X196701Y38192D02*
Y43507D01*
X190008D02*
X196701D01*
X190008Y38192D02*
X196701D01*
X195650Y26660D02*
X200965D01*
X195650Y33353D02*
X200965D01*
X195650Y26660D02*
Y33353D01*
X200965Y26660D02*
Y33353D01*
X189508Y47870D02*
Y53185D01*
X196201Y47870D02*
Y53185D01*
X189508D02*
X196201D01*
X189508Y47870D02*
X196201D01*
X138842Y54169D02*
Y62831D01*
X144158Y54169D02*
Y62831D01*
X138842Y54169D02*
X144158D01*
X138842Y62831D02*
X144158D01*
X138842Y69169D02*
Y77831D01*
X144158Y69169D02*
Y77831D01*
X138842Y69169D02*
X144158D01*
X138842Y77831D02*
X144158D01*
X85669Y39701D02*
X94331D01*
X85669Y34386D02*
X94331D01*
X85669D02*
Y39701D01*
X94331Y34386D02*
Y39701D01*
X101669Y34386D02*
X110331D01*
X101669Y39701D02*
X110331D01*
Y34386D02*
Y39701D01*
X101669Y34386D02*
Y39701D01*
X136843Y43846D02*
X142157D01*
X136843Y37154D02*
X142157D01*
Y43846D01*
X136843Y37154D02*
Y43846D01*
X136153Y27925D02*
X142847D01*
X136153Y31075D02*
X142847D01*
Y27925D02*
Y31075D01*
X136153Y27925D02*
Y31075D01*
X121158Y29169D02*
Y37831D01*
X115842Y29169D02*
Y37831D01*
X121158D01*
X115842Y29169D02*
X121158D01*
X125343Y28669D02*
Y37331D01*
X130657Y28669D02*
Y37331D01*
X125343Y28669D02*
X130657D01*
X125343Y37331D02*
X130657D01*
X171394Y18741D02*
Y24056D01*
X164701Y18741D02*
Y24056D01*
Y18741D02*
X171394D01*
X164701Y24056D02*
X171394D01*
X206103Y56693D02*
X218307D01*
X206103Y44488D02*
X218307D01*
Y56693D01*
X206103Y44488D02*
Y56693D01*
X78654Y62343D02*
X85347D01*
X78654Y67658D02*
X85347D01*
Y62343D02*
Y67658D01*
X78654Y62343D02*
Y67658D01*
X26153Y96787D02*
X50642D01*
X26153Y70213D02*
X50642D01*
X26153D02*
Y96787D01*
X50642Y70213D02*
Y96787D01*
X231406Y61024D02*
X256209D01*
X231406Y36221D02*
X256209D01*
X231406D02*
Y61024D01*
X256209Y36221D02*
Y61024D01*
X32531Y43500D02*
X36468D01*
X34500Y41532D02*
Y45469D01*
X81500Y72555D02*
Y76492D01*
X79532Y74524D02*
X83469D01*
X121531Y59500D02*
X125469D01*
X123500Y57531D02*
Y61468D01*
X199497Y116709D02*
X202647D01*
X201072Y115134D02*
Y118283D01*
X189997Y116709D02*
X193147D01*
X191572Y115134D02*
Y118283D01*
X188072Y103532D02*
Y107468D01*
X186103Y105500D02*
X190040D01*
X204572Y103532D02*
Y107468D01*
X202603Y105500D02*
X206540D01*
X165984Y12720D02*
X169921D01*
X167953Y10752D02*
Y14689D01*
X203839Y69528D02*
X207776D01*
X205807Y67559D02*
Y71496D01*
X195485Y68059D02*
Y71996D01*
X193517Y70028D02*
X197454D01*
X185307Y68059D02*
Y71996D01*
X183339Y70028D02*
X187276D01*
X171839Y39528D02*
X175776D01*
X173807Y37559D02*
Y41496D01*
X174307Y47059D02*
Y50996D01*
X172339Y49028D02*
X176276D01*
X174351Y56490D02*
Y60427D01*
X172382Y58459D02*
X176319D01*
X191386Y40850D02*
X195323D01*
X193355Y38881D02*
Y42818D01*
X198307Y28038D02*
Y31975D01*
X196339Y30006D02*
X200276D01*
X190886Y50528D02*
X194823D01*
X192855Y48559D02*
Y52496D01*
X139532Y58500D02*
X143468D01*
X141500Y56532D02*
Y60469D01*
X139532Y73500D02*
X143468D01*
X141500Y71531D02*
Y75468D01*
X90000Y35075D02*
Y39012D01*
X88032Y37043D02*
X91969D01*
X106000Y35075D02*
Y39012D01*
X104032Y37043D02*
X107968D01*
X139500Y38532D02*
Y42469D01*
X137531Y40500D02*
X141469D01*
X139500Y27925D02*
Y31075D01*
X137925Y29500D02*
X141075D01*
X116532Y33500D02*
X120468D01*
X118500Y31532D02*
Y35469D01*
X126031Y33000D02*
X129969D01*
X128000Y31032D02*
Y34969D01*
X166079Y21399D02*
X170016D01*
X168047Y19430D02*
Y23367D01*
X212205Y48622D02*
Y52559D01*
X210237Y50591D02*
X214174D01*
X82000Y63032D02*
Y66969D01*
X80032Y65000D02*
X83969D01*
X42177Y81532D02*
Y85469D01*
X40209Y83500D02*
X44146D01*
X243807Y46654D02*
Y50591D01*
X241839Y48622D02*
X245776D01*
D17*
X34500Y35663D02*
D03*
D18*
X40996Y31492D02*
Y55508D01*
X28004Y31492D02*
Y55508D01*
X40996D01*
X28004Y31492D02*
X40996D01*
X74807Y70784D02*
X88193D01*
X74807Y78264D02*
X88193D01*
Y70784D02*
Y78264D01*
X74807Y70784D02*
Y78264D01*
X114248Y47098D02*
Y71902D01*
X132752Y47098D02*
Y71902D01*
X114248Y47098D02*
X132752D01*
X114248Y71902D02*
X132752D01*
X203828Y111394D02*
Y122024D01*
X198316Y111394D02*
Y122024D01*
X203828D01*
X198316Y111394D02*
X203828D01*
X194328D02*
Y122024D01*
X188816Y111394D02*
Y122024D01*
X194328D01*
X188816Y111394D02*
X194328D01*
X181379Y109240D02*
X194765D01*
X181379Y101760D02*
X194765D01*
X181379D02*
Y109240D01*
X194765Y101760D02*
Y109240D01*
X197879Y101760D02*
X211265D01*
X197879Y109240D02*
X211265D01*
Y101760D02*
Y109240D01*
X197879Y101760D02*
Y109240D01*
X173858Y8980D02*
Y16461D01*
X162047Y8980D02*
Y16461D01*
Y8980D02*
X173858D01*
X162047Y16461D02*
X173858D01*
X202067Y62835D02*
Y76221D01*
X209547Y62835D02*
Y76221D01*
X202067Y62835D02*
X209547D01*
X202067Y76221D02*
X209547D01*
X191745Y64122D02*
X199226D01*
X191745Y75933D02*
X199226D01*
X191745Y64122D02*
Y75933D01*
X199226Y64122D02*
Y75933D01*
X181567Y64122D02*
X189048D01*
X181567Y75933D02*
X189048D01*
X181567Y64122D02*
Y75933D01*
X189048Y64122D02*
Y75933D01*
X167902Y35788D02*
Y43268D01*
X179713Y35788D02*
Y43268D01*
X167902D02*
X179713D01*
X167902Y35788D02*
X179713D01*
X167614Y45288D02*
X181000D01*
X167614Y52768D02*
X181000D01*
Y45288D02*
Y52768D01*
X167614Y45288D02*
Y52768D01*
X167658Y62199D02*
X181044D01*
X167658Y54719D02*
X181044D01*
X167658D02*
Y62199D01*
X181044Y54719D02*
Y62199D01*
X187449Y37110D02*
Y44590D01*
X199260Y37110D02*
Y44590D01*
X187449D02*
X199260D01*
X187449Y37110D02*
X199260D01*
X194567Y24101D02*
X202047D01*
X194567Y35912D02*
X202047D01*
X194567Y24101D02*
Y35912D01*
X202047Y24101D02*
Y35912D01*
X186949Y46788D02*
Y54268D01*
X198760Y46788D02*
Y54268D01*
X186949D02*
X198760D01*
X186949Y46788D02*
X198760D01*
X137760Y51807D02*
Y65193D01*
X145240Y51807D02*
Y65193D01*
X137760Y51807D02*
X145240D01*
X137760Y65193D02*
X145240D01*
X137760Y66807D02*
Y80193D01*
X145240Y66807D02*
Y80193D01*
X137760Y66807D02*
X145240D01*
X137760Y80193D02*
X145240D01*
X83307Y40784D02*
X96693D01*
X83307Y33303D02*
X96693D01*
X83307D02*
Y40784D01*
X96693Y33303D02*
Y40784D01*
X99307Y33303D02*
X112693D01*
X99307Y40784D02*
X112693D01*
Y33303D02*
Y40784D01*
X99307Y33303D02*
Y40784D01*
X135760Y46406D02*
X143240D01*
X135760Y34595D02*
X143240D01*
Y46406D01*
X135760Y34595D02*
Y46406D01*
X134185Y26744D02*
X144815D01*
X134185Y32256D02*
X144815D01*
Y26744D02*
Y32256D01*
X134185Y26744D02*
Y32256D01*
X122240Y26807D02*
Y40193D01*
X114760Y26807D02*
Y40193D01*
X122240D01*
X114760Y26807D02*
X122240D01*
X124260Y26307D02*
Y39693D01*
X131740Y26307D02*
Y39693D01*
X124260Y26307D02*
X131740D01*
X124260Y39693D02*
X131740D01*
X173953Y17659D02*
Y25139D01*
X162142Y17659D02*
Y25139D01*
Y17659D02*
X173953D01*
X162142Y25139D02*
X173953D01*
X203937Y58859D02*
X220473D01*
X203937Y42323D02*
X220473D01*
Y58859D01*
X203937Y42323D02*
Y58859D01*
X76095Y61260D02*
X87906D01*
X76095Y68740D02*
X87906D01*
Y61260D02*
Y68740D01*
X76095Y61260D02*
Y68740D01*
X19342Y97772D02*
X65012D01*
X19342Y69228D02*
X65012D01*
X19342D02*
Y97772D01*
X65012Y69228D02*
Y97772D01*
X228158Y62008D02*
X259457D01*
X228158Y35237D02*
X259457D01*
X228158D02*
Y62008D01*
X259457Y35237D02*
Y62008D01*
D19*
X34500Y52161D02*
D03*
Y34839D02*
D03*
D20*
X85043Y74524D02*
D03*
X77957D02*
D03*
X184529Y105500D02*
D03*
X191615D02*
D03*
X208115D02*
D03*
X201029D02*
D03*
X177851Y49028D02*
D03*
X170764D02*
D03*
X170807Y58459D02*
D03*
X177894D02*
D03*
X86457Y37043D02*
D03*
X93543D02*
D03*
X109543D02*
D03*
X102457D02*
D03*
D21*
X117102Y50740D02*
D03*
X119661D02*
D03*
X122221D02*
D03*
X124779D02*
D03*
X127339D02*
D03*
X129898D02*
D03*
X117102Y68260D02*
D03*
X119661D02*
D03*
X122221D02*
D03*
X124779D02*
D03*
X127339D02*
D03*
X129898D02*
D03*
D22*
X201072Y119661D02*
D03*
Y113756D02*
D03*
X191572Y119661D02*
D03*
Y113756D02*
D03*
D23*
X170905Y12720D02*
D03*
X165000D02*
D03*
X170855Y39528D02*
D03*
X176760D02*
D03*
X190402Y40850D02*
D03*
X196307D02*
D03*
X189902Y50528D02*
D03*
X195807D02*
D03*
X171000Y21399D02*
D03*
X165094D02*
D03*
X84953Y65000D02*
D03*
X79047D02*
D03*
D24*
X205807Y65985D02*
D03*
Y73071D02*
D03*
X141500Y54957D02*
D03*
Y62043D02*
D03*
Y69957D02*
D03*
Y77043D02*
D03*
X118500Y37043D02*
D03*
Y29957D02*
D03*
X128000Y29457D02*
D03*
Y36543D02*
D03*
D25*
X195485Y67075D02*
D03*
Y72981D02*
D03*
X185307Y67075D02*
D03*
Y72981D02*
D03*
X198307Y27053D02*
D03*
Y32959D02*
D03*
X139500Y43453D02*
D03*
Y37547D02*
D03*
D26*
X142453Y29500D02*
D03*
X136547D02*
D03*
D27*
X205807Y54528D02*
D03*
Y52559D02*
D03*
Y50591D02*
D03*
Y48622D02*
D03*
Y46654D02*
D03*
X218603D02*
D03*
Y48622D02*
D03*
Y50591D02*
D03*
Y52559D02*
D03*
Y54528D02*
D03*
D28*
X212107Y50591D02*
D03*
D29*
X136630Y92500D02*
D03*
X115370D02*
D03*
D30*
X34500Y83500D02*
D03*
D31*
X58319Y92476D02*
D03*
Y74524D02*
D03*
D32*
X234555Y48622D02*
D03*
X253059D02*
D03*
D55*
X259842Y188976D02*
D03*
X15748D02*
D03*
X259842Y15748D02*
D03*
X15748D02*
D03*
D56*
X115132Y166339D02*
D03*
Y156496D02*
D03*
X233242D02*
D03*
X225368D02*
D03*
X217494D02*
D03*
X209620D02*
D03*
X201746D02*
D03*
X193872D02*
D03*
X185998D02*
D03*
X178124D02*
D03*
X170250D02*
D03*
X162376D02*
D03*
X154502D02*
D03*
X146628D02*
D03*
X138754D02*
D03*
X130880D02*
D03*
X123006D02*
D03*
Y166339D02*
D03*
X130880D02*
D03*
X138754D02*
D03*
X146628D02*
D03*
X154502D02*
D03*
X162376D02*
D03*
X170250D02*
D03*
X233242D02*
D03*
X225368D02*
D03*
X217494D02*
D03*
X209620D02*
D03*
X201746D02*
D03*
X193872D02*
D03*
X185998D02*
D03*
X178124D02*
D03*
D57*
X81646Y141339D02*
D03*
Y119685D02*
D03*
X46500Y141339D02*
D03*
Y119685D02*
D03*
M02*
