M48
;Layer_Color=9474304
;FILE_FORMAT=2:5
INCH,LZ
;TYPE=PLATED
T1F00S00C0.02800
T2F00S00C0.03937
T3F00S00C0.07087
T4F00S00C0.11811
T5F00S00C0.12205
%
T01
X0067323Y0084252
X0066823Y009585
X0067323Y0108268
X0090551Y0119685
X011063Y0120079
X0147244Y0112992
X0175984Y0117323
X019685
X0197244Y0087008
X0182677Y0086748
X0169425Y0087252
X0183591Y0064961
X0189764Y014252
X0164961Y0163779
X0153543Y0163386
X0098032Y0152362
X0088976
X0064961Y017126
X0240158Y0164961
X0238976Y0146063
X0239764Y0113293
X0305906Y0159449
Y0188189
X0264961Y0177559
X0153543Y0174016
X0097638Y0182677
X0080118Y0181102
T02
X0082087Y0037087
X0093898
X0105709
Y0048898
X0093898
X0082087
X011752
Y0037087
X0129331
Y0048898
X0141142
Y0037087
X0152953
X0164764
Y0048898
X0152953
T03
X0275325Y0069685
Y0091339
T04
X0275325Y0040945
T05
X0090158Y0020079
X0156693
M30
