G04*
G04 #@! TF.GenerationSoftware,Altium Limited,Altium Designer,19.0.15 (446)*
G04*
G04 Layer_Color=16711935*
%FSLAX25Y25*%
%MOIN*%
G70*
G01*
G75*
%ADD47C,0.00800*%
%ADD48C,0.09461*%
%ADD49C,0.06706*%
%ADD50C,0.13792*%
%ADD51C,0.05800*%
D47*
X275325Y40945D02*
D03*
D48*
Y69685D02*
D03*
Y91339D02*
D03*
D49*
X82087Y37087D02*
D03*
X93898D02*
D03*
X105709D02*
D03*
X117520D02*
D03*
X129331D02*
D03*
X141142D02*
D03*
X152953D02*
D03*
X164764D02*
D03*
Y48898D02*
D03*
X152953D02*
D03*
X141142D02*
D03*
X129331D02*
D03*
X117520D02*
D03*
X105709D02*
D03*
X93898D02*
D03*
X82087D02*
D03*
D50*
X90158Y20079D02*
D03*
X156693D02*
D03*
D51*
X239764Y113293D02*
D03*
X183591Y64961D02*
D03*
X264961Y177559D02*
D03*
X240158Y164961D02*
D03*
X164961Y163779D02*
D03*
X153543Y163386D02*
D03*
X97638Y182677D02*
D03*
X189764Y142520D02*
D03*
X238976Y146063D02*
D03*
X196850Y117323D02*
D03*
X175984D02*
D03*
X147244Y112992D02*
D03*
X197244Y87008D02*
D03*
X182677Y86748D02*
D03*
X169425Y87252D02*
D03*
X305906Y159449D02*
D03*
Y188189D02*
D03*
X90551Y119685D02*
D03*
X110630Y120079D02*
D03*
X98032Y152362D02*
D03*
X88976D02*
D03*
X64961Y171260D02*
D03*
X67323Y108268D02*
D03*
Y84252D02*
D03*
X66823Y95850D02*
D03*
X80118Y181102D02*
D03*
X153543Y174016D02*
D03*
M02*
