G04*
G04 #@! TF.GenerationSoftware,Altium Limited,Altium Designer,19.0.15 (446)*
G04*
G04 Layer_Physical_Order=2*
G04 Layer_Color=16711680*
%FSLAX25Y25*%
%MOIN*%
G70*
G01*
G75*
%ADD14C,0.01000*%
%ADD50C,0.23622*%
%ADD51C,0.05906*%
%ADD52C,0.12992*%
%ADD53C,0.08661*%
%ADD54C,0.05000*%
G36*
X282500D02*
X500D01*
Y182129D01*
X1000Y182188D01*
X1278Y181029D01*
X2050Y179166D01*
X3104Y177447D01*
X4413Y175913D01*
X5947Y174604D01*
X7666Y173550D01*
X9529Y172778D01*
X11490Y172308D01*
X13500Y172149D01*
X15510Y172308D01*
X17471Y172778D01*
X19334Y173550D01*
X21053Y174604D01*
X22587Y175913D01*
X23896Y177447D01*
X24950Y179166D01*
X25722Y181029D01*
X26192Y182990D01*
X26351Y185000D01*
X26192Y187010D01*
X25722Y188971D01*
X24950Y190834D01*
X23896Y192553D01*
X22587Y194087D01*
X21053Y195396D01*
X19334Y196450D01*
X17471Y197222D01*
X15510Y197692D01*
X13500Y197851D01*
X11490Y197692D01*
X9529Y197222D01*
X7666Y196450D01*
X5947Y195396D01*
X4413Y194087D01*
X3104Y192553D01*
X2050Y190834D01*
X1278Y188971D01*
X1000Y187812D01*
X500Y187871D01*
Y199500D01*
X282500D01*
Y0D01*
D02*
G37*
%LPC*%
G36*
X268000Y198351D02*
X265990Y198192D01*
X264029Y197722D01*
X262166Y196950D01*
X260447Y195896D01*
X258913Y194587D01*
X257604Y193053D01*
X256550Y191334D01*
X255778Y189471D01*
X255308Y187510D01*
X255149Y185500D01*
X255308Y183490D01*
X255778Y181529D01*
X256550Y179666D01*
X257604Y177947D01*
X258913Y176413D01*
X260447Y175104D01*
X262166Y174050D01*
X264029Y173278D01*
X265990Y172808D01*
X268000Y172649D01*
X270010Y172808D01*
X271971Y173278D01*
X273834Y174050D01*
X275553Y175104D01*
X277087Y176413D01*
X278396Y177947D01*
X279450Y179666D01*
X280222Y181529D01*
X280692Y183490D01*
X280851Y185500D01*
X280692Y187510D01*
X280222Y189471D01*
X279450Y191334D01*
X278396Y193053D01*
X277087Y194587D01*
X275553Y195896D01*
X273834Y196950D01*
X271971Y197722D01*
X270010Y198192D01*
X268000Y198351D01*
D02*
G37*
G36*
X204453Y170854D02*
Y167890D01*
X207417D01*
X207363Y168303D01*
X207010Y169155D01*
X206449Y169886D01*
X205718Y170447D01*
X204866Y170800D01*
X204453Y170854D01*
D02*
G37*
G36*
X203453D02*
X203039Y170800D01*
X202188Y170447D01*
X201456Y169886D01*
X200896Y169155D01*
X200543Y168303D01*
X200488Y167890D01*
X203453D01*
Y170854D01*
D02*
G37*
G36*
X207417Y166890D02*
X204453D01*
Y163925D01*
X204866Y163980D01*
X205718Y164332D01*
X206449Y164893D01*
X207010Y165625D01*
X207363Y166476D01*
X207417Y166890D01*
D02*
G37*
G36*
X203453D02*
X200488D01*
X200543Y166476D01*
X200896Y165625D01*
X201456Y164893D01*
X202188Y164332D01*
X203039Y163980D01*
X203453Y163925D01*
Y166890D01*
D02*
G37*
G36*
X38000Y158165D02*
Y154744D01*
X41421D01*
X41351Y155276D01*
X40953Y156237D01*
X40319Y157063D01*
X39493Y157697D01*
X38532Y158095D01*
X38000Y158165D01*
D02*
G37*
G36*
X37000D02*
X36468Y158095D01*
X35507Y157697D01*
X34681Y157063D01*
X34047Y156237D01*
X33649Y155276D01*
X33579Y154744D01*
X37000D01*
Y158165D01*
D02*
G37*
G36*
X41421Y153744D02*
X38000D01*
Y150323D01*
X38532Y150393D01*
X39493Y150791D01*
X40319Y151425D01*
X40953Y152251D01*
X41351Y153212D01*
X41421Y153744D01*
D02*
G37*
G36*
X37000D02*
X33579D01*
X33649Y153212D01*
X34047Y152251D01*
X34681Y151425D01*
X35507Y150791D01*
X36468Y150393D01*
X37000Y150323D01*
Y153744D01*
D02*
G37*
G36*
X49311Y158231D02*
X48279Y158095D01*
X47318Y157697D01*
X46492Y157063D01*
X45858Y156237D01*
X45460Y155276D01*
X45324Y154244D01*
X45460Y153212D01*
X45858Y152251D01*
X46492Y151425D01*
X47318Y150791D01*
X48279Y150393D01*
X49311Y150257D01*
X50343Y150393D01*
X51304Y150791D01*
X52130Y151425D01*
X52764Y152251D01*
X53162Y153212D01*
X53298Y154244D01*
X53162Y155276D01*
X52764Y156237D01*
X52130Y157063D01*
X51304Y157697D01*
X50343Y158095D01*
X49311Y158231D01*
D02*
G37*
G36*
X38000Y146354D02*
Y142933D01*
X41421D01*
X41351Y143465D01*
X40953Y144427D01*
X40319Y145252D01*
X39493Y145886D01*
X38532Y146284D01*
X38000Y146354D01*
D02*
G37*
G36*
X37000D02*
X36468Y146284D01*
X35507Y145886D01*
X34681Y145252D01*
X34047Y144427D01*
X33649Y143465D01*
X33579Y142933D01*
X37000D01*
Y146354D01*
D02*
G37*
G36*
X20492Y153706D02*
X19023Y153561D01*
X17610Y153132D01*
X16307Y152436D01*
X15166Y151499D01*
X14229Y150358D01*
X13533Y149056D01*
X13104Y147643D01*
X12960Y146173D01*
X13104Y144704D01*
X13533Y143291D01*
X14229Y141989D01*
X15166Y140847D01*
X16307Y139910D01*
X17610Y139214D01*
X19023Y138786D01*
X20492Y138641D01*
X21962Y138786D01*
X23375Y139214D01*
X24677Y139910D01*
X25818Y140847D01*
X26755Y141989D01*
X27451Y143291D01*
X27880Y144704D01*
X28025Y146173D01*
X27880Y147643D01*
X27451Y149056D01*
X26755Y150358D01*
X25818Y151499D01*
X24677Y152436D01*
X23375Y153132D01*
X21962Y153561D01*
X20492Y153706D01*
D02*
G37*
G36*
X41421Y141933D02*
X38000D01*
Y138512D01*
X38532Y138582D01*
X39493Y138980D01*
X40319Y139614D01*
X40953Y140440D01*
X41351Y141401D01*
X41421Y141933D01*
D02*
G37*
G36*
X37000D02*
X33579D01*
X33649Y141401D01*
X34047Y140440D01*
X34681Y139614D01*
X35507Y138980D01*
X36468Y138582D01*
X37000Y138512D01*
Y141933D01*
D02*
G37*
G36*
X49311Y146420D02*
X48279Y146284D01*
X47318Y145886D01*
X46492Y145252D01*
X45858Y144427D01*
X45460Y143465D01*
X45324Y142433D01*
X45460Y141401D01*
X45858Y140440D01*
X46492Y139614D01*
X47318Y138980D01*
X48279Y138582D01*
X49311Y138446D01*
X50343Y138582D01*
X51304Y138980D01*
X52130Y139614D01*
X52764Y140440D01*
X53162Y141401D01*
X53298Y142433D01*
X53162Y143465D01*
X52764Y144427D01*
X52130Y145252D01*
X51304Y145886D01*
X50343Y146284D01*
X49311Y146420D01*
D02*
G37*
G36*
X38000Y134543D02*
Y131122D01*
X41421D01*
X41351Y131654D01*
X40953Y132615D01*
X40319Y133441D01*
X39493Y134075D01*
X38532Y134473D01*
X38000Y134543D01*
D02*
G37*
G36*
X37000D02*
X36468Y134473D01*
X35507Y134075D01*
X34681Y133441D01*
X34047Y132615D01*
X33649Y131654D01*
X33579Y131122D01*
X37000D01*
Y134543D01*
D02*
G37*
G36*
X41421Y130122D02*
X38000D01*
Y126701D01*
X38532Y126771D01*
X39493Y127169D01*
X40319Y127803D01*
X40953Y128629D01*
X41351Y129590D01*
X41421Y130122D01*
D02*
G37*
G36*
X37000D02*
X33579D01*
X33649Y129590D01*
X34047Y128629D01*
X34681Y127803D01*
X35507Y127169D01*
X36468Y126771D01*
X37000Y126701D01*
Y130122D01*
D02*
G37*
G36*
X49311Y134609D02*
X48279Y134473D01*
X47318Y134075D01*
X46492Y133441D01*
X45858Y132615D01*
X45460Y131654D01*
X45324Y130622D01*
X45460Y129590D01*
X45858Y128629D01*
X46492Y127803D01*
X47318Y127169D01*
X48279Y126771D01*
X49311Y126635D01*
X50343Y126771D01*
X51304Y127169D01*
X52130Y127803D01*
X52764Y128629D01*
X53162Y129590D01*
X53298Y130622D01*
X53162Y131654D01*
X52764Y132615D01*
X52130Y133441D01*
X51304Y134075D01*
X50343Y134473D01*
X49311Y134609D01*
D02*
G37*
G36*
X38000Y122732D02*
Y119311D01*
X41421D01*
X41351Y119843D01*
X40953Y120804D01*
X40319Y121630D01*
X39493Y122264D01*
X38532Y122662D01*
X38000Y122732D01*
D02*
G37*
G36*
X37000D02*
X36468Y122662D01*
X35507Y122264D01*
X34681Y121630D01*
X34047Y120804D01*
X33649Y119843D01*
X33579Y119311D01*
X37000D01*
Y122732D01*
D02*
G37*
G36*
X41421Y118311D02*
X38000D01*
Y114890D01*
X38532Y114960D01*
X39493Y115358D01*
X40319Y115992D01*
X40953Y116818D01*
X41351Y117779D01*
X41421Y118311D01*
D02*
G37*
G36*
X37000D02*
X33579D01*
X33649Y117779D01*
X34047Y116818D01*
X34681Y115992D01*
X35507Y115358D01*
X36468Y114960D01*
X37000Y114890D01*
Y118311D01*
D02*
G37*
G36*
X49311Y122798D02*
X48279Y122662D01*
X47318Y122264D01*
X46492Y121630D01*
X45858Y120804D01*
X45460Y119843D01*
X45324Y118811D01*
X45460Y117779D01*
X45858Y116818D01*
X46492Y115992D01*
X47318Y115358D01*
X48279Y114960D01*
X49311Y114824D01*
X50343Y114960D01*
X51304Y115358D01*
X52130Y115992D01*
X52764Y116818D01*
X53162Y117779D01*
X53298Y118811D01*
X53162Y119843D01*
X52764Y120804D01*
X52130Y121630D01*
X51304Y122264D01*
X50343Y122662D01*
X49311Y122798D01*
D02*
G37*
G36*
X95561Y130030D02*
X94647Y129910D01*
X93796Y129557D01*
X93065Y128996D01*
X92504Y128265D01*
X92151Y127414D01*
X92031Y126500D01*
X92151Y125586D01*
X92504Y124735D01*
X93065Y124004D01*
X93796Y123443D01*
X94647Y123090D01*
X95561Y122970D01*
X96475Y123090D01*
X97326Y123443D01*
X98057Y124004D01*
X98618Y124735D01*
X98716Y124971D01*
X113125D01*
X125721Y112375D01*
X126217Y112044D01*
X126802Y111927D01*
X141845D01*
X141943Y111692D01*
X142504Y110960D01*
X143235Y110399D01*
X144086Y110047D01*
X145000Y109926D01*
X145914Y110047D01*
X146765Y110399D01*
X147496Y110960D01*
X148057Y111692D01*
X148410Y112543D01*
X148530Y113457D01*
X148410Y114370D01*
X148057Y115222D01*
X147496Y115953D01*
X146765Y116514D01*
X145914Y116867D01*
X145000Y116987D01*
X144086Y116867D01*
X143235Y116514D01*
X142504Y115953D01*
X141943Y115222D01*
X141845Y114986D01*
X127436D01*
X114840Y127581D01*
X114344Y127913D01*
X113759Y128029D01*
X98716D01*
X98618Y128265D01*
X98057Y128996D01*
X97326Y129557D01*
X96475Y129910D01*
X95561Y130030D01*
D02*
G37*
G36*
X38000Y110921D02*
Y107500D01*
X41421D01*
X41351Y108032D01*
X40953Y108993D01*
X40319Y109819D01*
X39493Y110453D01*
X38532Y110851D01*
X38000Y110921D01*
D02*
G37*
G36*
X37000D02*
X36468Y110851D01*
X35507Y110453D01*
X34681Y109819D01*
X34047Y108993D01*
X33649Y108032D01*
X33579Y107500D01*
X37000D01*
Y110921D01*
D02*
G37*
G36*
X74500Y109964D02*
Y107000D01*
X77464D01*
X77410Y107414D01*
X77057Y108265D01*
X76496Y108996D01*
X75765Y109557D01*
X74914Y109910D01*
X74500Y109964D01*
D02*
G37*
G36*
X73500D02*
X73086Y109910D01*
X72235Y109557D01*
X71504Y108996D01*
X70943Y108265D01*
X70590Y107414D01*
X70536Y107000D01*
X73500D01*
Y109964D01*
D02*
G37*
G36*
X114279Y113786D02*
X113366Y113666D01*
X112514Y113313D01*
X111783Y112752D01*
X111222Y112021D01*
X110870Y111170D01*
X110749Y110256D01*
X110870Y109342D01*
X111222Y108491D01*
X111783Y107760D01*
X112514Y107199D01*
X113366Y106846D01*
X114279Y106726D01*
X115193Y106846D01*
X116045Y107199D01*
X116776Y107760D01*
X117337Y108491D01*
X117434Y108727D01*
X120063D01*
X122871Y105919D01*
X123368Y105587D01*
X123953Y105471D01*
X127845D01*
X127943Y105235D01*
X128504Y104504D01*
X129235Y103943D01*
X130086Y103590D01*
X131000Y103470D01*
X131914Y103590D01*
X132765Y103943D01*
X133496Y104504D01*
X134057Y105235D01*
X134410Y106086D01*
X134530Y107000D01*
X134410Y107914D01*
X134057Y108765D01*
X133496Y109496D01*
X132765Y110057D01*
X131914Y110410D01*
X131000Y110530D01*
X130086Y110410D01*
X129235Y110057D01*
X128504Y109496D01*
X127943Y108765D01*
X127845Y108529D01*
X124586D01*
X121778Y111337D01*
X121282Y111669D01*
X120697Y111785D01*
X117434D01*
X117337Y112021D01*
X116776Y112752D01*
X116045Y113313D01*
X115193Y113666D01*
X114279Y113786D01*
D02*
G37*
G36*
X41421Y106500D02*
X38000D01*
Y103079D01*
X38532Y103149D01*
X39493Y103547D01*
X40319Y104181D01*
X40953Y105007D01*
X41351Y105968D01*
X41421Y106500D01*
D02*
G37*
G36*
X37000D02*
X33579D01*
X33649Y105968D01*
X34047Y105007D01*
X34681Y104181D01*
X35507Y103547D01*
X36468Y103149D01*
X37000Y103079D01*
Y106500D01*
D02*
G37*
G36*
X77464Y106000D02*
X74500D01*
Y103036D01*
X74914Y103090D01*
X75765Y103443D01*
X76496Y104004D01*
X77057Y104735D01*
X77410Y105586D01*
X77464Y106000D01*
D02*
G37*
G36*
X73500D02*
X70536D01*
X70590Y105586D01*
X70943Y104735D01*
X71504Y104004D01*
X72235Y103443D01*
X73086Y103090D01*
X73500Y103036D01*
Y106000D01*
D02*
G37*
G36*
X49311Y110987D02*
X48279Y110851D01*
X47318Y110453D01*
X46492Y109819D01*
X45858Y108993D01*
X45460Y108032D01*
X45324Y107000D01*
X45460Y105968D01*
X45858Y105007D01*
X46492Y104181D01*
X47318Y103547D01*
X48279Y103149D01*
X49311Y103013D01*
X50343Y103149D01*
X51304Y103547D01*
X52130Y104181D01*
X52764Y105007D01*
X53162Y105968D01*
X53298Y107000D01*
X53162Y108032D01*
X52764Y108993D01*
X52130Y109819D01*
X51304Y110453D01*
X50343Y110851D01*
X49311Y110987D01*
D02*
G37*
G36*
X190854Y160030D02*
X189941Y159910D01*
X189089Y159557D01*
X188358Y158996D01*
X187797Y158265D01*
X187444Y157414D01*
X187324Y156500D01*
X187444Y155586D01*
X187797Y154735D01*
X188358Y154004D01*
X189089Y153443D01*
X189325Y153345D01*
Y143244D01*
X148649Y102568D01*
X148414Y102666D01*
X147500Y102786D01*
X146586Y102666D01*
X145735Y102313D01*
X145004Y101752D01*
X144443Y101021D01*
X144090Y100170D01*
X143970Y99256D01*
X144090Y98342D01*
X144443Y97491D01*
X145004Y96760D01*
X145735Y96199D01*
X146586Y95846D01*
X147500Y95726D01*
X148414Y95846D01*
X149265Y96199D01*
X149996Y96760D01*
X150557Y97491D01*
X150910Y98342D01*
X151030Y99256D01*
X150910Y100170D01*
X150812Y100405D01*
X191936Y141529D01*
X192267Y142025D01*
X192384Y142610D01*
Y153345D01*
X192619Y153443D01*
X193351Y154004D01*
X193912Y154735D01*
X194264Y155586D01*
X194385Y156500D01*
X194264Y157414D01*
X193912Y158265D01*
X193351Y158996D01*
X192619Y159557D01*
X191768Y159910D01*
X190854Y160030D01*
D02*
G37*
G36*
X205000Y101464D02*
Y98500D01*
X207964D01*
X207910Y98914D01*
X207557Y99765D01*
X206996Y100496D01*
X206265Y101057D01*
X205414Y101410D01*
X205000Y101464D01*
D02*
G37*
G36*
X204000D02*
X203586Y101410D01*
X202735Y101057D01*
X202004Y100496D01*
X201443Y99765D01*
X201090Y98914D01*
X201036Y98500D01*
X204000D01*
Y101464D01*
D02*
G37*
G36*
X38000Y99110D02*
Y95689D01*
X41421D01*
X41351Y96221D01*
X40953Y97182D01*
X40319Y98008D01*
X39493Y98642D01*
X38532Y99040D01*
X38000Y99110D01*
D02*
G37*
G36*
X37000D02*
X36468Y99040D01*
X35507Y98642D01*
X34681Y98008D01*
X34047Y97182D01*
X33649Y96221D01*
X33579Y95689D01*
X37000D01*
Y99110D01*
D02*
G37*
G36*
X207964Y97500D02*
X205000D01*
Y94536D01*
X205414Y94590D01*
X206265Y94943D01*
X206996Y95504D01*
X207557Y96235D01*
X207910Y97086D01*
X207964Y97500D01*
D02*
G37*
G36*
X204000D02*
X201036D01*
X201090Y97086D01*
X201443Y96235D01*
X202004Y95504D01*
X202735Y94943D01*
X203586Y94590D01*
X204000Y94536D01*
Y97500D01*
D02*
G37*
G36*
X41421Y94689D02*
X38000D01*
Y91268D01*
X38532Y91338D01*
X39493Y91736D01*
X40319Y92370D01*
X40953Y93195D01*
X41351Y94157D01*
X41421Y94689D01*
D02*
G37*
G36*
X37000D02*
X33579D01*
X33649Y94157D01*
X34047Y93195D01*
X34681Y92370D01*
X35507Y91736D01*
X36468Y91338D01*
X37000Y91268D01*
Y94689D01*
D02*
G37*
G36*
X49311Y99176D02*
X48279Y99040D01*
X47318Y98642D01*
X46492Y98008D01*
X45858Y97182D01*
X45460Y96221D01*
X45324Y95189D01*
X45460Y94157D01*
X45858Y93195D01*
X46492Y92370D01*
X47318Y91736D01*
X48279Y91338D01*
X49311Y91202D01*
X50343Y91338D01*
X51304Y91736D01*
X52130Y92370D01*
X52764Y93195D01*
X53162Y94157D01*
X53298Y95189D01*
X53162Y96221D01*
X52764Y97182D01*
X52130Y98008D01*
X51304Y98642D01*
X50343Y99040D01*
X49311Y99176D01*
D02*
G37*
G36*
X186500Y87530D02*
X185586Y87410D01*
X184735Y87057D01*
X184004Y86496D01*
X183443Y85765D01*
X183345Y85529D01*
X180655D01*
X180557Y85765D01*
X179996Y86496D01*
X179265Y87057D01*
X178414Y87410D01*
X177500Y87530D01*
X176586Y87410D01*
X175735Y87057D01*
X175004Y86496D01*
X174443Y85765D01*
X174090Y84914D01*
X173970Y84000D01*
X174090Y83086D01*
X174443Y82235D01*
X175004Y81504D01*
X175735Y80943D01*
X176586Y80590D01*
X177500Y80470D01*
X178414Y80590D01*
X179265Y80943D01*
X179996Y81504D01*
X180557Y82235D01*
X180655Y82471D01*
X183345D01*
X183443Y82235D01*
X184004Y81504D01*
X184735Y80943D01*
X185586Y80590D01*
X186500Y80470D01*
X187414Y80590D01*
X188265Y80943D01*
X188996Y81504D01*
X189557Y82235D01*
X189910Y83086D01*
X190030Y84000D01*
X189910Y84914D01*
X189557Y85765D01*
X188996Y86496D01*
X188265Y87057D01*
X187414Y87410D01*
X186500Y87530D01*
D02*
G37*
G36*
X170000Y87464D02*
Y84500D01*
X172964D01*
X172910Y84914D01*
X172557Y85765D01*
X171996Y86496D01*
X171265Y87057D01*
X170414Y87410D01*
X170000Y87464D01*
D02*
G37*
G36*
X169000D02*
X168586Y87410D01*
X167735Y87057D01*
X167004Y86496D01*
X166443Y85765D01*
X166090Y84914D01*
X166036Y84500D01*
X169000D01*
Y87464D01*
D02*
G37*
G36*
X38000Y87299D02*
Y83878D01*
X41421D01*
X41351Y84410D01*
X40953Y85371D01*
X40319Y86197D01*
X39493Y86831D01*
X38532Y87229D01*
X38000Y87299D01*
D02*
G37*
G36*
X37000D02*
X36468Y87229D01*
X35507Y86831D01*
X34681Y86197D01*
X34047Y85371D01*
X33649Y84410D01*
X33579Y83878D01*
X37000D01*
Y87299D01*
D02*
G37*
G36*
X172964Y83500D02*
X170000D01*
Y80536D01*
X170414Y80590D01*
X171265Y80943D01*
X171996Y81504D01*
X172557Y82235D01*
X172910Y83086D01*
X172964Y83500D01*
D02*
G37*
G36*
X169000D02*
X166036D01*
X166090Y83086D01*
X166443Y82235D01*
X167004Y81504D01*
X167735Y80943D01*
X168586Y80590D01*
X169000Y80536D01*
Y83500D01*
D02*
G37*
G36*
X41421Y82878D02*
X38000D01*
Y79457D01*
X38532Y79527D01*
X39493Y79925D01*
X40319Y80559D01*
X40953Y81384D01*
X41351Y82346D01*
X41421Y82878D01*
D02*
G37*
G36*
X37000D02*
X33579D01*
X33649Y82346D01*
X34047Y81384D01*
X34681Y80559D01*
X35507Y79925D01*
X36468Y79527D01*
X37000Y79457D01*
Y82878D01*
D02*
G37*
G36*
X49311Y87365D02*
X48279Y87229D01*
X47318Y86831D01*
X46492Y86197D01*
X45858Y85371D01*
X45460Y84410D01*
X45324Y83378D01*
X45460Y82346D01*
X45858Y81384D01*
X46492Y80559D01*
X47318Y79925D01*
X48279Y79527D01*
X49311Y79391D01*
X50343Y79527D01*
X51304Y79925D01*
X52130Y80559D01*
X52764Y81384D01*
X53162Y82346D01*
X53298Y83378D01*
X53162Y84410D01*
X52764Y85371D01*
X52130Y86197D01*
X51304Y86831D01*
X50343Y87229D01*
X49311Y87365D01*
D02*
G37*
G36*
X226000Y83205D02*
Y78394D01*
X230811D01*
X230694Y79285D01*
X230156Y80582D01*
X229302Y81696D01*
X228188Y82550D01*
X226892Y83087D01*
X226000Y83205D01*
D02*
G37*
G36*
X225000D02*
X224108Y83087D01*
X222812Y82550D01*
X221698Y81696D01*
X220844Y80582D01*
X220306Y79285D01*
X220189Y78394D01*
X225000D01*
Y83205D01*
D02*
G37*
G36*
X208388Y80464D02*
Y77500D01*
X211352D01*
X211298Y77914D01*
X210945Y78765D01*
X210384Y79496D01*
X209653Y80057D01*
X208802Y80410D01*
X208388Y80464D01*
D02*
G37*
G36*
X207388D02*
X206975Y80410D01*
X206123Y80057D01*
X205392Y79496D01*
X204831Y78765D01*
X204478Y77914D01*
X204424Y77500D01*
X207388D01*
Y80464D01*
D02*
G37*
G36*
X211352Y76500D02*
X208388D01*
Y73536D01*
X208802Y73590D01*
X209653Y73943D01*
X210384Y74504D01*
X210945Y75235D01*
X211298Y76086D01*
X211352Y76500D01*
D02*
G37*
G36*
X207388D02*
X204424D01*
X204478Y76086D01*
X204831Y75235D01*
X205392Y74504D01*
X206123Y73943D01*
X206975Y73590D01*
X207388Y73536D01*
Y76500D01*
D02*
G37*
G36*
X230811Y77394D02*
X226000D01*
Y72583D01*
X226892Y72700D01*
X228188Y73237D01*
X229302Y74092D01*
X230156Y75205D01*
X230694Y76502D01*
X230811Y77394D01*
D02*
G37*
G36*
X225000D02*
X220189D01*
X220306Y76502D01*
X220844Y75205D01*
X221698Y74092D01*
X222812Y73237D01*
X224108Y72700D01*
X225000Y72583D01*
Y77394D01*
D02*
G37*
G36*
X20492Y87170D02*
X19023Y87025D01*
X17610Y86597D01*
X16307Y85901D01*
X15166Y84964D01*
X14229Y83823D01*
X13533Y82520D01*
X13104Y81107D01*
X12960Y79638D01*
X13104Y78168D01*
X13533Y76755D01*
X14229Y75453D01*
X15166Y74312D01*
X16307Y73375D01*
X17610Y72679D01*
X19023Y72250D01*
X20492Y72105D01*
X21962Y72250D01*
X23375Y72679D01*
X24677Y73375D01*
X25818Y74312D01*
X26755Y75453D01*
X27451Y76755D01*
X27880Y78168D01*
X28025Y79638D01*
X27880Y81107D01*
X27451Y82520D01*
X26755Y83823D01*
X25818Y84964D01*
X24677Y85901D01*
X23375Y86597D01*
X21962Y87025D01*
X20492Y87170D01*
D02*
G37*
G36*
X38000Y75488D02*
Y72067D01*
X41421D01*
X41351Y72599D01*
X40953Y73560D01*
X40319Y74386D01*
X39493Y75020D01*
X38532Y75418D01*
X38000Y75488D01*
D02*
G37*
G36*
X37000D02*
X36468Y75418D01*
X35507Y75020D01*
X34681Y74386D01*
X34047Y73560D01*
X33649Y72599D01*
X33579Y72067D01*
X37000D01*
Y75488D01*
D02*
G37*
G36*
X105500Y109030D02*
X104586Y108910D01*
X103735Y108557D01*
X103004Y107996D01*
X102443Y107265D01*
X102090Y106414D01*
X101970Y105500D01*
X102090Y104586D01*
X102443Y103735D01*
X103004Y103004D01*
X103735Y102443D01*
X103971Y102345D01*
Y91633D01*
X90919Y78581D01*
X90587Y78085D01*
X90471Y77500D01*
Y75222D01*
X90235Y75124D01*
X89504Y74563D01*
X88943Y73832D01*
X88590Y72981D01*
X88470Y72067D01*
X88590Y71153D01*
X88943Y70302D01*
X89504Y69571D01*
X90235Y69010D01*
X91086Y68657D01*
X92000Y68537D01*
X92914Y68657D01*
X93765Y69010D01*
X94496Y69571D01*
X95057Y70302D01*
X95410Y71153D01*
X95530Y72067D01*
X95410Y72981D01*
X95057Y73832D01*
X94496Y74563D01*
X93765Y75124D01*
X93529Y75222D01*
Y76867D01*
X106581Y89919D01*
X106913Y90415D01*
X107029Y91000D01*
Y102345D01*
X107265Y102443D01*
X107996Y103004D01*
X108557Y103735D01*
X108910Y104586D01*
X109030Y105500D01*
X108910Y106414D01*
X108557Y107265D01*
X107996Y107996D01*
X107265Y108557D01*
X106414Y108910D01*
X105500Y109030D01*
D02*
G37*
G36*
X41421Y71067D02*
X38000D01*
Y67646D01*
X38532Y67716D01*
X39493Y68114D01*
X40319Y68748D01*
X40953Y69573D01*
X41351Y70535D01*
X41421Y71067D01*
D02*
G37*
G36*
X37000D02*
X33579D01*
X33649Y70535D01*
X34047Y69573D01*
X34681Y68748D01*
X35507Y68114D01*
X36468Y67716D01*
X37000Y67646D01*
Y71067D01*
D02*
G37*
G36*
X49311Y75554D02*
X48279Y75418D01*
X47318Y75020D01*
X46492Y74386D01*
X45858Y73560D01*
X45460Y72599D01*
X45324Y71567D01*
X45460Y70535D01*
X45858Y69573D01*
X46492Y68748D01*
X47318Y68114D01*
X48279Y67716D01*
X49311Y67580D01*
X50343Y67716D01*
X51304Y68114D01*
X52130Y68748D01*
X52764Y69573D01*
X53162Y70535D01*
X53298Y71567D01*
X53162Y72599D01*
X52764Y73560D01*
X52130Y74386D01*
X51304Y75020D01*
X50343Y75418D01*
X49311Y75554D01*
D02*
G37*
G36*
X225500Y61617D02*
X224108Y61434D01*
X222812Y60896D01*
X221698Y60042D01*
X220844Y58929D01*
X220306Y57632D01*
X220123Y56240D01*
X220306Y54849D01*
X220844Y53552D01*
X221698Y52438D01*
X222812Y51584D01*
X224108Y51047D01*
X225500Y50863D01*
X226892Y51047D01*
X228188Y51584D01*
X229302Y52438D01*
X230156Y53552D01*
X230694Y54849D01*
X230877Y56240D01*
X230694Y57632D01*
X230156Y58929D01*
X229302Y60042D01*
X228188Y60896D01*
X226892Y61434D01*
X225500Y61617D01*
D02*
G37*
G36*
X105000Y51964D02*
Y49000D01*
X107964D01*
X107910Y49414D01*
X107557Y50265D01*
X106996Y50996D01*
X106265Y51557D01*
X105414Y51910D01*
X105000Y51964D01*
D02*
G37*
G36*
X104000D02*
X103586Y51910D01*
X102735Y51557D01*
X102004Y50996D01*
X101443Y50265D01*
X101090Y49414D01*
X101036Y49000D01*
X104000D01*
Y51964D01*
D02*
G37*
G36*
X170280Y69530D02*
X169366Y69410D01*
X168514Y69057D01*
X167783Y68496D01*
X167222Y67765D01*
X166870Y66914D01*
X166749Y66000D01*
X166870Y65086D01*
X167222Y64235D01*
X167783Y63504D01*
X168514Y62943D01*
X168971Y62754D01*
Y53655D01*
X168735Y53557D01*
X168004Y52996D01*
X167443Y52265D01*
X167090Y51414D01*
X166970Y50500D01*
X167090Y49586D01*
X167443Y48735D01*
X168004Y48004D01*
X168735Y47443D01*
X169586Y47090D01*
X170500Y46970D01*
X171414Y47090D01*
X172265Y47443D01*
X172996Y48004D01*
X173557Y48735D01*
X173910Y49586D01*
X174030Y50500D01*
X173910Y51414D01*
X173557Y52265D01*
X172996Y52996D01*
X172265Y53557D01*
X172029Y53655D01*
Y62937D01*
X172045Y62943D01*
X172776Y63504D01*
X173337Y64235D01*
X173689Y65086D01*
X173810Y66000D01*
X173689Y66914D01*
X173337Y67765D01*
X172776Y68496D01*
X172045Y69057D01*
X171193Y69410D01*
X170280Y69530D01*
D02*
G37*
G36*
X107964Y48000D02*
X105000D01*
Y45036D01*
X105414Y45090D01*
X106265Y45443D01*
X106996Y46004D01*
X107557Y46735D01*
X107910Y47586D01*
X107964Y48000D01*
D02*
G37*
G36*
X104000D02*
X101036D01*
X101090Y47586D01*
X101443Y46735D01*
X102004Y46004D01*
X102735Y45443D01*
X103586Y45090D01*
X104000Y45036D01*
Y48000D01*
D02*
G37*
G36*
X147000Y45464D02*
Y42500D01*
X149964D01*
X149910Y42914D01*
X149557Y43765D01*
X148996Y44496D01*
X148265Y45057D01*
X147414Y45410D01*
X147000Y45464D01*
D02*
G37*
G36*
X146000D02*
X145586Y45410D01*
X144735Y45057D01*
X144004Y44496D01*
X143443Y43765D01*
X143090Y42914D01*
X143036Y42500D01*
X146000D01*
Y45464D01*
D02*
G37*
G36*
X149964Y41500D02*
X147000D01*
Y38536D01*
X147414Y38590D01*
X148265Y38943D01*
X148996Y39504D01*
X149557Y40235D01*
X149910Y41086D01*
X149964Y41500D01*
D02*
G37*
G36*
X146000D02*
X143036D01*
X143090Y41086D01*
X143443Y40235D01*
X144004Y39504D01*
X144735Y38943D01*
X145586Y38590D01*
X146000Y38536D01*
Y41500D01*
D02*
G37*
G36*
X36500Y29464D02*
Y26500D01*
X39464D01*
X39410Y26914D01*
X39057Y27765D01*
X38496Y28496D01*
X37765Y29057D01*
X36914Y29410D01*
X36500Y29464D01*
D02*
G37*
G36*
X35500D02*
X35086Y29410D01*
X34235Y29057D01*
X33504Y28496D01*
X32943Y27765D01*
X32590Y26914D01*
X32536Y26500D01*
X35500D01*
Y29464D01*
D02*
G37*
G36*
X39464Y25500D02*
X36500D01*
Y22536D01*
X36914Y22590D01*
X37765Y22943D01*
X38496Y23504D01*
X39057Y24235D01*
X39410Y25086D01*
X39464Y25500D01*
D02*
G37*
G36*
X35500D02*
X32536D01*
X32590Y25086D01*
X32943Y24235D01*
X33504Y23504D01*
X34235Y22943D01*
X35086Y22590D01*
X35500Y22536D01*
Y25500D01*
D02*
G37*
G36*
X225500Y34439D02*
X224146Y34306D01*
X222845Y33911D01*
X221645Y33270D01*
X220593Y32407D01*
X219730Y31355D01*
X219089Y30155D01*
X218694Y28854D01*
X218561Y27500D01*
X218694Y26146D01*
X219089Y24845D01*
X219730Y23645D01*
X220593Y22593D01*
X221645Y21731D01*
X222845Y21089D01*
X224146Y20694D01*
X225500Y20561D01*
X226854Y20694D01*
X228155Y21089D01*
X229355Y21731D01*
X230407Y22593D01*
X231270Y23645D01*
X231911Y24845D01*
X232306Y26146D01*
X232439Y27500D01*
X232306Y28854D01*
X231911Y30155D01*
X231270Y31355D01*
X230407Y32407D01*
X229355Y33270D01*
X228155Y33911D01*
X226854Y34306D01*
X225500Y34439D01*
D02*
G37*
G36*
X14500Y27851D02*
X12490Y27692D01*
X10529Y27222D01*
X8666Y26450D01*
X6947Y25396D01*
X5413Y24087D01*
X4104Y22553D01*
X3050Y20834D01*
X2278Y18971D01*
X1808Y17010D01*
X1649Y15000D01*
X1808Y12990D01*
X2278Y11029D01*
X3050Y9166D01*
X4104Y7447D01*
X5413Y5913D01*
X6947Y4604D01*
X8666Y3550D01*
X10529Y2778D01*
X12490Y2308D01*
X14500Y2149D01*
X16510Y2308D01*
X18471Y2778D01*
X20334Y3550D01*
X22053Y4604D01*
X23587Y5913D01*
X24896Y7447D01*
X25950Y9166D01*
X26722Y11029D01*
X27192Y12990D01*
X27351Y15000D01*
X27192Y17010D01*
X26722Y18971D01*
X25950Y20834D01*
X24896Y22553D01*
X23587Y24087D01*
X22053Y25396D01*
X20334Y26450D01*
X18471Y27222D01*
X16510Y27692D01*
X14500Y27851D01*
D02*
G37*
G36*
X269000Y26351D02*
X266990Y26192D01*
X265029Y25722D01*
X263166Y24950D01*
X261447Y23896D01*
X259913Y22587D01*
X258604Y21053D01*
X257550Y19334D01*
X256778Y17471D01*
X256308Y15510D01*
X256149Y13500D01*
X256308Y11490D01*
X256778Y9529D01*
X257550Y7666D01*
X258604Y5947D01*
X259913Y4413D01*
X261447Y3104D01*
X263166Y2050D01*
X265029Y1278D01*
X266990Y808D01*
X269000Y649D01*
X271010Y808D01*
X272971Y1278D01*
X274834Y2050D01*
X276553Y3104D01*
X278087Y4413D01*
X279396Y5947D01*
X280450Y7666D01*
X281222Y9529D01*
X281692Y11490D01*
X281851Y13500D01*
X281692Y15510D01*
X281222Y17471D01*
X280450Y19334D01*
X279396Y21053D01*
X278087Y22587D01*
X276553Y23896D01*
X274834Y24950D01*
X272971Y25722D01*
X271010Y26192D01*
X269000Y26351D01*
D02*
G37*
%LPD*%
D14*
X95561Y126500D02*
X113759D01*
X126802Y113457D01*
X145000D01*
X123953Y107000D02*
X131000D01*
X120697Y110256D02*
X123953Y107000D01*
X114279Y110256D02*
X120697D01*
X190854Y142610D02*
Y156500D01*
X147500Y99256D02*
X190854Y142610D01*
X177500Y84000D02*
X186500D01*
X92000Y72067D02*
Y77500D01*
X105500Y91000D01*
Y105500D01*
X170500Y50500D02*
Y65780D01*
X170280Y66000D02*
X170500Y65780D01*
D50*
X269000Y13500D02*
D03*
X14500Y15000D02*
D03*
X268000Y185500D02*
D03*
X13500Y185000D02*
D03*
D51*
X37500Y154244D02*
D03*
Y142433D02*
D03*
Y130622D02*
D03*
Y118811D02*
D03*
Y107000D02*
D03*
Y95189D02*
D03*
Y83378D02*
D03*
Y71567D02*
D03*
X49311D02*
D03*
Y83378D02*
D03*
Y95189D02*
D03*
Y107000D02*
D03*
Y118811D02*
D03*
Y130622D02*
D03*
Y142433D02*
D03*
Y154244D02*
D03*
D52*
X20492Y146173D02*
D03*
Y79638D02*
D03*
D53*
X225500Y56240D02*
D03*
Y77894D02*
D03*
D54*
X95561Y126500D02*
D03*
X145000Y113457D02*
D03*
X131000Y107000D02*
D03*
X147500Y99256D02*
D03*
X190854Y156500D02*
D03*
X169500Y84000D02*
D03*
X186500D02*
D03*
X92000Y72067D02*
D03*
X105500Y105500D02*
D03*
X177500Y84000D02*
D03*
X170500Y50500D02*
D03*
X170280Y66000D02*
D03*
X114279Y110256D02*
D03*
X203953Y167390D02*
D03*
X146500Y42000D02*
D03*
X104500Y48500D02*
D03*
X74000Y106500D02*
D03*
X36000Y26000D02*
D03*
X207888Y77000D02*
D03*
X204500Y98000D02*
D03*
M02*
