G04*
G04 #@! TF.GenerationSoftware,Altium Limited,Altium Designer,19.0.15 (446)*
G04*
G04 Layer_Color=8388736*
%FSLAX25Y25*%
%MOIN*%
G70*
G01*
G75*
%ADD30R,0.04737X0.06312*%
%ADD31R,0.05131X0.06115*%
%ADD32R,0.06115X0.05131*%
%ADD33R,0.04147X0.03359*%
%ADD34R,0.24619X0.29147*%
%ADD35R,0.04737X0.12611*%
%ADD36R,0.04934X0.03162*%
%ADD37R,0.09068X0.07887*%
%ADD38O,0.02769X0.06115*%
%ADD39R,0.07099X0.14580*%
%ADD40R,0.23241X0.07099*%
%ADD41R,0.10249X0.07099*%
%ADD42R,0.01784X0.02965*%
%ADD43R,0.06312X0.04737*%
%ADD44C,0.24422*%
%ADD45C,0.06706*%
%ADD46C,0.13792*%
%ADD47C,0.00800*%
%ADD48C,0.09461*%
%ADD49C,0.05800*%
D30*
X198047Y159500D02*
D03*
X203953D02*
D03*
X63547Y66000D02*
D03*
X69453D02*
D03*
X87953Y106500D02*
D03*
X82047D02*
D03*
X87953Y95500D02*
D03*
X82047D02*
D03*
X192953Y76740D02*
D03*
X187047D02*
D03*
X102453Y34500D02*
D03*
X96547D02*
D03*
X122824Y76000D02*
D03*
X116918D02*
D03*
D31*
X186811Y94500D02*
D03*
X193898D02*
D03*
X184043Y57457D02*
D03*
X176957D02*
D03*
X62957Y78689D02*
D03*
X70043D02*
D03*
X177457Y159500D02*
D03*
X184543D02*
D03*
X88457Y136000D02*
D03*
X95543D02*
D03*
X81043Y118000D02*
D03*
X73957D02*
D03*
X105543Y111000D02*
D03*
X98457D02*
D03*
D32*
X149024Y89543D02*
D03*
Y82457D02*
D03*
X149000Y57457D02*
D03*
Y64543D02*
D03*
X62000Y111457D02*
D03*
Y118543D02*
D03*
X95000Y61379D02*
D03*
Y54292D02*
D03*
X209000Y119543D02*
D03*
Y112457D02*
D03*
X161000Y30957D02*
D03*
Y38043D02*
D03*
D33*
X147500Y31047D02*
D03*
Y36953D02*
D03*
X62250Y100953D02*
D03*
Y95047D02*
D03*
X70043Y100953D02*
D03*
Y95047D02*
D03*
D34*
X149524Y135181D02*
D03*
X243043Y156000D02*
D03*
D35*
X140547Y159000D02*
D03*
X158500D02*
D03*
X252020Y132181D02*
D03*
X234067D02*
D03*
D36*
X208579Y135500D02*
D03*
X193421D02*
D03*
D37*
X229339Y98500D02*
D03*
X246661D02*
D03*
D38*
X162602Y76740D02*
D03*
X165161D02*
D03*
X167720D02*
D03*
X170280D02*
D03*
X172839D02*
D03*
X175398D02*
D03*
X162602Y94260D02*
D03*
X165161D02*
D03*
X167720D02*
D03*
X170280D02*
D03*
X172839D02*
D03*
X175398D02*
D03*
D39*
X88870Y159500D02*
D03*
X110130D02*
D03*
D40*
X62500Y39340D02*
D03*
Y20836D02*
D03*
D41*
X104500Y85000D02*
D03*
D42*
X100563Y91496D02*
D03*
X102532D02*
D03*
X104500D02*
D03*
X106468D02*
D03*
X108437D02*
D03*
Y78701D02*
D03*
X106468D02*
D03*
X104500D02*
D03*
X102532D02*
D03*
X100563D02*
D03*
D43*
X21500Y33547D02*
D03*
Y39453D02*
D03*
X36000Y33547D02*
D03*
Y39453D02*
D03*
X104500Y54883D02*
D03*
Y60788D02*
D03*
D44*
X269000Y13500D02*
D03*
X14500Y15000D02*
D03*
X268000Y185500D02*
D03*
X13500Y185000D02*
D03*
D45*
X37500Y154244D02*
D03*
Y142433D02*
D03*
Y130622D02*
D03*
Y118811D02*
D03*
Y107000D02*
D03*
Y95189D02*
D03*
Y83378D02*
D03*
Y71567D02*
D03*
X49311D02*
D03*
Y83378D02*
D03*
Y95189D02*
D03*
Y107000D02*
D03*
Y118811D02*
D03*
Y130622D02*
D03*
Y142433D02*
D03*
Y154244D02*
D03*
D46*
X20492Y146173D02*
D03*
Y79638D02*
D03*
D47*
X225500Y27500D02*
D03*
D48*
Y56240D02*
D03*
Y77894D02*
D03*
D49*
X95561Y126500D02*
D03*
X145000Y113457D02*
D03*
X131000Y107000D02*
D03*
X147500Y99256D02*
D03*
X190854Y156500D02*
D03*
X169500Y84000D02*
D03*
X186500D02*
D03*
X92000Y72067D02*
D03*
X105500Y105500D02*
D03*
X177500Y84000D02*
D03*
X170500Y50500D02*
D03*
X170280Y66000D02*
D03*
X114279Y110256D02*
D03*
X203953Y167390D02*
D03*
X146500Y42000D02*
D03*
X104500Y48500D02*
D03*
X74000Y106500D02*
D03*
X36000Y26000D02*
D03*
X207888Y77000D02*
D03*
X204500Y98000D02*
D03*
M02*
