G04*
G04 #@! TF.GenerationSoftware,Altium Limited,Altium Designer,18.1.11 (251)*
G04*
G04 Layer_Physical_Order=2*
G04 Layer_Color=16711680*
%FSLAX25Y25*%
%MOIN*%
G70*
G01*
G75*
%ADD12C,0.01000*%
%ADD25C,0.07874*%
%ADD75C,0.01968*%
%ADD76C,0.02756*%
%ADD77C,0.19685*%
%ADD78C,0.06000*%
%ADD79C,0.09843*%
%ADD80C,0.12205*%
%ADD81C,0.06299*%
%ADD82C,0.05000*%
%ADD83C,0.02756*%
%ADD84C,0.03937*%
G36*
X392898Y803D02*
X99228D01*
Y392898D01*
X392898Y392898D01*
Y803D01*
D02*
G37*
%LPC*%
G36*
X377953Y388327D02*
X376330Y388199D01*
X374747Y387820D01*
X373243Y387196D01*
X371855Y386346D01*
X370617Y385289D01*
X369560Y384051D01*
X368709Y382663D01*
X368086Y381159D01*
X367706Y379576D01*
X367578Y377953D01*
X367706Y376330D01*
X368086Y374747D01*
X368709Y373243D01*
X369560Y371855D01*
X370617Y370617D01*
X371855Y369560D01*
X373243Y368709D01*
X374747Y368086D01*
X376330Y367706D01*
X377953Y367578D01*
X379576Y367706D01*
X381159Y368086D01*
X382663Y368709D01*
X384051Y369560D01*
X385289Y370617D01*
X386346Y371855D01*
X387196Y373243D01*
X387820Y374747D01*
X388199Y376330D01*
X388327Y377953D01*
X388199Y379576D01*
X387820Y381159D01*
X387196Y382663D01*
X386346Y384051D01*
X385289Y385289D01*
X384051Y386346D01*
X382663Y387196D01*
X381159Y387820D01*
X379576Y388199D01*
X377953Y388327D01*
D02*
G37*
G36*
X114173D02*
X112550Y388199D01*
X110967Y387820D01*
X109463Y387196D01*
X108075Y386346D01*
X106837Y385289D01*
X105780Y384051D01*
X104929Y382663D01*
X104306Y381159D01*
X103927Y379576D01*
X103799Y377953D01*
X103927Y376330D01*
X104306Y374747D01*
X104929Y373243D01*
X105780Y371855D01*
X106837Y370617D01*
X108075Y369560D01*
X109463Y368709D01*
X110967Y368086D01*
X112550Y367706D01*
X114173Y367578D01*
X115796Y367706D01*
X117379Y368086D01*
X118883Y368709D01*
X120271Y369560D01*
X121509Y370617D01*
X122566Y371855D01*
X123417Y373243D01*
X124040Y374747D01*
X124420Y376330D01*
X124548Y377953D01*
X124420Y379576D01*
X124040Y381159D01*
X123417Y382663D01*
X122566Y384051D01*
X121509Y385289D01*
X120271Y386346D01*
X118883Y387196D01*
X117379Y387820D01*
X115796Y388199D01*
X114173Y388327D01*
D02*
G37*
G36*
X367764Y338137D02*
X366850Y338016D01*
X365999Y337664D01*
X365267Y337103D01*
X364706Y336371D01*
X364354Y335520D01*
X364234Y334606D01*
X364354Y333693D01*
X364706Y332841D01*
X365267Y332110D01*
X365999Y331549D01*
X366850Y331196D01*
X367764Y331076D01*
X368677Y331196D01*
X369529Y331549D01*
X370260Y332110D01*
X370821Y332841D01*
X371174Y333693D01*
X371294Y334606D01*
X371174Y335520D01*
X370821Y336371D01*
X370260Y337103D01*
X369529Y337664D01*
X368677Y338016D01*
X367764Y338137D01*
D02*
G37*
G36*
Y328136D02*
X366850Y328016D01*
X365999Y327663D01*
X365267Y327102D01*
X364706Y326371D01*
X364354Y325520D01*
X364234Y324606D01*
X364354Y323693D01*
X364706Y322841D01*
X365267Y322110D01*
X365999Y321549D01*
X366850Y321196D01*
X367764Y321076D01*
X368677Y321196D01*
X369529Y321549D01*
X370260Y322110D01*
X370821Y322841D01*
X371174Y323693D01*
X371294Y324606D01*
X371174Y325520D01*
X370821Y326371D01*
X370260Y327102D01*
X369529Y327663D01*
X368677Y328016D01*
X367764Y328136D01*
D02*
G37*
G36*
Y318137D02*
X366850Y318016D01*
X365999Y317664D01*
X365267Y317103D01*
X364706Y316371D01*
X364354Y315520D01*
X364234Y314606D01*
X364354Y313693D01*
X364706Y312841D01*
X365267Y312110D01*
X365999Y311549D01*
X366850Y311196D01*
X367764Y311076D01*
X368677Y311196D01*
X369529Y311549D01*
X370260Y312110D01*
X370821Y312841D01*
X371174Y313693D01*
X371294Y314606D01*
X371174Y315520D01*
X370821Y316371D01*
X370260Y317103D01*
X369529Y317664D01*
X368677Y318016D01*
X367764Y318137D01*
D02*
G37*
G36*
Y308137D02*
X366850Y308016D01*
X365999Y307663D01*
X365267Y307102D01*
X364706Y306371D01*
X364354Y305520D01*
X364234Y304606D01*
X364354Y303693D01*
X364706Y302841D01*
X365267Y302110D01*
X365999Y301549D01*
X366850Y301196D01*
X367764Y301076D01*
X368677Y301196D01*
X369529Y301549D01*
X370260Y302110D01*
X370821Y302841D01*
X371174Y303693D01*
X371294Y304606D01*
X371174Y305520D01*
X370821Y306371D01*
X370260Y307102D01*
X369529Y307663D01*
X368677Y308016D01*
X367764Y308137D01*
D02*
G37*
G36*
Y298136D02*
X366850Y298016D01*
X365999Y297663D01*
X365267Y297102D01*
X364706Y296371D01*
X364354Y295520D01*
X364234Y294606D01*
X364354Y293693D01*
X364706Y292841D01*
X365267Y292110D01*
X365999Y291549D01*
X366850Y291196D01*
X367764Y291076D01*
X368677Y291196D01*
X369529Y291549D01*
X370260Y292110D01*
X370821Y292841D01*
X371174Y293693D01*
X371294Y294606D01*
X371174Y295520D01*
X370821Y296371D01*
X370260Y297102D01*
X369529Y297663D01*
X368677Y298016D01*
X367764Y298136D01*
D02*
G37*
G36*
Y288137D02*
X366850Y288016D01*
X365999Y287664D01*
X365267Y287103D01*
X364706Y286371D01*
X364354Y285520D01*
X364234Y284606D01*
X364354Y283693D01*
X364706Y282841D01*
X365267Y282110D01*
X365999Y281549D01*
X366850Y281196D01*
X367764Y281076D01*
X368677Y281196D01*
X369529Y281549D01*
X370260Y282110D01*
X370821Y282841D01*
X371174Y283693D01*
X371294Y284606D01*
X371174Y285520D01*
X370821Y286371D01*
X370260Y287103D01*
X369529Y287664D01*
X368677Y288016D01*
X367764Y288137D01*
D02*
G37*
G36*
Y278136D02*
X366850Y278016D01*
X365999Y277663D01*
X365267Y277102D01*
X364706Y276371D01*
X364354Y275520D01*
X364234Y274606D01*
X364354Y273693D01*
X364706Y272841D01*
X365267Y272110D01*
X365999Y271549D01*
X366850Y271196D01*
X367764Y271076D01*
X368677Y271196D01*
X369529Y271549D01*
X370260Y272110D01*
X370821Y272841D01*
X371174Y273693D01*
X371294Y274606D01*
X371174Y275520D01*
X370821Y276371D01*
X370260Y277102D01*
X369529Y277663D01*
X368677Y278016D01*
X367764Y278136D01*
D02*
G37*
G36*
X167618Y287770D02*
X166835Y287667D01*
X166105Y287365D01*
X165479Y286884D01*
X164998Y286257D01*
X164695Y285527D01*
X164592Y284744D01*
X164695Y283961D01*
X164998Y283231D01*
X165479Y282605D01*
X166105Y282124D01*
X166835Y281821D01*
X167618Y281718D01*
X168401Y281821D01*
X169131Y282124D01*
X169758Y282605D01*
X169930Y282829D01*
X218695D01*
X227720Y273805D01*
X227683Y273524D01*
X227786Y272741D01*
X228088Y272011D01*
X228569Y271384D01*
X229196Y270903D01*
X229925Y270601D01*
X230709Y270498D01*
X231492Y270601D01*
X232222Y270903D01*
X232848Y271384D01*
X233329Y272011D01*
X233631Y272741D01*
X233734Y273524D01*
X233631Y274307D01*
X233329Y275037D01*
X232848Y275663D01*
X232222Y276144D01*
X231492Y276446D01*
X230709Y276550D01*
X230428Y276513D01*
X220842Y286098D01*
X220221Y286513D01*
X219488Y286659D01*
X219488Y286659D01*
X169930D01*
X169758Y286884D01*
X169131Y287365D01*
X168401Y287667D01*
X167618Y287770D01*
D02*
G37*
G36*
X367764Y268137D02*
X366850Y268016D01*
X365999Y267664D01*
X365267Y267103D01*
X364706Y266371D01*
X364354Y265520D01*
X364234Y264606D01*
X364354Y263693D01*
X364706Y262841D01*
X365267Y262110D01*
X365999Y261549D01*
X366850Y261196D01*
X367764Y261076D01*
X368677Y261196D01*
X369529Y261549D01*
X370260Y262110D01*
X370821Y262841D01*
X371174Y263693D01*
X371294Y264606D01*
X371174Y265520D01*
X370821Y266371D01*
X370260Y267103D01*
X369529Y267664D01*
X368677Y268016D01*
X367764Y268137D01*
D02*
G37*
G36*
Y258137D02*
X366850Y258016D01*
X365999Y257663D01*
X365267Y257102D01*
X364706Y256371D01*
X364354Y255520D01*
X364234Y254606D01*
X364354Y253693D01*
X364706Y252841D01*
X365267Y252110D01*
X365999Y251549D01*
X366850Y251196D01*
X367764Y251076D01*
X368677Y251196D01*
X369529Y251549D01*
X370260Y252110D01*
X370821Y252841D01*
X371174Y253693D01*
X371294Y254606D01*
X371174Y255520D01*
X370821Y256371D01*
X370260Y257102D01*
X369529Y257663D01*
X368677Y258016D01*
X367764Y258137D01*
D02*
G37*
G36*
Y248136D02*
X366850Y248016D01*
X365999Y247663D01*
X365267Y247102D01*
X364706Y246371D01*
X364354Y245520D01*
X364234Y244606D01*
X364354Y243693D01*
X364706Y242841D01*
X365267Y242110D01*
X365999Y241549D01*
X366850Y241196D01*
X367764Y241076D01*
X368677Y241196D01*
X369529Y241549D01*
X370260Y242110D01*
X370821Y242841D01*
X371174Y243693D01*
X371294Y244606D01*
X371174Y245520D01*
X370821Y246371D01*
X370260Y247102D01*
X369529Y247663D01*
X368677Y248016D01*
X367764Y248136D01*
D02*
G37*
G36*
Y203058D02*
X366850Y202938D01*
X365999Y202585D01*
X365267Y202024D01*
X364706Y201293D01*
X364354Y200441D01*
X364234Y199528D01*
X364354Y198614D01*
X364706Y197763D01*
X365267Y197031D01*
X365999Y196470D01*
X366850Y196118D01*
X367764Y195997D01*
X368677Y196118D01*
X369529Y196470D01*
X370260Y197031D01*
X370821Y197763D01*
X371174Y198614D01*
X371294Y199528D01*
X371174Y200441D01*
X370821Y201293D01*
X370260Y202024D01*
X369529Y202585D01*
X368677Y202938D01*
X367764Y203058D01*
D02*
G37*
G36*
Y193058D02*
X366850Y192938D01*
X365999Y192585D01*
X365267Y192024D01*
X364706Y191293D01*
X364354Y190441D01*
X364234Y189528D01*
X364354Y188614D01*
X364706Y187762D01*
X365267Y187031D01*
X365999Y186470D01*
X366850Y186118D01*
X367764Y185997D01*
X368677Y186118D01*
X369529Y186470D01*
X370260Y187031D01*
X370821Y187762D01*
X371174Y188614D01*
X371294Y189528D01*
X371174Y190441D01*
X370821Y191293D01*
X370260Y192024D01*
X369529Y192585D01*
X368677Y192938D01*
X367764Y193058D01*
D02*
G37*
G36*
Y183058D02*
X366850Y182938D01*
X365999Y182585D01*
X365267Y182024D01*
X364706Y181293D01*
X364354Y180441D01*
X364234Y179528D01*
X364354Y178614D01*
X364706Y177762D01*
X365267Y177031D01*
X365999Y176470D01*
X366850Y176118D01*
X367764Y175997D01*
X368677Y176118D01*
X369529Y176470D01*
X370260Y177031D01*
X370821Y177762D01*
X371174Y178614D01*
X371294Y179528D01*
X371174Y180441D01*
X370821Y181293D01*
X370260Y182024D01*
X369529Y182585D01*
X368677Y182938D01*
X367764Y183058D01*
D02*
G37*
G36*
Y173058D02*
X366850Y172938D01*
X365999Y172585D01*
X365267Y172024D01*
X364706Y171293D01*
X364354Y170441D01*
X364234Y169528D01*
X364354Y168614D01*
X364706Y167762D01*
X365267Y167031D01*
X365999Y166470D01*
X366850Y166118D01*
X367764Y165997D01*
X368677Y166118D01*
X369529Y166470D01*
X370260Y167031D01*
X370821Y167762D01*
X371174Y168614D01*
X371294Y169528D01*
X371174Y170441D01*
X370821Y171293D01*
X370260Y172024D01*
X369529Y172585D01*
X368677Y172938D01*
X367764Y173058D01*
D02*
G37*
G36*
Y163058D02*
X366850Y162937D01*
X365999Y162585D01*
X365267Y162024D01*
X364706Y161293D01*
X364354Y160441D01*
X364234Y159528D01*
X364354Y158614D01*
X364706Y157763D01*
X365267Y157031D01*
X365999Y156470D01*
X366850Y156118D01*
X367764Y155997D01*
X368677Y156118D01*
X369529Y156470D01*
X370260Y157031D01*
X370821Y157763D01*
X371174Y158614D01*
X371294Y159528D01*
X371174Y160441D01*
X370821Y161293D01*
X370260Y162024D01*
X369529Y162585D01*
X368677Y162937D01*
X367764Y163058D01*
D02*
G37*
G36*
Y153058D02*
X366850Y152937D01*
X365999Y152585D01*
X365267Y152024D01*
X364706Y151293D01*
X364354Y150441D01*
X364234Y149528D01*
X364354Y148614D01*
X364706Y147763D01*
X365267Y147031D01*
X365999Y146470D01*
X366850Y146118D01*
X367764Y145997D01*
X368677Y146118D01*
X369529Y146470D01*
X370260Y147031D01*
X370821Y147763D01*
X371174Y148614D01*
X371294Y149528D01*
X371174Y150441D01*
X370821Y151293D01*
X370260Y152024D01*
X369529Y152585D01*
X368677Y152937D01*
X367764Y153058D01*
D02*
G37*
G36*
Y143058D02*
X366850Y142938D01*
X365999Y142585D01*
X365267Y142024D01*
X364706Y141293D01*
X364354Y140441D01*
X364234Y139528D01*
X364354Y138614D01*
X364706Y137762D01*
X365267Y137031D01*
X365999Y136470D01*
X366850Y136118D01*
X367764Y135997D01*
X368677Y136118D01*
X369529Y136470D01*
X370260Y137031D01*
X370821Y137762D01*
X371174Y138614D01*
X371294Y139528D01*
X371174Y140441D01*
X370821Y141293D01*
X370260Y142024D01*
X369529Y142585D01*
X368677Y142938D01*
X367764Y143058D01*
D02*
G37*
G36*
Y133058D02*
X366850Y132938D01*
X365999Y132585D01*
X365267Y132024D01*
X364706Y131293D01*
X364354Y130441D01*
X364234Y129528D01*
X364354Y128614D01*
X364706Y127762D01*
X365267Y127031D01*
X365999Y126470D01*
X366850Y126118D01*
X367764Y125997D01*
X368677Y126118D01*
X369529Y126470D01*
X370260Y127031D01*
X370821Y127762D01*
X371174Y128614D01*
X371294Y129528D01*
X371174Y130441D01*
X370821Y131293D01*
X370260Y132024D01*
X369529Y132585D01*
X368677Y132938D01*
X367764Y133058D01*
D02*
G37*
G36*
Y123058D02*
X366850Y122938D01*
X365999Y122585D01*
X365267Y122024D01*
X364706Y121293D01*
X364354Y120441D01*
X364234Y119528D01*
X364354Y118614D01*
X364706Y117762D01*
X365267Y117031D01*
X365999Y116470D01*
X366850Y116118D01*
X367764Y115997D01*
X368677Y116118D01*
X369529Y116470D01*
X370260Y117031D01*
X370821Y117762D01*
X371174Y118614D01*
X371294Y119528D01*
X371174Y120441D01*
X370821Y121293D01*
X370260Y122024D01*
X369529Y122585D01*
X368677Y122938D01*
X367764Y123058D01*
D02*
G37*
G36*
X153937Y164443D02*
X153154Y164340D01*
X152424Y164038D01*
X151797Y163557D01*
X151316Y162930D01*
X151014Y162200D01*
X150911Y161417D01*
X151014Y160634D01*
X151316Y159904D01*
X151797Y159278D01*
X152424Y158797D01*
X153154Y158494D01*
X153937Y158391D01*
X154720Y158494D01*
X155450Y158797D01*
X156077Y159278D01*
X156557Y159904D01*
X201186D01*
X206557Y154533D01*
Y118307D01*
X206557Y118307D01*
X206654Y117824D01*
X206673Y117728D01*
X207001Y117237D01*
X215780Y108458D01*
X215780Y108458D01*
X216108Y108238D01*
X216271Y108129D01*
X216850Y108014D01*
X216850Y108014D01*
X234880D01*
X235360Y107388D01*
X235987Y106907D01*
X236717Y106605D01*
X237500Y106502D01*
X238283Y106605D01*
X239013Y106907D01*
X239640Y107388D01*
X240121Y108015D01*
X240423Y108744D01*
X240526Y109528D01*
X240423Y110311D01*
X240121Y111040D01*
X239640Y111667D01*
X239013Y112148D01*
X238283Y112450D01*
X237500Y112553D01*
X236717Y112450D01*
X235987Y112148D01*
X235360Y111667D01*
X234880Y111041D01*
X217477D01*
X209584Y118934D01*
Y155160D01*
X209469Y155739D01*
X209141Y156230D01*
X209141Y156230D01*
X202883Y162487D01*
X202392Y162815D01*
X202296Y162835D01*
X201813Y162931D01*
X201813Y162931D01*
X156557D01*
X156077Y163557D01*
X155450Y164038D01*
X154720Y164340D01*
X153937Y164443D01*
D02*
G37*
G36*
X367764Y113058D02*
X366850Y112937D01*
X365999Y112585D01*
X365267Y112024D01*
X364706Y111293D01*
X364354Y110441D01*
X364234Y109528D01*
X364354Y108614D01*
X364706Y107763D01*
X365267Y107031D01*
X365999Y106470D01*
X366850Y106118D01*
X367764Y105997D01*
X368677Y106118D01*
X369529Y106470D01*
X370260Y107031D01*
X370821Y107763D01*
X371174Y108614D01*
X371294Y109528D01*
X371174Y110441D01*
X370821Y111293D01*
X370260Y112024D01*
X369529Y112585D01*
X368677Y112937D01*
X367764Y113058D01*
D02*
G37*
G36*
X205118Y89728D02*
X203703Y89542D01*
X202384Y88995D01*
X201252Y88126D01*
X200383Y86994D01*
X199836Y85675D01*
X199650Y84260D01*
X199836Y82845D01*
X200383Y81526D01*
X201252Y80393D01*
X202384Y79524D01*
X203703Y78978D01*
X205118Y78792D01*
X206533Y78978D01*
X207852Y79524D01*
X208985Y80393D01*
X209854Y81526D01*
X210400Y82845D01*
X210586Y84260D01*
X210400Y85675D01*
X209854Y86994D01*
X208985Y88126D01*
X207852Y88995D01*
X206533Y89542D01*
X205118Y89728D01*
D02*
G37*
G36*
X166929D02*
X165514Y89542D01*
X164195Y88995D01*
X163063Y88126D01*
X162194Y86994D01*
X161647Y85675D01*
X161461Y84260D01*
X161647Y82845D01*
X162194Y81526D01*
X163063Y80393D01*
X164195Y79524D01*
X165514Y78978D01*
X166929Y78792D01*
X168344Y78978D01*
X169663Y79524D01*
X170796Y80393D01*
X171665Y81526D01*
X172211Y82845D01*
X172397Y84260D01*
X172211Y85675D01*
X171665Y86994D01*
X170796Y88126D01*
X169663Y88995D01*
X168344Y89542D01*
X166929Y89728D01*
D02*
G37*
G36*
X332290Y66768D02*
X292520D01*
X292129Y66690D01*
X291799Y66469D01*
X287833Y62503D01*
X287308Y62399D01*
X286686Y61984D01*
X286271Y61363D01*
X286126Y60630D01*
X286271Y59897D01*
X286686Y59276D01*
X287308Y58861D01*
X288040Y58715D01*
X288773Y58861D01*
X289394Y59276D01*
X289809Y59897D01*
X289955Y60630D01*
X289809Y61363D01*
X289716Y61502D01*
X292942Y64728D01*
X331868D01*
X338885Y57711D01*
X338545Y56890D01*
X338420Y55937D01*
X338545Y54984D01*
X338913Y54097D01*
X339498Y53334D01*
X340261Y52749D01*
X341148Y52381D01*
X342101Y52256D01*
X343054Y52381D01*
X343942Y52749D01*
X344704Y53334D01*
X345289Y54097D01*
X345657Y54984D01*
X345782Y55937D01*
X345657Y56890D01*
X345289Y57778D01*
X344704Y58540D01*
X343942Y59125D01*
X343054Y59493D01*
X342101Y59618D01*
X341148Y59493D01*
X340327Y59153D01*
X333011Y66469D01*
X332680Y66690D01*
X332290Y66768D01*
D02*
G37*
G36*
X330290Y59618D02*
X329337Y59493D01*
X328450Y59125D01*
X327687Y58540D01*
X327102Y57778D01*
X326734Y56890D01*
X326713Y56728D01*
X293339D01*
X292949Y56651D01*
X292619Y56430D01*
X288813Y52624D01*
X288418Y52702D01*
X287685Y52556D01*
X287064Y52141D01*
X286649Y51520D01*
X286504Y50787D01*
X286649Y50055D01*
X287064Y49433D01*
X287685Y49018D01*
X288418Y48873D01*
X289151Y49018D01*
X289772Y49433D01*
X290187Y50055D01*
X290333Y50787D01*
X290254Y51182D01*
X293762Y54689D01*
X326857D01*
X327102Y54097D01*
X327687Y53334D01*
X328450Y52749D01*
X329337Y52381D01*
X330290Y52256D01*
X331243Y52381D01*
X332131Y52749D01*
X332893Y53334D01*
X333478Y54097D01*
X333846Y54984D01*
X333971Y55937D01*
X333846Y56890D01*
X333478Y57778D01*
X332893Y58540D01*
X332131Y59125D01*
X331243Y59493D01*
X330290Y59618D01*
D02*
G37*
G36*
Y45839D02*
X329337Y45713D01*
X328450Y45345D01*
X327687Y44760D01*
X327102Y43998D01*
X326734Y43110D01*
X326635Y42358D01*
X289996D01*
X289772Y42693D01*
X289151Y43108D01*
X288418Y43253D01*
X287685Y43108D01*
X287064Y42693D01*
X286649Y42071D01*
X286504Y41339D01*
X286649Y40606D01*
X287064Y39985D01*
X287685Y39570D01*
X288418Y39424D01*
X289151Y39570D01*
X289772Y39985D01*
X289996Y40319D01*
X327101D01*
X327102Y40317D01*
X327687Y39555D01*
X328450Y38970D01*
X329337Y38602D01*
X330290Y38476D01*
X331243Y38602D01*
X332131Y38970D01*
X332893Y39555D01*
X333478Y40317D01*
X333846Y41205D01*
X333971Y42158D01*
X333846Y43110D01*
X333478Y43998D01*
X332893Y44760D01*
X332131Y45345D01*
X331243Y45713D01*
X330290Y45839D01*
D02*
G37*
G36*
X373243Y56168D02*
X371854Y56031D01*
X370518Y55626D01*
X369287Y54968D01*
X368208Y54083D01*
X367322Y53003D01*
X366664Y51772D01*
X366259Y50437D01*
X366122Y49047D01*
X366259Y47658D01*
X366664Y46322D01*
X367322Y45091D01*
X368208Y44012D01*
X369287Y43126D01*
X370518Y42468D01*
X371854Y42063D01*
X373243Y41926D01*
X374632Y42063D01*
X375968Y42468D01*
X377199Y43126D01*
X378278Y44012D01*
X379164Y45091D01*
X379822Y46322D01*
X380227Y47658D01*
X380364Y49047D01*
X380227Y50437D01*
X379822Y51772D01*
X379164Y53003D01*
X378278Y54083D01*
X377199Y54968D01*
X375968Y55626D01*
X374632Y56031D01*
X373243Y56168D01*
D02*
G37*
G36*
X205118Y40987D02*
X203729Y40850D01*
X202393Y40445D01*
X201162Y39787D01*
X200083Y38901D01*
X199197Y37822D01*
X198539Y36591D01*
X198134Y35255D01*
X197997Y33866D01*
X198134Y32477D01*
X198539Y31141D01*
X199197Y29910D01*
X200083Y28831D01*
X201162Y27945D01*
X202393Y27287D01*
X203729Y26882D01*
X205118Y26745D01*
X206507Y26882D01*
X207843Y27287D01*
X209074Y27945D01*
X210153Y28831D01*
X211039Y29910D01*
X211697Y31141D01*
X212102Y32477D01*
X212239Y33866D01*
X212102Y35255D01*
X211697Y36591D01*
X211039Y37822D01*
X210153Y38901D01*
X209074Y39787D01*
X207843Y40445D01*
X206507Y40850D01*
X205118Y40987D01*
D02*
G37*
G36*
X166929D02*
X165540Y40850D01*
X164204Y40445D01*
X162973Y39787D01*
X161894Y38901D01*
X161008Y37822D01*
X160350Y36591D01*
X159945Y35255D01*
X159808Y33866D01*
X159945Y32477D01*
X160350Y31141D01*
X161008Y29910D01*
X161894Y28831D01*
X162973Y27945D01*
X164204Y27287D01*
X165540Y26882D01*
X166929Y26745D01*
X168318Y26882D01*
X169654Y27287D01*
X170885Y27945D01*
X171964Y28831D01*
X172850Y29910D01*
X173508Y31141D01*
X173913Y32477D01*
X174050Y33866D01*
X173913Y35255D01*
X173508Y36591D01*
X172850Y37822D01*
X171964Y38901D01*
X170885Y39787D01*
X169654Y40445D01*
X168318Y40850D01*
X166929Y40987D01*
D02*
G37*
G36*
X343701Y244758D02*
X342918Y244655D01*
X342188Y244353D01*
X341561Y243872D01*
X341080Y243245D01*
X340778Y242515D01*
X340675Y241732D01*
X340778Y240949D01*
X341080Y240219D01*
X341184Y240084D01*
Y224410D01*
X341184Y80964D01*
X333603Y73383D01*
X287795D01*
X286832Y73191D01*
X286016Y72646D01*
X247372Y34003D01*
X246827Y33186D01*
X246635Y32223D01*
Y22908D01*
X246532Y22773D01*
X246229Y22043D01*
X246126Y21260D01*
X246229Y20477D01*
X246532Y19747D01*
X247012Y19120D01*
X247639Y18639D01*
X248369Y18337D01*
X249152Y18234D01*
X249935Y18337D01*
X250665Y18639D01*
X251292Y19120D01*
X251772Y19747D01*
X252075Y20477D01*
X252178Y21260D01*
X252075Y22043D01*
X251772Y22773D01*
X251669Y22908D01*
Y31180D01*
X288838Y68349D01*
X334646D01*
X335609Y68541D01*
X336425Y69086D01*
X345480Y78142D01*
X346026Y78958D01*
X346218Y79921D01*
X346218Y224410D01*
Y240084D01*
X346321Y240219D01*
X346624Y240949D01*
X346727Y241732D01*
X346624Y242515D01*
X346321Y243245D01*
X345840Y243872D01*
X345214Y244353D01*
X344484Y244655D01*
X343701Y244758D01*
D02*
G37*
G36*
X377953Y26122D02*
X376330Y25995D01*
X374747Y25615D01*
X373243Y24992D01*
X371855Y24141D01*
X370617Y23084D01*
X369560Y21846D01*
X368709Y20458D01*
X368086Y18954D01*
X367706Y17371D01*
X367578Y15748D01*
X367706Y14125D01*
X368086Y12542D01*
X368709Y11038D01*
X369560Y9650D01*
X370617Y8412D01*
X371855Y7355D01*
X373243Y6504D01*
X374747Y5881D01*
X376330Y5501D01*
X377953Y5373D01*
X379576Y5501D01*
X381159Y5881D01*
X382663Y6504D01*
X384051Y7355D01*
X385289Y8412D01*
X386346Y9650D01*
X387196Y11038D01*
X387820Y12542D01*
X388199Y14125D01*
X388327Y15748D01*
X388199Y17371D01*
X387820Y18954D01*
X387196Y20458D01*
X386346Y21846D01*
X385289Y23084D01*
X384051Y24141D01*
X382663Y24992D01*
X381159Y25615D01*
X379576Y25995D01*
X377953Y26122D01*
D02*
G37*
G36*
X114173D02*
X112550Y25995D01*
X110967Y25615D01*
X109463Y24992D01*
X108075Y24141D01*
X106837Y23084D01*
X105780Y21846D01*
X104929Y20458D01*
X104306Y18954D01*
X103927Y17371D01*
X103799Y15748D01*
X103927Y14125D01*
X104306Y12542D01*
X104929Y11038D01*
X105780Y9650D01*
X106837Y8412D01*
X108075Y7355D01*
X109463Y6504D01*
X110967Y5881D01*
X112550Y5501D01*
X114173Y5373D01*
X115796Y5501D01*
X117379Y5881D01*
X118883Y6504D01*
X120271Y7355D01*
X121509Y8412D01*
X122566Y9650D01*
X123417Y11038D01*
X124040Y12542D01*
X124420Y14125D01*
X124548Y15748D01*
X124420Y17371D01*
X124040Y18954D01*
X123417Y20458D01*
X122566Y21846D01*
X121509Y23084D01*
X120271Y24141D01*
X118883Y24992D01*
X117379Y25615D01*
X115796Y25995D01*
X114173Y26122D01*
D02*
G37*
%LPD*%
D12*
X329471Y41339D02*
X330290Y42158D01*
X332290Y65748D02*
X342101Y55937D01*
X292520Y65748D02*
X332290D01*
X330062Y55709D02*
X330290Y55937D01*
X293339Y55709D02*
X330062D01*
X288418Y50787D02*
X293339Y55709D01*
X288418Y41339D02*
X329471D01*
X288040Y61269D02*
X292520Y65748D01*
X288040Y60630D02*
Y61269D01*
D25*
X326772Y85039D02*
D03*
D75*
X208071Y118307D02*
Y155160D01*
X201813Y161417D02*
X208071Y155160D01*
X153937Y161417D02*
X201813D01*
X216850Y109528D02*
X237500D01*
X208071Y118307D02*
X216850Y109528D01*
D76*
X219488Y284744D02*
X230709Y273524D01*
X167618Y284744D02*
X219488D01*
D77*
X377953Y15748D02*
D03*
X114173D02*
D03*
Y377953D02*
D03*
X377953D02*
D03*
D78*
X367764Y244606D02*
D03*
Y284606D02*
D03*
Y254606D02*
D03*
Y264606D02*
D03*
Y274606D02*
D03*
Y294606D02*
D03*
Y304606D02*
D03*
Y314606D02*
D03*
Y324606D02*
D03*
Y334606D02*
D03*
X377764D02*
D03*
Y324606D02*
D03*
Y314606D02*
D03*
Y304606D02*
D03*
Y284606D02*
D03*
Y294606D02*
D03*
Y274606D02*
D03*
Y254606D02*
D03*
Y264606D02*
D03*
Y244606D02*
D03*
X367764Y109528D02*
D03*
Y149528D02*
D03*
Y119528D02*
D03*
Y129528D02*
D03*
Y139528D02*
D03*
Y159528D02*
D03*
Y169528D02*
D03*
Y179528D02*
D03*
Y189528D02*
D03*
Y199528D02*
D03*
X377764D02*
D03*
Y189528D02*
D03*
Y179528D02*
D03*
Y169528D02*
D03*
Y149528D02*
D03*
Y159528D02*
D03*
Y139528D02*
D03*
Y119528D02*
D03*
Y129528D02*
D03*
Y109528D02*
D03*
D79*
X205118Y84260D02*
D03*
Y62606D02*
D03*
X166929Y84260D02*
D03*
Y62606D02*
D03*
D80*
X205118Y33866D02*
D03*
X166929D02*
D03*
X373243Y49047D02*
D03*
D81*
X330290Y42158D02*
D03*
Y55937D02*
D03*
X342101D02*
D03*
Y42158D02*
D03*
D82*
X249152Y21260D02*
D03*
X176772Y166929D02*
D03*
X153937Y161417D02*
D03*
X203154Y173622D02*
D03*
X352067Y71752D02*
D03*
X237500Y109528D02*
D03*
X146653Y247539D02*
D03*
Y254528D02*
D03*
X140847Y242815D02*
D03*
Y259547D02*
D03*
X154429Y284744D02*
D03*
X160925D02*
D03*
X169390Y317421D02*
D03*
X186909Y338287D02*
D03*
X187008Y317717D02*
D03*
X208071Y333563D02*
D03*
X230709D02*
D03*
X226673Y338779D02*
D03*
X211713D02*
D03*
X202264Y317717D02*
D03*
X353839Y381102D02*
D03*
X230709Y273524D02*
D03*
X167618Y284744D02*
D03*
X179921Y196457D02*
D03*
X153937Y184646D02*
D03*
X182283Y166929D02*
D03*
X283005Y20472D02*
D03*
X245276Y42126D02*
D03*
X343701Y241732D02*
D03*
X278346Y36220D02*
D03*
D83*
X288418Y41339D02*
D03*
Y50787D02*
D03*
X288040Y60630D02*
D03*
D84*
X249152Y32223D02*
X287795Y70866D01*
X249152Y21260D02*
Y32223D01*
X343701Y224410D02*
X343701Y79921D01*
X334646Y70866D02*
X343701Y79921D01*
X343701Y224410D02*
Y241732D01*
X287795Y70866D02*
X334646D01*
M02*
