G04*
G04 #@! TF.GenerationSoftware,Altium Limited,Altium Designer,18.1.11 (251)*
G04*
G04 Layer_Physical_Order=1*
G04 Layer_Color=255*
%FSLAX25Y25*%
%MOIN*%
G70*
G01*
G75*
%ADD11C,0.02362*%
%ADD12C,0.01000*%
%ADD17R,0.03543X0.03347*%
%ADD18R,0.04528X0.12795*%
%ADD19R,0.21654X0.16929*%
%ADD20R,0.03150X0.03150*%
%ADD21R,0.14961X0.04134*%
%ADD22R,0.35039X0.40748*%
%ADD23O,0.05315X0.01181*%
%ADD24R,0.03347X0.03543*%
%ADD25C,0.07874*%
%ADD26R,0.11811X0.03937*%
%ADD27R,0.25197X0.21850*%
%ADD28R,0.12402X0.09646*%
%ADD29R,0.06693X0.09843*%
%ADD30R,0.13386X0.07284*%
%ADD31O,0.01968X0.05315*%
%ADD32R,0.10039X0.09646*%
%ADD33R,0.05709X0.05118*%
%ADD34R,0.04134X0.03937*%
%ADD35R,0.03150X0.03150*%
%ADD36R,0.05118X0.05709*%
%ADD37O,0.03500X0.01654*%
%ADD38R,0.03937X0.04134*%
%ADD39R,0.05315X0.03937*%
%ADD71C,0.01772*%
%ADD72C,0.01575*%
%ADD73C,0.00600*%
%ADD74C,0.05906*%
%ADD75C,0.01968*%
%ADD76C,0.02756*%
%ADD77C,0.19685*%
%ADD78C,0.06000*%
%ADD79C,0.09843*%
%ADD80C,0.12205*%
%ADD81C,0.06299*%
%ADD82C,0.05000*%
%ADD83C,0.02756*%
G36*
X233957Y341535D02*
X233957Y322244D01*
X209350Y322244D01*
X207972Y320866D01*
X207972Y316339D01*
X206102Y314469D01*
X184252Y314469D01*
X184252Y341535D01*
X233957Y341535D01*
D02*
G37*
G36*
X285433Y238189D02*
X272441Y238189D01*
X231988Y278642D01*
X210335Y278642D01*
X210335Y320177D01*
X285433Y320177D01*
X285433Y238189D01*
D02*
G37*
G36*
X299606Y385827D02*
X342918Y342520D01*
X372441D01*
X372441Y238189D01*
X293900Y238189D01*
X293900Y342520D01*
X289176Y347244D01*
X187795D01*
X180315Y339764D01*
Y325984D01*
X164567D01*
X162598Y324016D01*
Y315945D01*
X160433Y313779D01*
X149213D01*
X149213Y377953D01*
X157087Y385827D01*
X299606Y385827D01*
D02*
G37*
G36*
X161909Y264173D02*
X166240Y259842D01*
X166240Y242618D01*
X161516Y237894D01*
X139764Y237894D01*
X135728Y241929D01*
X135728Y259744D01*
X140157Y264173D01*
X143799Y264173D01*
X161909Y264173D01*
D02*
G37*
G36*
X205913Y154732D02*
X205906Y154724D01*
X200394D01*
Y160630D01*
X205913D01*
Y154732D01*
D02*
G37*
G36*
X240157Y184252D02*
X257874Y166536D01*
X257874Y114961D01*
X210630Y114961D01*
X210630Y184252D01*
X240157Y184252D01*
D02*
G37*
G36*
X206890Y313287D02*
X206890Y270571D01*
X245965Y231496D01*
X372835Y231496D01*
X372835Y202362D01*
X372835Y202362D01*
X372835Y102362D01*
X265748Y102362D01*
X265748Y189764D01*
X192520Y189764D01*
X171260Y211024D01*
X171260Y313287D01*
X206890Y313287D01*
D02*
G37*
G36*
X172441Y169291D02*
X172441Y154724D01*
X205906D01*
X205906Y111024D01*
X205906Y99663D01*
Y101181D01*
X236221D01*
X236221Y101181D01*
Y71260D01*
X205906D01*
X137402Y71260D01*
X137401Y154724D01*
X166240D01*
X166240Y169291D01*
X172441Y169291D01*
D02*
G37*
G36*
X309055Y64961D02*
X309055Y21654D01*
X309055Y21654D01*
Y19931D01*
Y7480D01*
X305512Y3937D01*
X272835Y3937D01*
X268504Y8268D01*
Y23228D01*
X267717Y24016D01*
X262205Y24016D01*
X255118Y24016D01*
X250338D01*
X249935Y24183D01*
X249152Y24286D01*
X248369Y24183D01*
X247966Y24016D01*
X238189Y24016D01*
X234252Y27953D01*
Y48764D01*
X240812Y55324D01*
X255699Y55324D01*
X258268Y52756D01*
X258268Y44488D01*
X257356Y43576D01*
X257018Y43604D01*
X256895Y43769D01*
X252981D01*
X249152D01*
X248890Y43629D01*
X248425Y44094D01*
X247244Y45276D01*
X242913Y45276D01*
X241732Y44094D01*
X241732Y39370D01*
X249612Y31490D01*
X262583Y31480D01*
X262598Y31496D01*
X280709Y31496D01*
X282283Y29921D01*
X282283Y25306D01*
X280993Y24016D01*
X275590D01*
X274904Y23329D01*
X274904Y18873D01*
X277636Y16142D01*
X287008D01*
Y16202D01*
X291339Y20533D01*
Y21555D01*
X293841D01*
Y25409D01*
Y29264D01*
X291339D01*
X291339Y43209D01*
X291839Y43504D01*
X293990D01*
Y46276D01*
Y49047D01*
X291839D01*
X291717Y49047D01*
X291339Y49342D01*
Y52507D01*
X291839Y52953D01*
X293743D01*
Y55724D01*
Y58496D01*
X291469Y58496D01*
X291338Y58942D01*
Y64961D01*
X293307Y66929D01*
X307087Y66929D01*
X309055Y64961D01*
D02*
G37*
%LPC*%
G36*
X294543Y58496D02*
Y56124D01*
X296816D01*
Y58496D01*
X294543D01*
D02*
G37*
G36*
X296816Y55324D02*
X294543D01*
Y52953D01*
X296816D01*
Y55324D01*
D02*
G37*
G36*
X294790Y49047D02*
Y46676D01*
X297063D01*
Y49047D01*
X294790D01*
D02*
G37*
G36*
X255048Y45791D02*
X253381D01*
Y44569D01*
X256590D01*
X256546Y44790D01*
X256195Y45316D01*
X255669Y45668D01*
X255048Y45791D01*
D02*
G37*
G36*
X252581D02*
X250914D01*
X250294Y45668D01*
X249768Y45316D01*
X249416Y44790D01*
X249372Y44569D01*
X252581D01*
Y45791D01*
D02*
G37*
G36*
X297063Y45876D02*
X294790D01*
Y43504D01*
X297063D01*
Y45876D01*
D02*
G37*
G36*
X297194Y39386D02*
X294921D01*
Y37014D01*
X297194D01*
Y39386D01*
D02*
G37*
G36*
X294121D02*
X291847D01*
Y37014D01*
X294121D01*
Y39386D01*
D02*
G37*
G36*
X297194Y36214D02*
X294921D01*
Y33843D01*
X297194D01*
Y36214D01*
D02*
G37*
G36*
X294121D02*
X291847D01*
Y33843D01*
X294121D01*
Y36214D01*
D02*
G37*
G36*
X268126Y30134D02*
X265754D01*
Y27861D01*
X268126D01*
Y30134D01*
D02*
G37*
G36*
X264954D02*
X262583D01*
Y27861D01*
X264954D01*
Y30134D01*
D02*
G37*
G36*
X280620Y30051D02*
X278248D01*
Y27778D01*
X280620D01*
Y30051D01*
D02*
G37*
G36*
X277448D02*
X275077D01*
Y27778D01*
X277448D01*
Y30051D01*
D02*
G37*
G36*
X297800Y29264D02*
X294641D01*
Y25809D01*
X297800D01*
Y29264D01*
D02*
G37*
G36*
X268126Y27061D02*
X265754D01*
Y24787D01*
X268126D01*
Y27061D01*
D02*
G37*
G36*
X264954D02*
X262583D01*
Y24787D01*
X264954D01*
Y27061D01*
D02*
G37*
G36*
X280620Y26978D02*
X278248D01*
Y24705D01*
X280620D01*
Y26978D01*
D02*
G37*
G36*
X277448D02*
X275077D01*
Y24705D01*
X277448D01*
Y26978D01*
D02*
G37*
G36*
X297800Y25010D02*
X294641D01*
Y21555D01*
X297800D01*
Y25010D01*
D02*
G37*
%LPD*%
D11*
X156685Y52362D02*
X166929Y62606D01*
X140551Y52362D02*
X156685D01*
X140551D02*
X140551Y52362D01*
X154429Y289173D02*
X157579Y292323D01*
X154429Y284744D02*
Y289173D01*
D12*
X270501Y44291D02*
X276607D01*
X264961Y143307D02*
X273622D01*
X262561Y140908D02*
X264961Y143307D01*
X262561Y41611D02*
Y140908D01*
X264854Y143807D02*
X273122D01*
X262561Y146100D02*
X264854Y143807D01*
X262561Y146100D02*
Y167157D01*
X261061Y146100D02*
Y166535D01*
X258768Y143807D02*
X261061Y146100D01*
X250500Y143807D02*
X258768D01*
X259682Y38732D02*
X262561Y41611D01*
X259061Y38732D02*
X259682D01*
X258593Y38264D02*
X259061Y38732D01*
X252981Y38264D02*
X258593D01*
X258760Y143307D02*
X261061Y141006D01*
X259061Y40232D02*
X261061Y42232D01*
X250000Y143307D02*
X258760D01*
X261061Y42232D02*
Y141006D01*
X252981Y40232D02*
X259061D01*
X252891Y40142D02*
X252981Y40232D01*
X252891Y36386D02*
X252981Y36295D01*
X248948Y40142D02*
X252891D01*
X247835Y39028D02*
X248948Y40142D01*
X248850Y36386D02*
X252891D01*
X247835Y37402D02*
Y39028D01*
Y37402D02*
X248850Y36386D01*
X171232Y176279D02*
X173482D01*
X184923Y187721D01*
X171232Y173721D02*
X173482D01*
X185982Y186221D01*
X184923Y187721D02*
X241997D01*
X185982Y186221D02*
X241376D01*
X241997Y187721D02*
X262561Y167157D01*
X241376Y186221D02*
X261061Y166535D01*
X273122Y143807D02*
X273622Y143307D01*
X250000D02*
X250500Y143807D01*
X166240Y176279D02*
X171232D01*
X159646Y182874D02*
X166240Y176279D01*
X193012Y168602D02*
X196457Y165157D01*
X187823Y168602D02*
X193012D01*
X196457Y165157D02*
X203150D01*
X189370Y159055D02*
X196457D01*
X187823Y160602D02*
X189370Y159055D01*
X187823Y160602D02*
Y166043D01*
X288418Y36614D02*
Y41339D01*
X245276Y42126D02*
X252843D01*
X276607Y44291D02*
X288040Y55724D01*
X288418Y46406D02*
Y50787D01*
X288040Y55724D02*
Y60630D01*
X288287Y46276D02*
X288418Y46406D01*
X270501Y40232D02*
X283999D01*
X270501Y36295D02*
X277559D01*
X275590Y38264D02*
X277559Y36295D01*
X270501Y38264D02*
X275590D01*
X270501Y42201D02*
X277706D01*
Y42232D02*
X277737D01*
X281781Y46276D01*
X287647D01*
X283999Y40232D02*
X287798Y36433D01*
D17*
X158268Y316043D02*
D03*
Y309941D02*
D03*
X159646Y182874D02*
D03*
Y188976D02*
D03*
X157579Y298425D02*
D03*
Y292323D02*
D03*
X277848Y21276D02*
D03*
Y27378D02*
D03*
X265354Y21358D02*
D03*
Y27461D02*
D03*
X196457Y165157D02*
D03*
Y159055D02*
D03*
X203150D02*
D03*
Y165157D02*
D03*
X140650Y67520D02*
D03*
Y73622D02*
D03*
D18*
X250000Y143307D02*
D03*
X273622D02*
D03*
D19*
X270177Y277756D02*
D03*
X310138D02*
D03*
D20*
X358268Y85039D02*
D03*
X351969D02*
D03*
X353445Y359547D02*
D03*
X359744D02*
D03*
D21*
X218110Y109291D02*
D03*
Y129291D02*
D03*
D22*
X178740Y119291D02*
D03*
D23*
X252981Y36295D02*
D03*
Y38264D02*
D03*
X270501Y36295D02*
D03*
Y38264D02*
D03*
Y40232D02*
D03*
Y42201D02*
D03*
Y44169D02*
D03*
X252981Y40232D02*
D03*
Y42201D02*
D03*
Y44169D02*
D03*
D24*
X189370Y159055D02*
D03*
X183268D02*
D03*
X153543Y170472D02*
D03*
X159646D02*
D03*
X288040Y55724D02*
D03*
X294143D02*
D03*
X288287Y46276D02*
D03*
X294390D02*
D03*
X288418Y36614D02*
D03*
X294521D02*
D03*
X352067Y77953D02*
D03*
X358169D02*
D03*
X353740Y370177D02*
D03*
X359842D02*
D03*
D25*
X337402Y383071D02*
D03*
X367764Y81102D02*
D03*
X326772Y85039D02*
D03*
D26*
X218406Y273563D02*
D03*
Y291595D02*
D03*
D27*
X193012Y282579D02*
D03*
D28*
X219685Y304724D02*
D03*
Y327165D02*
D03*
D29*
X227165Y77953D02*
D03*
Y62205D02*
D03*
D30*
X157973Y250886D02*
D03*
X179823D02*
D03*
D31*
X171949Y309941D02*
D03*
X169390D02*
D03*
X166831D02*
D03*
X164272D02*
D03*
X171949Y292421D02*
D03*
X169390D02*
D03*
X166831D02*
D03*
X164272D02*
D03*
D32*
X198917Y331791D02*
D03*
X175098D02*
D03*
D33*
X193996Y310728D02*
D03*
Y317028D02*
D03*
D34*
X159547Y176378D02*
D03*
X153642D02*
D03*
D35*
X140551Y58661D02*
D03*
Y52362D02*
D03*
D36*
X175975Y158554D02*
D03*
X169676D02*
D03*
X294241Y25409D02*
D03*
X287942D02*
D03*
D37*
X187823Y166043D02*
D03*
Y168602D02*
D03*
Y171161D02*
D03*
Y173721D02*
D03*
Y176279D02*
D03*
Y178839D02*
D03*
X171232Y166043D02*
D03*
Y168602D02*
D03*
Y171161D02*
D03*
Y173721D02*
D03*
Y176279D02*
D03*
Y178839D02*
D03*
D38*
X196457Y179725D02*
D03*
Y173819D02*
D03*
X152657Y315846D02*
D03*
Y309941D02*
D03*
D39*
X171232Y189370D02*
D03*
Y196457D02*
D03*
D71*
X159941Y171161D02*
X171232D01*
X187823Y178839D02*
X195571D01*
X202957Y173819D02*
X203154Y173622D01*
X196457Y173819D02*
X202957D01*
X159646Y169587D02*
Y176378D01*
X187823Y171161D02*
Y173721D01*
X196358D01*
D72*
X164272Y292421D02*
X166831D01*
X164272Y291339D02*
Y292421D01*
X160925Y287992D02*
X164272Y291339D01*
X160925Y284744D02*
Y287992D01*
X166831Y290650D02*
Y292421D01*
X169390Y309941D02*
Y317421D01*
X157579Y298425D02*
X158268Y299114D01*
Y309941D01*
X152657D02*
X158268D01*
X164272D01*
X167618Y284744D02*
X169390Y286516D01*
Y292421D01*
D73*
X252843Y42126D02*
X252950Y42232D01*
X283005Y20472D02*
X283465Y20932D01*
X282677Y20472D02*
X283005D01*
X277848Y21276D02*
X278651Y20472D01*
X265272Y21276D02*
X265354Y21358D01*
X277636Y27165D02*
X277848Y27378D01*
X293749Y55331D02*
X294143Y55724D01*
X277634Y36220D02*
X278346D01*
X277559Y36295D02*
X277634Y36220D01*
X252950Y42232D02*
X252981Y42201D01*
D74*
X205913Y61811D02*
X227165D01*
X205118Y62606D02*
X205913Y61811D01*
D75*
X316142Y383071D02*
X337402D01*
X302953Y369882D02*
X316142Y383071D01*
X352067Y71752D02*
Y77953D01*
X358169Y79921D02*
X358268Y79823D01*
X358169Y79921D02*
Y85039D01*
X351969Y85039D02*
Y105118D01*
X249152Y21260D02*
X265256D01*
X265272Y21276D01*
X367717Y334653D02*
X367764Y334606D01*
X195571Y178839D02*
X196457Y179725D01*
X171232Y178878D02*
Y189370D01*
X176772Y159350D02*
Y166929D01*
X175975Y158554D02*
X176772Y159350D01*
X160039Y189370D02*
X171232D01*
Y196457D02*
X179921D01*
X159646Y188976D02*
X160039Y189370D01*
X153740Y184449D02*
X153937Y184646D01*
X153740Y176378D02*
Y184449D01*
X153543Y161811D02*
X153937Y161417D01*
X153543Y161811D02*
Y169587D01*
X196358Y173721D02*
X196457Y173819D01*
X182283Y160039D02*
X183268Y159055D01*
X182283Y160039D02*
Y166929D01*
X237264Y109291D02*
X237500Y109528D01*
X218110Y109291D02*
X237264D01*
X353445Y338681D02*
Y359547D01*
X359744D02*
X359842Y359646D01*
Y370177D01*
X353740D02*
X353839Y370276D01*
Y381102D01*
X140551Y58661D02*
Y67028D01*
X367764Y81102D02*
Y109528D01*
X278651Y20472D02*
X282677D01*
X283465Y20932D02*
X287942Y25409D01*
D76*
X230669Y273563D02*
X230709Y273524D01*
X218406Y273563D02*
X230669D01*
D77*
X377953Y15748D02*
D03*
X114173D02*
D03*
Y377953D02*
D03*
X377953D02*
D03*
D78*
X367764Y244606D02*
D03*
Y284606D02*
D03*
Y254606D02*
D03*
Y264606D02*
D03*
Y274606D02*
D03*
Y294606D02*
D03*
Y304606D02*
D03*
Y314606D02*
D03*
Y324606D02*
D03*
Y334606D02*
D03*
X377764D02*
D03*
Y324606D02*
D03*
Y314606D02*
D03*
Y304606D02*
D03*
Y284606D02*
D03*
Y294606D02*
D03*
Y274606D02*
D03*
Y254606D02*
D03*
Y264606D02*
D03*
Y244606D02*
D03*
X367764Y109528D02*
D03*
Y149528D02*
D03*
Y119528D02*
D03*
Y129528D02*
D03*
Y139528D02*
D03*
Y159528D02*
D03*
Y169528D02*
D03*
Y179528D02*
D03*
Y189528D02*
D03*
Y199528D02*
D03*
X377764D02*
D03*
Y189528D02*
D03*
Y179528D02*
D03*
Y169528D02*
D03*
Y149528D02*
D03*
Y159528D02*
D03*
Y139528D02*
D03*
Y119528D02*
D03*
Y129528D02*
D03*
Y109528D02*
D03*
D79*
X205118Y84260D02*
D03*
Y62606D02*
D03*
X166929Y84260D02*
D03*
Y62606D02*
D03*
D80*
X205118Y33866D02*
D03*
X166929D02*
D03*
X373243Y49047D02*
D03*
D81*
X330290Y42158D02*
D03*
Y55937D02*
D03*
X342101D02*
D03*
Y42158D02*
D03*
D82*
X249152Y21260D02*
D03*
X176772Y166929D02*
D03*
X153937Y161417D02*
D03*
X203154Y173622D02*
D03*
X352067Y71752D02*
D03*
X237500Y109528D02*
D03*
X146653Y247539D02*
D03*
Y254528D02*
D03*
X140847Y242815D02*
D03*
Y259547D02*
D03*
X154429Y284744D02*
D03*
X160925D02*
D03*
X169390Y317421D02*
D03*
X186909Y338287D02*
D03*
X187008Y317717D02*
D03*
X208071Y333563D02*
D03*
X230709D02*
D03*
X226673Y338779D02*
D03*
X211713D02*
D03*
X202264Y317717D02*
D03*
X353839Y381102D02*
D03*
X230709Y273524D02*
D03*
X167618Y284744D02*
D03*
X179921Y196457D02*
D03*
X153937Y184646D02*
D03*
X182283Y166929D02*
D03*
X283005Y20472D02*
D03*
X245276Y42126D02*
D03*
X343701Y241732D02*
D03*
X278346Y36220D02*
D03*
D83*
X288418Y41339D02*
D03*
Y50787D02*
D03*
X288040Y60630D02*
D03*
M02*
