G04*
G04 #@! TF.GenerationSoftware,Altium Limited,Altium Designer,18.1.11 (251)*
G04*
G04 Layer_Color=8421504*
%FSLAX25Y25*%
%MOIN*%
G70*
G01*
G75*
%ADD17R,0.03543X0.03347*%
%ADD18R,0.04528X0.12795*%
%ADD19R,0.21654X0.16929*%
%ADD20R,0.03150X0.03150*%
%ADD21R,0.14961X0.04134*%
%ADD22R,0.35039X0.40748*%
%ADD23O,0.05315X0.01181*%
%ADD24R,0.03347X0.03543*%
%ADD25C,0.07874*%
%ADD26R,0.11811X0.03937*%
%ADD27R,0.25197X0.21850*%
%ADD28R,0.12402X0.09646*%
%ADD29R,0.06693X0.09843*%
%ADD30R,0.13386X0.07284*%
%ADD31O,0.01968X0.05315*%
%ADD32R,0.10039X0.09646*%
%ADD33R,0.05709X0.05118*%
%ADD34R,0.04134X0.03937*%
%ADD35R,0.03150X0.03150*%
%ADD36R,0.05118X0.05709*%
%ADD37O,0.03500X0.01654*%
%ADD38R,0.03937X0.04134*%
%ADD39R,0.05315X0.03937*%
D17*
X158268Y316043D02*
D03*
Y309941D02*
D03*
X159646Y182874D02*
D03*
Y188976D02*
D03*
X157579Y298425D02*
D03*
Y292323D02*
D03*
X277848Y21276D02*
D03*
Y27378D02*
D03*
X265354Y21358D02*
D03*
Y27461D02*
D03*
X196457Y165157D02*
D03*
Y159055D02*
D03*
X203150D02*
D03*
Y165157D02*
D03*
X140650Y67520D02*
D03*
Y73622D02*
D03*
D18*
X250000Y143307D02*
D03*
X273622D02*
D03*
D19*
X270177Y277756D02*
D03*
X310138D02*
D03*
D20*
X358268Y85039D02*
D03*
X351969D02*
D03*
X353445Y359547D02*
D03*
X359744D02*
D03*
D21*
X218110Y109291D02*
D03*
Y129291D02*
D03*
D22*
X178740Y119291D02*
D03*
D23*
X252981Y36295D02*
D03*
Y38264D02*
D03*
X270501Y36295D02*
D03*
Y38264D02*
D03*
Y40232D02*
D03*
Y42201D02*
D03*
Y44169D02*
D03*
X252981Y40232D02*
D03*
Y42201D02*
D03*
Y44169D02*
D03*
D24*
X189370Y159055D02*
D03*
X183268D02*
D03*
X153543Y170472D02*
D03*
X159646D02*
D03*
X288040Y55724D02*
D03*
X294143D02*
D03*
X288287Y46276D02*
D03*
X294390D02*
D03*
X288418Y36614D02*
D03*
X294521D02*
D03*
X352067Y77953D02*
D03*
X358169D02*
D03*
X353740Y370177D02*
D03*
X359842D02*
D03*
D25*
X337402Y383071D02*
D03*
X367764Y81102D02*
D03*
D26*
X218406Y273563D02*
D03*
Y291595D02*
D03*
D27*
X193012Y282579D02*
D03*
D28*
X219685Y304724D02*
D03*
Y327165D02*
D03*
D29*
X227165Y77953D02*
D03*
Y62205D02*
D03*
D30*
X157973Y250886D02*
D03*
X179823D02*
D03*
D31*
X171949Y309941D02*
D03*
X169390D02*
D03*
X166831D02*
D03*
X164272D02*
D03*
X171949Y292421D02*
D03*
X169390D02*
D03*
X166831D02*
D03*
X164272D02*
D03*
D32*
X198917Y331791D02*
D03*
X175098D02*
D03*
D33*
X193996Y310728D02*
D03*
Y317028D02*
D03*
D34*
X159547Y176378D02*
D03*
X153642D02*
D03*
D35*
X140551Y58661D02*
D03*
Y52362D02*
D03*
D36*
X175975Y158554D02*
D03*
X169676D02*
D03*
X294241Y25409D02*
D03*
X287942D02*
D03*
D37*
X187823Y166043D02*
D03*
Y168602D02*
D03*
Y171161D02*
D03*
Y173721D02*
D03*
Y176279D02*
D03*
Y178839D02*
D03*
X171232Y166043D02*
D03*
Y168602D02*
D03*
Y171161D02*
D03*
Y173721D02*
D03*
Y176279D02*
D03*
Y178839D02*
D03*
D38*
X196457Y179725D02*
D03*
Y173819D02*
D03*
X152657Y315846D02*
D03*
Y309941D02*
D03*
D39*
X171232Y189370D02*
D03*
Y196457D02*
D03*
M02*
