M48
;Layer_Color=9474304
;FILE_FORMAT=2:5
INCH,LZ
;TYPE=PLATED
T1F00S00C0.01575
T2F00S00C0.02800
T3F00S00C0.04173
T4F00S00C0.04488
T5F00S00C0.04921
T6F00S00C0.07283
T7F00S00C0.12205
T8F00S00C0.15748
%
T01
X0288418Y0041339
Y0050787
X028804Y006063
T02
X0249152Y002126
X0245276Y0042126
X0278346Y003622
X0283005Y0020472
X02375Y0109528
X0352067Y0071752
X0343701Y0241732
X0230709Y0273524
X0167618Y0284744
X0160925
X0179921Y0196457
X0182283Y0166929
X0176772
X0203154Y0173622
X0153937Y0184646
Y0161417
X0146653Y0247539
Y0254528
X0140847Y0259547
Y0242815
X0154429Y0284744
X016939Y0317421
X0187008Y0317717
X0202264
X0208071Y0333563
X0211713Y0338779
X0226673
X0230709Y0333563
X0186909Y0338287
X0353839Y0381102
T03
X033029Y0042158
X0342101
Y0055937
X033029
T04
X0367764Y0109528
Y0119528
Y0129528
Y0139528
Y0149528
X0377764
Y0139528
Y0129528
Y0119528
Y0109528
Y0159528
X0367764
Y0169528
Y0179528
Y0189528
Y0199528
X0377764
Y0189528
Y0179528
Y0169528
Y0244606
X0367764
Y0254606
Y0264606
Y0274606
Y0284606
Y0294606
Y0304606
X0377764
Y0294606
Y0284606
Y0274606
Y0264606
Y0254606
Y0314606
X0367764
Y0324606
Y0334606
X0377764
Y0324606
T05
X0326772Y0085039
T06
X0166929Y0062606
Y008426
X0205118
Y0062606
T07
X0166929Y0033866
X0205118
X0373243Y0049047
T08
X0114173Y0015748
X0377953
X0114173Y0377953
X0377953
M30
