G04*
G04 #@! TF.GenerationSoftware,Altium Limited,Altium Designer,19.0.15 (446)*
G04*
G04 Layer_Color=8388736*
%FSLAX25Y25*%
%MOIN*%
G70*
G01*
G75*
%ADD31R,0.29147X0.24619*%
%ADD32R,0.12611X0.04737*%
%ADD33R,0.04934X0.03162*%
%ADD34R,0.06115X0.05131*%
%ADD35R,0.05131X0.06115*%
%ADD36R,0.05918X0.03556*%
%ADD37O,0.02769X0.06115*%
%ADD38R,0.04737X0.06312*%
%ADD39R,0.01784X0.02965*%
%ADD40R,0.10249X0.07099*%
%ADD41R,0.06312X0.04737*%
%ADD42R,0.04737X0.12611*%
%ADD43R,0.24619X0.29147*%
%ADD44R,0.07887X0.09068*%
%ADD45R,0.07099X0.14580*%
%ADD46R,0.03162X0.02769*%
%ADD47C,0.00800*%
%ADD48C,0.09461*%
%ADD49C,0.06706*%
%ADD50C,0.13792*%
%ADD51C,0.05800*%
D31*
X204921Y176063D02*
D03*
D32*
X181102Y167087D02*
D03*
Y185039D02*
D03*
D33*
X243996Y188583D02*
D03*
X259154D02*
D03*
D34*
X229134Y93701D02*
D03*
Y100787D02*
D03*
X229528Y149606D02*
D03*
Y156693D02*
D03*
D35*
X99213Y91339D02*
D03*
X106299D02*
D03*
X153543Y185039D02*
D03*
X160630D02*
D03*
X80709Y114961D02*
D03*
X73622D02*
D03*
X73419Y125850D02*
D03*
X80506D02*
D03*
X81496Y161417D02*
D03*
X74410D02*
D03*
X80911Y137292D02*
D03*
X73825D02*
D03*
X80911Y148734D02*
D03*
X73825D02*
D03*
D36*
X229134Y121063D02*
D03*
Y128543D02*
D03*
D37*
X123917Y132972D02*
D03*
X126476D02*
D03*
X129035D02*
D03*
X131595D02*
D03*
X134153D02*
D03*
X136713D02*
D03*
X123917Y150492D02*
D03*
X126476D02*
D03*
X129035D02*
D03*
X131595D02*
D03*
X134153D02*
D03*
X136713D02*
D03*
D38*
X74213Y171260D02*
D03*
X80118D02*
D03*
X196788Y125197D02*
D03*
X202693D02*
D03*
X73222Y79725D02*
D03*
X79128D02*
D03*
X73222Y102608D02*
D03*
X79128D02*
D03*
X73228Y91339D02*
D03*
X79134D02*
D03*
D39*
X172480Y129134D02*
D03*
X174449D02*
D03*
X176417D02*
D03*
X178386D02*
D03*
X180354D02*
D03*
Y141929D02*
D03*
X178386D02*
D03*
X176417D02*
D03*
X174449D02*
D03*
X172480D02*
D03*
D40*
X176417Y135433D02*
D03*
D41*
X176378Y93504D02*
D03*
Y99410D02*
D03*
X163293Y93504D02*
D03*
Y99410D02*
D03*
X202583Y93504D02*
D03*
Y99410D02*
D03*
X189486Y93504D02*
D03*
Y99410D02*
D03*
X215679D02*
D03*
Y93504D02*
D03*
D42*
X279449Y163976D02*
D03*
X261496D02*
D03*
D43*
X270472Y140157D02*
D03*
D44*
X294094Y159449D02*
D03*
Y176772D02*
D03*
D45*
X137008Y180709D02*
D03*
X115748D02*
D03*
D46*
X212205Y119629D02*
D03*
X216142D02*
D03*
D47*
X275325Y40945D02*
D03*
D48*
Y69685D02*
D03*
Y91339D02*
D03*
D49*
X82087Y37087D02*
D03*
X93898D02*
D03*
X105709D02*
D03*
X117520D02*
D03*
X129331D02*
D03*
X141142D02*
D03*
X152953D02*
D03*
X164764D02*
D03*
Y48898D02*
D03*
X152953D02*
D03*
X141142D02*
D03*
X129331D02*
D03*
X117520D02*
D03*
X105709D02*
D03*
X93898D02*
D03*
X82087D02*
D03*
D50*
X90158Y20079D02*
D03*
X156693D02*
D03*
D51*
X183591Y64961D02*
D03*
X80118Y181102D02*
D03*
X64961Y171260D02*
D03*
X305906Y188189D02*
D03*
Y159449D02*
D03*
X264961Y177559D02*
D03*
X239764Y113293D02*
D03*
X240158Y164961D02*
D03*
X164961Y163779D02*
D03*
X153543Y163386D02*
D03*
X97638Y182677D02*
D03*
X189764Y142520D02*
D03*
X238976Y146063D02*
D03*
X196850Y117323D02*
D03*
X175984D02*
D03*
X147244Y112992D02*
D03*
X197244Y87008D02*
D03*
X182677Y86748D02*
D03*
X169425Y87252D02*
D03*
X90551Y119685D02*
D03*
X110630Y120079D02*
D03*
X98032Y152362D02*
D03*
X88976D02*
D03*
X67323Y108268D02*
D03*
Y84252D02*
D03*
X66823Y95850D02*
D03*
X153543Y174016D02*
D03*
M02*
