M48
;Layer_Color=9474304
;FILE_FORMAT=2:5
INCH,LZ
;TYPE=PLATED
T1F00S00C0.01772
T2F00S00C0.04528
%
T01
<<<<<<< HEAD
X001063Y0027
X0017563Y0047
X005176Y00315
X004802Y0014961
X00585Y0013587
Y0025551
X0146787Y0049
X0153969Y0048968
X0161024
T02
X000972Y00095
X0019721
X0166413Y0009449
X0176413
Y0068504
X0166413
X0019721Y0062205
X000972
=======
X0120866Y0135827
X01215Y0147
X015176Y01315
X014802Y0114961
X01585Y0113587
Y0125551
X0246Y0149
X0252
T02
X0117201Y01095
X0127201
X0254602Y0109449
X0264602
Y0168504
X0254602
X0127201Y0161811
X0117201
>>>>>>> 4e0b3683575d4fa8bc2fa5a38cc8482e5bfbb278
M30
