G04*
G04 #@! TF.GenerationSoftware,Altium Limited,Altium Designer,21.5.1 (32)*
G04*
G04 Layer_Color=32768*
%FSLAX25Y25*%
%MOIN*%
G70*
G04*
G04 #@! TF.SameCoordinates,27B40785-D3C1-427D-BBF8-63A11A4F9794*
G04*
G04*
G04 #@! TF.FilePolarity,Positive*
G04*
G01*
G75*
%ADD13C,0.00394*%
%ADD30C,0.00197*%
D13*
X177559Y149213D02*
X181496D01*
X179528Y147244D02*
Y151181D01*
X162205Y124213D02*
Y127756D01*
X160433Y125984D02*
X163976D01*
X146063Y153543D02*
Y157480D01*
X144095Y155512D02*
X148031D01*
X210236Y142913D02*
Y146850D01*
X208268Y144882D02*
X212205D01*
X146063Y135433D02*
Y138976D01*
X144291Y137205D02*
X147835D01*
X183071Y125984D02*
X186614D01*
X184843Y124213D02*
Y127756D01*
X207331Y124016D02*
Y127953D01*
X205362Y125984D02*
X209299D01*
D30*
X161024Y135433D02*
Y162992D01*
X198031Y135433D02*
Y162992D01*
X161024D02*
X198031D01*
X161024Y135433D02*
X198031D01*
X156299Y128937D02*
X168110D01*
X156299Y123031D02*
X168110D01*
X156299D02*
Y128937D01*
X168110Y123031D02*
Y128937D01*
X142323Y162205D02*
X149803D01*
X142323Y148819D02*
X149803D01*
Y162205D01*
X142323Y148819D02*
Y162205D01*
X206496Y151575D02*
X213976D01*
X206496Y138189D02*
X213976D01*
Y151575D01*
X206496Y138189D02*
Y151575D01*
X143110Y143110D02*
X149016D01*
X143110Y131299D02*
X149016D01*
Y143110D01*
X143110Y131299D02*
Y143110D01*
X190748Y123031D02*
Y128937D01*
X178937Y123031D02*
Y128937D01*
Y123031D02*
X190748D01*
X178937Y128937D02*
X190748D01*
X200638Y122244D02*
X214024D01*
X200638Y129724D02*
X214024D01*
Y122244D02*
Y129724D01*
X200638Y122244D02*
Y129724D01*
M02*
