G04*
G04 #@! TF.GenerationSoftware,Altium Limited,Altium Designer,21.5.1 (32)*
G04*
G04 Layer_Color=65535*
%FSLAX25Y25*%
%MOIN*%
G70*
G04*
G04 #@! TF.SameCoordinates,CCD3DE6C-E2ED-4FCE-8E5A-4F3322D5B5BE*
G04*
G04*
G04 #@! TF.FilePolarity,Positive*
G04*
G01*
G75*
%ADD10C,0.00984*%
%ADD11C,0.02362*%
%ADD12C,0.00787*%
%ADD13C,0.00394*%
%ADD14C,0.01000*%
D10*
X165748Y160059D02*
G03*
X165748Y160059I-492J0D01*
G01*
D11*
X175197Y158071D02*
G03*
X175197Y158071I-1181J0D01*
G01*
D12*
X170079Y136417D02*
Y162008D01*
X188976Y136417D02*
Y162008D01*
X170079D02*
X188976D01*
X170079Y136417D02*
X188976D01*
X117323Y124409D02*
X119422D01*
X118372Y125459D02*
Y123359D01*
X122571Y125983D02*
X120471D01*
Y124409D01*
X121521Y124934D01*
X122046D01*
X122571Y124409D01*
Y123359D01*
X122046Y122835D01*
X120996D01*
X120471Y123359D01*
X123620Y125983D02*
Y123884D01*
X124670Y122835D01*
X125719Y123884D01*
Y125983D01*
X119685Y176377D02*
X121784D01*
X120735D01*
Y173228D01*
X124408D02*
X123358D01*
X122834Y173753D01*
Y174803D01*
X123358Y175327D01*
X124408D01*
X124933Y174803D01*
Y174278D01*
X122834D01*
X126507Y175327D02*
X127557D01*
X128081Y174803D01*
Y173228D01*
X126507D01*
X125982Y173753D01*
X126507Y174278D01*
X128081D01*
X129131Y173228D02*
Y175327D01*
X129656D01*
X130180Y174803D01*
Y173228D01*
Y174803D01*
X130705Y175327D01*
X131230Y174803D01*
Y173228D01*
X135428D02*
Y176377D01*
X137002D01*
X137527Y175852D01*
Y174803D01*
X137002Y174278D01*
X135428D01*
X138577Y176377D02*
Y173228D01*
Y174803D01*
X139101Y175327D01*
X140151D01*
X140676Y174803D01*
Y173228D01*
X142250Y175327D02*
X143299D01*
X143824Y174803D01*
Y173228D01*
X142250D01*
X141725Y173753D01*
X142250Y174278D01*
X143824D01*
X144874Y173228D02*
Y175327D01*
X146448D01*
X146973Y174803D01*
Y173228D01*
X148547Y175852D02*
Y175327D01*
X148022D01*
X149072D01*
X148547D01*
Y173753D01*
X149072Y173228D01*
X151171D02*
X152220D01*
X152745Y173753D01*
Y174803D01*
X152220Y175327D01*
X151171D01*
X150646Y174803D01*
Y173753D01*
X151171Y173228D01*
X153795D02*
Y175327D01*
X154320D01*
X154844Y174803D01*
Y173228D01*
Y174803D01*
X155369Y175327D01*
X155894Y174803D01*
Y173228D01*
X162191Y176377D02*
X160092D01*
Y174803D01*
X161142Y175327D01*
X161666D01*
X162191Y174803D01*
Y173753D01*
X161666Y173228D01*
X160617D01*
X160092Y173753D01*
X165340Y176377D02*
X163241D01*
Y174803D01*
X164290Y175327D01*
X164815D01*
X165340Y174803D01*
Y173753D01*
X164815Y173228D01*
X163765D01*
X163241Y173753D01*
X168488Y176377D02*
X166389D01*
Y174803D01*
X167439Y175327D01*
X167963D01*
X168488Y174803D01*
Y173753D01*
X167963Y173228D01*
X166914D01*
X166389Y173753D01*
X119816Y150655D02*
X119291Y151180D01*
X118241D01*
X117717Y150655D01*
Y148556D01*
X118241Y148031D01*
X119291D01*
X119816Y148556D01*
Y149606D01*
X118766D01*
X120865Y148031D02*
Y151180D01*
X122964Y148031D01*
Y151180D01*
X124014D02*
Y148031D01*
X125588D01*
X126113Y148556D01*
Y150655D01*
X125588Y151180D01*
X124014D01*
D13*
X156205Y122984D02*
X168205D01*
X156205D02*
Y128984D01*
X168205D01*
Y122984D02*
Y128984D01*
X142563Y162012D02*
X149563D01*
X142563Y149012D02*
Y162012D01*
Y149012D02*
X149563D01*
Y162012D01*
X206736Y151382D02*
X213736D01*
X206736Y138382D02*
Y151382D01*
Y138382D02*
X213736D01*
Y151382D01*
X143063Y143205D02*
X149063D01*
X143063Y131205D02*
Y143205D01*
Y131205D02*
X149063D01*
Y143205D01*
X190842Y122984D02*
Y128984D01*
X178842D02*
X190842D01*
X178842Y122984D02*
Y128984D01*
Y122984D02*
X190842D01*
X200831Y129484D02*
X213831D01*
Y122484D02*
Y129484D01*
X200831Y122484D02*
X213831D01*
X200831D02*
Y129484D01*
D14*
X106843Y140551D02*
Y138552D01*
Y139551D01*
X111842D01*
X112842Y138552D01*
Y137552D01*
X111842Y136553D01*
X112842Y142551D02*
Y144550D01*
Y143550D01*
X106843D01*
X107843Y142551D01*
X175923Y170322D02*
Y165323D01*
X176922Y164324D01*
X178922D01*
X179921Y165323D01*
Y170322D01*
X181921Y164324D02*
X183920D01*
X182920D01*
Y170322D01*
X181921Y169322D01*
X180041Y114717D02*
Y120716D01*
X183040D01*
X184040Y119716D01*
Y117717D01*
X183040Y116717D01*
X180041D01*
X182040D02*
X184040Y114717D01*
X186039Y119716D02*
X187039Y120716D01*
X189038D01*
X190038Y119716D01*
Y118716D01*
X189038Y117717D01*
X188038D01*
X189038D01*
X190038Y116717D01*
Y115717D01*
X189038Y114717D01*
X187039D01*
X186039Y115717D01*
X138432Y132206D02*
X132434D01*
Y135205D01*
X133434Y136205D01*
X135433D01*
X136433Y135205D01*
Y132206D01*
Y134206D02*
X138432Y136205D01*
Y142203D02*
Y138204D01*
X134433Y142203D01*
X133434D01*
X132434Y141203D01*
Y139204D01*
X133434Y138204D01*
X159781Y115111D02*
Y121109D01*
X162780D01*
X163779Y120110D01*
Y118110D01*
X162780Y117111D01*
X159781D01*
X161780D02*
X163779Y115111D01*
X165779D02*
X167778D01*
X166779D01*
Y121109D01*
X165779Y120110D01*
X203088Y119928D02*
Y113930D01*
X206087D01*
X207087Y114930D01*
Y118929D01*
X206087Y119928D01*
X203088D01*
X209086Y113930D02*
X211085D01*
X210086D01*
Y119928D01*
X209086Y118929D01*
X133827Y154512D02*
X132828Y153513D01*
Y151513D01*
X133827Y150513D01*
X137826D01*
X138826Y151513D01*
Y153513D01*
X137826Y154512D01*
X138826Y160510D02*
Y156511D01*
X134827Y160510D01*
X133827D01*
X132828Y159511D01*
Y157511D01*
X133827Y156511D01*
X216505Y144488D02*
X215505Y143489D01*
Y141489D01*
X216505Y140489D01*
X220503D01*
X221503Y141489D01*
Y143489D01*
X220503Y144488D01*
X221503Y146488D02*
Y148487D01*
Y147487D01*
X215505D01*
X216505Y146488D01*
M02*
