G04*
G04 #@! TF.GenerationSoftware,Altium Limited,Altium Designer,21.5.1 (32)*
G04*
G04 Layer_Color=32896*
%FSLAX25Y25*%
%MOIN*%
G70*
G04*
G04 #@! TF.SameCoordinates,CCD3DE6C-E2ED-4FCE-8E5A-4F3322D5B5BE*
G04*
G04*
G04 #@! TF.FilePolarity,Positive*
G04*
G01*
G75*
%ADD12C,0.00787*%
D12*
X212992Y173227D02*
Y170079D01*
Y171128D01*
X210893Y173227D01*
X212467Y171653D01*
X210893Y170079D01*
X209843D02*
X208794D01*
X209319D01*
Y172178D01*
X209843D01*
X207220Y170079D02*
Y172178D01*
X206695D01*
X206170Y171653D01*
Y170079D01*
Y171653D01*
X205645Y172178D01*
X205121Y171653D01*
Y170079D01*
X204071D02*
X203022D01*
X203546D01*
Y172178D01*
X204071D01*
X200922D02*
X199873D01*
X199348Y171653D01*
Y170079D01*
X200922D01*
X201447Y170604D01*
X200922Y171128D01*
X199348D01*
X195150Y170079D02*
Y173227D01*
X193576D01*
X193051Y172703D01*
Y171653D01*
X193576Y171128D01*
X195150D01*
X194101D02*
X193051Y170079D01*
X190427D02*
X191477D01*
X192001Y170604D01*
Y171653D01*
X191477Y172178D01*
X190427D01*
X189902Y171653D01*
Y171128D01*
X192001D01*
X188853Y172178D02*
X186754D01*
X188853Y170079D01*
X186754D01*
X185180Y172178D02*
X184130D01*
X183605Y171653D01*
Y170079D01*
X185180D01*
X185704Y170604D01*
X185180Y171128D01*
X183605D01*
X180981Y170079D02*
X182031D01*
X182556Y170604D01*
Y171653D01*
X182031Y172178D01*
X180981D01*
X180457Y171653D01*
Y171128D01*
X182556D01*
X179407Y170079D02*
X178358D01*
X178882D01*
Y172178D01*
X179407D01*
X176259D02*
X175209D01*
X174684Y171653D01*
Y170079D01*
X176259D01*
X176783Y170604D01*
X176259Y171128D01*
X174684D01*
X173635Y170079D02*
Y172178D01*
X172060D01*
X171536Y171653D01*
Y170079D01*
M02*
