G04*
G04 #@! TF.GenerationSoftware,Altium Limited,Altium Designer,21.5.1 (32)*
G04*
G04 Layer_Physical_Order=1*
G04 Layer_Color=255*
%FSLAX25Y25*%
%MOIN*%
G70*
G04*
G04 #@! TF.SameCoordinates,CCD3DE6C-E2ED-4FCE-8E5A-4F3322D5B5BE*
G04*
G04*
G04 #@! TF.FilePolarity,Positive*
G04*
G01*
G75*
%ADD14C,0.01000*%
%ADD15O,0.06496X0.02362*%
%ADD16R,0.03937X0.03740*%
%ADD17R,0.05512X0.04724*%
%ADD18R,0.03740X0.03937*%
%ADD19R,0.03150X0.03150*%
%ADD28C,0.02953*%
%ADD29C,0.05512*%
%ADD30C,0.05000*%
G36*
X170079Y162205D02*
X170472D01*
Y156299D01*
X169995Y155822D01*
X169882Y155836D01*
X169612Y156213D01*
X165256D01*
X161065D01*
X161134Y155862D01*
X161560Y155224D01*
X161407Y154724D01*
X149819D01*
Y158358D01*
X146063D01*
Y158858D01*
X145563D01*
Y162221D01*
X142849D01*
X142642Y162721D01*
X144882Y164961D01*
X153833D01*
X154003Y164461D01*
X153803Y164307D01*
X153242Y163576D01*
X152889Y162725D01*
X152835Y162311D01*
X159764D01*
X159709Y162725D01*
X159356Y163576D01*
X158795Y164307D01*
X158596Y164461D01*
X158765Y164961D01*
X167323D01*
X170079Y162205D01*
D02*
G37*
G36*
X200394Y172539D02*
X200394Y155118D01*
X199213Y153937D01*
X188189D01*
X186614Y155512D01*
Y166142D01*
X184252Y168504D01*
X140157D01*
Y123228D01*
X140551Y122835D01*
X162205D01*
Y123114D01*
X164657D01*
Y125984D01*
X165157D01*
Y126484D01*
X168126D01*
Y126772D01*
X170472D01*
Y114961D01*
X115395D01*
X115174Y115409D01*
X115336Y115620D01*
X115833Y116821D01*
X116003Y118110D01*
X115833Y119399D01*
X115336Y120600D01*
X114545Y121631D01*
X113513Y122423D01*
X112312Y122920D01*
X111024Y123090D01*
X109735Y122920D01*
X109471Y122811D01*
X109055Y123089D01*
X109055Y132283D01*
X114567Y137795D01*
X129134D01*
Y172441D01*
X135039Y178347D01*
X195149D01*
X200394Y172539D01*
D02*
G37*
%LPC*%
G36*
X149819Y162221D02*
X146563D01*
Y159358D01*
X149819D01*
Y162221D01*
D02*
G37*
G36*
X159764Y161311D02*
X156799D01*
Y158347D01*
X157213Y158401D01*
X158064Y158754D01*
X158795Y159315D01*
X159356Y160046D01*
X159709Y160897D01*
X159764Y161311D01*
D02*
G37*
G36*
X155799D02*
X152835D01*
X152889Y160897D01*
X153242Y160046D01*
X153803Y159315D01*
X154534Y158754D01*
X155385Y158401D01*
X155799Y158347D01*
Y161311D01*
D02*
G37*
G36*
X167323Y158936D02*
X165756D01*
Y157213D01*
X169447D01*
X169377Y157564D01*
X168895Y158285D01*
X168174Y158767D01*
X167323Y158936D01*
D02*
G37*
G36*
X164756D02*
X163189D01*
X162338Y158767D01*
X161617Y158285D01*
X161134Y157564D01*
X161065Y157213D01*
X164756D01*
Y158936D01*
D02*
G37*
G36*
X195866D02*
X194299D01*
Y157213D01*
X197991D01*
X197921Y157564D01*
X197439Y158285D01*
X196717Y158767D01*
X195866Y158936D01*
D02*
G37*
G36*
X193299D02*
X191732D01*
X190881Y158767D01*
X190160Y158285D01*
X189678Y157564D01*
X189608Y157213D01*
X193299D01*
Y158936D01*
D02*
G37*
G36*
X197991Y156213D02*
X194299D01*
Y154489D01*
X195866D01*
X196717Y154658D01*
X197439Y155140D01*
X197921Y155862D01*
X197991Y156213D01*
D02*
G37*
G36*
X193299D02*
X189608D01*
X189678Y155862D01*
X190160Y155140D01*
X190881Y154658D01*
X191732Y154489D01*
X193299D01*
Y156213D01*
D02*
G37*
G36*
X119398Y135455D02*
Y132232D01*
X122620D01*
X122557Y132713D01*
X122178Y133626D01*
X121576Y134411D01*
X120792Y135013D01*
X119878Y135391D01*
X119398Y135455D01*
D02*
G37*
G36*
X118398D02*
X117917Y135391D01*
X117004Y135013D01*
X116219Y134411D01*
X115617Y133626D01*
X115238Y132713D01*
X115175Y132232D01*
X118398D01*
Y135455D01*
D02*
G37*
G36*
X122620Y131232D02*
X119398D01*
Y128010D01*
X119878Y128073D01*
X120792Y128452D01*
X121576Y129053D01*
X122178Y129838D01*
X122557Y130752D01*
X122620Y131232D01*
D02*
G37*
G36*
X118398D02*
X115175D01*
X115238Y130752D01*
X115617Y129838D01*
X116219Y129053D01*
X117004Y128452D01*
X117917Y128073D01*
X118398Y128010D01*
Y131232D01*
D02*
G37*
G36*
X168126Y125484D02*
X165657D01*
Y123114D01*
X168126D01*
Y125484D01*
D02*
G37*
%LPD*%
D14*
X165256Y140945D02*
Y141713D01*
X174016Y138976D02*
X180176Y145137D01*
X186614Y145276D02*
X188051Y146713D01*
X172297Y145178D02*
X173379D01*
X218664Y125984D02*
X221260Y128580D01*
Y132677D01*
X210236Y125984D02*
X218664D01*
X163689Y157342D02*
X164318Y156713D01*
X165256D01*
X210236Y148228D02*
Y160630D01*
X159153Y125984D02*
Y131004D01*
X154702Y135455D02*
Y137424D01*
X153937Y138189D02*
X154702Y137424D01*
Y135455D02*
X159153Y131004D01*
X180176Y146318D02*
X185571Y151713D01*
X180176Y145137D02*
Y146318D01*
X165157Y125984D02*
X165256Y126083D01*
X170762Y146713D02*
X172297Y145178D01*
X185571Y151713D02*
X193799D01*
X165256D02*
X173484D01*
X173622Y151575D01*
X146063Y140157D02*
Y152165D01*
X165256Y146713D02*
X170762D01*
X148819Y125984D02*
X159252D01*
X165256Y141713D02*
X165709D01*
X188051Y146713D02*
X193799D01*
X181496Y126378D02*
X181890Y125984D01*
X181496Y126378D02*
Y136221D01*
X187795Y125984D02*
X204331D01*
X193799Y141713D02*
X210059D01*
X210236Y141535D01*
X146457Y128347D02*
X148819Y125984D01*
X146457Y128347D02*
Y133858D01*
X146063Y134252D02*
X146457Y133858D01*
X146063Y152165D02*
X146516Y151713D01*
X165256D01*
D15*
Y156713D02*
D03*
Y151713D02*
D03*
Y146713D02*
D03*
Y141713D02*
D03*
X193799Y156713D02*
D03*
Y151713D02*
D03*
Y146713D02*
D03*
Y141713D02*
D03*
D16*
X159252Y125984D02*
D03*
X165157D02*
D03*
X187795D02*
D03*
X181890D02*
D03*
D17*
X146063Y158858D02*
D03*
Y152165D02*
D03*
X210236Y148228D02*
D03*
Y141535D02*
D03*
D18*
X146063Y140157D02*
D03*
Y134252D02*
D03*
D19*
X204331Y125984D02*
D03*
X210236D02*
D03*
D28*
X165157Y140847D02*
X165256Y140945D01*
X165157Y125984D02*
Y140847D01*
D29*
X118898Y131732D02*
D03*
Y141732D02*
D03*
D30*
X174016Y138976D02*
D03*
X186614Y145276D02*
D03*
X173379Y145178D02*
D03*
X221260Y132677D02*
D03*
X210236Y160630D02*
D03*
X156299Y161811D02*
D03*
X153937Y138189D02*
D03*
X173622Y151575D02*
D03*
X181496Y136221D02*
D03*
M02*
