M48
;Layer_Color=9474304
;FILE_FORMAT=2:5
INCH,LZ
;TYPE=PLATED
T1F00S00C0.02800
T2F00S00C0.03150
T3F00S00C0.07087
T4F00S00C0.12205
T5F00S00C0.15748
%
T01
X00345Y0024
X00785Y0037295
X0073Y0065156
X0125Y00575
X01485Y0048
X0163779Y0058459
X018428Y00435
X0209573Y0034528
X0217221Y0035762
X0216807Y0026437
X0208268
X0224337Y0030528
Y0039028
X01585Y0013
X0196572Y0126
T02
X0162376Y0156496
X017025
X0178124
X0185998
X0193872
X0201746
X020962
X0217494
X0225368
X0233242
Y0166339
X0225368
X0217494
X020962
X0201746
X0193872
X0185998
X0178124
X017025
X0162376
X0154502
X0146628
X0138754
X013088
X0123006
X0115132
Y0156496
X0123006
X013088
X0138754
X0146628
X0154502
T03
X00465Y0119685
Y0141339
X0081646
Y0119685
T04
X00465Y0170079
X0081646
T05
X0015748Y0015748
X0259842
Y0188976
X0015748
M30
